<svg xmlns="http://www.w3.org/2000/svg" xmlns:xlink="http://www.w3.org/1999/xlink" class="httpgd" width="1469.00" height="1172.00" viewBox="0 0 503.66 401.83">
<defs>
  <style type='text/css'><![CDATA[
    .httpgd line, .httpgd polyline, .httpgd polygon, .httpgd path, .httpgd rect, .httpgd circle {
      fill: none;
      stroke: #000000;
      stroke-linecap: round;
      stroke-linejoin: round;
      stroke-miterlimit: 10.00;
    }
  ]]></style>
<clipPath id="c0"><rect x="0.00" y="0.00" width="503.66" height="401.83"/></clipPath>
<clipPath id="c1"><rect x="38.94" y="24.55" width="226.38" height="284.20"/></clipPath>
<clipPath id="c2"><rect x="0.00" y="0.00" width="503.66" height="401.83"/></clipPath>
<clipPath id="c3"><rect x="271.30" y="24.55" width="226.38" height="284.20"/></clipPath>
<clipPath id="c4"><rect x="0.00" y="0.00" width="503.66" height="401.83"/></clipPath>
<clipPath id="c5"><rect x="38.94" y="5.98" width="226.38" height="18.57"/></clipPath>
<clipPath id="c6"><rect x="0.00" y="0.00" width="503.66" height="401.83"/></clipPath>
<clipPath id="c7"><rect x="271.30" y="5.98" width="226.38" height="18.57"/></clipPath>
<clipPath id="c8"><rect x="0.00" y="0.00" width="503.66" height="401.83"/></clipPath>
</defs>
<rect width="100%" height="100%" style="stroke: none;fill: #FFFFFF;"/>
<g clip-path="url(#c0)">
<rect x="-0.00" y="0.00" width="503.66" height="401.83" style="stroke-width: 1.16;stroke: #FFFFFF;fill: #FFFFFF;"/>
</g><g clip-path="url(#c1)">
<rect x="38.94" y="24.55" width="226.38" height="284.20" style="stroke-width: 1.16;stroke: none;fill: #FFFFFF;"/>
<polyline points="38.94,259.78 265.32,259.78" style="stroke-width: 0.58;stroke: #F0F0F0;stroke-linecap: butt;"/>
<polyline points="38.94,187.70 265.32,187.70" style="stroke-width: 0.58;stroke: #F0F0F0;stroke-linecap: butt;"/>
<polyline points="38.94,115.61 265.32,115.61" style="stroke-width: 0.58;stroke: #F0F0F0;stroke-linecap: butt;"/>
<polyline points="38.94,43.52 265.32,43.52" style="stroke-width: 0.58;stroke: #F0F0F0;stroke-linecap: butt;"/>
<polyline points="74.20,308.74 74.20,24.55" style="stroke-width: 0.58;stroke: #F0F0F0;stroke-linecap: butt;"/>
<polyline points="125.87,308.74 125.87,24.55" style="stroke-width: 0.58;stroke: #F0F0F0;stroke-linecap: butt;"/>
<polyline points="177.53,308.74 177.53,24.55" style="stroke-width: 0.58;stroke: #F0F0F0;stroke-linecap: butt;"/>
<polyline points="229.20,308.74 229.20,24.55" style="stroke-width: 0.58;stroke: #F0F0F0;stroke-linecap: butt;"/>
<polyline points="38.94,295.83 265.32,295.83" style="stroke-width: 1.16;stroke: #F0F0F0;stroke-linecap: butt;"/>
<polyline points="38.94,223.74 265.32,223.74" style="stroke-width: 1.16;stroke: #F0F0F0;stroke-linecap: butt;"/>
<polyline points="38.94,151.65 265.32,151.65" style="stroke-width: 1.16;stroke: #F0F0F0;stroke-linecap: butt;"/>
<polyline points="38.94,79.57 265.32,79.57" style="stroke-width: 1.16;stroke: #F0F0F0;stroke-linecap: butt;"/>
<polyline points="48.37,308.74 48.37,24.55" style="stroke-width: 1.16;stroke: #F0F0F0;stroke-linecap: butt;"/>
<polyline points="100.04,308.74 100.04,24.55" style="stroke-width: 1.16;stroke: #F0F0F0;stroke-linecap: butt;"/>
<polyline points="151.70,308.74 151.70,24.55" style="stroke-width: 1.16;stroke: #F0F0F0;stroke-linecap: butt;"/>
<polyline points="203.37,308.74 203.37,24.55" style="stroke-width: 1.16;stroke: #F0F0F0;stroke-linecap: butt;"/>
<polyline points="255.03,308.74 255.03,24.55" style="stroke-width: 1.16;stroke: #F0F0F0;stroke-linecap: butt;"/>
<polyline points="49.23,55.35 50.09,55.35 50.09,55.23 50.95,55.23 50.95,55.31 51.81,55.31 51.81,55.15 52.68,55.15 52.68,55.12 53.54,55.12 53.54,55.05 54.40,55.05 54.40,54.98 55.26,54.98 55.26,54.94 56.12,54.94 56.12,54.89 56.98,54.89 56.98,54.73 57.84,54.73 57.84,54.58 58.70,54.58 58.70,54.70 59.56,54.70 59.56,54.57 60.43,54.57 60.43,54.62 61.29,54.62 61.29,54.49 62.15,54.49 62.15,54.32 63.01,54.32 63.01,54.38 63.87,54.38 63.87,54.30 64.73,54.30 64.73,54.33 65.59,54.33 65.59,54.18 66.45,54.18 66.45,54.18 67.31,54.18 67.31,54.26 68.18,54.26 68.18,54.39 69.04,54.39 69.04,54.28 69.90,54.28 69.90,54.21 70.76,54.21 70.76,54.35 71.62,54.35 71.62,54.19 72.48,54.19 72.48,54.15 73.34,54.15 73.34,54.15 74.20,54.15 74.20,54.15 75.06,54.15 75.06,54.17 75.93,54.17 75.93,54.17 76.79,54.17 76.79,54.36 77.65,54.36 77.65,54.24 78.51,54.24 78.51,54.35 79.37,54.35 79.37,54.23 80.23,54.23 80.23,54.35 81.09,54.35 81.09,54.29 81.95,54.29 81.95,54.17 82.81,54.17 82.81,54.19 83.67,54.19 83.67,54.33 84.54,54.33 84.54,54.47 85.40,54.47 85.40,54.39 86.26,54.39 86.26,54.45 87.12,54.45 87.12,54.49 87.98,54.49 87.98,54.63 88.84,54.63 88.84,54.59 89.70,54.59 89.70,54.38 90.56,54.38 90.56,54.58 91.42,54.58 91.42,54.49 92.29,54.49 92.29,54.59 93.15,54.59 93.15,54.59 94.01,54.59 94.01,54.85 94.87,54.85 94.87,54.98 95.73,54.98 95.73,55.00 96.59,55.00 96.59,54.90 97.45,54.90 97.45,55.05 98.31,55.05 98.31,55.04 99.17,55.04 99.17,55.14 100.04,55.14 100.04,55.14 100.90,55.14 100.90,54.89 101.76,54.89 101.76,55.22 102.62,55.22 102.62,55.10 103.48,55.10 103.48,55.08 104.34,55.08 104.34,55.10 105.20,55.10 105.20,55.12 106.06,55.12 106.06,55.08 106.92,55.08 106.92,55.12 107.79,55.12 107.79,55.19 108.65,55.19 108.65,55.06 109.51,55.06 109.51,55.25 110.37,55.25 110.37,55.09 111.23,55.09 111.23,54.87 112.09,54.87 112.09,55.00 112.95,55.00 112.95,54.89 113.81,54.89 113.81,54.99 114.67,54.99 114.67,55.03 115.54,55.03 115.54,55.18 116.40,55.18 116.40,55.37 117.26,55.37 117.26,55.45 118.12,55.45 118.12,55.44 118.98,55.44 118.98,55.38 119.84,55.38 119.84,55.49 120.70,55.49 120.70,55.48 121.56,55.48 121.56,55.52 122.42,55.52 122.42,55.67 123.29,55.67 123.29,55.60 124.15,55.60 124.15,55.69 125.01,55.69 125.01,55.82 125.87,55.82 125.87,55.96 126.73,55.96 126.73,55.87 127.59,55.87 127.59,55.70 128.45,55.70 128.45,55.69 129.31,55.69 129.31,55.89 130.17,55.89 130.17,55.84 131.03,55.84 131.03,55.72 131.90,55.72 131.90,55.94 132.76,55.94 132.76,55.88 133.62,55.88 133.62,55.77 134.48,55.77 134.48,55.59 135.34,55.59 135.34,55.58 136.20,55.58 136.20,55.65 137.06,55.65 137.06,55.65 137.92,55.65 137.92,55.73 138.78,55.73 138.78,55.56 139.65,55.56 139.65,55.74 140.51,55.74 140.51,55.58 141.37,55.58 141.37,55.50 142.23,55.50 142.23,55.57 143.09,55.57 143.09,55.84 143.95,55.84 143.95,55.61 144.81,55.61 144.81,55.56 145.67,55.56 145.67,55.38 146.53,55.38 146.53,55.20 147.40,55.20 147.40,55.25 148.26,55.25 148.26,55.17 149.12,55.17 149.12,55.29 149.98,55.29 149.98,55.41 150.84,55.41 150.84,55.30 151.70,55.30 151.70,55.28 152.56,55.28 152.56,55.13 153.42,55.13 153.42,55.13 154.28,55.13 154.28,54.99 155.15,54.99 155.15,54.95 156.01,54.95 156.01,54.87 156.87,54.87 156.87,54.74 157.73,54.74 157.73,54.66 158.59,54.66 158.59,54.63 159.45,54.63 159.45,55.23 160.31,55.23 160.31,55.12 161.17,55.12 161.17,55.01 162.03,55.01 162.03,54.91 162.90,54.91 162.90,54.76 163.76,54.76 163.76,54.46 164.62,54.46 164.62,54.49 165.48,54.49 165.48,54.62 166.34,54.62 166.34,54.87 167.20,54.87 167.20,54.75 168.06,54.75 168.06,54.63 168.92,54.63 168.92,54.79 169.78,54.79 169.78,54.68 170.64,54.68 170.64,54.86 171.51,54.86 171.51,54.81 172.37,54.81 172.37,54.66 173.23,54.66 173.23,55.15 174.09,55.15 174.09,54.85 174.95,54.85 174.95,54.90 175.81,54.90 175.81,54.85 176.67,54.85 176.67,54.91 177.53,54.91 177.53,54.86 178.39,54.86 178.39,55.11 179.26,55.11 179.26,55.02 180.12,55.02 180.12,54.93 180.98,54.93 180.98,55.08 181.84,55.08 181.84,55.06 182.70,55.06 182.70,54.99 183.56,54.99 183.56,54.88 184.42,54.88 184.42,54.77 185.28,54.77 185.28,54.48 186.14,54.48 186.14,54.12 187.01,54.12 187.01,54.21 187.87,54.21 187.87,54.31 188.73,54.31 188.73,54.15 189.59,54.15 189.59,54.06 190.45,54.06 190.45,53.91 191.31,53.91 191.31,53.69 192.17,53.69 192.17,53.48 193.03,53.48 193.03,53.67 193.89,53.67 193.89,53.35 194.76,53.35 194.76,53.44 195.62,53.44 195.62,53.46 196.48,53.46 196.48,53.36 197.34,53.36 197.34,53.13 198.20,53.13 198.20,53.31 199.06,53.31 199.06,53.50 199.92,53.50 199.92,53.49 200.78,53.49 200.78,53.49 201.64,53.49 201.64,53.21 202.51,53.21 202.51,53.22 203.37,53.22 203.37,52.80 204.23,52.80 204.23,52.69 205.09,52.69 205.09,52.38 205.95,52.38 205.95,52.28 206.81,52.28 206.81,51.90 207.67,51.90 207.67,51.96 208.53,51.96 208.53,52.11 209.39,52.11 209.39,52.20 210.26,52.20 210.26,52.44 211.12,52.44 211.12,52.31 211.98,52.31 211.98,52.03 212.84,52.03 212.84,52.61 213.70,52.61 213.70,52.49 214.56,52.49 214.56,52.49 215.42,52.49 215.42,52.26 216.28,52.26 216.28,52.75 217.14,52.75 217.14,52.53 218.00,52.53 218.00,52.47 218.87,52.47 218.87,52.67 219.73,52.67 219.73,52.71 220.59,52.71 220.59,52.84 221.45,52.84 221.45,52.90 222.31,52.90 222.31,53.05 223.17,53.05 223.17,52.87 224.03,52.87 224.03,53.38 224.89,53.38 224.89,52.89 225.75,52.89 225.75,52.84 226.62,52.84 226.62,52.80 227.48,52.80 227.48,52.85 228.34,52.85 228.34,53.26 229.20,53.26 229.20,53.07 230.06,53.07 230.06,52.96 230.92,52.96 230.92,52.85 231.78,52.85 231.78,53.21 232.64,53.21 232.64,53.22 233.50,53.22 233.50,53.42 234.37,53.42 234.37,53.91 235.23,53.91 235.23,53.52 236.09,53.52 236.09,54.08 236.95,54.08 236.95,53.98 237.81,53.98 237.81,54.18 238.67,54.18 238.67,53.90 239.53,53.90 239.53,53.63 240.39,53.63 240.39,53.95 241.25,53.95 241.25,53.79 242.12,53.79 242.12,53.53 242.98,53.53 242.98,53.27 243.84,53.27 243.84,53.32 244.70,53.32 244.70,53.08 245.56,53.08 245.56,52.99 246.42,52.99 246.42,53.12 247.28,53.12 247.28,53.37 248.14,53.37 248.14,53.20 249.00,53.20 249.00,53.24 249.87,53.24 249.87,53.09 250.73,53.09 250.73,53.05 251.59,53.05 251.59,53.14 252.45,53.14 252.45,53.12 253.31,53.12 253.31,52.66 254.17,52.66 254.17,52.65 255.03,52.65 255.03,52.31" style="stroke-width: 0.64;stroke: #8A9045;stroke-linecap: butt;"/>
<polyline points="49.23,55.32 50.09,55.32 50.09,55.04 50.95,55.04 50.95,54.93 51.81,54.93 51.81,55.16 52.68,55.16 52.68,54.94 53.54,54.94 53.54,54.95 54.40,54.95 54.40,54.73 55.26,54.73 55.26,54.92 56.12,54.92 56.12,54.82 56.98,54.82 56.98,55.25 57.84,55.25 57.84,55.28 58.70,55.28 58.70,55.48 59.56,55.48 59.56,55.48 60.43,55.48 60.43,55.72 61.29,55.72 61.29,55.67 62.15,55.67 62.15,55.74 63.01,55.74 63.01,56.17 63.87,56.17 63.87,56.07 64.73,56.07 64.73,56.28 65.59,56.28 65.59,56.43 66.45,56.43 66.45,57.01 67.31,57.01 67.31,57.24 68.18,57.24 68.18,57.59 69.04,57.59 69.04,57.82 69.90,57.82 69.90,57.90 70.76,57.90 70.76,58.48 71.62,58.48 71.62,58.75 72.48,58.75 72.48,59.55 73.34,59.55 73.34,59.77 74.20,59.77 74.20,60.12 75.06,60.12 75.06,60.41 75.93,60.41 75.93,60.51 76.79,60.51 76.79,60.62 77.65,60.62 77.65,61.00 78.51,61.00 78.51,61.86 79.37,61.86 79.37,62.52 80.23,62.52 80.23,63.16 81.09,63.16 81.09,63.26 81.95,63.26 81.95,63.99 82.81,63.99 82.81,64.72 83.67,64.72 83.67,64.84 84.54,64.84 84.54,65.31 85.40,65.31 85.40,65.72 86.26,65.72 86.26,66.35 87.12,66.35 87.12,66.64 87.98,66.64 87.98,67.36 88.84,67.36 88.84,67.43 89.70,67.43 89.70,67.29 90.56,67.29 90.56,67.78 91.42,67.78 91.42,67.90 92.29,67.90 92.29,68.18 93.15,68.18 93.15,68.39 94.01,68.39 94.01,68.53 94.87,68.53 94.87,68.75 95.73,68.75 95.73,68.82 96.59,68.82 96.59,69.13 97.45,69.13 97.45,69.37 98.31,69.37 98.31,69.93 99.17,69.93 99.17,70.34 100.04,70.34 100.04,71.08 100.90,71.08 100.90,71.23 101.76,71.23 101.76,71.78 102.62,71.78 102.62,72.02 103.48,72.02 103.48,71.94 104.34,71.94 104.34,72.43 105.20,72.43 105.20,72.52 106.06,72.52 106.06,72.94 106.92,72.94 106.92,73.46 107.79,73.46 107.79,73.90 108.65,73.90 108.65,73.93 109.51,73.93 109.51,74.06 110.37,74.06 110.37,74.36 111.23,74.36 111.23,74.11 112.09,74.11 112.09,74.11 112.95,74.11 112.95,74.56 113.81,74.56 113.81,74.84 114.67,74.84 114.67,75.39 115.54,75.39 115.54,76.06 116.40,76.06 116.40,76.64 117.26,76.64 117.26,76.42 118.12,76.42 118.12,76.85 118.98,76.85 118.98,76.82 119.84,76.82 119.84,77.36 120.70,77.36 120.70,77.25 121.56,77.25 121.56,77.84 122.42,77.84 122.42,77.70 123.29,77.70 123.29,78.03 124.15,78.03 124.15,78.65 125.01,78.65 125.01,78.51 125.87,78.51 125.87,78.77 126.73,78.77 126.73,78.93 127.59,78.93 127.59,78.91 128.45,78.91 128.45,79.08 129.31,79.08 129.31,79.86 130.17,79.86 130.17,79.86 131.03,79.86 131.03,79.76 131.90,79.76 131.90,79.92 132.76,79.92 132.76,79.78 133.62,79.78 133.62,80.37 134.48,80.37 134.48,80.45 135.34,80.45 135.34,80.74 136.20,80.74 136.20,80.94 137.06,80.94 137.06,81.35 137.92,81.35 137.92,81.78 138.78,81.78 138.78,81.68 139.65,81.68 139.65,81.70 140.51,81.70 140.51,81.39 141.37,81.39 141.37,81.41 142.23,81.41 142.23,81.73 143.09,81.73 143.09,81.95 143.95,81.95 143.95,81.73 144.81,81.73 144.81,81.51 145.67,81.51 145.67,82.21 146.53,82.21 146.53,82.58 147.40,82.58 147.40,82.61 148.26,82.61 148.26,82.41 149.12,82.41 149.12,82.21 149.98,82.21 149.98,82.38 150.84,82.38 150.84,82.80 151.70,82.80 151.70,83.72 152.56,83.72 152.56,83.50 153.42,83.50 153.42,84.02 154.28,84.02 154.28,84.05 155.15,84.05 155.15,84.97 156.01,84.97 156.01,85.53 156.87,85.53 156.87,85.85 157.73,85.85 157.73,85.68 158.59,85.68 158.59,85.89 159.45,85.89 159.45,86.37 160.31,86.37 160.31,86.09 161.17,86.09 161.17,86.85 162.03,86.85 162.03,86.58 162.90,86.58 162.90,87.19 163.76,87.19 163.76,87.28 164.62,87.28 164.62,87.11 165.48,87.11 165.48,87.75 166.34,87.75 166.34,87.60 167.20,87.60 167.20,88.68 168.06,88.68 168.06,88.42 168.92,88.42 168.92,88.17 169.78,88.17 169.78,88.05 170.64,88.05 170.64,88.09 171.51,88.09 171.51,88.27 172.37,88.27 172.37,88.31 173.23,88.31 173.23,88.31 174.09,88.31 174.09,87.89 174.95,87.89 174.95,87.90 175.81,87.90 175.81,87.92 176.67,87.92 176.67,87.80 177.53,87.80 177.53,87.68 178.39,87.68 178.39,88.17 179.26,88.17 179.26,88.67 180.12,88.67 180.12,88.73 180.98,88.73 180.98,89.11 181.84,89.11 181.84,88.87 182.70,88.87 182.70,88.95 183.56,88.95 183.56,88.84 184.42,88.84 184.42,89.20 185.28,89.20 185.28,88.94 186.14,88.94 186.14,88.67 187.01,88.67 187.01,88.57 187.87,88.57 187.87,88.47 188.73,88.47 188.73,88.55 189.59,88.55 189.59,88.46 190.45,88.46 190.45,89.23 191.31,89.23 191.31,88.83 192.17,88.83 192.17,88.42 193.03,88.42 193.03,89.23 193.89,89.23 193.89,89.14 194.76,89.14 194.76,89.58 195.62,89.58 195.62,89.50 196.48,89.50 196.48,90.14 197.34,90.14 197.34,90.62 198.20,90.62 198.20,90.39 199.06,90.39 199.06,90.70 199.92,90.70 199.92,90.84 200.78,90.84 200.78,91.56 201.64,91.56 201.64,91.53 202.51,91.53 202.51,91.90 203.37,91.90 203.37,92.08 204.23,92.08 204.23,91.84 205.09,91.84 205.09,91.60 205.95,91.60 205.95,91.56 206.81,91.56 206.81,91.34 207.67,91.34 207.67,91.30 208.53,91.30 208.53,91.28 209.39,91.28 209.39,90.85 210.26,90.85 210.26,91.03 211.12,91.03 211.12,90.81 211.98,90.81 211.98,90.80 212.84,90.80 212.84,92.03 213.70,92.03 213.70,92.25 214.56,92.25 214.56,92.85 215.42,92.85 215.42,93.25 216.28,93.25 216.28,93.46 217.14,93.46 217.14,93.67 218.00,93.67 218.00,93.68 218.87,93.68 218.87,93.91 219.73,93.91 219.73,94.15 220.59,94.15 220.59,93.74 221.45,93.74 221.45,93.55 222.31,93.55 222.31,93.36 223.17,93.36 223.17,92.95 224.03,92.95 224.03,93.22 224.89,93.22 224.89,93.22 225.75,93.22 225.75,93.00 226.62,93.00 226.62,93.24 227.48,93.24 227.48,93.26 228.34,93.26 228.34,93.52 229.20,93.52 229.20,93.32 230.06,93.32 230.06,93.59 230.92,93.59 230.92,93.63 231.78,93.63 231.78,93.69 232.64,93.69 232.64,93.75 233.50,93.75 233.50,94.07 234.37,94.07 234.37,94.40 235.23,94.40 235.23,93.93 236.09,93.93 236.09,93.46 236.95,93.46 236.95,93.00 237.81,93.00 237.81,92.79 238.67,92.79 238.67,92.32 239.53,92.32 239.53,92.12 240.39,92.12 240.39,91.92 241.25,91.92 241.25,91.72 242.12,91.72 242.12,91.52 242.98,91.52 242.98,91.60 243.84,91.60 243.84,91.14 244.70,91.14 244.70,90.95 245.56,90.95 245.56,90.44 246.42,90.44 246.42,90.49 247.28,90.49 247.28,90.28 248.14,90.28 248.14,90.63 249.00,90.63 249.00,91.58 249.87,91.58 249.87,91.39 250.73,91.39 250.73,91.20 251.59,91.20 251.59,91.31 252.45,91.31 252.45,91.42 253.31,91.42 253.31,91.54 254.17,91.54 254.17,91.67 255.03,91.67 255.03,91.50" style="stroke-width: 0.64;stroke: #155F83;stroke-linecap: butt;"/>
<polyline points="49.23,55.21 50.09,55.21 50.09,54.98 50.95,54.98 50.95,54.95 51.81,54.95 51.81,55.22 52.68,55.22 52.68,56.09 53.54,56.09 53.54,56.77 54.40,56.77 54.40,57.56 55.26,57.56 55.26,58.27 56.12,58.27 56.12,59.28 56.98,59.28 56.98,60.21 57.84,60.21 57.84,60.34 58.70,60.34 58.70,61.40 59.56,61.40 59.56,61.69 60.43,61.69 60.43,63.13 61.29,63.13 61.29,63.54 62.15,63.54 62.15,64.91 63.01,64.91 63.01,66.28 63.87,66.28 63.87,67.57 64.73,67.57 64.73,68.98 65.59,68.98 65.59,69.65 66.45,69.65 66.45,71.42 67.31,71.42 67.31,72.13 68.18,72.13 68.18,72.75 69.04,72.75 69.04,73.49 69.90,73.49 69.90,74.18 70.76,74.18 70.76,75.56 71.62,75.56 71.62,75.95 72.48,75.95 72.48,77.36 73.34,77.36 73.34,78.67 74.20,78.67 74.20,80.00 75.06,80.00 75.06,80.90 75.93,80.90 75.93,82.04 76.79,82.04 76.79,82.97 77.65,82.97 77.65,83.45 78.51,83.45 78.51,83.95 79.37,83.95 79.37,84.69 80.23,84.69 80.23,85.99 81.09,85.99 81.09,87.06 81.95,87.06 81.95,88.76 82.81,88.76 82.81,89.37 83.67,89.37 83.67,90.24 84.54,90.24 84.54,90.75 85.40,90.75 85.40,91.39 86.26,91.39 86.26,92.65 87.12,92.65 87.12,93.31 87.98,93.31 87.98,94.87 88.84,94.87 88.84,95.43 89.70,95.43 89.70,95.48 90.56,95.48 90.56,97.54 91.42,97.54 91.42,98.33 92.29,98.33 92.29,99.13 93.15,99.13 93.15,99.82 94.01,99.82 94.01,100.66 94.87,100.66 94.87,101.24 95.73,101.24 95.73,101.44 96.59,101.44 96.59,101.91 97.45,101.91 97.45,102.53 98.31,102.53 98.31,103.70 99.17,103.70 99.17,103.93 100.04,103.93 100.04,104.99 100.90,104.99 100.90,104.77 101.76,104.77 101.76,105.25 102.62,105.25 102.62,106.03 103.48,106.03 103.48,106.55 104.34,106.55 104.34,106.93 105.20,106.93 105.20,107.17 106.06,107.17 106.06,107.13 106.92,107.13 106.92,107.54 107.79,107.54 107.79,108.10 108.65,108.10 108.65,108.24 109.51,108.24 109.51,108.82 110.37,108.82 110.37,108.82 111.23,108.82 111.23,109.53 112.09,109.53 112.09,110.25 112.95,110.25 112.95,110.52 113.81,110.52 113.81,111.28 114.67,111.28 114.67,111.26 115.54,111.26 115.54,112.20 116.40,112.20 116.40,112.35 117.26,112.35 117.26,112.68 118.12,112.68 118.12,113.32 118.98,113.32 118.98,113.34 119.84,113.34 119.84,114.34 120.70,114.34 120.70,114.22 121.56,114.22 121.56,114.53 122.42,114.53 122.42,115.52 123.29,115.52 123.29,115.86 124.15,115.86 124.15,116.54 125.01,116.54 125.01,116.58 125.87,116.58 125.87,116.61 126.73,116.61 126.73,117.00 127.59,117.00 127.59,117.41 128.45,117.41 128.45,117.65 129.31,117.65 129.31,118.42 130.17,118.42 130.17,118.16 131.03,118.16 131.03,117.72 131.90,117.72 131.90,118.30 132.76,118.30 132.76,118.36 133.62,118.36 133.62,118.43 134.48,118.43 134.48,119.60 135.34,119.60 135.34,119.69 136.20,119.69 136.20,119.98 137.06,119.98 137.06,120.65 137.92,120.65 137.92,121.15 138.78,121.15 138.78,121.30 139.65,121.30 139.65,122.02 140.51,122.02 140.51,122.38 141.37,122.38 141.37,123.13 142.23,123.13 142.23,122.90 143.09,122.90 143.09,123.45 143.95,123.45 143.95,123.82 144.81,123.82 144.81,124.59 145.67,124.59 145.67,124.98 146.53,124.98 146.53,125.18 147.40,125.18 147.40,125.79 148.26,125.79 148.26,125.81 149.12,125.81 149.12,126.45 149.98,126.45 149.98,126.48 150.84,126.48 150.84,126.94 151.70,126.94 151.70,126.78 152.56,126.78 152.56,126.78 153.42,126.78 153.42,127.87 154.28,127.87 154.28,127.45 155.15,127.45 155.15,128.56 156.01,128.56 156.01,128.82 156.87,128.82 156.87,129.30 157.73,129.30 157.73,129.57 158.59,129.57 158.59,130.30 159.45,130.30 159.45,130.36 160.31,130.36 160.31,130.89 161.17,130.89 161.17,131.68 162.03,131.68 162.03,131.55 162.90,131.55 162.90,132.08 163.76,132.08 163.76,132.63 164.62,132.63 164.62,132.72 165.48,132.72 165.48,133.06 166.34,133.06 166.34,133.42 167.20,133.42 167.20,134.27 168.06,134.27 168.06,134.16 168.92,134.16 168.92,134.05 169.78,134.05 169.78,134.19 170.64,134.19 170.64,134.58 171.51,134.58 171.51,134.49 172.37,134.49 172.37,134.39 173.23,134.39 173.23,134.51 174.09,134.51 174.09,134.13 174.95,134.13 174.95,134.27 175.81,134.27 175.81,134.68 176.67,134.68 176.67,134.57 177.53,134.57 177.53,134.47 178.39,134.47 178.39,134.91 179.26,134.91 179.26,134.55 180.12,134.55 180.12,134.46 180.98,134.46 180.98,135.20 181.84,135.20 181.84,135.39 182.70,135.39 182.70,135.88 183.56,135.88 183.56,135.51 184.42,135.51 184.42,135.42 185.28,135.42 185.28,135.32 186.14,135.32 186.14,135.23 187.01,135.23 187.01,134.86 187.87,134.86 187.87,135.35 188.73,135.35 188.73,136.13 189.59,136.13 189.59,136.06 190.45,136.06 190.45,136.00 191.31,136.00 191.31,135.64 192.17,135.64 192.17,135.57 193.03,135.57 193.03,136.42 193.89,136.42 193.89,136.03 194.76,136.03 194.76,135.64 195.62,135.64 195.62,135.24 196.48,135.24 196.48,135.16 197.34,135.16 197.34,134.76 198.20,134.76 198.20,135.00 199.06,135.00 199.06,135.24 199.92,135.24 199.92,135.19 200.78,135.19 200.78,135.46 201.64,135.46 201.64,135.41 202.51,135.41 202.51,135.37 203.37,135.37 203.37,135.32 204.23,135.32 204.23,135.58 205.09,135.58 205.09,135.51 205.95,135.51 205.95,135.79 206.81,135.79 206.81,135.39 207.67,135.39 207.67,135.34 208.53,135.34 208.53,135.29 209.39,135.29 209.39,134.90 210.26,134.90 210.26,134.86 211.12,134.86 211.12,134.83 211.98,134.83 211.98,134.80 212.84,134.80 212.84,134.78 213.70,134.78 213.70,134.41 214.56,134.41 214.56,134.71 215.42,134.71 215.42,134.30 216.28,134.30 216.28,134.25 217.14,134.25 217.14,135.33 218.00,135.33 218.00,136.05 218.87,136.05 218.87,136.79 219.73,136.79 219.73,136.41 220.59,136.41 220.59,137.56 221.45,137.56 221.45,137.96 222.31,137.96 222.31,137.59 223.17,137.59 223.17,138.00 224.03,138.00 224.03,138.03 224.89,138.03 224.89,138.04 225.75,138.04 225.75,137.65 226.62,137.65 226.62,137.66 227.48,137.66 227.48,137.28 228.34,137.28 228.34,136.90 229.20,136.90 229.20,136.52 230.06,136.52 230.06,136.14 230.92,136.14 230.92,135.75 231.78,135.75 231.78,135.37 232.64,135.37 232.64,134.98 233.50,134.98 233.50,134.59 234.37,134.59 234.37,134.63 235.23,134.63 235.23,134.63 236.09,134.63 236.09,135.08 236.95,135.08 236.95,135.10 237.81,135.10 237.81,135.13 238.67,135.13 238.67,134.71 239.53,134.71 239.53,134.29 240.39,134.29 240.39,133.87 241.25,133.87 241.25,133.45 242.12,133.45 242.12,133.50 242.98,133.50 242.98,133.55 243.84,133.55 243.84,133.62 244.70,133.62 244.70,134.15 245.56,134.15 245.56,135.12 246.42,135.12 246.42,135.18 247.28,135.18 247.28,135.71 248.14,135.71 248.14,136.25 249.00,136.25 249.00,135.84 249.87,135.84 249.87,135.42 250.73,135.42 250.73,135.98 251.59,135.98 251.59,136.05 252.45,136.05 252.45,136.65 253.31,136.65 253.31,136.25 254.17,136.25 254.17,136.36 255.03,136.36 255.03,135.97" style="stroke-width: 0.64;stroke: #8F3931;stroke-linecap: butt;"/>
<polyline points="49.23,55.73 50.09,55.73 50.09,56.23 50.95,56.23 50.95,57.04 51.81,57.04 51.81,57.70 52.68,57.70 52.68,60.17 53.54,60.17 53.54,62.96 54.40,62.96 54.40,65.64 55.26,65.64 55.26,66.85 56.12,66.85 56.12,68.84 56.98,68.84 56.98,72.41 57.84,72.41 57.84,75.55 58.70,75.55 58.70,77.81 59.56,77.81 59.56,78.92 60.43,78.92 60.43,82.78 61.29,82.78 61.29,84.44 62.15,84.44 62.15,86.45 63.01,86.45 63.01,90.28 63.87,90.28 63.87,92.05 64.73,92.05 64.73,95.01 65.59,95.01 65.59,97.51 66.45,97.51 66.45,101.75 67.31,101.75 67.31,104.00 68.18,104.00 68.18,106.63 69.04,106.63 69.04,108.60 69.90,108.60 69.90,109.14 70.76,109.14 70.76,112.33 71.62,112.33 71.62,113.81 72.48,113.81 72.48,116.56 73.34,116.56 73.34,117.56 74.20,117.56 74.20,118.58 75.06,118.58 75.06,121.97 75.93,121.97 75.93,122.11 76.79,122.11 76.79,124.11 77.65,124.11 77.65,125.22 78.51,125.22 78.51,126.16 79.37,126.16 79.37,126.74 80.23,126.74 80.23,128.98 81.09,128.98 81.09,130.29 81.95,130.29 81.95,132.78 82.81,132.78 82.81,134.34 83.67,134.34 83.67,135.13 84.54,135.13 84.54,136.54 85.40,136.54 85.40,138.55 86.26,138.55 86.26,139.60 87.12,139.60 87.12,140.88 87.98,140.88 87.98,142.17 88.84,142.17 88.84,143.91 89.70,143.91 89.70,144.23 90.56,144.23 90.56,146.59 91.42,146.59 91.42,146.67 92.29,146.67 92.29,148.26 93.15,148.26 93.15,149.02 94.01,149.02 94.01,149.13 94.87,149.13 94.87,150.57 95.73,150.57 95.73,152.03 96.59,152.03 96.59,152.85 97.45,152.85 97.45,153.24 98.31,153.24 98.31,153.65 99.17,153.65 99.17,153.62 100.04,153.62 100.04,155.90 100.90,155.90 100.90,155.59 101.76,155.59 101.76,156.70 102.62,156.70 102.62,157.12 103.48,157.12 103.48,157.56 104.34,157.56 104.34,158.01 105.20,158.01 105.20,158.95 106.06,158.95 106.06,159.45 106.92,159.45 106.92,160.20 107.79,160.20 107.79,160.72 108.65,160.72 108.65,161.51 109.51,161.51 109.51,163.07 110.37,163.07 110.37,163.90 111.23,163.90 111.23,164.18 112.09,164.18 112.09,164.21 112.95,164.21 112.95,164.78 113.81,164.78 113.81,165.37 114.67,165.37 114.67,166.24 115.54,166.24 115.54,166.33 116.40,166.33 116.40,166.69 117.26,166.69 117.26,166.25 118.12,166.25 118.12,167.18 118.98,167.18 118.98,167.30 119.84,167.30 119.84,168.84 120.70,168.84 120.70,168.73 121.56,168.73 121.56,169.42 122.42,169.42 122.42,168.98 123.29,168.98 123.29,168.83 124.15,168.83 124.15,168.98 125.01,168.98 125.01,168.85 125.87,168.85 125.87,169.02 126.73,169.02 126.73,169.80 127.59,169.80 127.59,169.69 128.45,169.69 128.45,169.59 129.31,169.59 129.31,170.43 130.17,170.43 130.17,170.65 131.03,170.65 131.03,170.24 131.90,170.24 131.90,170.11 132.76,170.11 132.76,169.98 133.62,169.98 133.62,171.16 134.48,171.16 134.48,170.72 135.34,170.72 135.34,170.94 136.20,170.94 136.20,170.50 137.06,170.50 137.06,170.07 137.92,170.07 137.92,173.04 138.78,173.04 138.78,173.66 139.65,173.66 139.65,173.59 140.51,173.59 140.51,173.53 141.37,173.53 141.37,173.47 142.23,173.47 142.23,173.37 143.09,173.37 143.09,173.63 143.95,173.63 143.95,173.91 144.81,173.91 144.81,173.82 145.67,173.82 145.67,174.47 146.53,174.47 146.53,174.04 147.40,174.04 147.40,174.71 148.26,174.71 148.26,175.40 149.12,175.40 149.12,176.11 149.98,176.11 149.98,176.44 150.84,176.44 150.84,176.40 151.70,176.40 151.70,175.99 152.56,175.99 152.56,175.53 153.42,175.53 153.42,175.46 154.28,175.46 154.28,175.00 155.15,175.00 155.15,174.94 156.01,174.94 156.01,174.48 156.87,174.48 156.87,174.03 157.73,174.03 157.73,173.98 158.59,173.98 158.59,174.77 159.45,174.77 159.45,174.31 160.31,174.31 160.31,174.27 161.17,174.27 161.17,174.68 162.03,174.68 162.03,174.67 162.90,174.67 162.90,174.60 163.76,174.60 163.76,174.55 164.62,174.55 164.62,174.06 165.48,174.06 165.48,174.02 166.34,174.02 166.34,174.43 167.20,174.43 167.20,174.40 168.06,174.40 168.06,174.37 168.92,174.37 168.92,174.35 169.78,174.35 169.78,174.33 170.64,174.33 170.64,175.26 171.51,175.26 171.51,175.76 172.37,175.76 172.37,175.79 173.23,175.79 173.23,176.76 174.09,176.76 174.09,176.79 174.95,176.79 174.95,176.82 175.81,176.82 175.81,177.85 176.67,177.85 176.67,178.41 177.53,178.41 177.53,177.99 178.39,177.99 178.39,178.58 179.26,178.58 179.26,178.68 180.12,178.68 180.12,178.79 180.98,178.79 180.98,178.91 181.84,178.91 181.84,178.51 182.70,178.51 182.70,178.64 183.56,178.64 183.56,178.20 184.42,178.20 184.42,178.84 185.28,178.84 185.28,178.41 186.14,178.41 186.14,179.09 187.01,179.09 187.01,179.76 187.87,179.76 187.87,180.46 188.73,180.46 188.73,180.63 189.59,180.63 189.59,180.25 190.45,180.25 190.45,181.03 191.31,181.03 191.31,180.65 192.17,180.65 192.17,180.86 193.03,180.86 193.03,180.49 193.89,180.49 193.89,180.07 194.76,180.07 194.76,180.24 195.62,180.24 195.62,179.82 196.48,179.82 196.48,181.25 197.34,181.25 197.34,180.84 198.20,180.84 198.20,181.05 199.06,181.05 199.06,181.90 199.92,181.90 199.92,182.15 200.78,182.15 200.78,182.40 201.64,182.40 201.64,182.02 202.51,182.02 202.51,181.64 203.37,181.64 203.37,181.26 204.23,181.26 204.23,180.83 205.09,180.83 205.09,180.40 205.95,180.40 205.95,179.97 206.81,179.97 206.81,180.21 207.67,180.21 207.67,179.79 208.53,179.79 208.53,179.37 209.39,179.37 209.39,179.64 210.26,179.64 210.26,179.91 211.12,179.91 211.12,180.20 211.98,180.20 211.98,179.80 212.84,179.80 212.84,179.41 213.70,179.41 213.70,180.46 214.56,180.46 214.56,180.05 215.42,180.05 215.42,179.63 216.28,179.63 216.28,179.22 217.14,179.22 217.14,180.30 218.00,180.30 218.00,180.65 218.87,180.65 218.87,181.77 219.73,181.77 219.73,182.93 220.59,182.93 220.59,184.89 221.45,184.89 221.45,184.50 222.31,184.50 222.31,185.74 223.17,185.74 223.17,186.19 224.03,186.19 224.03,185.84 224.89,185.84 224.89,185.46 225.75,185.46 225.75,185.08 226.62,185.08 226.62,185.56 227.48,185.56 227.48,186.05 228.34,186.05 228.34,186.55 229.20,186.55 229.20,187.05 230.06,187.05 230.06,186.68 230.92,186.68 230.92,187.22 231.78,187.22 231.78,186.84 232.64,186.84 232.64,187.42 233.50,187.42 233.50,189.00 234.37,189.00 234.37,188.65 235.23,188.65 235.23,188.27 236.09,188.27 236.09,187.88 236.95,187.88 236.95,187.49 237.81,187.49 237.81,187.10 238.67,187.10 238.67,186.71 239.53,186.71 239.53,186.31 240.39,186.31 240.39,185.90 241.25,185.90 241.25,185.52 242.12,185.52 242.12,187.37 242.98,187.37 242.98,187.00 243.84,187.00 243.84,186.64 244.70,186.64 244.70,187.43 245.56,187.43 245.56,188.20 246.42,188.20 246.42,189.01 247.28,189.01 247.28,188.63 248.14,188.63 248.14,188.26 249.00,188.26 249.00,190.43 249.87,190.43 249.87,190.11 250.73,190.11 250.73,189.78 251.59,189.78 251.59,189.44 252.45,189.44 252.45,189.10 253.31,189.10 253.31,188.76 254.17,188.76 254.17,188.42 255.03,188.42 255.03,188.08" style="stroke-width: 0.64;stroke: #350E20;stroke-linecap: butt;"/>
<polyline points="100.04,55.14 110.37,55.70 120.70,56.73 131.03,56.76 141.37,56.41 151.70,55.68 162.03,55.04 172.37,54.42 182.70,54.48 193.03,53.70 203.37,53.06 213.70,52.75 224.03,53.91 234.37,54.09 244.70,54.54 255.03,55.05" style="stroke-width: 1.07;stroke: #8A9045; stroke-dasharray: 5.69, 5.69;stroke-linecap: butt;"/>
<polyline points="100.04,71.08 110.37,74.11 120.70,75.13 131.03,72.93 141.37,70.04 151.70,69.05 162.03,68.37 172.37,67.32 182.70,65.35 193.03,64.31 203.37,65.02 213.70,61.61 224.03,60.78 234.37,61.43 244.70,57.08 255.03,54.86" style="stroke-width: 1.07;stroke: #155F83; stroke-dasharray: 5.69, 5.69;stroke-linecap: butt;"/>
<polyline points="100.04,104.99 110.37,103.76 120.70,99.57 131.03,92.70 141.37,88.32 151.70,82.97 162.03,84.14 172.37,81.82 182.70,79.50 193.03,74.03 203.37,67.69 213.70,59.16 224.03,60.55 234.37,53.19 244.70,51.55 255.03,56.49" style="stroke-width: 1.07;stroke: #8F3931; stroke-dasharray: 5.69, 5.69;stroke-linecap: butt;"/>
<polyline points="100.04,155.90 110.37,149.95 120.70,132.66 131.03,116.73 141.37,101.35 151.70,90.14 162.03,74.48 172.37,68.38 182.70,71.02 193.03,69.38 203.37,66.21 213.70,66.27 224.03,75.00 234.37,75.54 244.70,69.47 255.03,70.05" style="stroke-width: 1.07;stroke: #350E20; stroke-dasharray: 5.69, 5.69;stroke-linecap: butt;"/>
<line x1="100.04" y1="295.83" x2="100.04" y2="291.02" style="stroke-width: 0.53;stroke: #999999;stroke-linecap: butt;"/>
<line x1="110.37" y1="295.83" x2="110.37" y2="291.02" style="stroke-width: 0.53;stroke: #999999;stroke-linecap: butt;"/>
<line x1="120.70" y1="295.83" x2="120.70" y2="291.02" style="stroke-width: 0.53;stroke: #999999;stroke-linecap: butt;"/>
<line x1="131.03" y1="295.83" x2="131.03" y2="291.02" style="stroke-width: 0.53;stroke: #999999;stroke-linecap: butt;"/>
<line x1="141.37" y1="295.83" x2="141.37" y2="291.02" style="stroke-width: 0.53;stroke: #999999;stroke-linecap: butt;"/>
<line x1="151.70" y1="295.83" x2="151.70" y2="291.02" style="stroke-width: 0.53;stroke: #999999;stroke-linecap: butt;"/>
<line x1="162.03" y1="295.83" x2="162.03" y2="291.02" style="stroke-width: 0.53;stroke: #999999;stroke-linecap: butt;"/>
<line x1="172.37" y1="295.83" x2="172.37" y2="291.02" style="stroke-width: 0.53;stroke: #999999;stroke-linecap: butt;"/>
<line x1="182.70" y1="295.83" x2="182.70" y2="291.02" style="stroke-width: 0.53;stroke: #999999;stroke-linecap: butt;"/>
<line x1="193.03" y1="295.83" x2="193.03" y2="291.02" style="stroke-width: 0.53;stroke: #999999;stroke-linecap: butt;"/>
<line x1="203.37" y1="295.83" x2="203.37" y2="291.02" style="stroke-width: 0.53;stroke: #999999;stroke-linecap: butt;"/>
<line x1="213.70" y1="295.83" x2="213.70" y2="291.02" style="stroke-width: 0.53;stroke: #999999;stroke-linecap: butt;"/>
<line x1="224.03" y1="295.83" x2="224.03" y2="291.02" style="stroke-width: 0.53;stroke: #999999;stroke-linecap: butt;"/>
<line x1="234.37" y1="295.83" x2="234.37" y2="291.02" style="stroke-width: 0.53;stroke: #999999;stroke-linecap: butt;"/>
<line x1="244.70" y1="295.83" x2="244.70" y2="291.02" style="stroke-width: 0.53;stroke: #999999;stroke-linecap: butt;"/>
<line x1="255.03" y1="295.83" x2="255.03" y2="291.02" style="stroke-width: 0.53;stroke: #999999;stroke-linecap: butt;"/>
<line x1="100.04" y1="295.83" x2="255.03" y2="295.83" style="stroke-width: 0.53;stroke: #999999;stroke-linecap: butt;"/>
<g><text x="100.04" y="283.96" text-anchor="middle" style="font-family: Arial;font-size: 7.11px;fill: #A9A9A9;" textLength="3.95px" lengthAdjust="spacingAndGlyphs">0</text></g>
<g><text x="120.70" y="283.96" text-anchor="middle" style="font-family: Arial;font-size: 7.11px;fill: #A9A9A9;" textLength="3.95px" lengthAdjust="spacingAndGlyphs">2</text></g>
<g><text x="141.37" y="283.96" text-anchor="middle" style="font-family: Arial;font-size: 7.11px;fill: #A9A9A9;" textLength="3.95px" lengthAdjust="spacingAndGlyphs">4</text></g>
<g><text x="162.03" y="283.96" text-anchor="middle" style="font-family: Arial;font-size: 7.11px;fill: #A9A9A9;" textLength="3.95px" lengthAdjust="spacingAndGlyphs">6</text></g>
<g><text x="182.70" y="283.96" text-anchor="middle" style="font-family: Arial;font-size: 7.11px;fill: #A9A9A9;" textLength="3.95px" lengthAdjust="spacingAndGlyphs">8</text></g>
<g><text x="203.37" y="283.96" text-anchor="middle" style="font-family: Arial;font-size: 7.11px;fill: #A9A9A9;" textLength="7.91px" lengthAdjust="spacingAndGlyphs">10</text></g>
<g><text x="224.03" y="283.96" text-anchor="middle" style="font-family: Arial;font-size: 7.11px;fill: #A9A9A9;" textLength="7.91px" lengthAdjust="spacingAndGlyphs">12</text></g>
<g><text x="244.70" y="283.96" text-anchor="middle" style="font-family: Arial;font-size: 7.11px;fill: #A9A9A9;" textLength="7.91px" lengthAdjust="spacingAndGlyphs">14</text></g>
<rect x="38.94" y="24.55" width="226.38" height="284.20" style="stroke-width: 1.16;stroke: #4D4D4D;"/>
</g><g clip-path="url(#c3)">
<rect x="271.30" y="24.55" width="226.38" height="284.20" style="stroke-width: 1.16;stroke: none;fill: #FFFFFF;"/>
<polyline points="271.30,259.78 497.68,259.78" style="stroke-width: 0.58;stroke: #F0F0F0;stroke-linecap: butt;"/>
<polyline points="271.30,187.70 497.68,187.70" style="stroke-width: 0.58;stroke: #F0F0F0;stroke-linecap: butt;"/>
<polyline points="271.30,115.61 497.68,115.61" style="stroke-width: 0.58;stroke: #F0F0F0;stroke-linecap: butt;"/>
<polyline points="271.30,43.52 497.68,43.52" style="stroke-width: 0.58;stroke: #F0F0F0;stroke-linecap: butt;"/>
<polyline points="306.56,308.74 306.56,24.55" style="stroke-width: 0.58;stroke: #F0F0F0;stroke-linecap: butt;"/>
<polyline points="358.23,308.74 358.23,24.55" style="stroke-width: 0.58;stroke: #F0F0F0;stroke-linecap: butt;"/>
<polyline points="409.89,308.74 409.89,24.55" style="stroke-width: 0.58;stroke: #F0F0F0;stroke-linecap: butt;"/>
<polyline points="461.56,308.74 461.56,24.55" style="stroke-width: 0.58;stroke: #F0F0F0;stroke-linecap: butt;"/>
<polyline points="271.30,295.83 497.68,295.83" style="stroke-width: 1.16;stroke: #F0F0F0;stroke-linecap: butt;"/>
<polyline points="271.30,223.74 497.68,223.74" style="stroke-width: 1.16;stroke: #F0F0F0;stroke-linecap: butt;"/>
<polyline points="271.30,151.65 497.68,151.65" style="stroke-width: 1.16;stroke: #F0F0F0;stroke-linecap: butt;"/>
<polyline points="271.30,79.57 497.68,79.57" style="stroke-width: 1.16;stroke: #F0F0F0;stroke-linecap: butt;"/>
<polyline points="280.73,308.74 280.73,24.55" style="stroke-width: 1.16;stroke: #F0F0F0;stroke-linecap: butt;"/>
<polyline points="332.39,308.74 332.39,24.55" style="stroke-width: 1.16;stroke: #F0F0F0;stroke-linecap: butt;"/>
<polyline points="384.06,308.74 384.06,24.55" style="stroke-width: 1.16;stroke: #F0F0F0;stroke-linecap: butt;"/>
<polyline points="435.72,308.74 435.72,24.55" style="stroke-width: 1.16;stroke: #F0F0F0;stroke-linecap: butt;"/>
<polyline points="487.39,308.74 487.39,24.55" style="stroke-width: 1.16;stroke: #F0F0F0;stroke-linecap: butt;"/>
<polyline points="281.59,55.36 282.45,55.36 282.45,55.22 283.31,55.22 283.31,55.07 284.17,55.07 284.17,55.04 285.03,55.04 285.03,54.99 285.89,54.99 285.89,54.89 286.76,54.89 286.76,54.95 287.62,54.95 287.62,54.86 288.48,54.86 288.48,54.85 289.34,54.85 289.34,54.79 290.20,54.79 290.20,54.88 291.06,54.88 291.06,54.80 291.92,54.80 291.92,54.60 292.78,54.60 292.78,54.92 293.64,54.92 293.64,54.69 294.51,54.69 294.51,54.84 295.37,54.84 295.37,55.02 296.23,55.02 296.23,55.09 297.09,55.09 297.09,55.31 297.95,55.31 297.95,55.20 298.81,55.20 298.81,55.54 299.67,55.54 299.67,55.51 300.53,55.51 300.53,55.48 301.39,55.48 301.39,55.35 302.26,55.35 302.26,55.16 303.12,55.16 303.12,55.36 303.98,55.36 303.98,55.32 304.84,55.32 304.84,55.44 305.70,55.44 305.70,55.37 306.56,55.37 306.56,55.64 307.42,55.64 307.42,55.72 308.28,55.72 308.28,55.80 309.14,55.80 309.14,56.27 310.01,56.27 310.01,56.22 310.87,56.22 310.87,56.57 311.73,56.57 311.73,56.53 312.59,56.53 312.59,56.75 313.45,56.75 313.45,56.68 314.31,56.68 314.31,56.70 315.17,56.70 315.17,56.68 316.03,56.68 316.03,56.78 316.89,56.78 316.89,57.11 317.76,57.11 317.76,57.15 318.62,57.15 318.62,57.31 319.48,57.31 319.48,57.57 320.34,57.57 320.34,57.95 321.20,57.95 321.20,57.98 322.06,57.98 322.06,57.73 322.92,57.73 322.92,57.73 323.78,57.73 323.78,57.49 324.64,57.49 324.64,58.16 325.50,58.16 325.50,58.09 326.37,58.09 326.37,58.25 327.23,58.25 327.23,58.45 328.09,58.45 328.09,58.66 328.95,58.66 328.95,58.72 329.81,58.72 329.81,58.47 330.67,58.47 330.67,58.53 331.53,58.53 331.53,58.60 332.39,58.60 332.39,58.95 333.25,58.95 333.25,58.59 334.12,58.59 334.12,58.82 334.98,58.82 334.98,58.69 335.84,58.69 335.84,58.52 336.70,58.52 336.70,58.54 337.56,58.54 337.56,58.43 338.42,58.43 338.42,58.56 339.28,58.56 339.28,58.56 340.14,58.56 340.14,58.65 341.00,58.65 341.00,58.86 341.87,58.86 341.87,58.99 342.73,58.99 342.73,58.67 343.59,58.67 343.59,58.41 344.45,58.41 344.45,58.75 345.31,58.75 345.31,58.55 346.17,58.55 346.17,58.97 347.03,58.97 347.03,58.57 347.89,58.57 347.89,58.75 348.75,58.75 348.75,58.67 349.62,58.67 349.62,58.80 350.48,58.80 350.48,58.84 351.34,58.84 351.34,58.93 352.20,58.93 352.20,59.15 353.06,59.15 353.06,58.94 353.92,58.94 353.92,59.34 354.78,59.34 354.78,59.38 355.64,59.38 355.64,59.30 356.50,59.30 356.50,59.40 357.37,59.40 357.37,59.23 358.23,59.23 358.23,59.28 359.09,59.28 359.09,58.89 359.95,58.89 359.95,58.78 360.81,58.78 360.81,58.51 361.67,58.51 361.67,58.37 362.53,58.37 362.53,58.11 363.39,58.11 363.39,57.85 364.25,57.85 364.25,57.73 365.11,57.73 365.11,57.62 365.98,57.62 365.98,57.95 366.84,57.95 366.84,57.67 367.70,57.67 367.70,57.58 368.56,57.58 368.56,57.49 369.42,57.49 369.42,57.54 370.28,57.54 370.28,57.92 371.14,57.92 371.14,58.06 372.00,58.06 372.00,58.27 372.86,58.27 372.86,58.16 373.73,58.16 373.73,58.46 374.59,58.46 374.59,58.19 375.45,58.19 375.45,58.19 376.31,58.19 376.31,58.13 377.17,58.13 377.17,57.94 378.03,57.94 378.03,58.10 378.89,58.10 378.89,58.20 379.75,58.20 379.75,58.02 380.61,58.02 380.61,58.14 381.48,58.14 381.48,58.41 382.34,58.41 382.34,58.33 383.20,58.33 383.20,58.25 384.06,58.25 384.06,58.71 384.92,58.71 384.92,58.38 385.78,58.38 385.78,58.36 386.64,58.36 386.64,58.12 387.50,58.12 387.50,58.27 388.36,58.27 388.36,58.12 389.23,58.12 389.23,58.52 390.09,58.52 390.09,58.62 390.95,58.62 390.95,58.73 391.81,58.73 391.81,58.76 392.67,58.76 392.67,58.56 393.53,58.56 393.53,58.70 394.39,58.70 394.39,58.59 395.25,58.59 395.25,58.61 396.11,58.61 396.11,58.54 396.98,58.54 396.98,58.83 397.84,58.83 397.84,58.87 398.70,58.87 398.70,58.83 399.56,58.83 399.56,58.70 400.42,58.70 400.42,58.41 401.28,58.41 401.28,58.55 402.14,58.55 402.14,58.45 403.00,58.45 403.00,58.53 403.86,58.53 403.86,58.34 404.73,58.34 404.73,58.16 405.59,58.16 405.59,58.22 406.45,58.22 406.45,57.81 407.31,57.81 407.31,57.97 408.17,57.97 408.17,57.76 409.03,57.76 409.03,57.83 409.89,57.83 409.89,57.73 410.75,57.73 410.75,57.82 411.61,57.82 411.61,57.64 412.47,57.64 412.47,57.55 413.34,57.55 413.34,57.48 414.20,57.48 414.20,57.21 415.06,57.21 415.06,57.95 415.92,57.95 415.92,57.95 416.78,57.95 416.78,58.16 417.64,58.16 417.64,57.56 418.50,57.56 418.50,57.78 419.36,57.78 419.36,58.12 420.22,58.12 420.22,58.06 421.09,58.06 421.09,58.00 421.95,58.00 421.95,57.74 422.81,57.74 422.81,57.37 423.67,57.37 423.67,57.11 424.53,57.11 424.53,56.86 425.39,56.86 425.39,56.50 426.25,56.50 426.25,56.21 427.11,56.21 427.11,56.37 427.97,56.37 427.97,56.32 428.84,56.32 428.84,56.28 429.70,56.28 429.70,56.59 430.56,56.59 430.56,56.56 431.42,56.56 431.42,56.55 432.28,56.55 432.28,56.78 433.14,56.78 433.14,57.13 434.00,57.13 434.00,56.91 434.86,56.91 434.86,56.81 435.72,56.81 435.72,56.84 436.59,56.84 436.59,56.70 437.45,56.70 437.45,56.44 438.31,56.44 438.31,56.55 439.17,56.55 439.17,56.68 440.03,56.68 440.03,56.45 440.89,56.45 440.89,56.48 441.75,56.48 441.75,56.26 442.61,56.26 442.61,56.69 443.47,56.69 443.47,56.49 444.34,56.49 444.34,56.16 445.20,56.16 445.20,55.97 446.06,55.97 446.06,55.77 446.92,55.77 446.92,55.80 447.78,55.80 447.78,55.70 448.64,55.70 448.64,55.73 449.50,55.73 449.50,55.37 450.36,55.37 450.36,55.28 451.22,55.28 451.22,55.48 452.08,55.48 452.08,55.68 452.95,55.68 452.95,56.18 453.81,56.18 453.81,55.72 454.67,55.72 454.67,55.82 455.53,55.82 455.53,55.37 456.39,55.37 456.39,55.49 457.25,55.49 457.25,54.99 458.11,54.99 458.11,54.78 458.97,54.78 458.97,55.44 459.83,55.44 459.83,55.98 460.70,55.98 460.70,56.09 461.56,56.09 461.56,56.36 462.42,56.36 462.42,56.06 463.28,56.06 463.28,55.76 464.14,55.76 464.14,55.91 465.00,55.91 465.00,55.78 465.86,55.78 465.86,55.65 466.72,55.65 466.72,55.36 467.58,55.36 467.58,54.87 468.45,54.87 468.45,55.18 469.31,55.18 469.31,54.87 470.17,54.87 470.17,55.21 471.03,55.21 471.03,54.91 471.89,54.91 471.89,54.93 472.75,54.93 472.75,54.97 473.61,54.97 473.61,54.85 474.47,54.85 474.47,55.25 475.33,55.25 475.33,54.64 476.20,54.64 476.20,54.89 477.06,54.89 477.06,54.46 477.92,54.46 477.92,54.51 478.78,54.51 478.78,54.38 479.64,54.38 479.64,54.08 480.50,54.08 480.50,54.15 481.36,54.15 481.36,53.85 482.22,53.85 482.22,53.57 483.08,53.57 483.08,53.66 483.95,53.66 483.95,53.57 484.81,53.57 484.81,53.51 485.67,53.51 485.67,53.66 486.53,53.66 486.53,54.41 487.39,54.41 487.39,53.79" style="stroke-width: 0.64;stroke: #8A9045;stroke-linecap: butt;"/>
<polyline points="281.59,55.39 282.45,55.39 282.45,55.13 283.31,55.13 283.31,55.17 284.17,55.17 284.17,55.03 285.03,55.03 285.03,55.32 285.89,55.32 285.89,55.78 286.76,55.78 286.76,55.96 287.62,55.96 287.62,56.33 288.48,56.33 288.48,56.40 289.34,56.40 289.34,57.04 290.20,57.04 290.20,57.06 291.06,57.06 291.06,57.41 291.92,57.41 291.92,57.27 292.78,57.27 292.78,57.40 293.64,57.40 293.64,57.65 294.51,57.65 294.51,57.72 295.37,57.72 295.37,57.80 296.23,57.80 296.23,58.78 297.09,58.78 297.09,59.06 297.95,59.06 297.95,59.55 298.81,59.55 298.81,60.51 299.67,60.51 299.67,61.09 300.53,61.09 300.53,62.43 301.39,62.43 301.39,62.84 302.26,62.84 302.26,63.42 303.12,63.42 303.12,64.63 303.98,64.63 303.98,65.02 304.84,65.02 304.84,65.64 305.70,65.64 305.70,65.91 306.56,65.91 306.56,67.19 307.42,67.19 307.42,67.84 308.28,67.84 308.28,68.50 309.14,68.50 309.14,69.61 310.01,69.61 310.01,70.15 310.87,70.15 310.87,71.07 311.73,71.07 311.73,71.27 312.59,71.27 312.59,72.32 313.45,72.32 313.45,73.10 314.31,73.10 314.31,73.59 315.17,73.59 315.17,74.31 316.03,74.31 316.03,74.82 316.89,74.82 316.89,75.42 317.76,75.42 317.76,75.80 318.62,75.80 318.62,76.66 319.48,76.66 319.48,77.93 320.34,77.93 320.34,78.73 321.20,78.73 321.20,79.56 322.06,79.56 322.06,79.67 322.92,79.67 322.92,80.97 323.78,80.97 323.78,81.47 324.64,81.47 324.64,82.23 325.50,82.23 325.50,83.08 326.37,83.08 326.37,83.53 327.23,83.53 327.23,84.41 328.09,84.41 328.09,84.80 328.95,84.80 328.95,84.94 329.81,84.94 329.81,85.18 330.67,85.18 330.67,85.42 331.53,85.42 331.53,85.32 332.39,85.32 332.39,86.29 333.25,86.29 333.25,86.52 334.12,86.52 334.12,87.56 334.98,87.56 334.98,88.09 335.84,88.09 335.84,88.25 336.70,88.25 336.70,89.25 337.56,89.25 337.56,89.25 338.42,89.25 338.42,90.11 339.28,90.11 339.28,90.50 340.14,90.50 340.14,91.00 341.00,91.00 341.00,91.53 341.87,91.53 341.87,91.47 342.73,91.47 342.73,91.33 343.59,91.33 343.59,91.44 344.45,91.44 344.45,91.67 345.31,91.67 345.31,92.10 346.17,92.10 346.17,92.65 347.03,92.65 347.03,92.69 347.89,92.69 347.89,93.16 348.75,93.16 348.75,93.01 349.62,93.01 349.62,94.02 350.48,94.02 350.48,94.83 351.34,94.83 351.34,95.25 352.20,95.25 352.20,95.78 353.06,95.78 353.06,95.46 353.92,95.46 353.92,95.98 354.78,95.98 354.78,95.85 355.64,95.85 355.64,96.17 356.50,96.17 356.50,96.38 357.37,96.38 357.37,96.94 358.23,96.94 358.23,97.84 359.09,97.84 359.09,98.54 359.95,98.54 359.95,98.91 360.81,98.91 360.81,99.53 361.67,99.53 361.67,100.39 362.53,100.39 362.53,100.09 363.39,100.09 363.39,100.14 364.25,100.14 364.25,100.89 365.11,100.89 365.11,100.80 365.98,100.80 365.98,101.07 366.84,101.07 366.84,101.11 367.70,101.11 367.70,101.27 368.56,101.27 368.56,101.69 369.42,101.69 369.42,101.61 370.28,101.61 370.28,102.44 371.14,102.44 371.14,102.38 372.00,102.38 372.00,102.72 372.86,102.72 372.86,102.68 373.73,102.68 373.73,102.77 374.59,102.77 374.59,102.97 375.45,102.97 375.45,103.04 376.31,103.04 376.31,103.11 377.17,103.11 377.17,103.33 378.03,103.33 378.03,103.97 378.89,103.97 378.89,104.20 379.75,104.20 379.75,104.73 380.61,104.73 380.61,104.70 381.48,104.70 381.48,104.96 382.34,104.96 382.34,104.80 383.20,104.80 383.20,104.79 384.06,104.79 384.06,105.23 384.92,105.23 384.92,105.34 385.78,105.34 385.78,106.50 386.64,106.50 386.64,106.49 387.50,106.49 387.50,107.40 388.36,107.40 388.36,107.25 389.23,107.25 389.23,107.88 390.09,107.88 390.09,108.37 390.95,108.37 390.95,108.41 391.81,108.41 391.81,108.76 392.67,108.76 392.67,108.64 393.53,108.64 393.53,109.18 394.39,109.18 394.39,108.91 395.25,108.91 395.25,109.43 396.11,109.43 396.11,109.79 396.98,109.79 396.98,110.34 397.84,110.34 397.84,110.57 398.70,110.57 398.70,110.46 399.56,110.46 399.56,110.52 400.42,110.52 400.42,110.59 401.28,110.59 401.28,110.85 402.14,110.85 402.14,110.40 403.00,110.40 403.00,111.02 403.86,111.02 403.86,110.94 404.73,110.94 404.73,110.69 405.59,110.69 405.59,110.94 406.45,110.94 406.45,111.01 407.31,111.01 407.31,110.72 408.17,110.72 408.17,110.62 409.03,110.62 409.03,111.64 409.89,111.64 409.89,111.55 410.75,111.55 410.75,111.47 411.61,111.47 411.61,111.39 412.47,111.39 412.47,111.32 413.34,111.32 413.34,111.05 414.20,111.05 414.20,111.19 415.06,111.19 415.06,110.93 415.92,110.93 415.92,111.03 416.78,111.03 416.78,110.94 417.64,110.94 417.64,111.28 418.50,111.28 418.50,111.00 419.36,111.00 419.36,110.52 420.22,110.52 420.22,110.67 421.09,110.67 421.09,111.03 421.95,111.03 421.95,110.76 422.81,110.76 422.81,111.36 423.67,111.36 423.67,111.32 424.53,111.32 424.53,111.28 425.39,111.28 425.39,111.69 426.25,111.69 426.25,111.17 427.11,111.17 427.11,111.57 427.97,111.57 427.97,111.06 428.84,111.06 428.84,110.55 429.70,110.55 429.70,110.51 430.56,110.51 430.56,111.18 431.42,111.18 431.42,111.16 432.28,111.16 432.28,111.15 433.14,111.15 433.14,111.38 434.00,111.38 434.00,111.62 434.86,111.62 434.86,112.37 435.72,112.37 435.72,112.16 436.59,112.16 436.59,112.15 437.45,112.15 437.45,112.66 438.31,112.66 438.31,112.66 439.17,112.66 439.17,112.93 440.03,112.93 440.03,112.69 440.89,112.69 440.89,112.45 441.75,112.45 441.75,113.52 442.61,113.52 442.61,114.10 443.47,114.10 443.47,114.42 444.34,114.42 444.34,113.95 445.20,113.95 445.20,113.75 446.06,113.75 446.06,113.29 446.92,113.29 446.92,113.89 447.78,113.89 447.78,113.66 448.64,113.66 448.64,113.72 449.50,113.72 449.50,114.37 450.36,114.37 450.36,113.89 451.22,113.89 451.22,114.57 452.08,114.57 452.08,114.69 452.95,114.69 452.95,115.11 453.81,115.11 453.81,114.95 454.67,114.95 454.67,114.80 455.53,114.80 455.53,114.96 456.39,114.96 456.39,115.72 457.25,115.72 457.25,115.55 458.11,115.55 458.11,115.38 458.97,115.38 458.97,114.90 459.83,114.90 459.83,114.73 460.70,114.73 460.70,114.87 461.56,114.87 461.56,115.34 462.42,115.34 462.42,115.19 463.28,115.19 463.28,114.72 464.14,114.72 464.14,114.25 465.00,114.25 465.00,114.12 465.86,114.12 465.86,114.64 466.72,114.64 466.72,114.51 467.58,114.51 467.58,114.34 468.45,114.34 468.45,113.84 469.31,113.84 469.31,114.01 470.17,114.01 470.17,114.55 471.03,114.55 471.03,114.05 471.89,114.05 471.89,113.55 472.75,113.55 472.75,114.47 473.61,114.47 473.61,114.34 474.47,114.34 474.47,114.94 475.33,114.94 475.33,114.45 476.20,114.45 476.20,113.96 477.06,113.96 477.06,113.85 477.92,113.85 477.92,113.71 478.78,113.71 478.78,113.57 479.64,113.57 479.64,113.82 480.50,113.82 480.50,113.71 481.36,113.71 481.36,114.38 482.22,114.38 482.22,114.67 483.08,114.67 483.08,114.98 483.95,114.98 483.95,114.89 484.81,114.89 484.81,114.41 485.67,114.41 485.67,114.34 486.53,114.34 486.53,114.68 487.39,114.68 487.39,114.21" style="stroke-width: 0.64;stroke: #155F83;stroke-linecap: butt;"/>
<polyline points="281.59,55.20 282.45,55.20 282.45,54.87 283.31,54.87 283.31,55.99 284.17,55.99 284.17,56.52 285.03,56.52 285.03,56.98 285.89,56.98 285.89,58.08 286.76,58.08 286.76,58.42 287.62,58.42 287.62,59.32 288.48,59.32 288.48,60.24 289.34,60.24 289.34,61.66 290.20,61.66 290.20,62.70 291.06,62.70 291.06,64.74 291.92,64.74 291.92,65.43 292.78,65.43 292.78,67.62 293.64,67.62 293.64,68.43 294.51,68.43 294.51,69.58 295.37,69.58 295.37,72.02 296.23,72.02 296.23,73.31 297.09,73.31 297.09,75.32 297.95,75.32 297.95,77.01 298.81,77.01 298.81,78.99 299.67,78.99 299.67,81.35 300.53,81.35 300.53,82.96 301.39,82.96 301.39,84.68 302.26,84.68 302.26,85.64 303.12,85.64 303.12,87.36 303.98,87.36 303.98,88.18 304.84,88.18 304.84,90.67 305.70,90.67 305.70,91.99 306.56,91.99 306.56,93.62 307.42,93.62 307.42,96.02 308.28,96.02 308.28,97.61 309.14,97.61 309.14,99.79 310.01,99.79 310.01,100.86 310.87,100.86 310.87,102.91 311.73,102.91 311.73,103.35 312.59,103.35 312.59,105.61 313.45,105.61 313.45,106.42 314.31,106.42 314.31,108.45 315.17,108.45 315.17,109.61 316.03,109.61 316.03,110.48 316.89,110.48 316.89,111.47 317.76,111.47 317.76,112.26 318.62,112.26 318.62,113.29 319.48,113.29 319.48,113.91 320.34,113.91 320.34,115.49 321.20,115.49 321.20,116.46 322.06,116.46 322.06,116.49 322.92,116.49 322.92,118.63 323.78,118.63 323.78,119.61 324.64,119.61 324.64,120.82 325.50,120.82 325.50,121.83 326.37,121.83 326.37,122.96 327.23,122.96 327.23,124.01 328.09,124.01 328.09,124.39 328.95,124.39 328.95,125.47 329.81,125.47 329.81,126.23 330.67,126.23 330.67,127.47 331.53,127.47 331.53,128.04 332.39,128.04 332.39,129.45 333.25,129.45 333.25,129.40 334.12,129.40 334.12,130.81 334.98,130.81 334.98,131.26 335.84,131.26 335.84,130.87 336.70,130.87 336.70,131.84 337.56,131.84 337.56,133.69 338.42,133.69 338.42,135.21 339.28,135.21 339.28,135.24 340.14,135.24 340.14,136.42 341.00,136.42 341.00,137.00 341.87,137.00 341.87,138.37 342.73,138.37 342.73,138.84 343.59,138.84 343.59,139.54 344.45,139.54 344.45,140.66 345.31,140.66 345.31,141.38 346.17,141.38 346.17,141.99 347.03,141.99 347.03,142.07 347.89,142.07 347.89,142.56 348.75,142.56 348.75,142.93 349.62,142.93 349.62,142.90 350.48,142.90 350.48,143.01 351.34,143.01 351.34,142.71 352.20,142.71 352.20,143.71 353.06,143.71 353.06,143.42 353.92,143.42 353.92,144.26 354.78,144.26 354.78,145.42 355.64,145.42 355.64,145.56 356.50,145.56 356.50,146.01 357.37,146.01 357.37,146.32 358.23,146.32 358.23,146.96 359.09,146.96 359.09,147.14 359.95,147.14 359.95,147.48 360.81,147.48 360.81,147.20 361.67,147.20 361.67,148.53 362.53,148.53 362.53,148.60 363.39,148.60 363.39,148.84 364.25,148.84 364.25,150.54 365.11,150.54 365.11,150.77 365.98,150.77 365.98,151.17 366.84,151.17 366.84,151.07 367.70,151.07 367.70,151.84 368.56,151.84 368.56,151.76 369.42,151.76 369.42,151.69 370.28,151.69 370.28,151.44 371.14,151.44 371.14,152.09 372.00,152.09 372.00,151.86 372.86,151.86 372.86,151.80 373.73,151.80 373.73,152.85 374.59,152.85 374.59,152.59 375.45,152.59 375.45,153.44 376.31,153.44 376.31,153.19 377.17,153.19 377.17,153.12 378.03,153.12 378.03,153.64 378.89,153.64 378.89,154.36 379.75,154.36 379.75,154.91 380.61,154.91 380.61,155.29 381.48,155.29 381.48,156.25 382.34,156.25 382.34,156.05 383.20,156.05 383.20,156.05 384.06,156.05 384.06,156.06 384.92,156.06 384.92,156.03 385.78,156.03 385.78,156.85 386.64,156.85 386.64,157.48 387.50,157.48 387.50,158.34 388.36,158.34 388.36,158.15 389.23,158.15 389.23,159.04 390.09,159.04 390.09,159.31 390.95,159.31 390.95,158.92 391.81,158.92 391.81,159.20 392.67,159.20 392.67,159.04 393.53,159.04 393.53,159.11 394.39,159.11 394.39,159.19 395.25,159.19 395.25,159.47 396.11,159.47 396.11,159.54 396.98,159.54 396.98,160.54 397.84,160.54 397.84,160.62 398.70,160.62 398.70,160.96 399.56,160.96 399.56,161.06 400.42,161.06 400.42,161.18 401.28,161.18 401.28,161.54 402.14,161.54 402.14,161.17 403.00,161.17 403.00,161.79 403.86,161.79 403.86,162.43 404.73,162.43 404.73,162.06 405.59,162.06 405.59,162.17 406.45,162.17 406.45,162.03 407.31,162.03 407.31,162.66 408.17,162.66 408.17,162.26 409.03,162.26 409.03,162.92 409.89,162.92 409.89,162.53 410.75,162.53 410.75,162.68 411.61,162.68 411.61,162.85 412.47,162.85 412.47,162.47 413.34,162.47 413.34,163.49 414.20,163.49 414.20,163.40 415.06,163.40 415.06,164.43 415.92,164.43 415.92,164.89 416.78,164.89 416.78,165.36 417.64,165.36 417.64,165.27 418.50,165.27 418.50,165.47 419.36,165.47 419.36,165.69 420.22,165.69 420.22,165.91 421.09,165.91 421.09,166.15 421.95,166.15 421.95,166.38 422.81,166.38 422.81,166.63 423.67,166.63 423.67,166.57 424.53,166.57 424.53,166.52 425.39,166.52 425.39,166.48 426.25,166.48 426.25,166.41 427.11,166.41 427.11,166.68 427.97,166.68 427.97,166.28 428.84,166.28 428.84,166.90 429.70,166.90 429.70,167.52 430.56,167.52 430.56,167.49 431.42,167.49 431.42,167.12 432.28,167.12 432.28,166.75 433.14,166.75 433.14,167.78 434.00,167.78 434.00,167.78 434.86,167.78 434.86,168.50 435.72,168.50 435.72,168.51 436.59,168.51 436.59,168.85 437.45,168.85 437.45,169.21 438.31,169.21 438.31,168.84 439.17,168.84 439.17,169.60 440.03,169.60 440.03,169.61 440.89,169.61 440.89,169.25 441.75,169.25 441.75,169.68 442.61,169.68 442.61,169.33 443.47,169.33 443.47,168.98 444.34,168.98 444.34,169.02 445.20,169.02 445.20,168.67 446.06,168.67 446.06,168.31 446.92,168.31 446.92,169.55 447.78,169.55 447.78,169.58 448.64,169.58 448.64,169.61 449.50,169.61 449.50,169.64 450.36,169.64 450.36,169.27 451.22,169.27 451.22,168.90 452.08,168.90 452.08,168.52 452.95,168.52 452.95,168.57 453.81,168.57 453.81,168.20 454.67,168.20 454.67,168.71 455.53,168.71 455.53,169.23 456.39,169.23 456.39,169.32 457.25,169.32 457.25,168.93 458.11,168.93 458.11,169.44 458.97,169.44 458.97,169.51 459.83,169.51 459.83,169.12 460.70,169.12 460.70,168.74 461.56,168.74 461.56,169.76 462.42,169.76 462.42,170.33 463.28,170.33 463.28,170.42 464.14,170.42 464.14,171.50 465.00,171.50 465.00,172.11 465.86,172.11 465.86,172.24 466.72,172.24 466.72,173.88 467.58,173.88 467.58,173.49 468.45,173.49 468.45,173.10 469.31,173.10 469.31,173.76 470.17,173.76 470.17,173.39 471.03,173.39 471.03,173.02 471.89,173.02 471.89,173.19 472.75,173.19 472.75,173.36 473.61,173.36 473.61,172.99 474.47,172.99 474.47,172.61 475.33,172.61 475.33,172.24 476.20,172.24 476.20,173.01 477.06,173.01 477.06,173.21 477.92,173.21 477.92,172.81 478.78,172.81 478.78,172.41 479.64,172.41 479.64,172.01 480.50,172.01 480.50,172.20 481.36,172.20 481.36,172.40 482.22,172.40 482.22,172.00 483.08,172.00 483.08,171.60 483.95,171.60 483.95,171.82 484.81,171.82 484.81,172.05 485.67,172.05 485.67,172.29 486.53,172.29 486.53,172.54 487.39,172.54 487.39,172.16" style="stroke-width: 0.64;stroke: #8F3931;stroke-linecap: butt;"/>
<polyline points="281.59,55.42 282.45,55.42 282.45,55.94 283.31,55.94 283.31,58.81 284.17,58.81 284.17,60.23 285.03,60.23 285.03,62.97 285.89,62.97 285.89,65.96 286.76,65.96 286.76,69.12 287.62,69.12 287.62,73.86 288.48,73.86 288.48,77.12 289.34,77.12 289.34,81.66 290.20,81.66 290.20,84.03 291.06,84.03 291.06,89.61 291.92,89.61 291.92,91.42 292.78,91.42 292.78,97.65 293.64,97.65 293.64,99.32 294.51,99.32 294.51,102.76 295.37,102.76 295.37,106.01 296.23,106.01 296.23,108.95 297.09,108.95 297.09,112.78 297.95,112.78 297.95,115.59 298.81,115.59 298.81,119.06 299.67,119.06 299.67,121.25 300.53,121.25 300.53,125.72 301.39,125.72 301.39,126.98 302.26,126.98 302.26,130.11 303.12,130.11 303.12,133.30 303.98,133.30 303.98,134.20 304.84,134.20 304.84,138.13 305.70,138.13 305.70,140.54 306.56,140.54 306.56,143.53 307.42,143.53 307.42,144.69 308.28,144.69 308.28,146.42 309.14,146.42 309.14,149.57 310.01,149.57 310.01,151.52 310.87,151.52 310.87,153.66 311.73,153.66 311.73,154.70 312.59,154.70 312.59,157.43 313.45,157.43 313.45,158.90 314.31,158.90 314.31,161.14 315.17,161.14 315.17,162.98 316.03,162.98 316.03,164.25 316.89,164.25 316.89,165.85 317.76,165.85 317.76,167.62 318.62,167.62 318.62,169.12 319.48,169.12 319.48,170.02 320.34,170.02 320.34,171.42 321.20,171.42 321.20,172.84 322.06,172.84 322.06,172.70 322.92,172.70 322.92,174.74 323.78,174.74 323.78,175.22 324.64,175.22 324.64,176.83 325.50,176.83 325.50,177.50 326.37,177.50 326.37,178.01 327.23,178.01 327.23,179.20 328.09,179.20 328.09,180.08 328.95,180.08 328.95,181.14 329.81,181.14 329.81,181.88 330.67,181.88 330.67,183.17 331.53,183.17 331.53,183.79 332.39,183.79 332.39,185.13 333.25,185.13 333.25,185.75 334.12,185.75 334.12,186.20 334.98,186.20 334.98,186.49 335.84,186.49 335.84,186.60 336.70,186.60 336.70,187.63 337.56,187.63 337.56,188.31 338.42,188.31 338.42,189.20 339.28,189.20 339.28,190.68 340.14,190.68 340.14,191.43 341.00,191.43 341.00,191.06 341.87,191.06 341.87,192.05 342.73,192.05 342.73,192.87 343.59,192.87 343.59,192.87 344.45,192.87 344.45,194.70 345.31,194.70 345.31,194.92 346.17,194.92 346.17,195.16 347.03,195.16 347.03,195.20 347.89,195.20 347.89,196.29 348.75,196.29 348.75,196.77 349.62,196.77 349.62,197.04 350.48,197.04 350.48,197.31 351.34,197.31 351.34,197.16 352.20,197.16 352.20,198.11 353.06,198.11 353.06,198.19 353.92,198.19 353.92,199.35 354.78,199.35 354.78,199.86 355.64,199.86 355.64,199.71 356.50,199.71 356.50,199.79 357.37,199.79 357.37,199.42 358.23,199.42 358.23,199.28 359.09,199.28 359.09,199.61 359.95,199.61 359.95,199.25 360.81,199.25 360.81,199.60 361.67,199.60 361.67,199.48 362.53,199.48 362.53,199.63 363.39,199.63 363.39,199.53 364.25,199.53 364.25,199.91 365.11,199.91 365.11,199.79 365.98,199.79 365.98,200.18 366.84,200.18 366.84,200.58 367.70,200.58 367.70,201.00 368.56,201.00 368.56,201.42 369.42,201.42 369.42,201.59 370.28,201.59 370.28,202.30 371.14,202.30 371.14,201.95 372.00,201.95 372.00,203.79 372.86,203.79 372.86,203.74 373.73,203.74 373.73,204.25 374.59,204.25 374.59,203.90 375.45,203.90 375.45,204.39 376.31,204.39 376.31,205.19 377.17,205.19 377.17,206.28 378.03,206.28 378.03,206.24 378.89,206.24 378.89,205.92 379.75,205.92 379.75,206.17 380.61,206.17 380.61,206.43 381.48,206.43 381.48,207.29 382.34,207.29 382.34,207.58 383.20,207.58 383.20,207.59 384.06,207.59 384.06,207.29 384.92,207.29 384.92,206.96 385.78,206.96 385.78,208.20 386.64,208.20 386.64,207.88 387.50,207.88 387.50,208.19 388.36,208.19 388.36,208.20 389.23,208.20 389.23,208.53 390.09,208.53 390.09,208.87 390.95,208.87 390.95,208.56 391.81,208.56 391.81,209.56 392.67,209.56 392.67,209.59 393.53,209.59 393.53,210.30 394.39,210.30 394.39,210.00 395.25,210.00 395.25,210.71 396.11,210.71 396.11,210.39 396.98,210.39 396.98,210.06 397.84,210.06 397.84,210.10 398.70,210.10 398.70,210.13 399.56,210.13 399.56,210.16 400.42,210.16 400.42,209.84 401.28,209.84 401.28,210.25 402.14,210.25 402.14,210.31 403.00,210.31 403.00,209.99 403.86,209.99 403.86,210.45 404.73,210.45 404.73,210.13 405.59,210.13 405.59,209.78 406.45,209.78 406.45,209.84 407.31,209.84 407.31,209.90 408.17,209.90 408.17,209.55 409.03,209.55 409.03,209.62 409.89,209.62 409.89,210.10 410.75,210.10 410.75,209.77 411.61,209.77 411.61,211.14 412.47,211.14 412.47,210.82 413.34,210.82 413.34,210.49 414.20,210.49 414.20,211.06 415.06,211.06 415.06,210.74 415.92,210.74 415.92,210.85 416.78,210.85 416.78,210.97 417.64,210.97 417.64,210.63 418.50,210.63 418.50,211.22 419.36,211.22 419.36,211.35 420.22,211.35 420.22,211.48 421.09,211.48 421.09,212.59 421.95,212.59 421.95,212.28 422.81,212.28 422.81,212.96 423.67,212.96 423.67,213.67 424.53,213.67 424.53,213.36 425.39,213.36 425.39,214.08 426.25,214.08 426.25,213.76 427.11,213.76 427.11,214.48 427.97,214.48 427.97,215.21 428.84,215.21 428.84,214.90 429.70,214.90 429.70,214.59 430.56,214.59 430.56,215.88 431.42,215.88 431.42,215.57 432.28,215.57 432.28,215.80 433.14,215.80 433.14,216.57 434.00,216.57 434.00,216.82 434.86,216.82 434.86,216.54 435.72,216.54 435.72,216.81 436.59,216.81 436.59,217.07 437.45,217.07 437.45,216.76 438.31,216.76 438.31,216.45 439.17,216.45 439.17,216.14 440.03,216.14 440.03,215.83 440.89,215.83 440.89,215.52 441.75,215.52 441.75,215.21 442.61,215.21 442.61,214.90 443.47,214.90 443.47,214.59 444.34,214.59 444.34,214.28 445.20,214.28 445.20,213.96 446.06,213.96 446.06,213.65 446.92,213.65 446.92,213.93 447.78,213.93 447.78,214.21 448.64,214.21 448.64,213.88 449.50,213.88 449.50,213.55 450.36,213.55 450.36,213.84 451.22,213.84 451.22,214.14 452.08,214.14 452.08,213.81 452.95,213.81 452.95,213.49 453.81,213.49 453.81,213.16 454.67,213.16 454.67,212.83 455.53,212.83 455.53,212.49 456.39,212.49 456.39,212.15 457.25,212.15 457.25,211.77 458.11,211.77 458.11,211.38 458.97,211.38 458.97,211.69 459.83,211.69 459.83,211.99 460.70,211.99 460.70,213.72 461.56,213.72 461.56,213.34 462.42,213.34 462.42,213.67 463.28,213.67 463.28,213.29 464.14,213.29 464.14,212.91 465.00,212.91 465.00,212.53 465.86,212.53 465.86,212.14 466.72,212.14 466.72,211.75 467.58,211.75 467.58,213.58 468.45,213.58 468.45,213.18 469.31,213.18 469.31,214.30 470.17,214.30 470.17,213.91 471.03,213.91 471.03,214.30 471.89,214.30 471.89,214.71 472.75,214.71 472.75,215.13 473.61,215.13 473.61,214.76 474.47,214.76 474.47,214.39 475.33,214.39 475.33,214.02 476.20,214.02 476.20,214.47 477.06,214.47 477.06,214.11 477.92,214.11 477.92,214.54 478.78,214.54 478.78,214.14 479.64,214.14 479.64,214.61 480.50,214.61 480.50,214.20 481.36,214.20 481.36,213.80 482.22,213.80 482.22,213.39 483.08,213.39 483.08,212.97 483.95,212.97 483.95,212.56 484.81,212.56 484.81,212.14 485.67,212.14 485.67,211.73 486.53,211.73 486.53,211.30 487.39,211.30 487.39,210.87" style="stroke-width: 0.64;stroke: #350E20;stroke-linecap: butt;"/>
<polyline points="332.39,58.95 342.73,58.98 353.06,59.11 363.39,56.41 373.73,55.86 384.06,55.30 394.39,54.96 404.73,54.29 415.06,55.13 425.39,53.55 435.72,53.64 446.06,52.14 456.39,52.31 466.72,52.38 477.06,52.93 487.39,52.48" style="stroke-width: 1.07;stroke: #8A9045; stroke-dasharray: 5.69, 5.69;stroke-linecap: butt;"/>
<polyline points="332.39,86.29 342.73,89.33 353.06,89.18 363.39,86.00 373.73,80.80 384.06,77.28 394.39,75.73 404.73,73.29 415.06,68.29 425.39,66.62 435.72,64.24 446.06,60.58 456.39,61.53 466.72,59.60 477.06,57.74 487.39,58.21" style="stroke-width: 1.07;stroke: #155F83; stroke-dasharray: 5.69, 5.69;stroke-linecap: butt;"/>
<polyline points="332.39,129.45 342.73,132.12 353.06,122.35 363.39,111.76 373.73,103.74 384.06,93.96 394.39,86.04 404.73,84.34 415.06,80.44 425.39,78.44 435.72,76.89 446.06,70.92 456.39,67.96 466.72,72.23 477.06,67.41 487.39,62.46" style="stroke-width: 1.07;stroke: #8F3931; stroke-dasharray: 5.69, 5.69;stroke-linecap: butt;"/>
<polyline points="332.39,185.13 342.73,175.42 353.06,156.86 363.39,131.21 373.73,116.53 384.06,103.63 394.39,94.73 404.73,84.23 415.06,82.75 425.39,81.30 435.72,81.35 446.06,64.95 456.39,60.24 466.72,57.57 477.06,54.78 487.39,37.47" style="stroke-width: 1.07;stroke: #350E20; stroke-dasharray: 5.69, 5.69;stroke-linecap: butt;"/>
<line x1="332.39" y1="295.83" x2="332.39" y2="291.02" style="stroke-width: 0.53;stroke: #999999;stroke-linecap: butt;"/>
<line x1="342.73" y1="295.83" x2="342.73" y2="291.02" style="stroke-width: 0.53;stroke: #999999;stroke-linecap: butt;"/>
<line x1="353.06" y1="295.83" x2="353.06" y2="291.02" style="stroke-width: 0.53;stroke: #999999;stroke-linecap: butt;"/>
<line x1="363.39" y1="295.83" x2="363.39" y2="291.02" style="stroke-width: 0.53;stroke: #999999;stroke-linecap: butt;"/>
<line x1="373.73" y1="295.83" x2="373.73" y2="291.02" style="stroke-width: 0.53;stroke: #999999;stroke-linecap: butt;"/>
<line x1="384.06" y1="295.83" x2="384.06" y2="291.02" style="stroke-width: 0.53;stroke: #999999;stroke-linecap: butt;"/>
<line x1="394.39" y1="295.83" x2="394.39" y2="291.02" style="stroke-width: 0.53;stroke: #999999;stroke-linecap: butt;"/>
<line x1="404.73" y1="295.83" x2="404.73" y2="291.02" style="stroke-width: 0.53;stroke: #999999;stroke-linecap: butt;"/>
<line x1="415.06" y1="295.83" x2="415.06" y2="291.02" style="stroke-width: 0.53;stroke: #999999;stroke-linecap: butt;"/>
<line x1="425.39" y1="295.83" x2="425.39" y2="291.02" style="stroke-width: 0.53;stroke: #999999;stroke-linecap: butt;"/>
<line x1="435.72" y1="295.83" x2="435.72" y2="291.02" style="stroke-width: 0.53;stroke: #999999;stroke-linecap: butt;"/>
<line x1="446.06" y1="295.83" x2="446.06" y2="291.02" style="stroke-width: 0.53;stroke: #999999;stroke-linecap: butt;"/>
<line x1="456.39" y1="295.83" x2="456.39" y2="291.02" style="stroke-width: 0.53;stroke: #999999;stroke-linecap: butt;"/>
<line x1="466.72" y1="295.83" x2="466.72" y2="291.02" style="stroke-width: 0.53;stroke: #999999;stroke-linecap: butt;"/>
<line x1="477.06" y1="295.83" x2="477.06" y2="291.02" style="stroke-width: 0.53;stroke: #999999;stroke-linecap: butt;"/>
<line x1="487.39" y1="295.83" x2="487.39" y2="291.02" style="stroke-width: 0.53;stroke: #999999;stroke-linecap: butt;"/>
<line x1="332.39" y1="295.83" x2="487.39" y2="295.83" style="stroke-width: 0.53;stroke: #999999;stroke-linecap: butt;"/>
<g><text x="332.39" y="283.96" text-anchor="middle" style="font-family: Arial;font-size: 7.11px;fill: #A9A9A9;" textLength="3.95px" lengthAdjust="spacingAndGlyphs">0</text></g>
<g><text x="353.06" y="283.96" text-anchor="middle" style="font-family: Arial;font-size: 7.11px;fill: #A9A9A9;" textLength="3.95px" lengthAdjust="spacingAndGlyphs">2</text></g>
<g><text x="373.73" y="283.96" text-anchor="middle" style="font-family: Arial;font-size: 7.11px;fill: #A9A9A9;" textLength="3.95px" lengthAdjust="spacingAndGlyphs">4</text></g>
<g><text x="394.39" y="283.96" text-anchor="middle" style="font-family: Arial;font-size: 7.11px;fill: #A9A9A9;" textLength="3.95px" lengthAdjust="spacingAndGlyphs">6</text></g>
<g><text x="415.06" y="283.96" text-anchor="middle" style="font-family: Arial;font-size: 7.11px;fill: #A9A9A9;" textLength="3.95px" lengthAdjust="spacingAndGlyphs">8</text></g>
<g><text x="435.72" y="283.96" text-anchor="middle" style="font-family: Arial;font-size: 7.11px;fill: #A9A9A9;" textLength="7.91px" lengthAdjust="spacingAndGlyphs">10</text></g>
<g><text x="456.39" y="283.96" text-anchor="middle" style="font-family: Arial;font-size: 7.11px;fill: #A9A9A9;" textLength="7.91px" lengthAdjust="spacingAndGlyphs">12</text></g>
<g><text x="477.06" y="283.96" text-anchor="middle" style="font-family: Arial;font-size: 7.11px;fill: #A9A9A9;" textLength="7.91px" lengthAdjust="spacingAndGlyphs">14</text></g>
<rect x="271.30" y="24.55" width="226.38" height="284.20" style="stroke-width: 1.16;stroke: #4D4D4D;"/>
</g><g clip-path="url(#c5)">
<rect x="38.94" y="5.98" width="226.38" height="18.57" style="stroke-width: 1.16;stroke: none;fill: #FFFFFF;"/>
<g><text x="152.13" y="18.70" text-anchor="middle" style="font-family: Arial;font-size: 9.60px;fill: #1A1A1A;" textLength="31.99px" lengthAdjust="spacingAndGlyphs">Female</text></g>
</g><g clip-path="url(#c7)">
<rect x="271.30" y="5.98" width="226.38" height="18.57" style="stroke-width: 1.16;stroke: none;fill: #FFFFFF;"/>
<g><text x="384.49" y="18.70" text-anchor="middle" style="font-family: Arial;font-size: 9.60px;fill: #1A1A1A;" textLength="20.79px" lengthAdjust="spacingAndGlyphs">Male</text></g>
</g><g clip-path="url(#c8)">
<polyline points="48.37,311.73 48.37,308.74" style="stroke-width: 1.16;stroke: #4D4D4D;stroke-linecap: butt;"/>
<polyline points="100.04,311.73 100.04,308.74" style="stroke-width: 1.16;stroke: #4D4D4D;stroke-linecap: butt;"/>
<polyline points="151.70,311.73 151.70,308.74" style="stroke-width: 1.16;stroke: #4D4D4D;stroke-linecap: butt;"/>
<polyline points="203.37,311.73 203.37,308.74" style="stroke-width: 1.16;stroke: #4D4D4D;stroke-linecap: butt;"/>
<polyline points="255.03,311.73 255.03,308.74" style="stroke-width: 1.16;stroke: #4D4D4D;stroke-linecap: butt;"/>
<g><text x="48.37" y="321.01" text-anchor="middle" style="font-family: Arial;font-size: 9.60px;fill: #4D4D4D;" textLength="5.34px" lengthAdjust="spacingAndGlyphs">0</text></g>
<g><text x="100.04" y="321.01" text-anchor="middle" style="font-family: Arial;font-size: 9.60px;fill: #4D4D4D;" textLength="5.34px" lengthAdjust="spacingAndGlyphs">5</text></g>
<g><text x="151.70" y="321.01" text-anchor="middle" style="font-family: Arial;font-size: 9.60px;fill: #4D4D4D;" textLength="10.67px" lengthAdjust="spacingAndGlyphs">10</text></g>
<g><text x="203.37" y="321.01" text-anchor="middle" style="font-family: Arial;font-size: 9.60px;fill: #4D4D4D;" textLength="10.67px" lengthAdjust="spacingAndGlyphs">15</text></g>
<g><text x="255.03" y="321.01" text-anchor="middle" style="font-family: Arial;font-size: 9.60px;fill: #4D4D4D;" textLength="10.67px" lengthAdjust="spacingAndGlyphs">20</text></g>
<polyline points="280.73,311.73 280.73,308.74" style="stroke-width: 1.16;stroke: #4D4D4D;stroke-linecap: butt;"/>
<polyline points="332.39,311.73 332.39,308.74" style="stroke-width: 1.16;stroke: #4D4D4D;stroke-linecap: butt;"/>
<polyline points="384.06,311.73 384.06,308.74" style="stroke-width: 1.16;stroke: #4D4D4D;stroke-linecap: butt;"/>
<polyline points="435.72,311.73 435.72,308.74" style="stroke-width: 1.16;stroke: #4D4D4D;stroke-linecap: butt;"/>
<polyline points="487.39,311.73 487.39,308.74" style="stroke-width: 1.16;stroke: #4D4D4D;stroke-linecap: butt;"/>
<g><text x="280.73" y="321.01" text-anchor="middle" style="font-family: Arial;font-size: 9.60px;fill: #4D4D4D;" textLength="5.34px" lengthAdjust="spacingAndGlyphs">0</text></g>
<g><text x="332.39" y="321.01" text-anchor="middle" style="font-family: Arial;font-size: 9.60px;fill: #4D4D4D;" textLength="5.34px" lengthAdjust="spacingAndGlyphs">5</text></g>
<g><text x="384.06" y="321.01" text-anchor="middle" style="font-family: Arial;font-size: 9.60px;fill: #4D4D4D;" textLength="10.67px" lengthAdjust="spacingAndGlyphs">10</text></g>
<g><text x="435.72" y="321.01" text-anchor="middle" style="font-family: Arial;font-size: 9.60px;fill: #4D4D4D;" textLength="10.67px" lengthAdjust="spacingAndGlyphs">15</text></g>
<g><text x="487.39" y="321.01" text-anchor="middle" style="font-family: Arial;font-size: 9.60px;fill: #4D4D4D;" textLength="10.67px" lengthAdjust="spacingAndGlyphs">20</text></g>
<g><text x="33.56" y="299.27" text-anchor="end" style="font-family: Arial;font-size: 9.60px;fill: #4D4D4D;" textLength="13.33px" lengthAdjust="spacingAndGlyphs">0.0</text></g>
<g><text x="33.56" y="227.18" text-anchor="end" style="font-family: Arial;font-size: 9.60px;fill: #4D4D4D;" textLength="13.33px" lengthAdjust="spacingAndGlyphs">0.3</text></g>
<g><text x="33.56" y="155.09" text-anchor="end" style="font-family: Arial;font-size: 9.60px;fill: #4D4D4D;" textLength="13.33px" lengthAdjust="spacingAndGlyphs">0.6</text></g>
<g><text x="33.56" y="83.01" text-anchor="end" style="font-family: Arial;font-size: 9.60px;fill: #4D4D4D;" textLength="13.33px" lengthAdjust="spacingAndGlyphs">0.9</text></g>
<polyline points="35.95,295.83 38.94,295.83" style="stroke-width: 1.16;stroke: #4D4D4D;stroke-linecap: butt;"/>
<polyline points="35.95,223.74 38.94,223.74" style="stroke-width: 1.16;stroke: #4D4D4D;stroke-linecap: butt;"/>
<polyline points="35.95,151.65 38.94,151.65" style="stroke-width: 1.16;stroke: #4D4D4D;stroke-linecap: butt;"/>
<polyline points="35.95,79.57 38.94,79.57" style="stroke-width: 1.16;stroke: #4D4D4D;stroke-linecap: butt;"/>
<g><text x="268.31" y="334.73" text-anchor="middle" style="font-family: Arial;font-size: 12.00px;" textLength="114.03px" lengthAdjust="spacingAndGlyphs">Follow-up time, years</text></g>
<g><text transform="translate(14.59,166.65) rotate(-90.00)" text-anchor="middle" style="font-family: Arial;font-size: 12.00px;" textLength="87.35px" lengthAdjust="spacingAndGlyphs">Relative survival</text></g>
<rect x="38.94" y="349.34" width="441.98" height="17.28" style="stroke-width: 1.16;stroke: none;fill: #FFFFFF;"/>
<g><text x="38.94" y="362.28" style="font-family: Arial;font-size: 12.00px;" textLength="56.69px" lengthAdjust="spacingAndGlyphs">T category</text></g>
<rect x="165.08" y="349.34" width="17.28" height="17.28" style="stroke-width: 1.16;stroke: none;fill: #FFFFFF;"/>
<line x1="166.81" y1="357.98" x2="180.63" y2="357.98" style="stroke-width: 0.64;stroke: #8A9045;stroke-linecap: butt;"/>
<line x1="166.81" y1="357.98" x2="180.63" y2="357.98" style="stroke-width: 1.07;stroke: #8A9045;stroke-linecap: butt;"/>
<rect x="270.82" y="349.34" width="17.28" height="17.28" style="stroke-width: 1.16;stroke: none;fill: #FFFFFF;"/>
<line x1="272.55" y1="357.98" x2="286.38" y2="357.98" style="stroke-width: 0.64;stroke: #155F83;stroke-linecap: butt;"/>
<line x1="272.55" y1="357.98" x2="286.38" y2="357.98" style="stroke-width: 1.07;stroke: #155F83;stroke-linecap: butt;"/>
<rect x="376.57" y="349.34" width="17.28" height="17.28" style="stroke-width: 1.16;stroke: none;fill: #FFFFFF;"/>
<line x1="378.29" y1="357.98" x2="392.12" y2="357.98" style="stroke-width: 0.64;stroke: #8F3931;stroke-linecap: butt;"/>
<line x1="378.29" y1="357.98" x2="392.12" y2="357.98" style="stroke-width: 1.07;stroke: #8F3931;stroke-linecap: butt;"/>
<rect x="463.64" y="349.34" width="17.28" height="17.28" style="stroke-width: 1.16;stroke: none;fill: #FFFFFF;"/>
<line x1="465.37" y1="357.98" x2="479.19" y2="357.98" style="stroke-width: 0.64;stroke: #350E20;stroke-linecap: butt;"/>
<line x1="465.37" y1="357.98" x2="479.19" y2="357.98" style="stroke-width: 1.07;stroke: #350E20;stroke-linecap: butt;"/>
<g><text x="101.60" y="361.42" style="font-family: Arial;font-size: 9.60px;" textLength="57.50px" lengthAdjust="spacingAndGlyphs">T1 (1.0 mm)</text></g>
<g><text x="188.34" y="361.42" style="font-family: Arial;font-size: 9.60px;" textLength="76.51px" lengthAdjust="spacingAndGlyphs">T2 (&gt;1.02.0 mm)</text></g>
<g><text x="294.08" y="361.42" style="font-family: Arial;font-size: 9.60px;" textLength="76.51px" lengthAdjust="spacingAndGlyphs">T3 (&gt;2.04.0 mm)</text></g>
<g><text x="399.82" y="361.42" style="font-family: Arial;font-size: 9.60px;" textLength="57.84px" lengthAdjust="spacingAndGlyphs">T4 (&gt;4.0 mm)</text></g>
<rect x="38.94" y="378.57" width="142.27" height="17.28" style="stroke-width: 1.16;stroke: none;fill: #FFFFFF;"/>
<rect x="44.92" y="378.57" width="17.28" height="17.28" style="stroke-width: 1.16;stroke: none;fill: #FFFFFF;"/>
<line x1="46.65" y1="387.21" x2="60.47" y2="387.21" style="stroke-width: 1.07; stroke-dasharray: 5.69, 5.69;stroke-linecap: butt;"/>
<g><text x="68.18" y="390.65" style="font-family: Arial;font-size: 9.60px;" textLength="113.03px" lengthAdjust="spacingAndGlyphs">Conditional 5-year survival</text></g>
</g>
</svg>