<svg xmlns="http://www.w3.org/2000/svg" xmlns:xlink="http://www.w3.org/1999/xlink" class="httpgd" width="968.00" height="652.00" viewBox="0 0 489.09 329.43">
<defs>
  <style type='text/css'><![CDATA[
    .httpgd line, .httpgd polyline, .httpgd polygon, .httpgd path, .httpgd rect, .httpgd circle {
      fill: none;
      stroke: #000000;
      stroke-linecap: round;
      stroke-linejoin: round;
      stroke-miterlimit: 10.00;
    }
  ]]></style>
<clipPath id="c0"><rect x="0.00" y="0.00" width="489.09" height="329.43"/></clipPath>
<clipPath id="c1"><rect x="137.60" y="5.98" width="326.97" height="143.23"/></clipPath>
<clipPath id="c2"><rect x="0.00" y="0.00" width="489.09" height="329.43"/></clipPath>
<clipPath id="c3"><rect x="137.60" y="155.19" width="326.97" height="98.47"/></clipPath>
<clipPath id="c4"><rect x="0.00" y="0.00" width="489.09" height="329.43"/></clipPath>
<clipPath id="c5"><rect x="464.57" y="5.98" width="18.55" height="143.23"/></clipPath>
<clipPath id="c6"><rect x="0.00" y="0.00" width="489.09" height="329.43"/></clipPath>
<clipPath id="c7"><rect x="464.57" y="155.19" width="18.55" height="98.47"/></clipPath>
<clipPath id="c8"><rect x="0.00" y="0.00" width="489.09" height="329.43"/></clipPath>
</defs>
<rect width="100%" height="100%" style="stroke: none;fill: #FFFFFF;"/>
<g clip-path="url(#c0)">
<rect x="0.00" y="0.00" width="489.09" height="329.43" style="stroke-width: 1.16;stroke: #FFFFFF;fill: #FFFFFF;"/>
</g><g clip-path="url(#c1)">
<rect x="137.60" y="5.98" width="326.97" height="143.23" style="stroke-width: 1.16;stroke: none;fill: #FFFFFF;"/>
<polyline points="156.81,149.21 156.81,5.98" style="stroke-width: 0.58;stroke: #F0F0F0;stroke-linecap: butt;"/>
<polyline points="182.27,149.21 182.27,5.98" style="stroke-width: 0.58;stroke: #F0F0F0;stroke-linecap: butt;"/>
<polyline points="207.73,149.21 207.73,5.98" style="stroke-width: 0.58;stroke: #F0F0F0;stroke-linecap: butt;"/>
<polyline points="233.19,149.21 233.19,5.98" style="stroke-width: 0.58;stroke: #F0F0F0;stroke-linecap: butt;"/>
<polyline points="258.66,149.21 258.66,5.98" style="stroke-width: 0.58;stroke: #F0F0F0;stroke-linecap: butt;"/>
<polyline points="284.12,149.21 284.12,5.98" style="stroke-width: 0.58;stroke: #F0F0F0;stroke-linecap: butt;"/>
<polyline points="309.58,149.21 309.58,5.98" style="stroke-width: 0.58;stroke: #F0F0F0;stroke-linecap: butt;"/>
<polyline points="335.05,149.21 335.05,5.98" style="stroke-width: 0.58;stroke: #F0F0F0;stroke-linecap: butt;"/>
<polyline points="360.51,149.21 360.51,5.98" style="stroke-width: 0.58;stroke: #F0F0F0;stroke-linecap: butt;"/>
<polyline points="385.97,149.21 385.97,5.98" style="stroke-width: 0.58;stroke: #F0F0F0;stroke-linecap: butt;"/>
<polyline points="411.44,149.21 411.44,5.98" style="stroke-width: 0.58;stroke: #F0F0F0;stroke-linecap: butt;"/>
<polyline points="436.90,149.21 436.90,5.98" style="stroke-width: 0.58;stroke: #F0F0F0;stroke-linecap: butt;"/>
<polyline points="462.36,149.21 462.36,5.98" style="stroke-width: 0.58;stroke: #F0F0F0;stroke-linecap: butt;"/>
<polyline points="137.60,122.36 464.57,122.36" style="stroke-width: 1.16;stroke: #F0F0F0;stroke-linecap: butt;"/>
<polyline points="137.60,77.59 464.57,77.59" style="stroke-width: 1.16;stroke: #F0F0F0;stroke-linecap: butt;"/>
<polyline points="137.60,32.83 464.57,32.83" style="stroke-width: 1.16;stroke: #F0F0F0;stroke-linecap: butt;"/>
<polyline points="144.07,149.21 144.07,5.98" style="stroke-width: 1.16;stroke: #F0F0F0;stroke-linecap: butt;"/>
<polyline points="169.54,149.21 169.54,5.98" style="stroke-width: 1.16;stroke: #F0F0F0;stroke-linecap: butt;"/>
<polyline points="195.00,149.21 195.00,5.98" style="stroke-width: 1.16;stroke: #F0F0F0;stroke-linecap: butt;"/>
<polyline points="220.46,149.21 220.46,5.98" style="stroke-width: 1.16;stroke: #F0F0F0;stroke-linecap: butt;"/>
<polyline points="245.93,149.21 245.93,5.98" style="stroke-width: 1.16;stroke: #F0F0F0;stroke-linecap: butt;"/>
<polyline points="271.39,149.21 271.39,5.98" style="stroke-width: 1.16;stroke: #F0F0F0;stroke-linecap: butt;"/>
<polyline points="296.85,149.21 296.85,5.98" style="stroke-width: 1.16;stroke: #F0F0F0;stroke-linecap: butt;"/>
<polyline points="322.32,149.21 322.32,5.98" style="stroke-width: 1.16;stroke: #F0F0F0;stroke-linecap: butt;"/>
<polyline points="347.78,149.21 347.78,5.98" style="stroke-width: 1.16;stroke: #F0F0F0;stroke-linecap: butt;"/>
<polyline points="373.24,149.21 373.24,5.98" style="stroke-width: 1.16;stroke: #F0F0F0;stroke-linecap: butt;"/>
<polyline points="398.71,149.21 398.71,5.98" style="stroke-width: 1.16;stroke: #F0F0F0;stroke-linecap: butt;"/>
<polyline points="424.17,149.21 424.17,5.98" style="stroke-width: 1.16;stroke: #F0F0F0;stroke-linecap: butt;"/>
<polyline points="449.63,149.21 449.63,5.98" style="stroke-width: 1.16;stroke: #F0F0F0;stroke-linecap: butt;"/>
<line x1="197.72" y1="83.19" x2="262.83" y2="83.19" style="stroke-width: 1.07;stroke: #E41A1C;stroke-linecap: butt;"/>
<line x1="170.17" y1="127.95" x2="209.11" y2="127.95" style="stroke-width: 1.07;stroke: #377EB8;stroke-linecap: butt;"/>
<line x1="166.93" y1="38.43" x2="214.28" y2="38.43" style="stroke-width: 1.07;stroke: #377EB8;stroke-linecap: butt;"/>
<line x1="182.64" y1="72.00" x2="449.71" y2="72.00" style="stroke-width: 1.07;stroke: #377EB8; stroke-dasharray: 2.85, 2.85;stroke-linecap: butt;"/>
<line x1="159.06" y1="116.76" x2="293.39" y2="116.76" style="stroke-width: 1.07;stroke: #377EB8; stroke-dasharray: 2.85, 2.85;stroke-linecap: butt;"/>
<line x1="152.46" y1="27.24" x2="277.29" y2="27.24" style="stroke-width: 1.07;stroke: #377EB8; stroke-dasharray: 2.85, 2.85;stroke-linecap: butt;"/>
<circle cx="223.89" cy="83.19" r="2.84" style="stroke-width: 1.42;stroke: #E41A1C;fill: #E41A1C;"/>
<circle cx="185.27" cy="127.95" r="2.84" style="stroke-width: 1.42;stroke: #377EB8;fill: #377EB8;"/>
<circle cx="184.14" cy="38.43" r="2.84" style="stroke-width: 1.42;stroke: #377EB8;fill: #377EB8;"/>
<circle cx="252.64" cy="72.00" r="2.84" style="stroke-width: 1.42;stroke: #377EB8;fill: #377EB8;"/>
<circle cx="191.38" cy="116.76" r="2.84" style="stroke-width: 1.42;stroke: #377EB8;fill: #377EB8;"/>
<circle cx="177.51" cy="27.24" r="2.84" style="stroke-width: 1.42;stroke: #377EB8;fill: #377EB8;"/>
<line x1="195.00" y1="149.21" x2="195.00" y2="5.98" style="stroke-width: 1.07;stroke: #5F9EA0; stroke-dasharray: 5.69, 5.69;stroke-linecap: butt;"/>
<rect x="137.60" y="5.98" width="326.97" height="143.23" style="stroke-width: 1.16;stroke: #4D4D4D;"/>
</g><g clip-path="url(#c3)">
<rect x="137.60" y="155.19" width="326.97" height="98.47" style="stroke-width: 1.16;stroke: none;fill: #FFFFFF;"/>
<polyline points="156.81,253.66 156.81,155.19" style="stroke-width: 0.58;stroke: #F0F0F0;stroke-linecap: butt;"/>
<polyline points="182.27,253.66 182.27,155.19" style="stroke-width: 0.58;stroke: #F0F0F0;stroke-linecap: butt;"/>
<polyline points="207.73,253.66 207.73,155.19" style="stroke-width: 0.58;stroke: #F0F0F0;stroke-linecap: butt;"/>
<polyline points="233.19,253.66 233.19,155.19" style="stroke-width: 0.58;stroke: #F0F0F0;stroke-linecap: butt;"/>
<polyline points="258.66,253.66 258.66,155.19" style="stroke-width: 0.58;stroke: #F0F0F0;stroke-linecap: butt;"/>
<polyline points="284.12,253.66 284.12,155.19" style="stroke-width: 0.58;stroke: #F0F0F0;stroke-linecap: butt;"/>
<polyline points="309.58,253.66 309.58,155.19" style="stroke-width: 0.58;stroke: #F0F0F0;stroke-linecap: butt;"/>
<polyline points="335.05,253.66 335.05,155.19" style="stroke-width: 0.58;stroke: #F0F0F0;stroke-linecap: butt;"/>
<polyline points="360.51,253.66 360.51,155.19" style="stroke-width: 0.58;stroke: #F0F0F0;stroke-linecap: butt;"/>
<polyline points="385.97,253.66 385.97,155.19" style="stroke-width: 0.58;stroke: #F0F0F0;stroke-linecap: butt;"/>
<polyline points="411.44,253.66 411.44,155.19" style="stroke-width: 0.58;stroke: #F0F0F0;stroke-linecap: butt;"/>
<polyline points="436.90,253.66 436.90,155.19" style="stroke-width: 0.58;stroke: #F0F0F0;stroke-linecap: butt;"/>
<polyline points="462.36,253.66 462.36,155.19" style="stroke-width: 0.58;stroke: #F0F0F0;stroke-linecap: butt;"/>
<polyline points="137.60,226.81 464.57,226.81" style="stroke-width: 1.16;stroke: #F0F0F0;stroke-linecap: butt;"/>
<polyline points="137.60,182.05 464.57,182.05" style="stroke-width: 1.16;stroke: #F0F0F0;stroke-linecap: butt;"/>
<polyline points="144.07,253.66 144.07,155.19" style="stroke-width: 1.16;stroke: #F0F0F0;stroke-linecap: butt;"/>
<polyline points="169.54,253.66 169.54,155.19" style="stroke-width: 1.16;stroke: #F0F0F0;stroke-linecap: butt;"/>
<polyline points="195.00,253.66 195.00,155.19" style="stroke-width: 1.16;stroke: #F0F0F0;stroke-linecap: butt;"/>
<polyline points="220.46,253.66 220.46,155.19" style="stroke-width: 1.16;stroke: #F0F0F0;stroke-linecap: butt;"/>
<polyline points="245.93,253.66 245.93,155.19" style="stroke-width: 1.16;stroke: #F0F0F0;stroke-linecap: butt;"/>
<polyline points="271.39,253.66 271.39,155.19" style="stroke-width: 1.16;stroke: #F0F0F0;stroke-linecap: butt;"/>
<polyline points="296.85,253.66 296.85,155.19" style="stroke-width: 1.16;stroke: #F0F0F0;stroke-linecap: butt;"/>
<polyline points="322.32,253.66 322.32,155.19" style="stroke-width: 1.16;stroke: #F0F0F0;stroke-linecap: butt;"/>
<polyline points="347.78,253.66 347.78,155.19" style="stroke-width: 1.16;stroke: #F0F0F0;stroke-linecap: butt;"/>
<polyline points="373.24,253.66 373.24,155.19" style="stroke-width: 1.16;stroke: #F0F0F0;stroke-linecap: butt;"/>
<polyline points="398.71,253.66 398.71,155.19" style="stroke-width: 1.16;stroke: #F0F0F0;stroke-linecap: butt;"/>
<polyline points="424.17,253.66 424.17,155.19" style="stroke-width: 1.16;stroke: #F0F0F0;stroke-linecap: butt;"/>
<polyline points="449.63,253.66 449.63,155.19" style="stroke-width: 1.16;stroke: #F0F0F0;stroke-linecap: butt;"/>
<line x1="197.65" y1="187.64" x2="238.00" y2="187.64" style="stroke-width: 1.07;stroke: #E41A1C;stroke-linecap: butt;"/>
<line x1="171.01" y1="232.40" x2="189.92" y2="232.40" style="stroke-width: 1.07;stroke: #E41A1C;stroke-linecap: butt;"/>
<line x1="187.59" y1="176.45" x2="316.09" y2="176.45" style="stroke-width: 1.07;stroke: #377EB8; stroke-dasharray: 2.85, 2.85;stroke-linecap: butt;"/>
<line x1="162.73" y1="221.21" x2="211.44" y2="221.21" style="stroke-width: 1.07;stroke: #377EB8; stroke-dasharray: 2.85, 2.85;stroke-linecap: butt;"/>
<circle cx="215.01" cy="187.64" r="2.84" style="stroke-width: 1.42;stroke: #E41A1C;fill: #E41A1C;"/>
<circle cx="179.22" cy="232.40" r="2.84" style="stroke-width: 1.42;stroke: #E41A1C;fill: #E41A1C;"/>
<circle cx="230.60" cy="176.45" r="2.84" style="stroke-width: 1.42;stroke: #377EB8;fill: #377EB8;"/>
<circle cx="179.53" cy="221.21" r="2.84" style="stroke-width: 1.42;stroke: #377EB8;fill: #377EB8;"/>
<line x1="195.00" y1="253.66" x2="195.00" y2="155.19" style="stroke-width: 1.07;stroke: #5F9EA0; stroke-dasharray: 5.69, 5.69;stroke-linecap: butt;"/>
<rect x="137.60" y="155.19" width="326.97" height="98.47" style="stroke-width: 1.16;stroke: #4D4D4D;"/>
</g><g clip-path="url(#c5)">
<rect x="464.57" y="5.98" width="18.55" height="143.23" style="stroke-width: 1.16;stroke: none;fill: #FFFFFF;"/>
<g><text transform="translate(470.35,77.59) rotate(90.00)" text-anchor="middle" style="font-family: Arimo;font-size: 9.60px;fill: #1A1A1A;" textLength="76.85px" lengthAdjust="spacingAndGlyphs">With Interaction</text></g>
</g><g clip-path="url(#c7)">
<rect x="464.57" y="155.19" width="18.55" height="98.47" style="stroke-width: 1.16;stroke: none;fill: #FFFFFF;"/>
<g><text transform="translate(470.35,204.43) rotate(90.00)" text-anchor="middle" style="font-family: Arimo;font-size: 9.60px;fill: #1A1A1A;" textLength="92.55px" lengthAdjust="spacingAndGlyphs">Without Interaction</text></g>
</g><g clip-path="url(#c8)">
<polyline points="144.07,256.65 144.07,253.66" style="stroke-width: 1.16;stroke: #4D4D4D;stroke-linecap: butt;"/>
<polyline points="169.54,256.65 169.54,253.66" style="stroke-width: 1.16;stroke: #4D4D4D;stroke-linecap: butt;"/>
<polyline points="195.00,256.65 195.00,253.66" style="stroke-width: 1.16;stroke: #4D4D4D;stroke-linecap: butt;"/>
<polyline points="220.46,256.65 220.46,253.66" style="stroke-width: 1.16;stroke: #4D4D4D;stroke-linecap: butt;"/>
<polyline points="245.93,256.65 245.93,253.66" style="stroke-width: 1.16;stroke: #4D4D4D;stroke-linecap: butt;"/>
<polyline points="271.39,256.65 271.39,253.66" style="stroke-width: 1.16;stroke: #4D4D4D;stroke-linecap: butt;"/>
<polyline points="296.85,256.65 296.85,253.66" style="stroke-width: 1.16;stroke: #4D4D4D;stroke-linecap: butt;"/>
<polyline points="322.32,256.65 322.32,253.66" style="stroke-width: 1.16;stroke: #4D4D4D;stroke-linecap: butt;"/>
<polyline points="347.78,256.65 347.78,253.66" style="stroke-width: 1.16;stroke: #4D4D4D;stroke-linecap: butt;"/>
<polyline points="373.24,256.65 373.24,253.66" style="stroke-width: 1.16;stroke: #4D4D4D;stroke-linecap: butt;"/>
<polyline points="398.71,256.65 398.71,253.66" style="stroke-width: 1.16;stroke: #4D4D4D;stroke-linecap: butt;"/>
<polyline points="424.17,256.65 424.17,253.66" style="stroke-width: 1.16;stroke: #4D4D4D;stroke-linecap: butt;"/>
<polyline points="449.63,256.65 449.63,253.66" style="stroke-width: 1.16;stroke: #4D4D4D;stroke-linecap: butt;"/>
<g><text x="144.07" y="266.03" text-anchor="middle" style="font-family: Arimo;font-size: 9.60px;fill: #4D4D4D;" textLength="15.24px" lengthAdjust="spacingAndGlyphs">0.0</text></g>
<g><text x="169.54" y="266.03" text-anchor="middle" style="font-family: Arimo;font-size: 9.60px;fill: #4D4D4D;" textLength="15.24px" lengthAdjust="spacingAndGlyphs">0.5</text></g>
<g><text x="195.00" y="266.03" text-anchor="middle" style="font-family: Arimo;font-size: 9.60px;fill: #4D4D4D;" textLength="15.24px" lengthAdjust="spacingAndGlyphs">1.0</text></g>
<g><text x="220.46" y="266.03" text-anchor="middle" style="font-family: Arimo;font-size: 9.60px;fill: #4D4D4D;" textLength="15.24px" lengthAdjust="spacingAndGlyphs">1.5</text></g>
<g><text x="245.93" y="266.03" text-anchor="middle" style="font-family: Arimo;font-size: 9.60px;fill: #4D4D4D;" textLength="15.24px" lengthAdjust="spacingAndGlyphs">2.0</text></g>
<g><text x="271.39" y="266.03" text-anchor="middle" style="font-family: Arimo;font-size: 9.60px;fill: #4D4D4D;" textLength="15.24px" lengthAdjust="spacingAndGlyphs">2.5</text></g>
<g><text x="296.85" y="266.03" text-anchor="middle" style="font-family: Arimo;font-size: 9.60px;fill: #4D4D4D;" textLength="15.24px" lengthAdjust="spacingAndGlyphs">3.0</text></g>
<g><text x="322.32" y="266.03" text-anchor="middle" style="font-family: Arimo;font-size: 9.60px;fill: #4D4D4D;" textLength="15.24px" lengthAdjust="spacingAndGlyphs">3.5</text></g>
<g><text x="347.78" y="266.03" text-anchor="middle" style="font-family: Arimo;font-size: 9.60px;fill: #4D4D4D;" textLength="15.24px" lengthAdjust="spacingAndGlyphs">4.0</text></g>
<g><text x="373.24" y="266.03" text-anchor="middle" style="font-family: Arimo;font-size: 9.60px;fill: #4D4D4D;" textLength="15.24px" lengthAdjust="spacingAndGlyphs">4.5</text></g>
<g><text x="398.71" y="266.03" text-anchor="middle" style="font-family: Arimo;font-size: 9.60px;fill: #4D4D4D;" textLength="15.24px" lengthAdjust="spacingAndGlyphs">5.0</text></g>
<g><text x="424.17" y="266.03" text-anchor="middle" style="font-family: Arimo;font-size: 9.60px;fill: #4D4D4D;" textLength="15.24px" lengthAdjust="spacingAndGlyphs">5.5</text></g>
<g><text x="449.63" y="266.03" text-anchor="middle" style="font-family: Arimo;font-size: 9.60px;fill: #4D4D4D;" textLength="15.24px" lengthAdjust="spacingAndGlyphs">6.0</text></g>
<g><text x="132.22" y="125.85" text-anchor="end" style="font-family: Arimo;font-size: 9.60px;fill: #4D4D4D;" textLength="82.81px" lengthAdjust="spacingAndGlyphs">period2014-2016</text></g>
<g><text x="132.22" y="81.09" text-anchor="end" style="font-family: Arimo;font-size: 9.60px;fill: #4D4D4D;" textLength="40.20px" lengthAdjust="spacingAndGlyphs">sexmale</text></g>
<g><text x="132.22" y="36.33" text-anchor="end" style="font-family: Arimo;font-size: 9.60px;fill: #4D4D4D;" textLength="126.24px" lengthAdjust="spacingAndGlyphs">sexmale:period2014-2016</text></g>
<polyline points="134.61,122.36 137.60,122.36" style="stroke-width: 1.16;stroke: #4D4D4D;stroke-linecap: butt;"/>
<polyline points="134.61,77.59 137.60,77.59" style="stroke-width: 1.16;stroke: #4D4D4D;stroke-linecap: butt;"/>
<polyline points="134.61,32.83 137.60,32.83" style="stroke-width: 1.16;stroke: #4D4D4D;stroke-linecap: butt;"/>
<g><text x="132.22" y="230.30" text-anchor="end" style="font-family: Arimo;font-size: 9.60px;fill: #4D4D4D;" textLength="82.81px" lengthAdjust="spacingAndGlyphs">period2014-2016</text></g>
<g><text x="132.22" y="185.54" text-anchor="end" style="font-family: Arimo;font-size: 9.60px;fill: #4D4D4D;" textLength="40.20px" lengthAdjust="spacingAndGlyphs">sexmale</text></g>
<polyline points="134.61,226.81 137.60,226.81" style="stroke-width: 1.16;stroke: #4D4D4D;stroke-linecap: butt;"/>
<polyline points="134.61,182.05 137.60,182.05" style="stroke-width: 1.16;stroke: #4D4D4D;stroke-linecap: butt;"/>
<g><text x="301.08" y="279.77" text-anchor="middle" style="font-family: Arimo;font-size: 12.00px;" textLength="73.88px" lengthAdjust="spacingAndGlyphs">Hazard ratio</text></g>
<rect x="137.60" y="294.22" width="146.93" height="29.24" style="stroke-width: 1.16;stroke: none;fill: #FFFFFF;"/>
<rect x="149.56" y="300.20" width="17.28" height="17.28" style="stroke-width: 1.16;stroke: none;fill: #FFFFFF;"/>
<line x1="151.29" y1="308.84" x2="165.11" y2="308.84" style="stroke-width: 1.07;stroke-linecap: butt;"/>
<circle cx="158.20" cy="308.84" r="2.84" style="stroke-width: 1.42;fill: #000000;"/>
<rect x="229.75" y="300.20" width="17.28" height="17.28" style="stroke-width: 1.16;stroke: none;fill: #FFFFFF;"/>
<line x1="231.47" y1="308.84" x2="245.30" y2="308.84" style="stroke-width: 1.07; stroke-dasharray: 2.85, 2.85;stroke-linecap: butt;"/>
<circle cx="238.39" cy="308.84" r="2.84" style="stroke-width: 1.42;fill: #000000;"/>
<g><text x="172.81" y="312.33" style="font-family: Arimo;font-size: 9.60px;" textLength="50.95px" lengthAdjust="spacingAndGlyphs">melanoma</text></g>
<g><text x="253.00" y="312.33" style="font-family: Arimo;font-size: 9.60px;" textLength="25.55px" lengthAdjust="spacingAndGlyphs">other</text></g>
<rect x="284.53" y="294.22" width="188.62" height="29.24" style="stroke-width: 1.16;stroke: none;fill: #FFFFFF;"/>
<rect x="296.49" y="300.20" width="17.28" height="17.28" style="stroke-width: 1.16;stroke: none;fill: #FFFFFF;"/>
<line x1="298.22" y1="308.84" x2="312.04" y2="308.84" style="stroke-width: 1.07;stroke: #377EB8;stroke-linecap: butt;"/>
<circle cx="305.13" cy="308.84" r="2.84" style="stroke-width: 1.42;stroke: #377EB8;fill: #377EB8;"/>
<rect x="394.41" y="300.20" width="17.28" height="17.28" style="stroke-width: 1.16;stroke: none;fill: #FFFFFF;"/>
<line x1="396.13" y1="308.84" x2="409.96" y2="308.84" style="stroke-width: 1.07;stroke: #E41A1C;stroke-linecap: butt;"/>
<circle cx="403.05" cy="308.84" r="2.84" style="stroke-width: 1.42;stroke: #E41A1C;fill: #E41A1C;"/>
<g><text x="319.75" y="312.33" style="font-family: Arimo;font-size: 9.60px;" textLength="68.68px" lengthAdjust="spacingAndGlyphs">not-significant</text></g>
<g><text x="417.66" y="312.33" style="font-family: Arimo;font-size: 9.60px;" textLength="49.51px" lengthAdjust="spacingAndGlyphs">significant</text></g>
</g>
</svg>