<svg xmlns="http://www.w3.org/2000/svg" xmlns:xlink="http://www.w3.org/1999/xlink" class="httpgd" width="1616.00" height="1198.00" viewBox="0 0 534.95 396.58">
<defs>
  <style type='text/css'><![CDATA[
    .httpgd line, .httpgd polyline, .httpgd polygon, .httpgd path, .httpgd rect, .httpgd circle {
      fill: none;
      stroke: #000000;
      stroke-linecap: round;
      stroke-linejoin: round;
      stroke-miterlimit: 10.00;
    }
  ]]></style>
<clipPath id="c0"><rect x="0.00" y="0.00" width="534.95" height="396.58"/></clipPath>
<clipPath id="c1"><rect x="38.94" y="24.55" width="242.03" height="272.97"/></clipPath>
<clipPath id="c2"><rect x="0.00" y="0.00" width="534.95" height="396.58"/></clipPath>
<clipPath id="c3"><rect x="286.95" y="24.55" width="242.03" height="272.97"/></clipPath>
<clipPath id="c4"><rect x="0.00" y="0.00" width="534.95" height="396.58"/></clipPath>
<clipPath id="c5"><rect x="38.94" y="5.98" width="242.03" height="18.57"/></clipPath>
<clipPath id="c6"><rect x="0.00" y="0.00" width="534.95" height="396.58"/></clipPath>
<clipPath id="c7"><rect x="286.95" y="5.98" width="242.03" height="18.57"/></clipPath>
<clipPath id="c8"><rect x="0.00" y="0.00" width="534.95" height="396.58"/></clipPath>
</defs>
<rect width="100%" height="100%" style="stroke: none;fill: #FFFFFF;"/>
<g clip-path="url(#c0)">
<rect x="0.00" y="0.00" width="534.95" height="396.58" style="stroke-width: 1.16;stroke: #FFFFFF;fill: #FFFFFF;"/>
</g><g clip-path="url(#c1)">
<rect x="38.94" y="24.55" width="242.03" height="272.97" style="stroke-width: 1.16;stroke: none;fill: #FFFFFF;"/>
<polyline points="38.94,260.85 280.97,260.85" style="stroke-width: 0.58;stroke: #F0F0F0;stroke-linecap: butt;"/>
<polyline points="38.94,212.33 280.97,212.33" style="stroke-width: 0.58;stroke: #F0F0F0;stroke-linecap: butt;"/>
<polyline points="38.94,163.81 280.97,163.81" style="stroke-width: 0.58;stroke: #F0F0F0;stroke-linecap: butt;"/>
<polyline points="38.94,115.28 280.97,115.28" style="stroke-width: 0.58;stroke: #F0F0F0;stroke-linecap: butt;"/>
<polyline points="38.94,66.76 280.97,66.76" style="stroke-width: 0.58;stroke: #F0F0F0;stroke-linecap: butt;"/>
<polyline points="85.59,297.52 85.59,24.55" style="stroke-width: 0.58;stroke: #F0F0F0;stroke-linecap: butt;"/>
<polyline points="159.34,297.52 159.34,24.55" style="stroke-width: 0.58;stroke: #F0F0F0;stroke-linecap: butt;"/>
<polyline points="233.09,297.52 233.09,24.55" style="stroke-width: 0.58;stroke: #F0F0F0;stroke-linecap: butt;"/>
<polyline points="38.94,285.11 280.97,285.11" style="stroke-width: 1.16;stroke: #F0F0F0;stroke-linecap: butt;"/>
<polyline points="38.94,236.59 280.97,236.59" style="stroke-width: 1.16;stroke: #F0F0F0;stroke-linecap: butt;"/>
<polyline points="38.94,188.07 280.97,188.07" style="stroke-width: 1.16;stroke: #F0F0F0;stroke-linecap: butt;"/>
<polyline points="38.94,139.55 280.97,139.55" style="stroke-width: 1.16;stroke: #F0F0F0;stroke-linecap: butt;"/>
<polyline points="38.94,91.02 280.97,91.02" style="stroke-width: 1.16;stroke: #F0F0F0;stroke-linecap: butt;"/>
<polyline points="38.94,42.50 280.97,42.50" style="stroke-width: 1.16;stroke: #F0F0F0;stroke-linecap: butt;"/>
<polyline points="48.71,297.52 48.71,24.55" style="stroke-width: 1.16;stroke: #F0F0F0;stroke-linecap: butt;"/>
<polyline points="122.46,297.52 122.46,24.55" style="stroke-width: 1.16;stroke: #F0F0F0;stroke-linecap: butt;"/>
<polyline points="196.22,297.52 196.22,24.55" style="stroke-width: 1.16;stroke: #F0F0F0;stroke-linecap: butt;"/>
<polyline points="269.97,297.52 269.97,24.55" style="stroke-width: 1.16;stroke: #F0F0F0;stroke-linecap: butt;"/>
<polyline points="49.94,42.45 51.17,42.45 51.17,42.41 52.40,42.41 52.40,42.60 53.63,42.60 53.63,42.39 54.86,42.39 54.86,42.67 56.09,42.67 56.09,42.54 57.32,42.54 57.32,42.49 58.55,42.49 58.55,42.53 59.78,42.53 59.78,42.48 61.01,42.48 61.01,42.36 62.23,42.36 62.23,42.15 63.46,42.15 63.46,42.43 64.69,42.43 64.69,42.36 65.92,42.36 65.92,42.30 67.15,42.30 67.15,42.23 68.38,42.23 68.38,42.01 69.61,42.01 69.61,41.94 70.84,41.94 70.84,41.88 72.07,41.88 72.07,41.82 73.30,41.82 73.30,41.67 74.53,41.67 74.53,41.69 75.76,41.69 75.76,41.80 76.98,41.80 76.98,42.14 78.21,42.14 78.21,41.92 79.44,41.92 79.44,41.84 80.67,41.84 80.67,41.92 81.90,41.92 81.90,41.76 83.13,41.76 83.13,41.52 84.36,41.52 84.36,41.52 85.59,41.52 85.59,41.61 86.82,41.61 86.82,41.69 88.05,41.69 88.05,41.95 89.28,41.95 89.28,41.96 90.51,41.96 90.51,41.80 91.74,41.80 91.74,42.06 92.96,42.06 92.96,41.99 94.19,41.99 94.19,42.47 95.42,42.47 95.42,42.46 96.65,42.46 96.65,42.45 97.88,42.45 97.88,42.44 99.11,42.44 99.11,42.43 100.34,42.43 100.34,42.51 101.57,42.51 101.57,42.59 102.80,42.59 102.80,42.84 104.03,42.84 104.03,42.92 105.26,42.92 105.26,43.26 106.49,43.26 106.49,43.10 107.71,43.10 107.71,42.86 108.94,42.86 108.94,43.09 110.17,43.09 110.17,42.99 111.40,42.99 111.40,43.14 112.63,43.14 112.63,43.04 113.86,43.04 113.86,43.37 115.09,43.37 115.09,43.44 116.32,43.44 116.32,43.35 117.55,43.35 117.55,43.34 118.78,43.34 118.78,43.41 120.01,43.41 120.01,43.57 121.24,43.57 121.24,43.56 122.46,43.56 122.46,43.73 123.69,43.73 123.69,43.53 124.92,43.53 124.92,43.92 126.15,43.92 126.15,43.80 127.38,43.80 127.38,43.94 128.61,43.94 128.61,43.92 129.84,43.92 129.84,44.07 131.07,44.07 131.07,43.79 132.30,43.79 132.30,43.68 133.53,43.68 133.53,43.66 134.76,43.66 134.76,43.64 135.99,43.64 135.99,43.79 137.22,43.79 137.22,43.69 138.44,43.69 138.44,43.56 139.67,43.56 139.67,43.60 140.90,43.60 140.90,43.73 142.13,43.73 142.13,43.78 143.36,43.78 143.36,43.65 144.59,43.65 144.59,43.78 145.82,43.78 145.82,44.53 147.05,44.53 147.05,44.59 148.28,44.59 148.28,44.48 149.51,44.48 149.51,44.36 150.74,44.36 150.74,44.51 151.97,44.51 151.97,44.49 153.19,44.49 153.19,44.53 154.42,44.53 154.42,44.57 155.65,44.57 155.65,44.43 156.88,44.43 156.88,44.47 158.11,44.47 158.11,44.77 159.34,44.77 159.34,45.17 160.57,45.17 160.57,45.13 161.80,45.13 161.80,45.00 163.03,45.00 163.03,45.23 164.26,45.23 164.26,45.73 165.49,45.73 165.49,45.69 166.72,45.69 166.72,45.58 167.94,45.58 167.94,45.52 169.17,45.52 169.17,45.47 170.40,45.47 170.40,45.23 171.63,45.23 171.63,45.00 172.86,45.00 172.86,44.95 174.09,44.95 174.09,44.99 175.32,44.99 175.32,45.02 176.55,45.02 176.55,45.25 177.78,45.25 177.78,44.93 179.01,44.93 179.01,45.16 180.24,45.16 180.24,45.12 181.47,45.12 181.47,45.07 182.70,45.07 182.70,45.00 183.92,45.00 183.92,45.21 185.15,45.21 185.15,44.96 186.38,44.96 186.38,44.99 187.61,44.99 187.61,44.65 188.84,44.65 188.84,44.49 190.07,44.49 190.07,44.61 191.30,44.61 191.30,44.37 192.53,44.37 192.53,44.31 193.76,44.31 193.76,44.34 194.99,44.34 194.99,44.19 196.22,44.19 196.22,44.23 197.45,44.23 197.45,44.14 198.67,44.14 198.67,44.15 199.90,44.15 199.90,43.97 201.13,43.97 201.13,44.17 202.36,44.17 202.36,44.08 203.59,44.08 203.59,44.10 204.82,44.10 204.82,44.02 206.05,44.02 206.05,44.03 207.28,44.03 207.28,44.70 208.51,44.70 208.51,44.54 209.74,44.54 209.74,44.57 210.97,44.57 210.97,44.51 212.20,44.51 212.20,44.31 213.42,44.31 213.42,43.93 214.65,43.93 214.65,43.92 215.88,43.92 215.88,44.11 217.11,44.11 217.11,44.58 218.34,44.58 218.34,44.49 219.57,44.49 219.57,44.41 220.80,44.41 220.80,44.42 222.03,44.42 222.03,44.24 223.26,44.24 223.26,44.45 224.49,44.45 224.49,44.37 225.72,44.37 225.72,44.01 226.95,44.01 226.95,44.37 228.18,44.37 228.18,44.08 229.40,44.08 229.40,44.16 230.63,44.16 230.63,44.06 231.86,44.06 231.86,44.06 233.09,44.06 233.09,44.05 234.32,44.05 234.32,44.25 235.55,44.25 235.55,44.16 236.78,44.16 236.78,44.06 238.01,44.06 238.01,44.07 239.24,44.07 239.24,44.08 240.47,44.08 240.47,43.99 241.70,43.99 241.70,43.87 242.93,43.87 242.93,43.74 244.15,43.74 244.15,43.43 245.38,43.43 245.38,43.11 246.61,43.11 246.61,43.28 247.84,43.28 247.84,43.27 249.07,43.27 249.07,43.15 250.30,43.15 250.30,43.13 251.53,43.13 251.53,42.92 252.76,42.92 252.76,42.81 253.99,42.81 253.99,42.71 255.22,42.71 255.22,42.80 256.45,42.80 256.45,42.45 257.68,42.45 257.68,42.60 258.91,42.60 258.91,42.65 260.13,42.65 260.13,42.51 261.36,42.51 261.36,42.28 262.59,42.28 262.59,42.65 263.82,42.65 263.82,42.92 265.05,42.92 265.05,42.91 266.28,42.91 266.28,42.69 267.51,42.69 267.51,42.37 268.74,42.37 268.74,42.15 269.97,42.15 269.97,41.73" style="stroke-width: 1.07;stroke: #8A9045;stroke-linecap: butt;"/>
<polyline points="49.94,42.17 51.17,42.17 51.17,42.03 52.40,42.03 52.40,41.89 53.63,41.89 53.63,42.12 54.86,42.12 54.86,41.79 56.09,41.79 56.09,41.66 57.32,41.66 57.32,41.52 58.55,41.52 58.55,41.57 59.78,41.57 59.78,41.43 61.01,41.43 61.01,42.26 62.23,42.26 62.23,42.32 63.46,42.32 63.46,43.35 64.69,43.35 64.69,43.38 65.92,43.38 65.92,44.00 67.15,44.00 67.15,44.04 68.38,44.04 68.38,44.09 69.61,44.09 69.61,45.10 70.84,45.10 70.84,44.77 72.07,44.77 72.07,45.01 73.30,45.01 73.30,45.07 74.53,45.07 74.53,45.71 75.76,45.71 75.76,45.96 76.98,45.96 76.98,46.61 78.21,46.61 78.21,46.87 79.44,46.87 79.44,47.09 80.67,47.09 80.67,47.32 81.90,47.32 81.90,47.36 83.13,47.36 83.13,48.97 84.36,48.97 84.36,49.40 85.59,49.40 85.59,49.05 86.82,49.05 86.82,49.88 88.05,49.88 88.05,50.72 89.28,50.72 89.28,50.37 90.51,50.37 90.51,50.62 91.74,50.62 91.74,51.27 92.96,51.27 92.96,51.53 94.19,51.53 94.19,52.35 95.42,52.35 95.42,52.58 96.65,52.58 96.65,53.21 97.88,53.21 97.88,53.85 99.11,53.85 99.11,53.89 100.34,53.89 100.34,54.53 101.57,54.53 101.57,55.18 102.80,55.18 102.80,56.44 104.03,56.44 104.03,56.69 105.26,56.69 105.26,57.75 106.49,57.75 106.49,57.41 107.71,57.41 107.71,57.46 108.94,57.46 108.94,57.28 110.17,57.28 110.17,57.51 111.40,57.51 111.40,58.15 112.63,58.15 112.63,58.59 113.86,58.59 113.86,58.42 115.09,58.42 115.09,59.48 116.32,59.48 116.32,59.53 117.55,59.53 117.55,59.79 118.78,59.79 118.78,59.84 120.01,59.84 120.01,60.93 121.24,60.93 121.24,61.81 122.46,61.81 122.46,62.29 123.69,62.29 123.69,62.33 124.92,62.33 124.92,62.57 126.15,62.57 126.15,63.24 127.38,63.24 127.38,63.07 128.61,63.07 128.61,63.95 129.84,63.95 129.84,64.63 131.07,64.63 131.07,65.09 132.30,65.09 132.30,65.36 133.53,65.36 133.53,65.83 134.76,65.83 134.76,65.68 135.99,65.68 135.99,66.17 137.22,66.17 137.22,66.24 138.44,66.24 138.44,65.85 139.67,65.85 139.67,66.09 140.90,66.09 140.90,66.55 142.13,66.55 142.13,67.44 143.36,67.44 143.36,67.91 144.59,67.91 144.59,68.82 145.82,68.82 145.82,69.31 147.05,69.31 147.05,68.94 148.28,68.94 148.28,69.86 149.51,69.86 149.51,69.71 150.74,69.71 150.74,70.86 151.97,70.86 151.97,70.93 153.19,70.93 153.19,71.61 154.42,71.61 154.42,71.64 155.65,71.64 155.65,71.89 156.88,71.89 156.88,72.59 158.11,72.59 158.11,72.84 159.34,72.84 159.34,72.89 160.57,72.89 160.57,72.50 161.80,72.50 161.80,72.33 163.03,72.33 163.03,72.16 164.26,72.16 164.26,72.43 165.49,72.43 165.49,72.70 166.72,72.70 166.72,72.54 167.94,72.54 167.94,72.56 169.17,72.56 169.17,72.13 170.40,72.13 170.40,72.82 171.63,72.82 171.63,72.62 172.86,72.62 172.86,72.87 174.09,72.87 174.09,72.89 175.32,72.89 175.32,73.37 176.55,73.37 176.55,74.31 177.78,74.31 177.78,74.58 179.01,74.58 179.01,74.85 180.24,74.85 180.24,74.67 181.47,74.67 181.47,74.72 182.70,74.72 182.70,74.96 183.92,74.96 183.92,75.66 185.15,75.66 185.15,75.68 186.38,75.68 186.38,75.48 187.61,75.48 187.61,76.42 188.84,76.42 188.84,76.93 190.07,76.93 190.07,77.43 191.30,77.43 191.30,77.25 192.53,77.25 192.53,77.31 193.76,77.31 193.76,77.83 194.99,77.83 194.99,77.90 196.22,77.90 196.22,78.90 197.45,78.90 197.45,78.70 198.67,78.70 198.67,79.44 199.90,79.44 199.90,79.25 201.13,79.25 201.13,80.00 202.36,80.00 202.36,80.76 203.59,80.76 203.59,81.29 204.82,81.29 204.82,81.13 206.05,81.13 206.05,81.20 207.28,81.20 207.28,81.74 208.51,81.74 208.51,81.36 209.74,81.36 209.74,82.63 210.97,82.63 210.97,82.25 212.20,82.25 212.20,83.03 213.42,83.03 213.42,83.10 214.65,83.10 214.65,83.17 215.88,83.17 215.88,83.73 217.11,83.73 217.11,83.81 218.34,83.81 218.34,84.86 219.57,84.86 219.57,84.49 220.80,84.49 220.80,84.35 222.03,84.35 222.03,83.98 223.26,83.98 223.26,83.85 224.49,83.85 224.49,83.96 225.72,83.96 225.72,84.32 226.95,84.32 226.95,84.16 228.18,84.16 228.18,83.75 229.40,83.75 229.40,83.84 230.63,83.84 230.63,83.69 231.86,83.69 231.86,83.78 233.09,83.78 233.09,83.65 234.32,83.65 234.32,84.00 235.55,84.00 235.55,84.86 236.78,84.86 236.78,84.99 238.01,84.99 238.01,85.61 239.24,85.61 239.24,85.25 240.47,85.25 240.47,85.39 241.70,85.39 241.70,85.25 242.93,85.25 242.93,85.60 244.15,85.60 244.15,85.46 245.38,85.46 245.38,85.32 246.61,85.32 246.61,85.19 247.84,85.19 247.84,85.31 249.07,85.31 249.07,85.19 250.30,85.19 250.30,85.07 251.53,85.07 251.53,85.45 252.76,85.45 252.76,85.09 253.99,85.09 253.99,84.72 255.22,84.72 255.22,85.12 256.45,85.12 256.45,85.22 257.68,85.22 257.68,85.84 258.91,85.84 258.91,85.69 260.13,85.69 260.13,86.31 261.36,86.31 261.36,86.95 262.59,86.95 262.59,86.81 263.82,86.81 263.82,87.45 265.05,87.45 265.05,87.59 266.28,87.59 266.28,88.24 267.51,88.24 267.51,88.38 268.74,88.38 268.74,88.52 269.97,88.52 269.97,88.67" style="stroke-width: 1.07;stroke: #155F83;stroke-linecap: butt;"/>
<polyline points="49.94,42.33 51.17,42.33 51.17,41.87 52.40,41.87 52.40,41.70 53.63,41.70 53.63,42.12 54.86,42.12 54.86,42.84 56.09,42.84 56.09,43.27 57.32,43.27 57.32,44.31 58.55,44.31 58.55,44.15 59.78,44.15 59.78,44.59 61.01,44.59 61.01,45.04 62.23,45.04 62.23,45.19 63.46,45.19 63.46,46.85 64.69,46.85 64.69,47.86 65.92,47.86 65.92,49.20 67.15,49.20 67.15,49.93 68.38,49.93 68.38,50.97 69.61,50.97 69.61,52.63 70.84,52.63 70.84,53.07 72.07,53.07 72.07,54.44 73.30,54.44 73.30,55.82 74.53,55.82 74.53,57.21 75.76,57.21 75.76,58.31 76.98,58.31 76.98,60.03 78.21,60.03 78.21,60.54 79.44,60.54 79.44,61.63 80.67,61.63 80.67,63.34 81.90,63.34 81.90,62.88 83.13,62.88 83.13,63.99 84.36,63.99 84.36,65.72 85.59,65.72 85.59,67.47 86.82,67.47 86.82,68.29 88.05,68.29 88.05,70.38 89.28,70.38 89.28,71.23 90.51,71.23 90.51,71.14 91.74,71.14 91.74,71.69 92.96,71.69 92.96,72.87 94.19,72.87 94.19,73.70 95.42,73.70 95.42,74.86 96.65,74.86 96.65,76.34 97.88,76.34 97.88,77.83 99.11,77.83 99.11,78.05 100.34,78.05 100.34,78.28 101.57,78.28 101.57,78.18 102.80,78.18 102.80,79.05 104.03,79.05 104.03,80.25 105.26,80.25 105.26,82.11 106.49,82.11 106.49,83.01 107.71,83.01 107.71,83.59 108.94,83.59 108.94,86.07 110.17,86.07 110.17,87.27 111.40,87.27 111.40,89.13 112.63,89.13 112.63,89.04 113.86,89.04 113.86,89.29 115.09,89.29 115.09,89.87 116.32,89.87 116.32,90.12 117.55,90.12 117.55,90.38 118.78,90.38 118.78,90.32 120.01,90.32 120.01,91.57 121.24,91.57 121.24,92.51 122.46,92.51 122.46,93.79 123.69,93.79 123.69,93.71 124.92,93.71 124.92,94.64 126.15,94.64 126.15,95.91 127.38,95.91 127.38,96.52 128.61,96.52 128.61,97.14 129.84,97.14 129.84,97.43 131.07,97.43 131.07,97.39 132.30,97.39 132.30,97.69 133.53,97.69 133.53,97.31 134.76,97.31 134.76,97.96 135.99,97.96 135.99,98.95 137.22,98.95 137.22,99.26 138.44,99.26 138.44,99.88 139.67,99.88 139.67,100.85 140.90,100.85 140.90,100.81 142.13,100.81 142.13,102.15 143.36,102.15 143.36,101.78 144.59,101.78 144.59,102.79 145.82,102.79 145.82,102.77 147.05,102.77 147.05,102.75 148.28,102.75 148.28,103.42 149.51,103.42 149.51,103.76 150.74,103.76 150.74,104.79 151.97,104.79 151.97,104.44 153.19,104.44 153.19,104.75 154.42,104.75 154.42,105.76 155.65,105.76 155.65,106.08 156.88,106.08 156.88,107.47 158.11,107.47 158.11,107.11 159.34,107.11 159.34,106.74 160.57,106.74 160.57,106.74 161.80,106.74 161.80,107.80 163.03,107.80 163.03,107.80 164.26,107.80 164.26,109.22 165.49,109.22 165.49,108.89 166.72,108.89 166.72,108.55 167.94,108.55 167.94,108.89 169.17,108.89 169.17,108.87 170.40,108.87 170.40,108.86 171.63,108.86 171.63,109.57 172.86,109.57 172.86,109.56 174.09,109.56 174.09,110.28 175.32,110.28 175.32,110.65 176.55,110.65 176.55,110.66 177.78,110.66 177.78,111.04 179.01,111.04 179.01,111.78 180.24,111.78 180.24,112.18 181.47,112.18 181.47,112.95 182.70,112.95 182.70,112.58 183.92,112.58 183.92,112.96 185.15,112.96 185.15,113.70 186.38,113.70 186.38,114.83 187.61,114.83 187.61,115.97 188.84,115.97 188.84,115.63 190.07,115.63 190.07,116.77 191.30,116.77 191.30,116.81 192.53,116.81 192.53,117.60 193.76,117.60 193.76,117.27 194.99,117.27 194.99,117.68 196.22,117.68 196.22,117.73 197.45,117.73 197.45,118.12 198.67,118.12 198.67,119.26 199.90,119.26 199.90,118.90 201.13,118.90 201.13,119.30 202.36,119.30 202.36,119.70 203.59,119.70 203.59,120.49 204.82,120.49 204.82,121.28 206.05,121.28 206.05,122.46 207.28,122.46 207.28,122.50 208.51,122.50 208.51,122.93 209.74,122.93 209.74,124.52 210.97,124.52 210.97,124.20 212.20,124.20 212.20,125.00 213.42,125.00 213.42,125.80 214.65,125.80 214.65,125.84 215.88,125.84 215.88,125.89 217.11,125.89 217.11,126.72 218.34,126.72 218.34,128.35 219.57,128.35 219.57,128.04 220.80,128.04 220.80,128.12 222.03,128.12 222.03,128.20 223.26,128.20 223.26,128.28 224.49,128.28 224.49,128.37 225.72,128.37 225.72,128.46 226.95,128.46 226.95,128.52 228.18,128.52 228.18,128.20 229.40,128.20 229.40,128.28 230.63,128.28 230.63,128.36 231.86,128.36 231.86,128.04 233.09,128.04 233.09,127.73 234.32,127.73 234.32,128.61 235.55,128.61 235.55,128.30 236.78,128.30 236.78,127.98 238.01,127.98 238.01,128.47 239.24,128.47 239.24,128.97 240.47,128.97 240.47,129.07 241.70,129.07 241.70,128.74 242.93,128.74 242.93,128.81 244.15,128.81 244.15,128.88 245.38,128.88 245.38,128.55 246.61,128.55 246.61,128.22 247.84,128.22 247.84,129.11 249.07,129.11 249.07,129.61 250.30,129.61 250.30,129.70 251.53,129.70 251.53,129.79 252.76,129.79 252.76,129.48 253.99,129.48 253.99,129.58 255.22,129.58 255.22,130.50 256.45,130.50 256.45,130.16 257.68,130.16 257.68,129.81 258.91,129.81 258.91,129.46 260.13,129.46 260.13,129.54 261.36,129.54 261.36,129.19 262.59,129.19 262.59,129.69 263.82,129.69 263.82,130.21 265.05,130.21 265.05,130.30 266.28,130.30 266.28,130.83 267.51,130.83 267.51,130.95 268.74,130.95 268.74,131.06 269.97,131.06 269.97,130.75" style="stroke-width: 1.07;stroke: #8F3931;stroke-linecap: butt;"/>
<polyline points="49.94,43.25 51.17,43.25 51.17,43.50 52.40,43.50 52.40,45.82 53.63,45.82 53.63,46.08 54.86,46.08 54.86,50.00 56.09,50.00 56.09,52.91 57.32,52.91 57.32,54.80 58.55,54.80 58.55,55.11 59.78,55.11 59.78,55.44 61.01,55.44 61.01,57.36 62.23,57.36 62.23,59.84 63.46,59.84 63.46,61.81 64.69,61.81 64.69,63.71 65.92,63.71 65.92,67.25 67.15,67.25 67.15,68.66 68.38,68.66 68.38,69.55 69.61,69.55 69.61,73.17 70.84,73.17 70.84,73.56 72.07,73.56 72.07,77.26 73.30,77.26 73.30,80.98 74.53,80.98 74.53,86.95 75.76,86.95 75.76,87.41 76.98,87.41 76.98,88.99 78.21,88.99 78.21,90.02 79.44,90.02 79.44,90.45 80.67,90.45 80.67,93.13 81.90,93.13 81.90,95.83 83.13,95.83 83.13,99.13 84.36,99.13 84.36,100.77 85.59,100.77 85.59,101.85 86.82,101.85 86.82,106.39 88.05,106.39 88.05,107.51 89.28,107.51 89.28,108.64 90.51,108.64 90.51,110.37 91.74,110.37 91.74,110.36 92.96,110.36 92.96,110.94 94.19,110.94 94.19,114.39 95.42,114.39 95.42,116.11 96.65,116.11 96.65,119.03 97.88,119.03 97.88,120.22 99.11,120.22 99.11,121.42 100.34,121.42 100.34,123.22 101.57,123.22 101.57,124.44 102.80,124.44 102.80,126.87 104.03,126.87 104.03,128.12 105.26,128.12 105.26,130.60 106.49,130.60 106.49,131.88 107.71,131.88 107.71,131.97 108.94,131.97 108.94,136.28 110.17,136.28 110.17,136.97 111.40,136.97 111.40,140.12 112.63,140.12 112.63,140.85 113.86,140.85 113.86,140.95 115.09,140.95 115.09,143.55 116.32,143.55 116.32,145.55 117.55,145.55 117.55,145.68 118.78,145.68 118.78,147.08 120.01,147.08 120.01,147.25 121.24,147.25 121.24,146.79 122.46,146.79 122.46,148.24 123.69,148.24 123.69,148.37 124.92,148.37 124.92,151.06 126.15,151.06 126.15,152.49 127.38,152.49 127.38,152.66 128.61,152.66 128.61,153.48 129.84,153.48 129.84,154.30 131.07,154.30 131.07,154.50 132.30,154.50 132.30,155.36 133.53,155.36 133.53,156.89 134.76,156.89 134.76,157.11 135.99,157.11 135.99,159.98 137.22,159.98 137.22,160.23 138.44,160.23 138.44,159.77 139.67,159.77 139.67,159.98 140.90,159.98 140.90,160.19 142.13,160.19 142.13,161.10 143.36,161.10 143.36,161.34 144.59,161.34 144.59,161.59 145.82,161.59 145.82,161.85 147.05,161.85 147.05,161.44 148.28,161.44 148.28,163.08 149.51,163.08 149.51,163.36 150.74,163.36 150.74,166.43 151.97,166.43 151.97,166.09 153.19,166.09 153.19,167.09 154.42,167.09 154.42,166.72 155.65,166.72 155.65,167.05 156.88,167.05 156.88,166.69 158.11,166.69 158.11,166.33 159.34,166.33 159.34,167.38 160.57,167.38 160.57,168.44 161.80,168.44 161.80,168.80 163.03,168.80 163.03,168.46 164.26,168.46 164.26,169.53 165.49,169.53 165.49,169.92 166.72,169.92 166.72,169.58 167.94,169.58 167.94,169.93 169.17,169.93 169.17,169.56 170.40,169.56 170.40,170.64 171.63,170.64 171.63,170.29 172.86,170.29 172.86,169.94 174.09,169.94 174.09,169.59 175.32,169.59 175.32,169.24 176.55,169.24 176.55,171.82 177.78,171.82 177.78,172.95 179.01,172.95 179.01,173.35 180.24,173.35 180.24,173.75 181.47,173.75 181.47,174.15 182.70,174.15 182.70,174.52 183.92,174.52 183.92,174.90 185.15,174.90 185.15,176.03 186.38,176.03 186.38,175.66 187.61,175.66 187.61,175.29 188.84,175.29 188.84,174.91 190.07,174.91 190.07,176.82 191.30,176.82 191.30,177.22 192.53,177.22 192.53,177.62 193.76,177.62 193.76,178.03 194.99,178.03 194.99,177.67 196.22,177.67 196.22,177.30 197.45,177.30 197.45,176.89 198.67,176.89 198.67,176.47 199.90,176.47 199.90,176.06 201.13,176.06 201.13,175.64 202.36,175.64 202.36,175.22 203.59,175.22 203.59,174.80 204.82,174.80 204.82,175.18 206.05,175.18 206.05,174.76 207.28,174.76 207.28,174.33 208.51,174.33 208.51,174.72 209.74,174.72 209.74,175.93 210.97,175.93 210.97,175.54 212.20,175.54 212.20,175.93 213.42,175.93 213.42,176.32 214.65,176.32 214.65,175.91 215.88,175.91 215.88,176.33 217.11,176.33 217.11,177.58 218.34,177.58 218.34,178.02 219.57,178.02 219.57,178.45 220.80,178.45 220.80,178.90 222.03,178.90 222.03,178.52 223.26,178.52 223.26,178.99 224.49,178.99 224.49,179.45 225.72,179.45 225.72,179.94 226.95,179.94 226.95,180.39 228.18,180.39 228.18,180.02 229.40,180.02 229.40,180.50 230.63,180.50 230.63,182.71 231.86,182.71 231.86,182.38 233.09,182.38 233.09,182.05 234.32,182.05 234.32,182.58 235.55,182.58 235.55,182.25 236.78,182.25 236.78,181.91 238.01,181.91 238.01,181.58 239.24,181.58 239.24,181.24 240.47,181.24 240.47,181.79 241.70,181.79 241.70,181.43 242.93,181.43 242.93,181.95 244.15,181.95 244.15,181.60 245.38,181.60 245.38,183.04 246.61,183.04 246.61,183.58 247.84,183.58 247.84,184.16 249.07,184.16 249.07,184.74 250.30,184.74 250.30,184.42 251.53,184.42 251.53,185.93 252.76,185.93 252.76,185.63 253.99,185.63 253.99,185.32 255.22,185.32 255.22,185.02 256.45,185.02 256.45,184.67 257.68,184.67 257.68,184.33 258.91,184.33 258.91,183.98 260.13,183.98 260.13,184.56 261.36,184.56 261.36,184.22 262.59,184.22 262.59,183.87 263.82,183.87 263.82,184.47 265.05,184.47 265.05,185.07 266.28,185.07 266.28,184.74 267.51,184.74 267.51,184.40 268.74,184.40 268.74,184.07 269.97,184.07 269.97,183.73" style="stroke-width: 1.07;stroke: #350E20;stroke-linecap: butt;"/>
<polyline points="49.94,42.26 51.17,42.26 51.17,42.12 52.40,42.12 52.40,42.15 53.63,42.15 53.63,42.01 54.86,42.01 54.86,41.86 56.09,41.86 56.09,41.81 57.32,41.81 57.32,41.73 58.55,41.73 58.55,41.65 59.78,41.65 59.78,41.61 61.01,41.61 61.01,41.44 62.23,41.44 62.23,41.30 63.46,41.30 63.46,41.36 64.69,41.36 64.69,41.20 65.92,41.20 65.92,41.30 67.15,41.30 67.15,41.15 68.38,41.15 68.38,40.99 69.61,40.99 69.61,41.11 70.84,41.11 70.84,41.02 72.07,41.02 72.07,41.08 73.30,41.08 73.30,40.93 74.53,40.93 74.53,40.92 75.76,40.92 75.76,40.99 76.98,40.99 76.98,41.03 78.21,41.03 78.21,40.96 79.44,40.96 79.44,40.90 80.67,40.90 80.67,41.07 81.90,41.07 81.90,40.91 83.13,40.91 83.13,40.97 84.36,40.97 84.36,40.96 85.59,40.96 85.59,40.92 86.82,40.92 86.82,40.91 88.05,40.91 88.05,40.79 89.28,40.79 89.28,41.07 90.51,41.07 90.51,40.96 91.74,40.96 91.74,41.01 92.96,41.01 92.96,40.86 94.19,40.86 94.19,40.81 95.42,40.81 95.42,40.71 96.65,40.71 96.65,40.54 97.88,40.54 97.88,40.58 99.11,40.58 99.11,40.79 100.34,40.79 100.34,40.96 101.57,40.96 101.57,40.80 102.80,40.80 102.80,40.77 104.03,40.77 104.03,40.79 105.26,40.79 105.26,40.81 106.49,40.81 106.49,40.84 107.71,40.84 107.71,40.65 108.94,40.65 108.94,40.83 110.17,40.83 110.17,40.75 111.40,40.75 111.40,40.81 112.63,40.81 112.63,40.88 113.86,40.88 113.86,41.10 115.09,41.10 115.09,41.27 116.32,41.27 116.32,41.35 117.55,41.35 117.55,41.20 118.78,41.20 118.78,41.39 120.01,41.39 120.01,41.29 121.24,41.29 121.24,41.45 122.46,41.45 122.46,41.35 123.69,41.35 123.69,41.07 124.92,41.07 124.92,41.36 126.15,41.36 126.15,41.24 127.38,41.24 127.38,41.12 128.61,41.12 128.61,41.16 129.84,41.16 129.84,41.11 131.07,41.11 131.07,41.23 132.30,41.23 132.30,41.35 133.53,41.35 133.53,41.49 134.76,41.49 134.76,41.29 135.99,41.29 135.99,41.50 137.22,41.50 137.22,41.30 138.44,41.30 138.44,41.01 139.67,41.01 139.67,41.21 140.90,41.21 140.90,40.92 142.13,40.92 142.13,41.07 143.36,41.07 143.36,41.23 144.59,41.23 144.59,41.39 145.82,41.39 145.82,41.17 147.05,41.17 147.05,41.28 148.28,41.28 148.28,41.33 149.51,41.33 149.51,41.33 150.74,41.33 150.74,41.40 151.97,41.40 151.97,41.40 153.19,41.40 153.19,41.44 154.42,41.44 154.42,41.69 155.65,41.69 155.65,41.67 156.88,41.67 156.88,41.80 158.11,41.80 158.11,41.80 159.34,41.80 159.34,41.73 160.57,41.73 160.57,41.59 161.80,41.59 161.80,41.38 163.03,41.38 163.03,41.18 164.26,41.18 164.26,41.12 165.49,41.12 165.49,41.07 166.72,41.07 166.72,40.94 167.94,40.94 167.94,41.41 169.17,41.41 169.17,41.33 170.40,41.33 170.40,41.34 171.63,41.34 171.63,41.20 172.86,41.20 172.86,41.22 174.09,41.22 174.09,41.34 175.32,41.34 175.32,41.29 176.55,41.29 176.55,41.25 177.78,41.25 177.78,41.21 179.01,41.21 179.01,41.35 180.24,41.35 180.24,41.06 181.47,41.06 181.47,40.95 182.70,40.95 182.70,41.17 183.92,41.17 183.92,41.50 185.15,41.50 185.15,41.28 186.38,41.28 186.38,41.16 187.61,41.16 187.61,41.14 188.84,41.14 188.84,40.93 190.07,40.93 190.07,40.92 191.30,40.92 191.30,41.01 192.53,41.01 192.53,41.32 193.76,41.32 193.76,41.55 194.99,41.55 194.99,41.47 196.22,41.47 196.22,41.39 197.45,41.39 197.45,41.17 198.67,41.17 198.67,41.16 199.90,41.16 199.90,41.06 201.13,41.06 201.13,40.74 202.36,40.74 202.36,40.65 203.59,40.65 203.59,40.34 204.82,40.34 204.82,40.27 206.05,40.27 206.05,40.19 207.28,40.19 207.28,40.71 208.51,40.71 208.51,40.66 209.74,40.66 209.74,40.37 210.97,40.37 210.97,40.21 212.20,40.21 212.20,40.14 213.42,40.14 213.42,39.94 214.65,39.94 214.65,40.00 215.88,40.00 215.88,40.07 217.11,40.07 217.11,40.02 218.34,40.02 218.34,39.85 219.57,39.85 219.57,39.68 220.80,39.68 220.80,40.06 222.03,40.06 222.03,40.04 223.26,40.04 223.26,40.18 224.49,40.18 224.49,40.18 225.72,40.18 225.72,40.33 226.95,40.33 226.95,41.02 228.18,41.02 228.18,40.72 229.40,40.72 229.40,40.72 230.63,40.72 230.63,40.73 231.86,40.73 231.86,40.90 233.09,40.90 233.09,40.77 234.32,40.77 234.32,41.13 235.55,41.13 235.55,41.03 236.78,41.03 236.78,40.95 238.01,40.95 238.01,41.36 239.24,41.36 239.24,41.29 240.47,41.29 240.47,41.24 241.70,41.24 241.70,41.15 242.93,41.15 242.93,41.07 244.15,41.07 244.15,40.81 245.38,40.81 245.38,40.38 246.61,40.38 246.61,40.31 247.84,40.31 247.84,40.62 249.07,40.62 249.07,40.38 250.30,40.38 250.30,40.14 251.53,40.14 251.53,40.10 252.76,40.10 252.76,39.67 253.99,39.67 253.99,39.24 255.22,39.24 255.22,39.64 256.45,39.64 256.45,39.37 257.68,39.37 257.68,39.33 258.91,39.33 258.91,39.29 260.13,39.29 260.13,39.27 261.36,39.27 261.36,39.04 262.59,39.04 262.59,38.80 263.82,38.80 263.82,38.81 265.05,38.81 265.05,38.82 266.28,38.82 266.28,39.34 267.51,39.34 267.51,39.14 268.74,39.14 268.74,39.72 269.97,39.72 269.97,39.28" style="stroke-width: 1.07;stroke: #8A9045; stroke-dasharray: 2.85, 2.85;stroke-linecap: butt;"/>
<polyline points="49.94,42.32 51.17,42.32 51.17,41.99 52.40,41.99 52.40,41.89 53.63,41.89 53.63,42.12 54.86,42.12 54.86,41.95 56.09,41.95 56.09,42.02 57.32,42.02 57.32,41.77 58.55,41.77 58.55,42.01 59.78,42.01 59.78,41.93 61.01,41.93 61.01,42.19 62.23,42.19 62.23,42.20 63.46,42.20 63.46,42.04 64.69,42.04 64.69,42.03 65.92,42.03 65.92,42.10 67.15,42.10 67.15,42.00 68.38,42.00 68.38,42.09 69.61,42.09 69.61,42.26 70.84,42.26 70.84,42.26 72.07,42.26 72.07,42.45 73.30,42.45 73.30,42.65 74.53,42.65 74.53,43.22 75.76,43.22 75.76,43.44 76.98,43.44 76.98,43.65 78.21,43.65 78.21,43.87 79.44,43.87 79.44,43.87 80.67,43.87 80.67,44.64 81.90,44.64 81.90,45.03 83.13,45.03 83.13,45.43 84.36,45.43 84.36,45.55 85.59,45.55 85.59,46.26 86.82,46.26 86.82,46.29 88.05,46.29 88.05,46.01 89.28,46.01 89.28,46.35 90.51,46.35 90.51,46.80 91.74,46.80 91.74,47.78 92.96,47.78 92.96,48.67 94.19,48.67 94.19,49.22 95.42,49.22 95.42,49.25 96.65,49.25 96.65,50.04 97.88,50.04 97.88,50.84 99.11,50.84 99.11,51.00 100.34,51.00 100.34,51.39 101.57,51.39 101.57,51.67 102.80,51.67 102.80,51.96 104.03,51.96 104.03,52.27 105.26,52.27 105.26,52.81 106.49,52.81 106.49,53.12 107.71,53.12 107.71,52.87 108.94,52.87 108.94,53.74 110.17,53.74 110.17,53.81 111.40,53.81 111.40,53.88 112.63,53.88 112.63,53.95 113.86,53.95 113.86,54.28 115.09,54.28 115.09,54.00 116.32,54.00 116.32,54.09 117.55,54.09 117.55,54.44 118.78,54.44 118.78,54.80 120.01,54.80 120.01,55.04 121.24,55.04 121.24,55.16 122.46,55.16 122.46,56.07 123.69,56.07 123.69,56.29 124.92,56.29 124.92,57.04 126.15,57.04 126.15,57.01 127.38,57.01 127.38,56.98 128.61,56.98 128.61,57.23 129.84,57.23 129.84,56.94 131.07,56.94 131.07,57.34 132.30,57.34 132.30,58.03 133.53,58.03 133.53,58.46 134.76,58.46 134.76,58.62 135.99,58.62 135.99,58.50 137.22,58.50 137.22,58.97 138.44,58.97 138.44,58.80 139.67,58.80 139.67,58.64 140.90,58.64 140.90,59.09 142.13,59.09 142.13,58.93 143.36,58.93 143.36,59.55 144.59,59.55 144.59,60.04 145.82,60.04 145.82,60.71 147.05,60.71 147.05,60.60 148.28,60.60 148.28,60.66 149.51,60.66 149.51,60.72 150.74,60.72 150.74,60.79 151.97,60.79 151.97,60.54 153.19,60.54 153.19,61.08 154.42,61.08 154.42,60.79 155.65,60.79 155.65,61.19 156.88,61.19 156.88,61.76 158.11,61.76 158.11,61.31 159.34,61.31 159.34,61.73 160.57,61.73 160.57,62.36 161.80,62.36 161.80,62.45 163.03,62.45 163.03,62.91 164.26,62.91 164.26,64.13 165.49,64.13 165.49,63.89 166.72,63.89 166.72,63.84 167.94,63.84 167.94,64.13 169.17,64.13 169.17,64.24 170.40,64.24 170.40,64.75 171.63,64.75 171.63,65.07 172.86,65.07 172.86,65.41 174.09,65.41 174.09,65.76 175.32,65.76 175.32,66.11 176.55,66.11 176.55,66.08 177.78,66.08 177.78,65.64 179.01,65.64 179.01,65.41 180.24,65.41 180.24,64.97 181.47,64.97 181.47,64.97 182.70,64.97 182.70,65.37 183.92,65.37 183.92,65.12 185.15,65.12 185.15,64.65 186.38,64.65 186.38,64.41 187.61,64.41 187.61,64.87 188.84,64.87 188.84,65.11 190.07,65.11 190.07,64.64 191.30,64.64 191.30,64.41 192.53,64.41 192.53,63.94 193.76,63.94 193.76,63.73 194.99,63.73 194.99,64.54 196.22,64.54 196.22,65.36 197.45,65.36 197.45,65.11 198.67,65.11 198.67,65.39 199.90,65.39 199.90,65.68 201.13,65.68 201.13,66.79 202.36,66.79 202.36,67.12 203.59,67.12 203.59,67.20 204.82,67.20 204.82,67.02 206.05,67.02 206.05,67.40 207.28,67.40 207.28,67.81 208.51,67.81 208.51,67.65 209.74,67.65 209.74,67.79 210.97,67.79 210.97,67.64 212.20,67.64 212.20,68.04 213.42,68.04 213.42,68.16 214.65,68.16 214.65,67.68 215.88,67.68 215.88,68.44 217.11,68.44 217.11,67.98 218.34,67.98 218.34,69.10 219.57,69.10 219.57,69.00 220.80,69.00 220.80,68.58 222.03,68.58 222.03,68.82 223.26,68.82 223.26,69.08 224.49,69.08 224.49,69.36 225.72,69.36 225.72,68.95 226.95,68.95 226.95,69.20 228.18,69.20 228.18,68.74 229.40,68.74 229.40,68.65 230.63,68.65 230.63,68.92 231.86,68.92 231.86,68.47 233.09,68.47 233.09,68.38 234.32,68.38 234.32,69.07 235.55,69.07 235.55,69.01 236.78,69.01 236.78,68.96 238.01,68.96 238.01,68.92 239.24,68.92 239.24,68.90 240.47,68.90 240.47,68.88 241.70,68.88 241.70,68.81 242.93,68.81 242.93,69.19 244.15,69.19 244.15,68.70 245.38,68.70 245.38,68.21 246.61,68.21 246.61,68.17 247.84,68.17 247.84,67.67 249.07,67.67 249.07,68.11 250.30,68.11 250.30,68.11 251.53,68.11 251.53,69.61 252.76,69.61 252.76,69.14 253.99,69.14 253.99,68.67 255.22,68.67 255.22,70.33 256.45,70.33 256.45,69.83 257.68,69.83 257.68,69.87 258.91,69.87 258.91,69.94 260.13,69.94 260.13,70.60 261.36,70.60 261.36,70.72 262.59,70.72 262.59,70.25 263.82,70.25 263.82,69.79 265.05,69.79 265.05,69.95 266.28,69.95 266.28,70.77 267.51,70.77 267.51,70.35 268.74,70.35 268.74,71.26 269.97,71.26 269.97,71.53" style="stroke-width: 1.07;stroke: #155F83; stroke-dasharray: 2.85, 2.85;stroke-linecap: butt;"/>
<polyline points="49.94,42.10 51.17,42.10 51.17,41.98 52.40,41.98 52.40,42.02 53.63,42.02 53.63,42.22 54.86,42.22 54.86,43.17 56.09,43.17 56.09,43.99 57.32,43.99 57.32,44.67 58.55,44.67 58.55,45.83 59.78,45.83 59.78,47.15 61.01,47.15 61.01,48.35 62.23,48.35 62.23,48.46 63.46,48.46 63.46,49.22 64.69,49.22 64.69,49.13 65.92,49.13 65.92,50.65 67.15,50.65 67.15,50.90 68.38,50.90 68.38,52.46 69.61,52.46 69.61,53.70 70.84,53.70 70.84,55.46 72.07,55.46 72.07,56.91 73.30,56.91 73.30,57.22 74.53,57.22 74.53,59.22 75.76,59.22 75.76,59.73 76.98,59.73 76.98,59.73 78.21,59.73 78.21,60.61 79.44,60.61 79.44,61.10 80.67,61.10 80.67,62.31 81.90,62.31 81.90,63.19 83.13,63.19 83.13,64.80 84.36,64.80 84.36,65.89 85.59,65.89 85.59,67.00 86.82,67.00 86.82,67.95 88.05,67.95 88.05,68.54 89.28,68.54 89.28,69.54 90.51,69.54 90.51,70.38 91.74,70.38 91.74,70.84 92.96,70.84 92.96,71.32 94.19,71.32 94.19,72.94 95.42,72.94 95.42,73.98 96.65,73.98 96.65,75.84 97.88,75.84 97.88,75.91 99.11,75.91 99.11,77.20 100.34,77.20 100.34,77.90 101.57,77.90 101.57,79.01 102.80,79.01 102.80,80.55 104.03,80.55 104.03,80.87 105.26,80.87 105.26,82.25 106.49,82.25 106.49,82.60 107.71,82.60 107.71,82.31 108.94,82.31 108.94,84.11 110.17,84.11 110.17,84.65 111.40,84.65 111.40,84.76 112.63,84.76 112.63,85.98 113.86,85.98 113.86,87.23 115.09,87.23 115.09,87.83 116.32,87.83 116.32,87.99 117.55,87.99 117.55,88.62 118.78,88.62 118.78,89.72 120.01,89.72 120.01,90.85 121.24,90.85 121.24,90.58 122.46,90.58 122.46,91.50 123.69,91.50 123.69,91.18 124.92,91.18 124.92,91.34 126.15,91.34 126.15,91.77 127.38,91.77 127.38,92.22 128.61,92.22 128.61,92.43 129.84,92.43 129.84,92.64 131.07,92.64 131.07,92.61 132.30,92.61 132.30,93.10 133.53,93.10 133.53,94.41 134.76,94.41 134.76,94.15 135.99,94.15 135.99,94.42 137.22,94.42 137.22,94.17 138.44,94.17 138.44,94.95 139.67,94.95 139.67,95.48 140.90,95.48 140.90,96.02 142.13,96.02 142.13,96.30 143.36,96.30 143.36,96.59 144.59,96.59 144.59,97.47 145.82,97.47 145.82,97.78 147.05,97.78 147.05,98.40 148.28,98.40 148.28,99.04 149.51,99.04 149.51,98.78 150.74,98.78 150.74,99.76 151.97,99.76 151.97,99.84 153.19,99.84 153.19,100.17 154.42,100.17 154.42,101.14 155.65,101.14 155.65,101.51 156.88,101.51 156.88,101.56 158.11,101.56 158.11,101.96 159.34,101.96 159.34,102.36 160.57,102.36 160.57,103.12 161.80,103.12 161.80,102.93 163.03,102.93 163.03,103.40 164.26,103.40 164.26,103.55 165.49,103.55 165.49,103.36 166.72,103.36 166.72,102.82 167.94,102.82 167.94,103.65 169.17,103.65 169.17,103.79 170.40,103.79 170.40,103.94 171.63,103.94 171.63,105.62 172.86,105.62 172.86,105.81 174.09,105.81 174.09,105.63 175.32,105.63 175.32,106.65 176.55,106.65 176.55,107.69 177.78,107.69 177.78,107.58 179.01,107.58 179.01,108.29 180.24,108.29 180.24,108.61 181.47,108.61 181.47,109.37 182.70,109.37 182.70,109.27 183.92,109.27 183.92,110.03 185.15,110.03 185.15,109.97 186.38,109.97 186.38,110.34 187.61,110.34 187.61,109.85 188.84,109.85 188.84,110.69 190.07,110.69 190.07,110.67 191.30,110.67 191.30,110.66 192.53,110.66 192.53,111.13 193.76,111.13 193.76,111.62 194.99,111.62 194.99,112.14 196.22,112.14 196.22,111.70 197.45,111.70 197.45,111.20 198.67,111.20 198.67,112.21 199.90,112.21 199.90,111.72 201.13,111.72 201.13,113.82 202.36,113.82 202.36,113.88 203.59,113.88 203.59,113.95 204.82,113.95 204.82,113.48 206.05,113.48 206.05,113.56 207.28,113.56 207.28,113.66 208.51,113.66 208.51,114.35 209.74,114.35 209.74,113.90 210.97,113.90 210.97,114.06 212.20,114.06 212.20,114.20 213.42,114.20 213.42,114.34 214.65,114.34 214.65,114.51 215.88,114.51 215.88,115.33 217.11,115.33 217.11,114.90 218.34,114.90 218.34,114.46 219.57,114.46 219.57,114.68 220.80,114.68 220.80,114.25 222.03,114.25 222.03,114.49 223.26,114.49 223.26,115.44 224.49,115.44 224.49,115.01 225.72,115.01 225.72,114.58 226.95,114.58 226.95,114.82 228.18,114.82 228.18,114.32 229.40,114.32 229.40,114.57 230.63,114.57 230.63,115.61 231.86,115.61 231.86,115.91 233.09,115.91 233.09,116.24 234.32,116.24 234.32,115.78 235.55,115.78 235.55,115.33 236.78,115.33 236.78,115.71 238.01,115.71 238.01,116.96 239.24,116.96 239.24,116.51 240.47,116.51 240.47,117.82 241.70,117.82 241.70,117.38 242.93,117.38 242.93,116.93 244.15,116.93 244.15,116.48 245.38,116.48 245.38,116.93 246.61,116.93 246.61,116.47 247.84,116.47 247.84,116.01 249.07,116.01 249.07,117.46 250.30,117.46 250.30,117.00 251.53,117.00 251.53,116.54 252.76,116.54 252.76,116.07 253.99,116.07 253.99,115.60 255.22,115.60 255.22,116.23 256.45,116.23 256.45,115.72 257.68,115.72 257.68,115.20 258.91,115.20 258.91,114.69 260.13,114.69 260.13,114.17 261.36,114.17 261.36,113.64 262.59,113.64 262.59,113.11 263.82,113.11 263.82,112.58 265.05,112.58 265.05,112.05 266.28,112.05 266.28,111.51 267.51,111.51 267.51,110.96 268.74,110.96 268.74,110.40 269.97,110.40 269.97,111.24" style="stroke-width: 1.07;stroke: #8F3931; stroke-dasharray: 2.85, 2.85;stroke-linecap: butt;"/>
<polyline points="49.94,42.48 51.17,42.48 51.17,43.09 52.40,43.09 52.40,43.30 53.63,43.30 53.63,44.14 54.86,44.14 54.86,46.05 56.09,46.05 56.09,48.84 57.32,48.84 57.32,51.87 58.55,51.87 58.55,53.46 59.78,53.46 59.78,56.16 61.01,56.16 61.01,60.46 62.23,60.46 62.23,63.92 63.46,63.92 63.46,66.32 64.69,66.32 64.69,67.12 65.92,67.12 65.92,71.16 67.15,71.16 67.15,72.96 68.38,72.96 68.38,75.48 69.61,75.48 69.61,79.45 70.84,79.45 70.84,81.84 72.07,81.84 72.07,84.52 73.30,84.52 73.30,86.53 74.53,86.53 74.53,90.05 75.76,90.05 75.76,93.14 76.98,93.14 76.98,96.28 78.21,96.28 78.21,98.70 79.44,98.70 79.44,99.31 80.67,99.31 80.67,102.78 81.90,102.78 81.90,103.72 83.13,103.72 83.13,106.25 84.36,106.25 84.36,106.97 85.59,106.97 85.59,107.96 86.82,107.96 86.82,110.87 88.05,110.87 88.05,110.55 89.28,110.55 89.28,113.00 90.51,113.00 90.51,113.82 91.74,113.82 91.74,115.24 92.96,115.24 92.96,115.83 94.19,115.83 94.19,117.51 95.42,117.51 95.42,118.64 96.65,118.64 96.65,120.96 97.88,120.96 97.88,122.73 99.11,122.73 99.11,123.33 100.34,123.33 100.34,124.55 101.57,124.55 101.57,127.01 102.80,127.01 102.80,127.38 104.03,127.38 104.03,128.68 105.26,128.68 105.26,129.38 106.49,129.38 106.49,131.39 107.71,131.39 107.71,131.83 108.94,131.83 108.94,133.20 110.17,133.20 110.17,132.96 111.40,132.96 111.40,133.72 112.63,133.72 112.63,134.51 113.86,134.51 113.86,134.63 115.09,134.63 115.09,135.45 116.32,135.45 116.32,136.63 117.55,136.63 117.55,137.86 118.78,137.86 118.78,137.68 120.01,137.68 120.01,138.24 121.24,138.24 121.24,138.44 122.46,138.44 122.46,141.26 123.69,141.26 123.69,140.68 124.92,140.68 124.92,140.87 126.15,140.87 126.15,140.69 127.38,140.69 127.38,141.29 128.61,141.29 128.61,141.53 129.84,141.53 129.84,142.56 131.07,142.56 131.07,143.24 132.30,143.24 132.30,143.95 133.53,143.95 133.53,143.86 134.76,143.86 134.76,145.00 135.99,145.00 135.99,145.76 137.22,145.76 137.22,146.97 138.44,146.97 138.44,147.72 139.67,147.72 139.67,147.64 140.90,147.64 140.90,148.45 142.13,148.45 142.13,148.84 143.36,148.84 143.36,150.14 144.59,150.14 144.59,150.12 145.82,150.12 145.82,150.55 147.05,150.55 147.05,150.09 148.28,150.09 148.28,150.55 149.51,150.55 149.51,150.56 150.74,150.56 150.74,151.06 151.97,151.06 151.97,151.10 153.19,151.10 153.19,151.58 154.42,151.58 154.42,151.09 155.65,151.09 155.65,150.59 156.88,150.59 156.88,151.12 158.11,151.12 158.11,151.15 159.34,151.15 159.34,150.67 160.57,150.67 160.57,151.25 161.80,151.25 161.80,150.78 163.03,150.78 163.03,150.86 164.26,150.86 164.26,151.52 165.49,151.52 165.49,151.61 166.72,151.61 166.72,151.14 167.94,151.14 167.94,150.62 169.17,150.62 169.17,150.68 170.40,150.68 170.40,151.95 171.63,151.95 171.63,151.43 172.86,151.43 172.86,152.13 174.09,152.13 174.09,151.63 175.32,151.63 175.32,151.12 176.55,151.12 176.55,154.42 177.78,154.42 177.78,154.59 179.01,154.59 179.01,154.12 180.24,154.12 180.24,153.66 181.47,153.66 181.47,153.19 182.70,153.19 182.70,152.67 183.92,152.67 183.92,152.82 185.15,152.82 185.15,152.31 186.38,152.31 186.38,152.49 187.61,152.49 187.61,154.08 188.84,154.08 188.84,153.59 190.07,153.59 190.07,153.09 191.30,153.09 191.30,154.05 192.53,154.05 192.53,155.04 193.76,155.04 193.76,155.31 194.99,155.31 194.99,155.59 196.22,155.59 196.22,155.14 197.45,155.14 197.45,154.63 198.67,154.63 198.67,154.92 199.90,154.92 199.90,154.42 201.13,154.42 201.13,154.72 202.36,154.72 202.36,154.24 203.59,154.24 203.59,153.75 204.82,153.75 204.82,153.26 206.05,153.26 206.05,155.32 207.28,155.32 207.28,154.82 208.51,154.82 208.51,154.33 209.74,154.33 209.74,153.83 210.97,153.83 210.97,154.24 212.20,154.24 212.20,153.68 213.42,153.68 213.42,153.11 214.65,153.11 214.65,152.54 215.88,152.54 215.88,151.97 217.11,151.97 217.11,151.40 218.34,151.40 218.34,150.82 219.57,150.82 219.57,150.24 220.80,150.24 220.80,149.66 222.03,149.66 222.03,150.08 223.26,150.08 223.26,151.55 224.49,151.55 224.49,152.06 225.72,152.06 225.72,151.53 226.95,151.53 226.95,153.11 228.18,153.11 228.18,153.66 229.40,153.66 229.40,153.11 230.63,153.11 230.63,152.54 231.86,152.54 231.86,154.24 233.09,154.24 233.09,153.72 234.32,153.72 234.32,154.35 235.55,154.35 235.55,155.02 236.78,155.02 236.78,155.75 238.01,155.75 238.01,156.49 239.24,156.49 239.24,156.02 240.47,156.02 240.47,155.56 241.70,155.56 241.70,155.05 242.93,155.05 242.93,155.82 244.15,155.82 244.15,155.30 245.38,155.30 245.38,154.78 246.61,154.78 246.61,155.60 247.84,155.60 247.84,156.44 249.07,156.44 249.07,155.96 250.30,155.96 250.30,155.49 251.53,155.49 251.53,155.03 252.76,155.03 252.76,154.56 253.99,154.56 253.99,155.61 255.22,155.61 255.22,155.15 256.45,155.15 256.45,154.64 257.68,154.64 257.68,155.69 258.91,155.69 258.91,155.18 260.13,155.18 260.13,157.96 261.36,157.96 261.36,157.47 262.59,157.47 262.59,158.64 263.82,158.64 263.82,159.87 265.05,159.87 265.05,159.43 266.28,159.43 266.28,160.75 267.51,160.75 267.51,160.32 268.74,160.32 268.74,159.90 269.97,159.90 269.97,159.48" style="stroke-width: 1.07;stroke: #350E20; stroke-dasharray: 2.85, 2.85;stroke-linecap: butt;"/>
<rect x="38.94" y="24.55" width="242.03" height="272.97" style="stroke-width: 1.16;stroke: #4D4D4D;"/>
</g><g clip-path="url(#c3)">
<rect x="286.95" y="24.55" width="242.03" height="272.97" style="stroke-width: 1.16;stroke: none;fill: #FFFFFF;"/>
<polyline points="286.95,260.85 528.97,260.85" style="stroke-width: 0.58;stroke: #F0F0F0;stroke-linecap: butt;"/>
<polyline points="286.95,212.33 528.97,212.33" style="stroke-width: 0.58;stroke: #F0F0F0;stroke-linecap: butt;"/>
<polyline points="286.95,163.81 528.97,163.81" style="stroke-width: 0.58;stroke: #F0F0F0;stroke-linecap: butt;"/>
<polyline points="286.95,115.28 528.97,115.28" style="stroke-width: 0.58;stroke: #F0F0F0;stroke-linecap: butt;"/>
<polyline points="286.95,66.76 528.97,66.76" style="stroke-width: 0.58;stroke: #F0F0F0;stroke-linecap: butt;"/>
<polyline points="333.59,297.52 333.59,24.55" style="stroke-width: 0.58;stroke: #F0F0F0;stroke-linecap: butt;"/>
<polyline points="407.35,297.52 407.35,24.55" style="stroke-width: 0.58;stroke: #F0F0F0;stroke-linecap: butt;"/>
<polyline points="481.10,297.52 481.10,24.55" style="stroke-width: 0.58;stroke: #F0F0F0;stroke-linecap: butt;"/>
<polyline points="286.95,285.11 528.97,285.11" style="stroke-width: 1.16;stroke: #F0F0F0;stroke-linecap: butt;"/>
<polyline points="286.95,236.59 528.97,236.59" style="stroke-width: 1.16;stroke: #F0F0F0;stroke-linecap: butt;"/>
<polyline points="286.95,188.07 528.97,188.07" style="stroke-width: 1.16;stroke: #F0F0F0;stroke-linecap: butt;"/>
<polyline points="286.95,139.55 528.97,139.55" style="stroke-width: 1.16;stroke: #F0F0F0;stroke-linecap: butt;"/>
<polyline points="286.95,91.02 528.97,91.02" style="stroke-width: 1.16;stroke: #F0F0F0;stroke-linecap: butt;"/>
<polyline points="286.95,42.50 528.97,42.50" style="stroke-width: 1.16;stroke: #F0F0F0;stroke-linecap: butt;"/>
<polyline points="296.72,297.52 296.72,24.55" style="stroke-width: 1.16;stroke: #F0F0F0;stroke-linecap: butt;"/>
<polyline points="370.47,297.52 370.47,24.55" style="stroke-width: 1.16;stroke: #F0F0F0;stroke-linecap: butt;"/>
<polyline points="444.22,297.52 444.22,24.55" style="stroke-width: 1.16;stroke: #F0F0F0;stroke-linecap: butt;"/>
<polyline points="517.97,297.52 517.97,24.55" style="stroke-width: 1.16;stroke: #F0F0F0;stroke-linecap: butt;"/>
<polyline points="297.95,42.67 299.18,42.67 299.18,42.62 300.41,42.62 300.41,42.45 301.64,42.45 301.64,42.40 302.86,42.40 302.86,42.69 304.09,42.69 304.09,42.64 305.32,42.64 305.32,42.83 306.55,42.83 306.55,42.79 307.78,42.79 307.78,42.86 309.01,42.86 309.01,42.82 310.24,42.82 310.24,43.36 311.47,43.36 311.47,43.22 312.70,43.22 312.70,43.28 313.93,43.28 313.93,43.80 315.16,43.80 315.16,43.52 316.39,43.52 316.39,44.05 317.61,44.05 317.61,44.12 318.84,44.12 318.84,44.42 320.07,44.42 320.07,44.85 321.30,44.85 321.30,44.58 322.53,44.58 322.53,45.13 323.76,45.13 323.76,45.09 324.99,45.09 324.99,45.18 326.22,45.18 326.22,45.03 327.45,45.03 327.45,44.96 328.68,44.96 328.68,45.13 329.91,45.13 329.91,45.31 331.14,45.31 331.14,45.37 332.37,45.37 332.37,45.79 333.59,45.79 333.59,46.22 334.82,46.22 334.82,46.17 336.05,46.17 336.05,46.12 337.28,46.12 337.28,46.91 338.51,46.91 338.51,46.86 339.74,46.86 339.74,47.18 340.97,47.18 340.97,47.63 342.20,47.63 342.20,48.28 343.43,48.28 343.43,47.98 344.66,47.98 344.66,48.28 345.89,48.28 345.89,48.11 347.12,48.11 347.12,48.54 348.34,48.54 348.34,48.37 349.57,48.37 349.57,48.57 350.80,48.57 350.80,48.78 352.03,48.78 352.03,48.86 353.26,48.86 353.26,49.56 354.49,49.56 354.49,49.77 355.72,49.77 355.72,49.75 356.95,49.75 356.95,49.81 358.18,49.81 358.18,49.62 359.41,49.62 359.41,49.94 360.64,49.94 360.64,50.14 361.87,50.14 361.87,49.96 363.09,49.96 363.09,50.17 364.32,50.17 364.32,50.62 365.55,50.62 365.55,50.71 366.78,50.71 366.78,50.54 368.01,50.54 368.01,50.38 369.24,50.38 369.24,50.35 370.47,50.35 370.47,51.07 371.70,51.07 371.70,50.88 372.93,50.88 372.93,51.07 374.16,51.07 374.16,50.89 375.39,50.89 375.39,50.96 376.62,50.96 376.62,51.29 377.85,51.29 377.85,51.11 379.07,51.11 379.07,51.19 380.30,51.19 380.30,51.02 381.53,51.02 381.53,50.86 382.76,50.86 382.76,51.33 383.99,51.33 383.99,51.42 385.22,51.42 385.22,51.00 386.45,51.00 386.45,50.80 387.68,50.80 387.68,51.37 388.91,51.37 388.91,51.44 390.14,51.44 390.14,51.64 391.37,51.64 391.37,51.20 392.60,51.20 392.60,51.27 393.82,51.27 393.82,51.08 395.05,51.08 395.05,51.29 396.28,51.29 396.28,51.11 397.51,51.11 397.51,51.33 398.74,51.33 398.74,51.94 399.97,51.94 399.97,51.64 401.20,51.64 401.20,51.97 402.43,51.97 402.43,52.17 403.66,52.17 403.66,51.97 404.89,51.97 404.89,52.04 406.12,52.04 406.12,51.98 407.35,51.98 407.35,52.45 408.57,52.45 408.57,52.00 409.80,52.00 409.80,51.67 411.03,51.67 411.03,51.35 412.26,51.35 412.26,51.16 413.49,51.16 413.49,50.97 414.72,50.97 414.72,50.65 415.95,50.65 415.95,50.83 417.18,50.83 417.18,51.02 418.41,51.02 418.41,51.22 419.64,51.22 419.64,51.15 420.87,51.15 420.87,51.35 422.10,51.35 422.10,51.29 423.33,51.29 423.33,51.23 424.55,51.23 424.55,51.31 425.78,51.31 425.78,51.53 427.01,51.53 427.01,51.89 428.24,51.89 428.24,51.98 429.47,51.98 429.47,52.22 430.70,52.22 430.70,52.00 431.93,52.00 431.93,51.92 433.16,51.92 433.16,51.85 434.39,51.85 434.39,51.78 435.62,51.78 435.62,52.27 436.85,52.27 436.85,52.34 438.08,52.34 438.08,52.42 439.30,52.42 439.30,52.50 440.53,52.50 440.53,53.01 441.76,53.01 441.76,53.10 442.99,53.10 442.99,52.91 444.22,52.91 444.22,53.71 445.45,53.71 445.45,53.49 446.68,53.49 446.68,53.41 447.91,53.41 447.91,53.34 449.14,53.34 449.14,53.55 450.37,53.55 450.37,53.20 451.60,53.20 451.60,53.71 452.83,53.71 452.83,53.93 454.05,53.93 454.05,53.87 455.28,53.87 455.28,53.82 456.51,53.82 456.51,53.62 457.74,53.62 457.74,54.16 458.97,54.16 458.97,53.96 460.20,53.96 460.20,54.31 461.43,54.31 461.43,53.93 462.66,53.93 462.66,54.29 463.89,54.29 463.89,54.36 465.12,54.36 465.12,54.44 466.35,54.44 466.35,54.37 467.58,54.37 467.58,54.00 468.81,54.00 468.81,54.23 470.03,54.23 470.03,53.87 471.26,53.87 471.26,53.66 472.49,53.66 472.49,53.46 473.72,53.46 473.72,53.10 474.95,53.10 474.95,53.15 476.18,53.15 476.18,52.76 477.41,52.76 477.41,53.11 478.64,53.11 478.64,53.02 479.87,53.02 479.87,53.09 481.10,53.09 481.10,52.85 482.33,52.85 482.33,52.92 483.56,52.92 483.56,52.99 484.78,52.99 484.78,53.22 486.01,53.22 486.01,53.31 487.24,53.31 487.24,52.94 488.47,52.94 488.47,53.33 489.70,53.33 489.70,53.23 490.93,53.23 490.93,53.60 492.16,53.60 492.16,53.04 493.39,53.04 493.39,53.26 494.62,53.26 494.62,53.64 495.85,53.64 495.85,53.42 497.08,53.42 497.08,53.34 498.31,53.34 498.31,53.12 499.54,53.12 499.54,52.90 500.76,52.90 500.76,52.52 501.99,52.52 501.99,52.45 503.22,52.45 503.22,51.92 504.45,51.92 504.45,51.81 505.68,51.81 505.68,51.87 506.91,51.87 506.91,52.09 508.14,52.09 508.14,52.17 509.37,52.17 509.37,52.57 510.60,52.57 510.60,52.66 511.83,52.66 511.83,52.60 513.06,52.60 513.06,52.86 514.29,52.86 514.29,52.80 515.51,52.80 515.51,52.42 516.74,52.42 516.74,52.36 517.97,52.36 517.97,52.64" style="stroke-width: 1.07;stroke: #8A9045;stroke-linecap: butt;"/>
<polyline points="297.95,42.01 299.18,42.01 299.18,41.96 300.41,41.96 300.41,42.35 301.64,42.35 301.64,42.31 302.86,42.31 302.86,43.15 304.09,43.15 304.09,44.00 305.32,44.00 305.32,43.97 306.55,43.97 306.55,44.38 307.78,44.38 307.78,45.03 309.01,45.03 309.01,46.34 310.24,46.34 310.24,46.10 311.47,46.10 311.47,46.75 312.70,46.75 312.70,46.92 313.93,46.92 313.93,47.09 315.16,47.09 315.16,47.27 316.39,47.27 316.39,47.44 317.61,47.44 317.61,47.85 318.84,47.85 318.84,48.94 320.07,48.94 320.07,48.90 321.30,48.90 321.30,48.86 322.53,48.86 322.53,50.66 323.76,50.66 323.76,52.47 324.99,52.47 324.99,53.15 326.22,53.15 326.22,53.38 327.45,53.38 327.45,53.81 328.68,53.81 328.68,54.47 329.91,54.47 329.91,55.13 331.14,55.13 331.14,56.04 332.37,56.04 332.37,56.48 333.59,56.48 333.59,58.09 334.82,58.09 334.82,59.25 336.05,59.25 336.05,59.48 337.28,59.48 337.28,61.82 338.51,61.82 338.51,62.53 339.74,62.53 339.74,63.96 340.97,63.96 340.97,63.98 342.20,63.98 342.20,64.91 343.43,64.91 343.43,65.14 344.66,65.14 344.66,65.37 345.89,65.37 345.89,66.08 347.12,66.08 347.12,66.56 348.34,66.56 348.34,67.29 349.57,67.29 349.57,68.51 350.80,68.51 350.80,69.73 352.03,69.73 352.03,70.73 353.26,70.73 353.26,72.45 354.49,72.45 354.49,73.23 355.72,73.23 355.72,73.29 356.95,73.29 356.95,75.50 358.18,75.50 358.18,75.77 359.41,75.77 359.41,76.30 360.64,76.30 360.64,77.56 361.87,77.56 361.87,77.85 363.09,77.85 363.09,79.37 364.32,79.37 364.32,79.42 365.55,79.42 365.55,79.72 366.78,79.72 366.78,80.03 368.01,80.03 368.01,80.59 369.24,80.59 369.24,80.16 370.47,80.16 370.47,81.22 371.70,81.22 371.70,81.26 372.93,81.26 372.93,82.79 374.16,82.79 374.16,83.34 375.39,83.34 375.39,83.39 376.62,83.39 376.62,84.46 377.85,84.46 377.85,84.52 379.07,84.52 379.07,85.60 380.30,85.60 380.30,86.44 381.53,86.44 381.53,87.28 382.76,87.28 382.76,87.62 383.99,87.62 383.99,87.72 385.22,87.72 385.22,87.81 386.45,87.81 386.45,87.88 387.68,87.88 387.68,88.20 388.91,88.20 388.91,89.30 390.14,89.30 390.14,90.15 391.37,90.15 391.37,89.98 392.60,89.98 392.60,90.33 393.82,90.33 393.82,90.16 395.05,90.16 395.05,91.30 396.28,91.30 396.28,92.18 397.51,92.18 397.51,92.81 398.74,92.81 398.74,93.19 399.97,93.19 399.97,92.79 401.20,92.79 401.20,93.40 402.43,93.40 402.43,93.49 403.66,93.49 403.66,93.86 404.89,93.86 404.89,94.22 406.12,94.22 406.12,95.12 407.35,95.12 407.35,95.76 408.57,95.76 408.57,96.67 409.80,96.67 409.80,96.80 411.03,96.80 411.03,97.74 412.26,97.74 412.26,98.15 413.49,98.15 413.49,97.76 414.72,97.76 414.72,97.91 415.95,97.91 415.95,98.03 417.18,98.03 417.18,97.88 418.41,97.88 418.41,97.73 419.64,97.73 419.64,97.85 420.87,97.85 420.87,97.97 422.10,97.97 422.10,98.37 423.33,98.37 423.33,98.23 424.55,98.23 424.55,99.18 425.78,99.18 425.78,99.60 427.01,99.60 427.01,99.46 428.24,99.46 428.24,99.32 429.47,99.32 429.47,99.46 430.70,99.46 430.70,99.85 431.93,99.85 431.93,99.68 433.16,99.68 433.16,99.79 434.39,99.79 434.39,99.91 435.62,99.91 435.62,100.03 436.85,100.03 436.85,100.72 438.08,100.72 438.08,101.42 439.30,101.42 439.30,101.56 440.53,101.56 440.53,101.43 441.76,101.43 441.76,101.02 442.99,101.02 442.99,100.60 444.22,100.60 444.22,101.61 445.45,101.61 445.45,101.73 446.68,101.73 446.68,103.00 447.91,103.00 447.91,102.86 449.14,102.86 449.14,103.86 450.37,103.86 450.37,103.72 451.60,103.72 451.60,104.16 452.83,104.16 452.83,105.20 454.05,105.20 454.05,105.09 455.28,105.09 455.28,105.86 456.51,105.86 456.51,105.75 457.74,105.75 457.74,106.81 458.97,106.81 458.97,106.42 460.20,106.42 460.20,106.88 461.43,106.88 461.43,107.04 462.66,107.04 462.66,107.51 463.89,107.51 463.89,107.68 465.12,107.68 465.12,107.86 466.35,107.86 466.35,108.04 467.58,108.04 467.58,107.63 468.81,107.63 468.81,107.52 470.03,107.52 470.03,107.11 471.26,107.11 471.26,107.90 472.49,107.90 472.49,107.80 473.72,107.80 473.72,107.70 474.95,107.70 474.95,107.56 476.18,107.56 476.18,107.43 477.41,107.43 477.41,107.30 478.64,107.30 478.64,107.16 479.87,107.16 479.87,108.56 481.10,108.56 481.10,108.75 482.33,108.75 482.33,108.32 483.56,108.32 483.56,108.52 484.78,108.52 484.78,108.40 486.01,108.40 486.01,107.98 487.24,107.98 487.24,108.18 488.47,108.18 488.47,108.07 489.70,108.07 489.70,108.55 490.93,108.55 490.93,108.72 492.16,108.72 492.16,109.21 493.39,109.21 493.39,108.77 494.62,108.77 494.62,108.34 495.85,108.34 495.85,108.53 497.08,108.53 497.08,109.04 498.31,109.04 498.31,108.92 499.54,108.92 499.54,109.75 500.76,109.75 500.76,109.64 501.99,109.64 501.99,109.53 503.22,109.53 503.22,110.06 504.45,110.06 504.45,109.61 505.68,109.61 505.68,110.43 506.91,110.43 506.91,109.98 508.14,109.98 508.14,109.53 509.37,109.53 509.37,109.40 510.60,109.40 510.60,110.57 511.83,110.57 511.83,110.79 513.06,110.79 513.06,111.00 514.29,111.00 514.29,111.23 515.51,111.23 515.51,111.46 516.74,111.46 516.74,111.69 517.97,111.69 517.97,111.27" style="stroke-width: 1.07;stroke: #155F83;stroke-linecap: butt;"/>
<polyline points="297.95,42.32 299.18,42.32 299.18,42.15 300.41,42.15 300.41,43.87 301.64,43.87 301.64,44.25 302.86,44.25 302.86,46.01 304.09,46.01 304.09,47.52 305.32,47.52 305.32,47.67 306.55,47.67 306.55,48.38 307.78,48.38 307.78,49.92 309.01,49.92 309.01,51.20 310.24,51.20 310.24,51.66 311.47,51.66 311.47,55.45 312.70,55.45 312.70,56.15 313.93,56.15 313.93,59.08 315.16,59.08 315.16,59.81 316.39,59.81 316.39,60.56 317.61,60.56 317.61,63.55 318.84,63.55 318.84,64.88 320.07,64.88 320.07,68.20 321.30,68.20 321.30,69.28 322.53,69.28 322.53,71.22 323.76,71.22 323.76,74.61 324.99,74.61 324.99,75.75 326.22,75.75 326.22,77.47 327.45,77.47 327.45,79.44 328.68,79.44 328.68,82.01 329.91,82.01 329.91,83.45 331.14,83.45 331.14,88.37 332.37,88.37 332.37,90.15 333.59,90.15 333.59,92.81 334.82,92.81 334.82,94.03 336.05,94.03 336.05,95.27 337.28,95.27 337.28,97.69 338.51,97.69 338.51,98.36 339.74,98.36 339.74,99.93 340.97,99.93 340.97,100.32 342.20,100.32 342.20,103.05 343.43,103.05 343.43,103.72 344.66,103.72 344.66,106.19 345.89,106.19 345.89,108.09 347.12,108.09 347.12,109.40 348.34,109.40 348.34,111.02 349.57,111.02 349.57,111.44 350.80,111.44 350.80,113.68 352.03,113.68 352.03,115.03 353.26,115.03 353.26,117.91 354.49,117.91 354.49,118.98 355.72,118.98 355.72,118.84 356.95,118.84 356.95,121.42 358.18,121.42 358.18,120.93 359.41,120.93 359.41,122.30 360.64,122.30 360.64,123.38 361.87,123.38 361.87,126.64 363.09,126.64 363.09,127.75 364.32,127.75 364.32,128.25 365.55,128.25 365.55,130.63 366.78,130.63 366.78,132.40 368.01,132.40 368.01,133.25 369.24,133.25 369.24,134.10 370.47,134.10 370.47,135.90 371.70,135.90 371.70,136.42 372.93,136.42 372.93,138.22 374.16,138.22 374.16,139.06 375.39,139.06 375.39,138.65 376.62,138.65 376.62,138.87 377.85,138.87 377.85,140.38 379.07,140.38 379.07,141.27 380.30,141.27 380.30,141.19 381.53,141.19 381.53,141.77 382.76,141.77 382.76,143.00 383.99,143.00 383.99,144.56 385.22,144.56 385.22,145.16 386.45,145.16 386.45,146.39 387.68,146.39 387.68,148.62 388.91,148.62 388.91,149.54 390.14,149.54 390.14,150.48 391.37,150.48 391.37,150.76 392.60,150.76 392.60,150.72 393.82,150.72 393.82,150.68 395.05,150.68 395.05,150.65 396.28,150.65 396.28,150.95 397.51,150.95 397.51,150.58 398.74,150.58 398.74,151.90 399.97,151.90 399.97,151.54 401.20,151.54 401.20,152.16 402.43,152.16 402.43,154.15 403.66,154.15 403.66,154.11 404.89,154.11 404.89,155.45 406.12,155.45 406.12,156.11 407.35,156.11 407.35,157.82 408.57,157.82 408.57,157.80 409.80,157.80 409.80,158.14 411.03,158.14 411.03,158.12 412.26,158.12 412.26,159.17 413.49,159.17 413.49,158.82 414.72,158.82 414.72,158.83 415.95,158.83 415.95,160.93 417.18,160.93 417.18,161.28 418.41,161.28 418.41,161.28 419.64,161.28 419.64,160.93 420.87,160.93 420.87,162.00 422.10,162.00 422.10,161.66 423.33,161.66 423.33,161.31 424.55,161.31 424.55,160.97 425.78,160.97 425.78,162.06 427.01,162.06 427.01,161.72 428.24,161.72 428.24,162.09 429.47,162.09 429.47,164.29 430.70,164.29 430.70,164.29 431.93,164.29 431.93,163.93 433.16,163.93 433.16,163.56 434.39,163.56 434.39,163.57 435.62,163.57 435.62,164.31 436.85,164.31 436.85,165.06 438.08,165.06 438.08,164.70 439.30,164.70 439.30,165.46 440.53,165.46 440.53,165.85 441.76,165.85 441.76,165.87 442.99,165.87 442.99,165.52 444.22,165.52 444.22,165.91 445.45,165.91 445.45,165.92 446.68,165.92 446.68,166.30 447.91,166.30 447.91,166.70 449.14,166.70 449.14,168.24 450.37,168.24 450.37,167.90 451.60,167.90 451.60,169.09 452.83,169.09 452.83,169.52 454.05,169.52 454.05,169.20 455.28,169.20 455.28,168.87 456.51,168.87 456.51,168.93 457.74,168.93 457.74,169.00 458.97,169.00 458.97,169.45 460.20,169.45 460.20,170.28 461.43,170.28 461.43,170.34 462.66,170.34 462.66,171.57 463.89,171.57 463.89,171.24 465.12,171.24 465.12,171.31 466.35,171.31 466.35,170.99 467.58,170.99 467.58,171.07 468.81,171.07 468.81,171.95 470.03,171.95 470.03,171.63 471.26,171.63 471.26,171.31 472.49,171.31 472.49,171.80 473.72,171.80 473.72,171.48 474.95,171.48 474.95,171.53 476.18,171.53 476.18,171.59 477.41,171.59 477.41,172.06 478.64,172.06 478.64,171.71 479.87,171.71 479.87,173.00 481.10,173.00 481.10,172.67 482.33,172.67 482.33,172.75 483.56,172.75 483.56,172.42 484.78,172.42 484.78,172.08 486.01,172.08 486.01,172.99 487.24,172.99 487.24,173.07 488.47,173.07 488.47,173.99 489.70,173.99 489.70,174.04 490.93,174.04 490.93,174.53 492.16,174.53 492.16,174.61 493.39,174.61 493.39,174.69 494.62,174.69 494.62,174.35 495.85,174.35 495.85,174.87 497.08,174.87 497.08,175.39 498.31,175.39 498.31,175.49 499.54,175.49 499.54,175.58 500.76,175.58 500.76,175.25 501.99,175.25 501.99,174.92 503.22,174.92 503.22,175.02 504.45,175.02 504.45,174.67 505.68,174.67 505.68,174.76 506.91,174.76 506.91,174.41 508.14,174.41 508.14,174.94 509.37,174.94 509.37,175.47 510.60,175.47 510.60,175.13 511.83,175.13 511.83,174.80 513.06,174.80 513.06,174.46 514.29,174.46 514.29,175.90 515.51,175.90 515.51,176.03 516.74,176.03 516.74,177.05 517.97,177.05 517.97,177.19" style="stroke-width: 1.07;stroke: #8F3931;stroke-linecap: butt;"/>
<polyline points="297.95,42.70 299.18,42.70 299.18,44.76 300.41,44.76 300.41,49.45 301.64,49.45 301.64,50.83 302.86,50.83 302.86,53.37 304.09,53.37 304.09,55.54 305.32,55.54 305.32,58.50 306.55,58.50 306.55,64.89 307.78,64.89 307.78,67.92 309.01,67.92 309.01,70.58 310.24,70.58 310.24,72.13 311.47,72.13 311.47,77.53 312.70,77.53 312.70,80.98 313.93,80.98 313.93,86.41 315.16,86.41 315.16,88.41 316.39,88.41 316.39,92.37 317.61,92.37 317.61,95.97 318.84,95.97 318.84,100.00 320.07,100.00 320.07,104.07 321.30,104.07 321.30,107.01 322.53,107.01 322.53,111.96 323.76,111.96 323.76,114.55 324.99,114.55 324.99,119.18 326.22,119.18 326.22,120.23 327.45,120.23 327.45,125.66 328.68,125.66 328.68,129.94 329.91,129.94 329.91,131.00 331.14,131.00 331.14,134.91 332.37,134.91 332.37,137.64 333.59,137.64 333.59,139.17 334.82,139.17 334.82,139.49 336.05,139.49 336.05,141.05 337.28,141.05 337.28,143.45 338.51,143.45 338.51,147.54 339.74,147.54 339.74,148.32 340.97,148.32 340.97,148.68 342.20,148.68 342.20,151.95 343.43,151.95 343.43,153.56 344.66,153.56 344.66,156.02 345.89,156.02 345.89,158.52 347.12,158.52 347.12,160.20 348.34,160.20 348.34,161.47 349.57,161.47 349.57,165.33 350.80,165.33 350.80,166.21 352.03,166.21 352.03,166.24 353.26,166.24 353.26,167.14 354.49,167.14 354.49,168.05 355.72,168.05 355.72,168.10 356.95,168.10 356.95,168.54 358.18,168.54 358.18,168.56 359.41,168.56 359.41,170.78 360.64,170.78 360.64,171.26 361.87,171.26 361.87,170.84 363.09,170.84 363.09,172.67 364.32,172.67 364.32,174.07 365.55,174.07 365.55,174.58 366.78,174.58 366.78,176.01 368.01,176.01 368.01,176.54 369.24,176.54 369.24,177.08 370.47,177.08 370.47,179.46 371.70,179.46 371.70,180.45 372.93,180.45 372.93,181.92 374.16,181.92 374.16,182.02 375.39,182.02 375.39,183.05 376.62,183.05 376.62,184.56 377.85,184.56 377.85,185.14 379.07,185.14 379.07,185.27 380.30,185.27 380.30,186.34 381.53,186.34 381.53,186.96 382.76,186.96 382.76,186.64 383.99,186.64 383.99,188.22 385.22,188.22 385.22,188.86 386.45,188.86 386.45,189.48 387.68,189.48 387.68,190.59 388.91,190.59 388.91,191.23 390.14,191.23 390.14,190.92 391.37,190.92 391.37,191.09 392.60,191.09 392.60,191.76 393.82,191.76 393.82,192.43 395.05,192.43 395.05,192.62 396.28,192.62 396.28,192.81 397.51,192.81 397.51,192.51 398.74,192.51 398.74,193.70 399.97,193.70 399.97,193.41 401.20,193.41 401.20,194.59 402.43,194.59 402.43,195.28 403.66,195.28 403.66,194.97 404.89,194.97 404.89,194.66 406.12,194.66 406.12,194.36 407.35,194.36 407.35,194.05 408.57,194.05 408.57,194.25 409.80,194.25 409.80,193.94 411.03,193.94 411.03,193.63 412.26,193.63 412.26,193.31 413.49,193.31 413.49,193.51 414.72,193.51 414.72,193.20 415.95,193.20 415.95,193.89 417.18,193.89 417.18,193.55 418.41,193.55 418.41,193.73 419.64,193.73 419.64,193.39 420.87,193.39 420.87,194.10 422.10,194.10 422.10,195.35 423.33,195.35 423.33,195.54 424.55,195.54 424.55,195.21 425.78,195.21 425.78,194.87 427.01,194.87 427.01,196.68 428.24,196.68 428.24,196.37 429.47,196.37 429.47,196.60 430.70,196.60 430.70,196.27 431.93,196.27 431.93,195.94 433.16,195.94 433.16,196.70 434.39,196.70 434.39,197.46 435.62,197.46 435.62,197.68 436.85,197.68 436.85,197.36 438.08,197.36 438.08,197.03 439.30,197.03 439.30,197.25 440.53,197.25 440.53,198.60 441.76,198.60 441.76,199.40 442.99,199.40 442.99,199.10 444.22,199.10 444.22,198.79 445.45,198.79 445.45,198.46 446.68,198.46 446.68,198.69 447.91,198.69 447.91,198.35 449.14,198.35 449.14,199.16 450.37,199.16 450.37,199.41 451.60,199.41 451.60,199.66 452.83,199.66 452.83,199.34 454.05,199.34 454.05,199.01 455.28,199.01 455.28,200.44 456.51,200.44 456.51,200.71 457.74,200.71 457.74,201.57 458.97,201.57 458.97,201.25 460.20,201.25 460.20,202.10 461.43,202.10 461.43,201.76 462.66,201.76 462.66,201.42 463.89,201.42 463.89,201.08 465.12,201.08 465.12,200.74 466.35,200.74 466.35,201.00 467.58,201.00 467.58,200.65 468.81,200.65 468.81,200.92 470.03,200.92 470.03,201.18 471.26,201.18 471.26,200.84 472.49,200.84 472.49,201.12 473.72,201.12 473.72,200.78 474.95,200.78 474.95,200.40 476.18,200.40 476.18,200.65 477.41,200.65 477.41,200.89 478.64,200.89 478.64,200.51 479.87,200.51 479.87,200.76 481.10,200.76 481.10,201.01 482.33,201.01 482.33,200.65 483.56,200.65 483.56,202.86 484.78,202.86 484.78,202.52 486.01,202.52 486.01,202.18 487.24,202.18 487.24,201.83 488.47,201.83 488.47,201.49 489.70,201.49 489.70,201.77 490.93,201.77 490.93,202.06 492.16,202.06 492.16,201.69 493.39,201.69 493.39,202.66 494.62,202.66 494.62,202.29 495.85,202.29 495.85,202.59 497.08,202.59 497.08,204.25 498.31,204.25 498.31,203.91 499.54,203.91 499.54,204.93 500.76,204.93 500.76,205.28 501.99,205.28 501.99,204.96 503.22,204.96 503.22,206.01 504.45,206.01 504.45,205.66 505.68,205.66 505.68,206.71 506.91,206.71 506.91,207.78 508.14,207.78 508.14,207.45 509.37,207.45 509.37,207.13 510.60,207.13 510.60,208.22 511.83,208.22 511.83,207.90 513.06,207.90 513.06,207.58 514.29,207.58 514.29,207.97 515.51,207.97 515.51,208.37 516.74,208.37 516.74,208.07 517.97,208.07 517.97,207.77" style="stroke-width: 1.07;stroke: #350E20;stroke-linecap: butt;"/>
<polyline points="297.95,42.21 299.18,42.21 299.18,42.04 300.41,42.04 300.41,41.90 301.64,41.90 301.64,41.88 302.86,41.88 302.86,41.71 304.09,41.71 304.09,41.58 305.32,41.58 305.32,41.61 306.55,41.61 306.55,41.50 307.78,41.50 307.78,41.46 309.01,41.46 309.01,41.39 310.24,41.39 310.24,41.33 311.47,41.33 311.47,41.27 312.70,41.27 312.70,40.98 313.93,40.98 313.93,41.22 315.16,41.22 315.16,41.02 316.39,41.02 316.39,41.03 317.61,41.03 317.61,41.25 318.84,41.25 318.84,41.23 320.07,41.23 320.07,41.39 321.30,41.39 321.30,41.34 322.53,41.34 322.53,41.60 323.76,41.60 323.76,41.56 324.99,41.56 324.99,41.49 326.22,41.49 326.22,41.37 327.45,41.37 327.45,41.12 328.68,41.12 328.68,41.35 329.91,41.35 329.91,41.21 331.14,41.21 331.14,41.36 332.37,41.36 332.37,41.08 333.59,41.08 333.59,41.30 334.82,41.30 334.82,41.43 336.05,41.43 336.05,41.56 337.28,41.56 337.28,41.91 338.51,41.91 338.51,41.85 339.74,41.85 339.74,42.22 340.97,42.22 340.97,41.97 342.20,41.97 342.20,42.00 343.43,42.00 343.43,42.04 344.66,42.04 344.66,41.92 345.89,41.92 345.89,41.97 347.12,41.97 347.12,41.92 348.34,41.92 348.34,42.49 349.57,42.49 349.57,42.46 350.80,42.46 350.80,42.61 352.03,42.61 352.03,42.94 353.26,42.94 353.26,43.18 354.49,43.18 354.49,43.12 355.72,43.12 355.72,42.76 356.95,42.76 356.95,42.72 358.18,42.72 358.18,42.45 359.41,42.45 359.41,43.31 360.64,43.31 360.64,43.11 361.87,43.11 361.87,43.43 363.09,43.43 363.09,43.64 364.32,43.64 364.32,43.73 365.55,43.73 365.55,43.76 366.78,43.76 366.78,43.47 368.01,43.47 368.01,43.65 369.24,43.65 369.24,43.79 370.47,43.79 370.47,43.93 371.70,43.93 371.70,43.46 372.93,43.46 372.93,43.72 374.16,43.72 374.16,43.62 375.39,43.62 375.39,43.31 376.62,43.31 376.62,43.16 377.85,43.16 377.85,43.08 379.07,43.08 379.07,43.24 380.30,43.24 380.30,43.34 381.53,43.34 381.53,43.60 382.76,43.60 382.76,43.65 383.99,43.65 383.99,43.79 385.22,43.79 385.22,43.53 386.45,43.53 386.45,43.23 387.68,43.23 387.68,43.43 388.91,43.43 388.91,43.06 390.14,43.06 390.14,43.62 391.37,43.62 391.37,43.25 392.60,43.25 392.60,43.49 393.82,43.49 393.82,43.48 395.05,43.48 395.05,43.57 396.28,43.57 396.28,43.76 397.51,43.76 397.51,43.77 398.74,43.77 398.74,43.71 399.97,43.71 399.97,43.56 401.20,43.56 401.20,44.02 402.43,44.02 402.43,43.94 403.66,43.94 403.66,43.96 404.89,43.96 404.89,44.08 406.12,44.08 406.12,43.82 407.35,43.82 407.35,43.56 408.57,43.56 408.57,43.21 409.80,43.21 409.80,43.26 411.03,43.26 411.03,43.04 412.26,43.04 412.26,42.92 413.49,42.92 413.49,42.60 414.72,42.60 414.72,42.40 415.95,42.40 415.95,42.04 417.18,42.04 417.18,41.68 418.41,41.68 418.41,42.12 419.64,42.12 419.64,41.66 420.87,41.66 420.87,41.31 422.10,41.31 422.10,41.21 423.33,41.21 423.33,41.35 424.55,41.35 424.55,42.00 425.78,42.00 425.78,42.07 427.01,42.07 427.01,42.14 428.24,42.14 428.24,41.84 429.47,41.84 429.47,42.21 430.70,42.21 430.70,41.88 431.93,41.88 431.93,41.96 433.16,41.96 433.16,41.91 434.39,41.91 434.39,41.60 435.62,41.60 435.62,41.43 436.85,41.43 436.85,41.56 438.08,41.56 438.08,41.12 439.30,41.12 439.30,41.27 440.53,41.27 440.53,41.29 441.76,41.29 441.76,41.02 442.99,41.02 442.99,41.07 444.22,41.07 444.22,41.14 445.45,41.14 445.45,40.69 446.68,40.69 446.68,40.74 447.91,40.74 447.91,40.30 449.14,40.30 449.14,40.38 450.37,40.38 450.37,40.47 451.60,40.47 451.60,40.75 452.83,40.75 452.83,40.68 454.05,40.68 454.05,40.99 455.28,40.99 455.28,41.15 456.51,41.15 456.51,40.94 457.74,40.94 457.74,40.56 458.97,40.56 458.97,40.56 460.20,40.56 460.20,40.13 461.43,40.13 461.43,40.50 462.66,40.50 462.66,40.68 463.89,40.68 463.89,40.68 465.12,40.68 465.12,40.47 466.35,40.47 466.35,40.27 467.58,40.27 467.58,40.07 468.81,40.07 468.81,40.11 470.03,40.11 470.03,40.38 471.26,40.38 471.26,40.90 472.49,40.90 472.49,40.75 473.72,40.75 473.72,40.84 474.95,40.84 474.95,40.89 476.18,40.89 476.18,40.48 477.41,40.48 477.41,40.31 478.64,40.31 478.64,39.91 479.87,39.91 479.87,40.00 481.10,40.00 481.10,40.12 482.33,40.12 482.33,40.26 483.56,40.26 483.56,39.63 484.78,39.63 484.78,39.01 486.01,39.01 486.01,38.65 487.24,38.65 487.24,38.58 488.47,38.58 488.47,39.92 489.70,39.92 489.70,40.10 490.93,40.10 490.93,40.02 492.16,40.02 492.16,39.36 493.39,39.36 493.39,39.59 494.62,39.59 494.62,39.83 495.85,39.83 495.85,40.08 497.08,40.08 497.08,40.05 498.31,40.05 498.31,39.72 499.54,39.72 499.54,39.06 500.76,39.06 500.76,39.06 501.99,39.06 501.99,38.42 503.22,38.42 503.22,38.46 504.45,38.46 504.45,37.77 505.68,37.77 505.68,38.16 506.91,38.16 506.91,37.48 508.14,37.48 508.14,37.17 509.37,37.17 509.37,37.24 510.60,37.24 510.60,36.96 511.83,36.96 511.83,37.07 513.06,37.07 513.06,37.20 514.29,37.20 514.29,38.60 515.51,38.60 515.51,38.80 516.74,38.80 516.74,38.59 517.97,38.59 517.97,37.94" style="stroke-width: 1.07;stroke: #8A9045; stroke-dasharray: 2.85, 2.85;stroke-linecap: butt;"/>
<polyline points="297.95,42.48 299.18,42.48 299.18,42.14 300.41,42.14 300.41,42.05 301.64,42.05 301.64,41.88 302.86,41.88 302.86,41.96 304.09,41.96 304.09,42.29 305.32,42.29 305.32,42.55 306.55,42.55 306.55,42.90 307.78,42.90 307.78,42.76 309.01,42.76 309.01,43.14 310.24,43.14 310.24,43.27 311.47,43.27 311.47,43.50 312.70,43.50 312.70,43.25 313.93,43.25 313.93,43.36 315.16,43.36 315.16,43.65 316.39,43.65 316.39,43.68 317.61,43.68 317.61,43.62 318.84,43.62 318.84,44.57 320.07,44.57 320.07,44.99 321.30,44.99 321.30,45.70 322.53,45.70 322.53,46.33 323.76,46.33 323.76,46.40 324.99,46.40 324.99,48.03 326.22,48.03 326.22,48.52 327.45,48.52 327.45,49.18 328.68,49.18 328.68,50.64 329.91,50.64 329.91,50.92 331.14,50.92 331.14,51.42 332.37,51.42 332.37,51.62 333.59,51.62 333.59,52.76 334.82,52.76 334.82,53.20 336.05,53.20 336.05,54.06 337.28,54.06 337.28,54.63 338.51,54.63 338.51,55.10 339.74,55.10 339.74,55.80 340.97,55.80 340.97,56.08 342.20,56.08 342.20,57.20 343.43,57.20 343.43,58.24 344.66,58.24 344.66,58.86 345.89,58.86 345.89,59.61 347.12,59.61 347.12,60.14 348.34,60.14 348.34,60.68 349.57,60.68 349.57,60.66 350.80,60.66 350.80,61.35 352.03,61.35 352.03,62.76 353.26,62.76 353.26,63.13 354.49,63.13 354.49,63.99 355.72,63.99 355.72,64.13 356.95,64.13 356.95,64.98 358.18,64.98 358.18,65.60 359.41,65.60 359.41,66.49 360.64,66.49 360.64,67.15 361.87,67.15 361.87,67.68 363.09,67.68 363.09,68.24 364.32,68.24 364.32,68.81 365.55,68.81 365.55,68.86 366.78,68.86 366.78,69.06 368.01,69.06 368.01,69.14 369.24,69.14 369.24,69.22 370.47,69.22 370.47,70.15 371.70,70.15 371.70,70.49 372.93,70.49 372.93,71.26 374.16,71.26 374.16,71.78 375.39,71.78 375.39,72.01 376.62,72.01 376.62,72.98 377.85,72.98 377.85,72.94 379.07,72.94 379.07,73.67 380.30,73.67 380.30,73.81 381.53,73.81 381.53,74.11 382.76,74.11 382.76,74.74 383.99,74.74 383.99,74.60 385.22,74.60 385.22,74.30 386.45,74.30 386.45,74.45 387.68,74.45 387.68,74.61 388.91,74.61 388.91,74.61 390.14,74.61 390.14,74.96 391.37,74.96 391.37,75.15 392.60,75.15 392.60,75.69 393.82,75.69 393.82,75.56 395.05,75.56 395.05,76.48 396.28,76.48 396.28,77.26 397.51,77.26 397.51,77.53 398.74,77.53 398.74,78.18 399.97,78.18 399.97,77.92 401.20,77.92 401.20,78.37 402.43,78.37 402.43,78.07 403.66,78.07 403.66,78.36 404.89,78.36 404.89,78.46 406.12,78.46 406.12,78.76 407.35,78.76 407.35,79.88 408.57,79.88 408.57,80.41 409.80,80.41 409.80,80.97 411.03,80.97 411.03,81.34 412.26,81.34 412.26,82.57 413.49,82.57 413.49,82.33 414.72,82.33 414.72,82.31 415.95,82.31 415.95,83.56 417.18,83.56 417.18,83.51 418.41,83.51 418.41,84.14 419.64,84.14 419.64,84.10 420.87,84.10 420.87,84.30 422.10,84.30 422.10,84.74 423.33,84.74 423.33,84.72 424.55,84.72 424.55,85.44 425.78,85.44 425.78,84.96 427.01,84.96 427.01,85.72 428.24,85.72 428.24,85.77 429.47,85.77 429.47,85.82 430.70,85.82 430.70,85.84 431.93,85.84 431.93,86.14 433.16,86.14 433.16,86.17 434.39,86.17 434.39,86.49 435.62,86.49 435.62,87.63 436.85,87.63 436.85,87.41 438.08,87.41 438.08,87.76 439.30,87.76 439.30,87.55 440.53,87.55 440.53,88.23 441.76,88.23 441.76,88.33 442.99,88.33 442.99,88.75 444.22,88.75 444.22,88.58 445.45,88.58 445.45,88.67 446.68,88.67 446.68,89.71 447.91,89.71 447.91,89.84 449.14,89.84 449.14,90.63 450.37,90.63 450.37,90.47 451.60,90.47 451.60,91.30 452.83,91.30 452.83,91.16 454.05,91.16 454.05,91.36 455.28,91.36 455.28,91.23 456.51,91.23 456.51,91.10 457.74,91.10 457.74,90.99 458.97,90.99 458.97,90.88 460.20,90.88 460.20,91.46 461.43,91.46 461.43,92.07 462.66,92.07 462.66,92.72 463.89,92.72 463.89,93.01 465.12,93.01 465.12,92.52 466.35,92.52 466.35,92.42 467.58,92.42 467.58,93.15 468.81,93.15 468.81,93.90 470.03,93.90 470.03,93.42 471.26,93.42 471.26,93.79 472.49,93.79 472.49,93.74 473.72,93.74 473.72,93.26 474.95,93.26 474.95,94.07 476.18,94.07 476.18,94.46 477.41,94.46 477.41,93.94 478.64,93.94 478.64,93.88 479.87,93.88 479.87,94.30 481.10,94.30 481.10,93.79 482.33,93.79 482.33,94.24 483.56,94.24 483.56,93.73 484.78,93.73 484.78,93.73 486.01,93.73 486.01,93.74 487.24,93.74 487.24,93.76 488.47,93.76 488.47,93.24 489.70,93.24 489.70,92.68 490.93,92.68 490.93,92.12 492.16,92.12 492.16,92.14 493.39,92.14 493.39,92.18 494.62,92.18 494.62,91.64 495.85,91.64 495.85,91.69 497.08,91.69 497.08,91.75 498.31,91.75 498.31,91.20 499.54,91.20 499.54,91.28 500.76,91.28 500.76,91.38 501.99,91.38 501.99,91.49 503.22,91.49 503.22,91.62 504.45,91.62 504.45,91.02 505.68,91.02 505.68,90.41 506.91,90.41 506.91,89.80 508.14,89.80 508.14,89.19 509.37,89.19 509.37,89.38 510.60,89.38 510.60,88.78 511.83,88.78 511.83,88.17 513.06,88.17 513.06,87.58 514.29,87.58 514.29,87.81 515.51,87.81 515.51,88.08 516.74,88.08 516.74,90.19 517.97,90.19 517.97,90.55" style="stroke-width: 1.07;stroke: #155F83; stroke-dasharray: 2.85, 2.85;stroke-linecap: butt;"/>
<polyline points="297.95,42.10 299.18,42.10 299.18,41.69 300.41,41.69 300.41,42.60 301.64,42.60 301.64,43.19 302.86,43.19 302.86,43.13 304.09,43.13 304.09,44.08 305.32,44.08 305.32,44.50 306.55,44.50 306.55,45.50 307.78,45.50 307.78,46.17 309.01,46.17 309.01,47.67 310.24,47.67 310.24,48.97 311.47,48.97 311.47,50.29 312.70,50.29 312.70,50.98 313.93,50.98 313.93,52.88 315.16,52.88 315.16,53.73 316.39,53.73 316.39,55.08 317.61,55.08 317.61,57.31 318.84,57.31 318.84,58.60 320.07,58.60 320.07,60.05 321.30,60.05 321.30,62.03 322.53,62.03 322.53,64.06 323.76,64.06 323.76,65.99 324.99,65.99 324.99,67.83 326.22,67.83 326.22,69.57 327.45,69.57 327.45,70.08 328.68,70.08 328.68,71.42 329.91,71.42 329.91,71.96 331.14,71.96 331.14,73.34 332.37,73.34 332.37,74.47 333.59,74.47 333.59,75.62 334.82,75.62 334.82,78.62 336.05,78.62 336.05,80.40 337.28,80.40 337.28,82.49 338.51,82.49 338.51,83.76 339.74,83.76 339.74,86.09 340.97,86.09 340.97,86.55 342.20,86.55 342.20,88.60 343.43,88.60 343.43,89.50 344.66,89.50 344.66,91.32 345.89,91.32 345.89,92.12 347.12,92.12 347.12,92.77 348.34,92.77 348.34,93.44 349.57,93.44 349.57,94.44 350.80,94.44 350.80,94.83 352.03,94.83 352.03,95.08 353.26,95.08 353.26,95.98 354.49,95.98 354.49,96.92 355.72,96.92 355.72,97.04 356.95,97.04 356.95,98.96 358.18,98.96 358.18,100.75 359.41,100.75 359.41,101.88 360.64,101.88 360.64,102.86 361.87,102.86 361.87,102.82 363.09,102.82 363.09,103.83 364.32,103.83 364.32,104.16 365.55,104.16 365.55,104.50 366.78,104.50 366.78,104.68 368.01,104.68 368.01,106.16 369.24,106.16 369.24,106.56 370.47,106.56 370.47,107.74 371.70,107.74 371.70,107.35 372.93,107.35 372.93,108.52 374.16,108.52 374.16,108.73 375.39,108.73 375.39,108.36 376.62,108.36 376.62,109.79 377.85,109.79 377.85,111.86 379.07,111.86 379.07,113.77 380.30,113.77 380.30,113.88 381.53,113.88 381.53,115.46 382.76,115.46 382.76,115.60 383.99,115.60 383.99,116.83 385.22,116.83 385.22,117.22 386.45,117.22 386.45,117.56 387.68,117.56 387.68,117.92 388.91,117.92 388.91,118.51 390.14,118.51 390.14,118.89 391.37,118.89 391.37,118.82 392.60,118.82 392.60,119.68 393.82,119.68 393.82,120.34 395.05,120.34 395.05,120.31 396.28,120.31 396.28,120.29 397.51,120.29 397.51,120.04 398.74,120.04 398.74,120.79 399.97,120.79 399.97,120.56 401.20,120.56 401.20,121.55 402.43,121.55 402.43,122.06 403.66,122.06 403.66,122.34 404.89,122.34 404.89,122.09 406.12,122.09 406.12,122.13 407.35,122.13 407.35,121.90 408.57,121.90 408.57,122.23 409.80,122.23 409.80,122.58 411.03,122.58 411.03,122.08 412.26,122.08 412.26,123.62 413.49,123.62 413.49,124.05 414.72,124.05 414.72,124.48 415.95,124.48 415.95,125.79 417.18,125.79 417.18,125.89 418.41,125.89 418.41,126.63 419.64,126.63 419.64,126.77 420.87,126.77 420.87,127.24 422.10,127.24 422.10,127.40 423.33,127.40 423.33,127.58 424.55,127.58 424.55,127.45 425.78,127.45 425.78,127.65 427.01,127.65 427.01,127.53 428.24,127.53 428.24,127.06 429.47,127.06 429.47,126.95 430.70,126.95 430.70,126.43 431.93,126.43 431.93,128.44 433.16,128.44 433.16,128.32 434.39,128.32 434.39,128.19 435.62,128.19 435.62,128.45 436.85,128.45 436.85,129.11 438.08,129.11 438.08,130.58 439.30,130.58 439.30,130.52 440.53,130.52 440.53,132.05 441.76,132.05 441.76,131.61 442.99,131.61 442.99,132.01 444.22,132.01 444.22,131.58 445.45,131.58 445.45,131.52 446.68,131.52 446.68,132.77 447.91,132.77 447.91,133.63 449.14,133.63 449.14,133.63 450.37,133.63 450.37,133.64 451.60,133.64 451.60,134.11 452.83,134.11 452.83,134.14 454.05,134.14 454.05,133.72 455.28,133.72 455.28,134.71 456.51,134.71 456.51,134.30 457.74,134.30 457.74,134.37 458.97,134.37 458.97,133.95 460.20,133.95 460.20,133.50 461.43,133.50 461.43,133.57 462.66,133.57 462.66,134.18 463.89,134.18 463.89,134.80 465.12,134.80 465.12,135.47 466.35,135.47 466.35,136.15 467.58,136.15 467.58,136.30 468.81,136.30 468.81,135.89 470.03,135.89 470.03,135.48 471.26,135.48 471.26,137.40 472.49,137.40 472.49,138.19 473.72,138.19 473.72,137.79 474.95,137.79 474.95,137.97 476.18,137.97 476.18,137.53 477.41,137.53 477.41,138.34 478.64,138.34 478.64,137.91 479.87,137.91 479.87,137.48 481.10,137.48 481.10,137.06 482.33,137.06 482.33,137.31 483.56,137.31 483.56,138.28 484.78,138.28 484.78,137.90 486.01,137.90 486.01,138.94 487.24,138.94 487.24,138.56 488.47,138.56 488.47,139.63 489.70,139.63 489.70,140.72 490.93,140.72 490.93,141.09 492.16,141.09 492.16,140.69 493.39,140.69 493.39,141.10 494.62,141.10 494.62,142.33 495.85,142.33 495.85,141.94 497.08,141.94 497.08,141.55 498.31,141.55 498.31,142.04 499.54,142.04 499.54,142.54 500.76,142.54 500.76,143.06 501.99,143.06 501.99,143.62 503.22,143.62 503.22,143.27 504.45,143.27 504.45,143.86 505.68,143.86 505.68,144.47 506.91,144.47 506.91,144.08 508.14,144.08 508.14,144.73 509.37,144.73 509.37,145.42 510.60,145.42 510.60,146.14 511.83,146.14 511.83,145.79 513.06,145.79 513.06,145.44 514.29,145.44 514.29,145.10 515.51,145.10 515.51,144.75 516.74,144.75 516.74,144.39 517.97,144.39 517.97,144.03" style="stroke-width: 1.07;stroke: #8F3931; stroke-dasharray: 2.85, 2.85;stroke-linecap: butt;"/>
<polyline points="297.95,42.26 299.18,42.26 299.18,42.17 300.41,42.17 300.41,44.34 301.64,44.34 301.64,45.80 302.86,45.80 302.86,48.66 304.09,48.66 304.09,52.03 305.32,52.03 305.32,55.30 306.55,55.30 306.55,59.42 307.78,59.42 307.78,62.82 309.01,62.82 309.01,68.22 310.24,68.22 310.24,70.97 311.47,70.97 311.47,76.70 312.70,76.70 312.70,77.84 313.93,77.84 313.93,84.49 315.16,84.49 315.16,86.04 316.39,86.04 316.39,89.30 317.61,89.30 317.61,92.44 318.84,92.44 318.84,94.95 320.07,94.95 320.07,98.72 321.30,98.72 321.30,101.51 322.53,101.51 322.53,104.36 323.76,104.36 323.76,106.40 324.99,106.40 324.99,110.85 326.22,110.85 326.22,112.23 327.45,112.23 327.45,114.33 328.68,114.33 328.68,117.04 329.91,117.04 329.91,117.89 331.14,117.89 331.14,121.87 332.37,121.87 332.37,124.15 333.59,124.15 333.59,127.88 334.82,127.88 334.82,129.47 336.05,129.47 336.05,131.31 337.28,131.31 337.28,134.86 338.51,134.86 338.51,135.76 339.74,135.76 339.74,138.62 340.97,138.62 340.97,140.03 342.20,140.03 342.20,142.50 343.43,142.50 343.43,143.92 344.66,143.92 344.66,146.06 345.89,146.06 345.89,147.57 347.12,147.57 347.12,148.63 348.34,148.63 348.34,150.42 349.57,150.42 349.57,151.07 350.80,151.07 350.80,152.92 352.03,152.92 352.03,154.32 353.26,154.32 353.26,156.00 354.49,156.00 354.49,157.72 355.72,157.72 355.72,157.49 356.95,157.49 356.95,160.44 358.18,160.44 358.18,161.19 359.41,161.19 359.41,162.46 360.64,162.46 360.64,163.24 361.87,163.24 361.87,164.30 363.09,164.30 363.09,165.13 364.32,165.13 364.32,165.71 365.55,165.71 365.55,167.10 366.78,167.10 366.78,167.44 368.01,167.44 368.01,169.19 369.24,169.19 369.24,169.87 370.47,169.87 370.47,170.56 371.70,170.56 371.70,170.95 372.93,170.95 372.93,170.77 374.16,170.77 374.16,171.18 375.39,171.18 375.39,170.70 376.62,170.70 376.62,171.43 377.85,171.43 377.85,172.17 379.07,172.17 379.07,173.57 380.30,173.57 380.30,175.32 381.53,175.32 381.53,176.17 382.76,176.17 382.76,175.76 383.99,175.76 383.99,176.34 385.22,176.34 385.22,177.28 386.45,177.28 386.45,176.84 387.68,176.84 387.68,179.19 388.91,179.19 388.91,179.11 390.14,179.11 390.14,179.76 391.37,179.76 391.37,179.70 392.60,179.70 392.60,181.11 393.82,181.11 393.82,181.43 395.05,181.43 395.05,181.76 396.28,181.76 396.28,182.10 397.51,182.10 397.51,182.07 398.74,182.07 398.74,182.83 399.97,182.83 399.97,183.20 401.20,183.20 401.20,184.35 402.43,184.35 402.43,184.71 403.66,184.71 403.66,184.67 404.89,184.67 404.89,185.07 406.12,185.07 406.12,184.65 407.35,184.65 407.35,184.66 408.57,184.66 408.57,185.12 409.80,185.12 409.80,184.70 411.03,184.70 411.03,185.63 412.26,185.63 412.26,185.69 413.49,185.69 413.49,185.79 414.72,185.79 414.72,185.89 415.95,185.89 415.95,185.97 417.18,185.97 417.18,186.05 418.41,186.05 418.41,186.64 419.64,186.64 419.64,187.76 420.87,187.76 420.87,187.88 422.10,187.88 422.10,187.50 423.33,187.50 423.33,187.64 424.55,187.64 424.55,189.39 425.78,189.39 425.78,189.03 427.01,189.03 427.01,190.88 428.24,190.88 428.24,191.10 429.47,191.10 429.47,191.89 430.70,191.89 430.70,191.52 431.93,191.52 431.93,192.88 433.16,192.88 433.16,193.71 434.39,193.71 434.39,195.14 435.62,195.14 435.62,194.82 436.85,194.82 436.85,194.50 438.08,194.50 438.08,195.38 439.30,195.38 439.30,195.67 440.53,195.67 440.53,195.99 441.76,195.99 441.76,195.69 442.99,195.69 442.99,196.05 444.22,196.05 444.22,195.77 445.45,195.77 445.45,195.46 446.68,195.46 446.68,197.87 447.91,197.87 447.91,197.58 449.14,197.58 449.14,197.29 450.37,197.29 450.37,197.00 451.60,197.00 451.60,197.42 452.83,197.42 452.83,198.57 454.05,198.57 454.05,198.29 455.28,198.29 455.28,198.73 456.51,198.73 456.51,198.45 457.74,198.45 457.74,198.94 458.97,198.94 458.97,198.67 460.20,198.67 460.20,199.18 461.43,199.18 461.43,198.89 462.66,198.89 462.66,198.61 463.89,198.61 463.89,199.16 465.12,199.16 465.12,199.71 466.35,199.71 466.35,199.43 467.58,199.43 467.58,199.15 468.81,199.15 468.81,199.76 470.03,199.76 470.03,199.49 471.26,199.49 471.26,199.21 472.49,199.21 472.49,199.98 473.72,199.98 473.72,199.71 474.95,199.71 474.95,199.42 476.18,199.42 476.18,199.14 477.41,199.14 477.41,198.86 478.64,198.86 478.64,198.58 479.87,198.58 479.87,198.30 481.10,198.30 481.10,199.20 482.33,199.20 482.33,198.92 483.56,198.92 483.56,198.64 484.78,198.64 484.78,198.35 486.01,198.35 486.01,198.07 487.24,198.07 487.24,200.54 488.47,200.54 488.47,200.30 489.70,200.30 489.70,200.03 490.93,200.03 490.93,199.75 492.16,199.75 492.16,199.47 493.39,199.47 493.39,199.20 494.62,199.20 494.62,200.46 495.85,200.46 495.85,200.19 497.08,200.19 497.08,199.92 498.31,199.92 498.31,199.69 499.54,199.69 499.54,199.46 500.76,199.46 500.76,201.06 501.99,201.06 501.99,200.84 503.22,200.84 503.22,200.61 504.45,200.61 504.45,200.36 505.68,200.36 505.68,200.11 506.91,200.11 506.91,199.86 508.14,199.86 508.14,199.60 509.37,199.60 509.37,199.34 510.60,199.34 510.60,201.15 511.83,201.15 511.83,200.89 513.06,200.89 513.06,202.74 514.29,202.74 514.29,204.59 515.51,204.59 515.51,204.33 516.74,204.33 516.74,204.12 517.97,204.12 517.97,206.23" style="stroke-width: 1.07;stroke: #350E20; stroke-dasharray: 2.85, 2.85;stroke-linecap: butt;"/>
<rect x="286.95" y="24.55" width="242.03" height="272.97" style="stroke-width: 1.16;stroke: #4D4D4D;"/>
</g><g clip-path="url(#c5)">
<rect x="38.94" y="5.98" width="242.03" height="18.57" style="stroke-width: 1.16;stroke: none;fill: #FFFFFF;"/>
<g><text x="159.96" y="18.70" text-anchor="middle" style="font-family: Arial;font-size: 9.60px;fill: #1A1A1A;" textLength="31.99px" lengthAdjust="spacingAndGlyphs">Female</text></g>
</g><g clip-path="url(#c7)">
<rect x="286.95" y="5.98" width="242.03" height="18.57" style="stroke-width: 1.16;stroke: none;fill: #FFFFFF;"/>
<g><text x="407.96" y="18.70" text-anchor="middle" style="font-family: Arial;font-size: 9.60px;fill: #1A1A1A;" textLength="20.79px" lengthAdjust="spacingAndGlyphs">Male</text></g>
</g><g clip-path="url(#c8)">
<polyline points="48.71,300.51 48.71,297.52" style="stroke-width: 1.16;stroke: #4D4D4D;stroke-linecap: butt;"/>
<polyline points="122.46,300.51 122.46,297.52" style="stroke-width: 1.16;stroke: #4D4D4D;stroke-linecap: butt;"/>
<polyline points="196.22,300.51 196.22,297.52" style="stroke-width: 1.16;stroke: #4D4D4D;stroke-linecap: butt;"/>
<polyline points="269.97,300.51 269.97,297.52" style="stroke-width: 1.16;stroke: #4D4D4D;stroke-linecap: butt;"/>
<g><text x="48.71" y="309.78" text-anchor="middle" style="font-family: Arial;font-size: 9.60px;fill: #4D4D4D;" textLength="5.34px" lengthAdjust="spacingAndGlyphs">0</text></g>
<g><text x="122.46" y="309.78" text-anchor="middle" style="font-family: Arial;font-size: 9.60px;fill: #4D4D4D;" textLength="5.34px" lengthAdjust="spacingAndGlyphs">5</text></g>
<g><text x="196.22" y="309.78" text-anchor="middle" style="font-family: Arial;font-size: 9.60px;fill: #4D4D4D;" textLength="10.67px" lengthAdjust="spacingAndGlyphs">10</text></g>
<g><text x="269.97" y="309.78" text-anchor="middle" style="font-family: Arial;font-size: 9.60px;fill: #4D4D4D;" textLength="10.67px" lengthAdjust="spacingAndGlyphs">15</text></g>
<polyline points="296.72,300.51 296.72,297.52" style="stroke-width: 1.16;stroke: #4D4D4D;stroke-linecap: butt;"/>
<polyline points="370.47,300.51 370.47,297.52" style="stroke-width: 1.16;stroke: #4D4D4D;stroke-linecap: butt;"/>
<polyline points="444.22,300.51 444.22,297.52" style="stroke-width: 1.16;stroke: #4D4D4D;stroke-linecap: butt;"/>
<polyline points="517.97,300.51 517.97,297.52" style="stroke-width: 1.16;stroke: #4D4D4D;stroke-linecap: butt;"/>
<g><text x="296.72" y="309.78" text-anchor="middle" style="font-family: Arial;font-size: 9.60px;fill: #4D4D4D;" textLength="5.34px" lengthAdjust="spacingAndGlyphs">0</text></g>
<g><text x="370.47" y="309.78" text-anchor="middle" style="font-family: Arial;font-size: 9.60px;fill: #4D4D4D;" textLength="5.34px" lengthAdjust="spacingAndGlyphs">5</text></g>
<g><text x="444.22" y="309.78" text-anchor="middle" style="font-family: Arial;font-size: 9.60px;fill: #4D4D4D;" textLength="10.67px" lengthAdjust="spacingAndGlyphs">10</text></g>
<g><text x="517.97" y="309.78" text-anchor="middle" style="font-family: Arial;font-size: 9.60px;fill: #4D4D4D;" textLength="10.67px" lengthAdjust="spacingAndGlyphs">15</text></g>
<g><text x="33.56" y="288.55" text-anchor="end" style="font-family: Arial;font-size: 9.60px;fill: #4D4D4D;" textLength="13.33px" lengthAdjust="spacingAndGlyphs">0.0</text></g>
<g><text x="33.56" y="240.03" text-anchor="end" style="font-family: Arial;font-size: 9.60px;fill: #4D4D4D;" textLength="13.33px" lengthAdjust="spacingAndGlyphs">0.2</text></g>
<g><text x="33.56" y="191.51" text-anchor="end" style="font-family: Arial;font-size: 9.60px;fill: #4D4D4D;" textLength="13.33px" lengthAdjust="spacingAndGlyphs">0.4</text></g>
<g><text x="33.56" y="142.99" text-anchor="end" style="font-family: Arial;font-size: 9.60px;fill: #4D4D4D;" textLength="13.33px" lengthAdjust="spacingAndGlyphs">0.6</text></g>
<g><text x="33.56" y="94.47" text-anchor="end" style="font-family: Arial;font-size: 9.60px;fill: #4D4D4D;" textLength="13.33px" lengthAdjust="spacingAndGlyphs">0.8</text></g>
<g><text x="33.56" y="45.94" text-anchor="end" style="font-family: Arial;font-size: 9.60px;fill: #4D4D4D;" textLength="13.33px" lengthAdjust="spacingAndGlyphs">1.0</text></g>
<polyline points="35.95,285.11 38.94,285.11" style="stroke-width: 1.16;stroke: #4D4D4D;stroke-linecap: butt;"/>
<polyline points="35.95,236.59 38.94,236.59" style="stroke-width: 1.16;stroke: #4D4D4D;stroke-linecap: butt;"/>
<polyline points="35.95,188.07 38.94,188.07" style="stroke-width: 1.16;stroke: #4D4D4D;stroke-linecap: butt;"/>
<polyline points="35.95,139.55 38.94,139.55" style="stroke-width: 1.16;stroke: #4D4D4D;stroke-linecap: butt;"/>
<polyline points="35.95,91.02 38.94,91.02" style="stroke-width: 1.16;stroke: #4D4D4D;stroke-linecap: butt;"/>
<polyline points="35.95,42.50 38.94,42.50" style="stroke-width: 1.16;stroke: #4D4D4D;stroke-linecap: butt;"/>
<g><text x="283.96" y="323.50" text-anchor="middle" style="font-family: Arial;font-size: 12.00px;" textLength="114.03px" lengthAdjust="spacingAndGlyphs">Follow-up time, years</text></g>
<g><text transform="translate(14.59,161.03) rotate(-90.00)" text-anchor="middle" style="font-family: Arial;font-size: 12.00px;" textLength="87.35px" lengthAdjust="spacingAndGlyphs">Relative survival</text></g>
<rect x="38.94" y="344.09" width="252.29" height="17.28" style="stroke-width: 1.16;stroke: none;fill: #FFFFFF;"/>
<g><text x="38.94" y="357.03" style="font-family: Arial;font-size: 12.00px;" textLength="102.06px" lengthAdjust="spacingAndGlyphs">Period of diagnosis</text></g>
<rect x="146.98" y="344.09" width="17.28" height="17.28" style="stroke-width: 1.16;stroke: none;fill: #FFFFFF;"/>
<line x1="148.71" y1="352.73" x2="162.53" y2="352.73" style="stroke-width: 1.07;stroke-linecap: butt;"/>
<rect x="222.09" y="344.09" width="17.28" height="17.28" style="stroke-width: 1.16;stroke: none;fill: #FFFFFF;"/>
<line x1="223.82" y1="352.73" x2="237.64" y2="352.73" style="stroke-width: 1.07; stroke-dasharray: 2.85, 2.85;stroke-linecap: butt;"/>
<g><text x="170.24" y="356.17" style="font-family: Arial;font-size: 9.60px;" textLength="45.88px" lengthAdjust="spacingAndGlyphs">1983-1999</text></g>
<g><text x="245.35" y="356.17" style="font-family: Arial;font-size: 9.60px;" textLength="45.88px" lengthAdjust="spacingAndGlyphs">2000-2019</text></g>
<rect x="38.94" y="373.32" width="441.98" height="17.28" style="stroke-width: 1.16;stroke: none;fill: #FFFFFF;"/>
<g><text x="38.94" y="386.27" style="font-family: Arial;font-size: 12.00px;" textLength="56.69px" lengthAdjust="spacingAndGlyphs">T category</text></g>
<rect x="101.60" y="373.32" width="17.28" height="17.28" style="stroke-width: 1.16;stroke: none;fill: #FFFFFF;"/>
<line x1="103.33" y1="381.96" x2="117.16" y2="381.96" style="stroke-width: 1.07;stroke: #8A9045;stroke-linecap: butt;"/>
<rect x="188.34" y="373.32" width="17.28" height="17.28" style="stroke-width: 1.16;stroke: none;fill: #FFFFFF;"/>
<line x1="190.07" y1="381.96" x2="203.89" y2="381.96" style="stroke-width: 1.07;stroke: #155F83;stroke-linecap: butt;"/>
<rect x="294.08" y="373.32" width="17.28" height="17.28" style="stroke-width: 1.16;stroke: none;fill: #FFFFFF;"/>
<line x1="295.81" y1="381.96" x2="309.63" y2="381.96" style="stroke-width: 1.07;stroke: #8F3931;stroke-linecap: butt;"/>
<rect x="399.82" y="373.32" width="17.28" height="17.28" style="stroke-width: 1.16;stroke: none;fill: #FFFFFF;"/>
<line x1="401.55" y1="381.96" x2="415.38" y2="381.96" style="stroke-width: 1.07;stroke: #350E20;stroke-linecap: butt;"/>
<g><text x="124.86" y="385.40" style="font-family: Arial;font-size: 9.60px;" textLength="57.50px" lengthAdjust="spacingAndGlyphs">T1 (1.0 mm)</text></g>
<g><text x="211.60" y="385.40" style="font-family: Arial;font-size: 9.60px;" textLength="76.51px" lengthAdjust="spacingAndGlyphs">T2 (&gt;1.02.0 mm)</text></g>
<g><text x="317.34" y="385.40" style="font-family: Arial;font-size: 9.60px;" textLength="76.51px" lengthAdjust="spacingAndGlyphs">T3 (&gt;2.04.0 mm)</text></g>
<g><text x="423.08" y="385.40" style="font-family: Arial;font-size: 9.60px;" textLength="57.84px" lengthAdjust="spacingAndGlyphs">T4 (&gt;4.0 mm)</text></g>
</g>
</svg>