<svg xmlns="http://www.w3.org/2000/svg" xmlns:xlink="http://www.w3.org/1999/xlink" class="httpgd" width="1510.00" height="1168.00" viewBox="0 0 517.71 400.46">
<defs>
  <style type='text/css'><![CDATA[
    .httpgd line, .httpgd polyline, .httpgd polygon, .httpgd path, .httpgd rect, .httpgd circle {
      fill: none;
      stroke: #000000;
      stroke-linecap: round;
      stroke-linejoin: round;
      stroke-miterlimit: 10.00;
    }
  ]]></style>
<clipPath id="c0"><rect x="0.00" y="0.00" width="517.71" height="400.46"/></clipPath>
<clipPath id="c1"><rect x="50.14" y="24.55" width="227.81" height="276.85"/></clipPath>
<clipPath id="c2"><rect x="0.00" y="0.00" width="517.71" height="400.46"/></clipPath>
<clipPath id="c3"><rect x="283.93" y="24.55" width="227.81" height="276.85"/></clipPath>
<clipPath id="c4"><rect x="0.00" y="0.00" width="517.71" height="400.46"/></clipPath>
<clipPath id="c5"><rect x="50.14" y="5.98" width="227.81" height="18.57"/></clipPath>
<clipPath id="c6"><rect x="0.00" y="0.00" width="517.71" height="400.46"/></clipPath>
<clipPath id="c7"><rect x="283.93" y="5.98" width="227.81" height="18.57"/></clipPath>
<clipPath id="c8"><rect x="0.00" y="0.00" width="517.71" height="400.46"/></clipPath>
</defs>
<rect width="100%" height="100%" style="stroke: none;fill: #FFFFFF;"/>
<g clip-path="url(#c0)">
<rect x="-0.00" y="0.00" width="517.71" height="400.46" style="stroke-width: 1.16;stroke: #FFFFFF;fill: #FFFFFF;"/>
</g><g clip-path="url(#c1)">
<rect x="50.14" y="24.55" width="227.81" height="276.85" style="stroke-width: 1.16;stroke: none;fill: #FFFFFF;"/>
<polyline points="50.14,301.11 277.95,301.11" style="stroke-width: 0.58;stroke: #F0F0F0;stroke-linecap: butt;"/>
<polyline points="50.14,276.51 277.95,276.51" style="stroke-width: 0.58;stroke: #F0F0F0;stroke-linecap: butt;"/>
<polyline points="50.14,264.21 277.95,264.21" style="stroke-width: 0.58;stroke: #F0F0F0;stroke-linecap: butt;"/>
<polyline points="50.14,251.90 277.95,251.90" style="stroke-width: 0.58;stroke: #F0F0F0;stroke-linecap: butt;"/>
<polyline points="50.14,239.60 277.95,239.60" style="stroke-width: 0.58;stroke: #F0F0F0;stroke-linecap: butt;"/>
<polyline points="50.14,227.30 277.95,227.30" style="stroke-width: 0.58;stroke: #F0F0F0;stroke-linecap: butt;"/>
<polyline points="50.14,215.00 277.95,215.00" style="stroke-width: 0.58;stroke: #F0F0F0;stroke-linecap: butt;"/>
<polyline points="50.14,202.69 277.95,202.69" style="stroke-width: 0.58;stroke: #F0F0F0;stroke-linecap: butt;"/>
<polyline points="50.14,190.39 277.95,190.39" style="stroke-width: 0.58;stroke: #F0F0F0;stroke-linecap: butt;"/>
<polyline points="50.14,178.09 277.95,178.09" style="stroke-width: 0.58;stroke: #F0F0F0;stroke-linecap: butt;"/>
<polyline points="50.14,165.78 277.95,165.78" style="stroke-width: 0.58;stroke: #F0F0F0;stroke-linecap: butt;"/>
<polyline points="50.14,153.48 277.95,153.48" style="stroke-width: 0.58;stroke: #F0F0F0;stroke-linecap: butt;"/>
<polyline points="50.14,128.88 277.95,128.88" style="stroke-width: 0.58;stroke: #F0F0F0;stroke-linecap: butt;"/>
<polyline points="50.14,116.57 277.95,116.57" style="stroke-width: 0.58;stroke: #F0F0F0;stroke-linecap: butt;"/>
<polyline points="50.14,104.27 277.95,104.27" style="stroke-width: 0.58;stroke: #F0F0F0;stroke-linecap: butt;"/>
<polyline points="50.14,79.67 277.95,79.67" style="stroke-width: 0.58;stroke: #F0F0F0;stroke-linecap: butt;"/>
<polyline points="50.14,67.36 277.95,67.36" style="stroke-width: 0.58;stroke: #F0F0F0;stroke-linecap: butt;"/>
<polyline points="50.14,55.06 277.95,55.06" style="stroke-width: 0.58;stroke: #F0F0F0;stroke-linecap: butt;"/>
<polyline points="50.14,42.76 277.95,42.76" style="stroke-width: 0.58;stroke: #F0F0F0;stroke-linecap: butt;"/>
<polyline points="50.14,30.46 277.95,30.46" style="stroke-width: 0.58;stroke: #F0F0F0;stroke-linecap: butt;"/>
<polyline points="94.05,301.40 94.05,24.55" style="stroke-width: 0.58;stroke: #F0F0F0;stroke-linecap: butt;"/>
<polyline points="163.47,301.40 163.47,24.55" style="stroke-width: 0.58;stroke: #F0F0F0;stroke-linecap: butt;"/>
<polyline points="232.89,301.40 232.89,24.55" style="stroke-width: 0.58;stroke: #F0F0F0;stroke-linecap: butt;"/>
<polyline points="50.14,288.81 277.95,288.81" style="stroke-width: 1.16;stroke: #F0F0F0;stroke-linecap: butt;"/>
<polyline points="50.14,239.60 277.95,239.60" style="stroke-width: 1.16;stroke: #F0F0F0;stroke-linecap: butt;"/>
<polyline points="50.14,190.39 277.95,190.39" style="stroke-width: 1.16;stroke: #F0F0F0;stroke-linecap: butt;"/>
<polyline points="50.14,141.18 277.95,141.18" style="stroke-width: 1.16;stroke: #F0F0F0;stroke-linecap: butt;"/>
<polyline points="50.14,91.97 277.95,91.97" style="stroke-width: 1.16;stroke: #F0F0F0;stroke-linecap: butt;"/>
<polyline points="50.14,42.76 277.95,42.76" style="stroke-width: 1.16;stroke: #F0F0F0;stroke-linecap: butt;"/>
<polyline points="59.34,301.40 59.34,24.55" style="stroke-width: 1.16;stroke: #F0F0F0;stroke-linecap: butt;"/>
<polyline points="128.76,301.40 128.76,24.55" style="stroke-width: 1.16;stroke: #F0F0F0;stroke-linecap: butt;"/>
<polyline points="198.18,301.40 198.18,24.55" style="stroke-width: 1.16;stroke: #F0F0F0;stroke-linecap: butt;"/>
<polyline points="267.60,301.40 267.60,24.55" style="stroke-width: 1.16;stroke: #F0F0F0;stroke-linecap: butt;"/>
<polyline points="60.50,42.71 61.66,42.71 61.66,42.66 62.81,42.66 62.81,42.85 63.97,42.85 63.97,42.64 65.13,42.64 65.13,42.92 66.28,42.92 66.28,42.79 67.44,42.79 67.44,42.75 68.60,42.75 68.60,42.78 69.76,42.78 69.76,42.74 70.91,42.74 70.91,42.61 72.07,42.61 72.07,42.40 73.23,42.40 73.23,42.68 74.38,42.68 74.38,42.62 75.54,42.62 75.54,42.55 76.70,42.55 76.70,42.48 77.85,42.48 77.85,42.25 79.01,42.25 79.01,42.19 80.17,42.19 80.17,42.13 81.32,42.13 81.32,42.06 82.48,42.06 82.48,41.92 83.64,41.92 83.64,41.94 84.80,41.94 84.80,42.04 85.95,42.04 85.95,42.39 87.11,42.39 87.11,42.17 88.27,42.17 88.27,42.09 89.42,42.09 89.42,42.17 90.58,42.17 90.58,42.01 91.74,42.01 91.74,41.76 92.89,41.76 92.89,41.76 94.05,41.76 94.05,41.85 95.21,41.85 95.21,41.94 96.37,41.94 96.37,42.19 97.52,42.19 97.52,42.20 98.68,42.20 98.68,42.05 99.84,42.05 99.84,42.31 100.99,42.31 100.99,42.24 102.15,42.24 102.15,42.73 103.31,42.73 103.31,42.72 104.46,42.72 104.46,42.71 105.62,42.71 105.62,42.70 106.78,42.70 106.78,42.69 107.94,42.69 107.94,42.76 109.09,42.76 109.09,42.84 110.25,42.84 110.25,43.10 111.41,43.10 111.41,43.18 112.56,43.18 112.56,43.53 113.72,43.53 113.72,43.36 114.88,43.36 114.88,43.12 116.03,43.12 116.03,43.35 117.19,43.35 117.19,43.25 118.35,43.25 118.35,43.41 119.50,43.41 119.50,43.31 120.66,43.31 120.66,43.63 121.82,43.63 121.82,43.71 122.98,43.71 122.98,43.61 124.13,43.61 124.13,43.60 125.29,43.60 125.29,43.68 126.45,43.68 126.45,43.84 127.60,43.84 127.60,43.84 128.76,43.84 128.76,44.00 129.92,44.00 129.92,43.80 131.07,43.80 131.07,44.20 132.23,44.20 132.23,44.08 133.39,44.08 133.39,44.22 134.55,44.22 134.55,44.20 135.70,44.20 135.70,44.35 136.86,44.35 136.86,44.06 138.02,44.06 138.02,43.95 139.17,43.95 139.17,43.93 140.33,43.93 140.33,43.91 141.49,43.91 141.49,44.07 142.64,44.07 142.64,43.96 143.80,43.96 143.80,43.83 144.96,43.83 144.96,43.87 146.12,43.87 146.12,44.01 147.27,44.01 147.27,44.05 148.43,44.05 148.43,43.92 149.59,43.92 149.59,44.06 150.74,44.06 150.74,44.82 151.90,44.82 151.90,44.88 153.06,44.88 153.06,44.76 154.21,44.76 154.21,44.65 155.37,44.65 155.37,44.80 156.53,44.80 156.53,44.77 157.68,44.77 157.68,44.81 158.84,44.81 158.84,44.85 160.00,44.85 160.00,44.71 161.16,44.71 161.16,44.75 162.31,44.75 162.31,45.06 163.47,45.06 163.47,45.46 164.63,45.46 164.63,45.42 165.78,45.42 165.78,45.29 166.94,45.29 166.94,45.52 168.10,45.52 168.10,46.03 169.25,46.03 169.25,46.00 170.41,46.00 170.41,45.88 171.57,45.88 171.57,45.82 172.73,45.82 172.73,45.76 173.88,45.76 173.88,45.53 175.04,45.53 175.04,45.29 176.20,45.29 176.20,45.24 177.35,45.24 177.35,45.28 178.51,45.28 178.51,45.32 179.67,45.32 179.67,45.54 180.82,45.54 180.82,45.22 181.98,45.22 181.98,45.45 183.14,45.45 183.14,45.41 184.30,45.41 184.30,45.37 185.45,45.37 185.45,45.29 186.61,45.29 186.61,45.50 187.77,45.50 187.77,45.25 188.92,45.25 188.92,45.28 190.08,45.28 190.08,44.93 191.24,44.93 191.24,44.77 192.39,44.77 192.39,44.90 193.55,44.90 193.55,44.65 194.71,44.65 194.71,44.59 195.86,44.59 195.86,44.62 197.02,44.62 197.02,44.47 198.18,44.47 198.18,44.51 199.34,44.51 199.34,44.42 200.49,44.42 200.49,44.43 201.65,44.43 201.65,44.25 202.81,44.25 202.81,44.44 203.96,44.44 203.96,44.36 205.12,44.36 205.12,44.37 206.28,44.37 206.28,44.29 207.43,44.29 207.43,44.31 208.59,44.31 208.59,44.99 209.75,44.99 209.75,44.83 210.91,44.83 210.91,44.86 212.06,44.86 212.06,44.79 213.22,44.79 213.22,44.59 214.38,44.59 214.38,44.20 215.53,44.20 215.53,44.20 216.69,44.20 216.69,44.39 217.85,44.39 217.85,44.87 219.00,44.87 219.00,44.78 220.16,44.78 220.16,44.69 221.32,44.69 221.32,44.70 222.48,44.70 222.48,44.52 223.63,44.52 223.63,44.73 224.79,44.73 224.79,44.65 225.95,44.65 225.95,44.29 227.10,44.29 227.10,44.65 228.26,44.65 228.26,44.35 229.42,44.35 229.42,44.44 230.57,44.44 230.57,44.34 231.73,44.34 231.73,44.34 232.89,44.34 232.89,44.33 234.04,44.33 234.04,44.53 235.20,44.53 235.20,44.43 236.36,44.43 236.36,44.34 237.52,44.34 237.52,44.35 238.67,44.35 238.67,44.35 239.83,44.35 239.83,44.27 240.99,44.27 240.99,44.14 242.14,44.14 242.14,44.01 243.30,44.01 243.30,43.69 244.46,43.69 244.46,43.37 245.61,43.37 245.61,43.55 246.77,43.55 246.77,43.53 247.93,43.53 247.93,43.41 249.09,43.41 249.09,43.40 250.24,43.40 250.24,43.19 251.40,43.19 251.40,43.07 252.56,43.07 252.56,42.96 253.71,42.96 253.71,43.06 254.87,43.06 254.87,42.70 256.03,42.70 256.03,42.86 257.18,42.86 257.18,42.91 258.34,42.91 258.34,42.77 259.50,42.77 259.50,42.53 260.66,42.53 260.66,42.90 261.81,42.90 261.81,43.18 262.97,43.18 262.97,43.17 264.13,43.17 264.13,42.95 265.28,42.95 265.28,42.62 266.44,42.62 266.44,42.40 267.60,42.40 267.60,41.98" style="stroke-width: 1.07;stroke: #8A9045;stroke-linecap: butt;"/>
<polyline points="60.50,42.42 61.66,42.42 61.66,42.28 62.81,42.28 62.81,42.13 63.97,42.13 63.97,42.37 65.13,42.37 65.13,42.04 66.28,42.04 66.28,41.90 67.44,41.90 67.44,41.76 68.60,41.76 68.60,41.81 69.76,41.81 69.76,41.67 70.91,41.67 70.91,42.51 72.07,42.51 72.07,42.57 73.23,42.57 73.23,43.61 74.38,43.61 74.38,43.65 75.54,43.65 75.54,44.27 76.70,44.27 76.70,44.32 77.85,44.32 77.85,44.36 79.01,44.36 79.01,45.40 80.17,45.40 80.17,45.06 81.32,45.06 81.32,45.30 82.48,45.30 82.48,45.36 83.64,45.36 83.64,46.01 84.80,46.01 84.80,46.27 85.95,46.27 85.95,46.92 87.11,46.92 87.11,47.19 88.27,47.19 88.27,47.41 89.42,47.41 89.42,47.65 90.58,47.65 90.58,47.68 91.74,47.68 91.74,49.31 92.89,49.31 92.89,49.75 94.05,49.75 94.05,49.40 95.21,49.40 95.21,50.24 96.37,50.24 96.37,51.09 97.52,51.09 97.52,50.74 98.68,50.74 98.68,50.99 99.84,50.99 99.84,51.65 100.99,51.65 100.99,51.92 102.15,51.92 102.15,52.75 103.31,52.75 103.31,52.98 104.46,52.98 104.46,53.62 105.62,53.62 105.62,54.27 106.78,54.27 106.78,54.31 107.94,54.31 107.94,54.96 109.09,54.96 109.09,55.62 110.25,55.62 110.25,56.89 111.41,56.89 111.41,57.15 112.56,57.15 112.56,58.23 113.72,58.23 113.72,57.87 114.88,57.87 114.88,57.93 116.03,57.93 116.03,57.75 117.19,57.75 117.19,57.98 118.35,57.98 118.35,58.62 119.50,58.62 119.50,59.07 120.66,59.07 120.66,58.90 121.82,58.90 121.82,59.98 122.98,59.98 122.98,60.03 124.13,60.03 124.13,60.29 125.29,60.29 125.29,60.34 126.45,60.34 126.45,61.44 127.60,61.44 127.60,62.34 128.76,62.34 128.76,62.83 129.92,62.83 129.92,62.87 131.07,62.87 131.07,63.11 132.23,63.11 132.23,63.79 133.39,63.79 133.39,63.62 134.55,63.62 134.55,64.51 135.70,64.51 135.70,65.20 136.86,65.20 136.86,65.67 138.02,65.67 138.02,65.94 139.17,65.94 139.17,66.42 140.33,66.42 140.33,66.27 141.49,66.27 141.49,66.76 142.64,66.76 142.64,66.83 143.80,66.83 143.80,66.43 144.96,66.43 144.96,66.68 146.12,66.68 146.12,67.15 147.27,67.15 147.27,68.05 148.43,68.05 148.43,68.53 149.59,68.53 149.59,69.45 150.74,69.45 150.74,69.94 151.90,69.94 151.90,69.57 153.06,69.57 153.06,70.50 154.21,70.50 154.21,70.35 155.37,70.35 155.37,71.52 156.53,71.52 156.53,71.59 157.68,71.59 157.68,72.28 158.84,72.28 158.84,72.31 160.00,72.31 160.00,72.57 161.16,72.57 161.16,73.27 162.31,73.27 162.31,73.53 163.47,73.53 163.47,73.58 164.63,73.58 164.63,73.18 165.78,73.18 165.78,73.01 166.94,73.01 166.94,72.83 168.10,72.83 168.10,73.11 169.25,73.11 169.25,73.39 170.41,73.39 170.41,73.22 171.57,73.22 171.57,73.24 172.73,73.24 172.73,72.81 173.88,72.81 173.88,73.50 175.04,73.50 175.04,73.30 176.20,73.30 176.20,73.55 177.35,73.55 177.35,73.58 178.51,73.58 178.51,74.07 179.67,74.07 179.67,75.01 180.82,75.01 180.82,75.29 181.98,75.29 181.98,75.56 183.14,75.56 183.14,75.38 184.30,75.38 184.30,75.44 185.45,75.44 185.45,75.67 186.61,75.67 186.61,76.38 187.77,76.38 187.77,76.41 188.92,76.41 188.92,76.20 190.08,76.20 190.08,77.16 191.24,77.16 191.24,77.67 192.39,77.67 192.39,78.18 193.55,78.18 193.55,78.00 194.71,78.00 194.71,78.06 195.86,78.06 195.86,78.59 197.02,78.59 197.02,78.66 198.18,78.66 198.18,79.67 199.34,79.67 199.34,79.47 200.49,79.47 200.49,80.22 201.65,80.22 201.65,80.03 202.81,80.03 202.81,80.79 203.96,80.79 203.96,81.56 205.12,81.56 205.12,82.10 206.28,82.10 206.28,81.93 207.43,81.93 207.43,82.00 208.59,82.00 208.59,82.56 209.75,82.56 209.75,82.16 210.91,82.16 210.91,83.45 212.06,83.45 212.06,83.07 213.22,83.07 213.22,83.86 214.38,83.86 214.38,83.93 215.53,83.93 215.53,84.01 216.69,84.01 216.69,84.57 217.85,84.57 217.85,84.66 219.00,84.66 219.00,85.72 220.16,85.72 220.16,85.34 221.32,85.34 221.32,85.20 222.48,85.20 222.48,84.83 223.63,84.83 223.63,84.69 224.79,84.69 224.79,84.81 225.95,84.81 225.95,85.17 227.10,85.17 227.10,85.00 228.26,85.00 228.26,84.59 229.42,84.59 229.42,84.68 230.57,84.68 230.57,84.53 231.73,84.53 231.73,84.62 232.89,84.62 232.89,84.49 234.04,84.49 234.04,84.85 235.20,84.85 235.20,85.72 236.36,85.72 236.36,85.85 237.52,85.85 237.52,86.48 238.67,86.48 238.67,86.12 239.83,86.12 239.83,86.25 240.99,86.25 240.99,86.11 242.14,86.11 242.14,86.47 243.30,86.47 243.30,86.33 244.46,86.33 244.46,86.19 245.61,86.19 245.61,86.05 246.77,86.05 246.77,86.18 247.93,86.18 247.93,86.05 249.09,86.05 249.09,85.93 250.24,85.93 250.24,86.32 251.40,86.32 251.40,85.95 252.56,85.95 252.56,85.58 253.71,85.58 253.71,85.98 254.87,85.98 254.87,86.08 256.03,86.08 256.03,86.71 257.18,86.71 257.18,86.56 258.34,86.56 258.34,87.19 259.50,87.19 259.50,87.83 260.66,87.83 260.66,87.70 261.81,87.70 261.81,88.35 262.97,88.35 262.97,88.48 264.13,88.48 264.13,89.15 265.28,89.15 265.28,89.29 266.44,89.29 266.44,89.43 267.60,89.43 267.60,89.58" style="stroke-width: 1.07;stroke: #155F83;stroke-linecap: butt;"/>
<polyline points="60.50,42.58 61.66,42.58 61.66,42.11 62.81,42.11 62.81,41.94 63.97,41.94 63.97,42.37 65.13,42.37 65.13,43.10 66.28,43.10 66.28,43.54 67.44,43.54 67.44,44.59 68.60,44.59 68.60,44.43 69.76,44.43 69.76,44.88 70.91,44.88 70.91,45.33 72.07,45.33 72.07,45.49 73.23,45.49 73.23,47.17 74.38,47.17 74.38,48.20 75.54,48.20 75.54,49.55 76.70,49.55 76.70,50.29 77.85,50.29 77.85,51.35 79.01,51.35 79.01,53.03 80.17,53.03 80.17,53.48 81.32,53.48 81.32,54.86 82.48,54.86 82.48,56.26 83.64,56.26 83.64,57.68 84.80,57.68 84.80,58.79 85.95,58.79 85.95,60.54 87.11,60.54 87.11,61.05 88.27,61.05 88.27,62.15 89.42,62.15 89.42,63.89 90.58,63.89 90.58,63.43 91.74,63.43 91.74,64.55 92.89,64.55 92.89,66.31 94.05,66.31 94.05,68.08 95.21,68.08 95.21,68.92 96.37,68.92 96.37,71.03 97.52,71.03 97.52,71.89 98.68,71.89 98.68,71.81 99.84,71.81 99.84,72.36 100.99,72.36 100.99,73.56 102.15,73.56 102.15,74.40 103.31,74.40 103.31,75.57 104.46,75.57 104.46,77.07 105.62,77.07 105.62,78.59 106.78,78.59 106.78,78.81 107.94,78.81 107.94,79.04 109.09,79.04 109.09,78.95 110.25,78.95 110.25,79.83 111.41,79.83 111.41,81.04 112.56,81.04 112.56,82.93 113.72,82.93 113.72,83.84 114.88,83.84 114.88,84.43 116.03,84.43 116.03,86.95 117.19,86.95 117.19,88.16 118.35,88.16 118.35,90.05 119.50,90.05 119.50,89.96 120.66,89.96 120.66,90.21 121.82,90.21 121.82,90.79 122.98,90.79 122.98,91.05 124.13,91.05 124.13,91.32 125.29,91.32 125.29,91.25 126.45,91.25 126.45,92.53 127.60,92.53 127.60,93.48 128.76,93.48 128.76,94.77 129.92,94.77 129.92,94.69 131.07,94.69 131.07,95.63 132.23,95.63 132.23,96.92 133.39,96.92 133.39,97.55 134.55,97.55 134.55,98.17 135.70,98.17 135.70,98.47 136.86,98.47 136.86,98.42 138.02,98.42 138.02,98.73 139.17,98.73 139.17,98.35 140.33,98.35 140.33,99.00 141.49,99.00 141.49,100.00 142.64,100.00 142.64,100.32 143.80,100.32 143.80,100.95 144.96,100.95 144.96,101.94 146.12,101.94 146.12,101.89 147.27,101.89 147.27,103.25 148.43,103.25 148.43,102.88 149.59,102.88 149.59,103.90 150.74,103.90 150.74,103.88 151.90,103.88 151.90,103.86 153.06,103.86 153.06,104.54 154.21,104.54 154.21,104.88 155.37,104.88 155.37,105.93 156.53,105.93 156.53,105.57 157.68,105.57 157.68,105.89 158.84,105.89 158.84,106.91 160.00,106.91 160.00,107.24 161.16,107.24 161.16,108.64 162.31,108.64 162.31,108.28 163.47,108.28 163.47,107.91 164.63,107.91 164.63,107.90 165.78,107.90 165.78,108.98 166.94,108.98 166.94,108.98 168.10,108.98 168.10,110.43 169.25,110.43 169.25,110.08 170.41,110.08 170.41,109.74 171.57,109.74 171.57,110.09 172.73,110.09 172.73,110.07 173.88,110.07 173.88,110.06 175.04,110.06 175.04,110.77 176.20,110.77 176.20,110.77 177.35,110.77 177.35,111.50 178.51,111.50 178.51,111.87 179.67,111.87 179.67,111.88 180.82,111.88 180.82,112.26 181.98,112.26 181.98,113.02 183.14,113.02 183.14,113.42 184.30,113.42 184.30,114.20 185.45,114.20 185.45,113.83 186.61,113.83 186.61,114.21 187.77,114.21 187.77,114.97 188.92,114.97 188.92,116.11 190.08,116.11 190.08,117.26 191.24,117.26 191.24,116.92 192.39,116.92 192.39,118.08 193.55,118.08 193.55,118.12 194.71,118.12 194.71,118.92 195.86,118.92 195.86,118.58 197.02,118.58 197.02,119.01 198.18,119.01 198.18,119.05 199.34,119.05 199.34,119.45 200.49,119.45 200.49,120.61 201.65,120.61 201.65,120.24 202.81,120.24 202.81,120.64 203.96,120.64 203.96,121.05 205.12,121.05 205.12,121.85 206.28,121.85 206.28,122.66 207.43,122.66 207.43,123.85 208.59,123.85 208.59,123.90 209.75,123.90 209.75,124.33 210.91,124.33 210.91,125.94 212.06,125.94 212.06,125.61 213.22,125.61 213.22,126.42 214.38,126.42 214.38,127.24 215.53,127.24 215.53,127.28 216.69,127.28 216.69,127.33 217.85,127.33 217.85,128.17 219.00,128.17 219.00,129.82 220.16,129.82 220.16,129.51 221.32,129.51 221.32,129.59 222.48,129.59 222.48,129.67 223.63,129.67 223.63,129.75 224.79,129.75 224.79,129.84 225.95,129.84 225.95,129.93 227.10,129.93 227.10,130.00 228.26,130.00 228.26,129.67 229.42,129.67 229.42,129.75 230.57,129.75 230.57,129.83 231.73,129.83 231.73,129.51 232.89,129.51 232.89,129.19 234.04,129.19 234.04,130.09 235.20,130.09 235.20,129.77 236.36,129.77 236.36,129.45 237.52,129.45 237.52,129.95 238.67,129.95 238.67,130.45 239.83,130.45 239.83,130.56 240.99,130.56 240.99,130.22 242.14,130.22 242.14,130.29 243.30,130.29 243.30,130.36 244.46,130.36 244.46,130.02 245.61,130.02 245.61,129.69 246.77,129.69 246.77,130.60 247.93,130.60 247.93,131.10 249.09,131.10 249.09,131.19 250.24,131.19 250.24,131.29 251.40,131.29 251.40,130.97 252.56,130.97 252.56,131.07 253.71,131.07 253.71,132.01 254.87,132.01 254.87,131.66 256.03,131.66 256.03,131.31 257.18,131.31 257.18,130.96 258.34,130.96 258.34,131.03 259.50,131.03 259.50,130.68 260.66,130.68 260.66,131.19 261.81,131.19 261.81,131.71 262.97,131.71 262.97,131.81 264.13,131.81 264.13,132.34 265.28,132.34 265.28,132.46 266.44,132.46 266.44,132.57 267.60,132.57 267.60,132.25" style="stroke-width: 1.07;stroke: #8F3931;stroke-linecap: butt;"/>
<polyline points="60.50,43.52 61.66,43.52 61.66,43.76 62.81,43.76 62.81,46.12 63.97,46.12 63.97,46.38 65.13,46.38 65.13,50.36 66.28,50.36 66.28,53.31 67.44,53.31 67.44,55.23 68.60,55.23 68.60,55.55 69.76,55.55 69.76,55.88 70.91,55.88 70.91,57.83 72.07,57.83 72.07,60.34 73.23,60.34 73.23,62.34 74.38,62.34 74.38,64.27 75.54,64.27 75.54,67.85 76.70,67.85 76.70,69.29 77.85,69.29 77.85,70.19 79.01,70.19 79.01,73.86 80.17,73.86 80.17,74.26 81.32,74.26 81.32,78.01 82.48,78.01 82.48,81.79 83.64,81.79 83.64,87.84 84.80,87.84 84.80,88.30 85.95,88.30 85.95,89.90 87.11,89.90 87.11,90.95 88.27,90.95 88.27,91.38 89.42,91.38 89.42,94.10 90.58,94.10 90.58,96.84 91.74,96.84 91.74,100.19 92.89,100.19 92.89,101.85 94.05,101.85 94.05,102.95 95.21,102.95 95.21,107.55 96.37,107.55 96.37,108.69 97.52,108.69 97.52,109.84 98.68,109.84 98.68,111.59 99.84,111.59 99.84,111.58 100.99,111.58 100.99,112.17 102.15,112.17 102.15,115.67 103.31,115.67 103.31,117.41 104.46,117.41 104.46,120.37 105.62,120.37 105.62,121.57 106.78,121.57 106.78,122.79 107.94,122.79 107.94,124.62 109.09,124.62 109.09,125.86 110.25,125.86 110.25,128.32 111.41,128.32 111.41,129.59 112.56,129.59 112.56,132.10 113.72,132.10 113.72,133.41 114.88,133.41 114.88,133.50 116.03,133.50 116.03,137.87 117.19,137.87 117.19,138.57 118.35,138.57 118.35,141.77 119.50,141.77 119.50,142.50 120.66,142.50 120.66,142.61 121.82,142.61 121.82,145.24 122.98,145.24 122.98,147.27 124.13,147.27 124.13,147.41 125.29,147.41 125.29,148.82 126.45,148.82 126.45,148.99 127.60,148.99 127.60,148.53 128.76,148.53 128.76,149.99 129.92,149.99 129.92,150.13 131.07,150.13 131.07,152.86 132.23,152.86 132.23,154.31 133.39,154.31 133.39,154.48 134.55,154.48 134.55,155.31 135.70,155.31 135.70,156.15 136.86,156.15 136.86,156.35 138.02,156.35 138.02,157.22 139.17,157.22 139.17,158.77 140.33,158.77 140.33,158.99 141.49,158.99 141.49,161.91 142.64,161.91 142.64,162.16 143.80,162.16 143.80,161.69 144.96,161.69 144.96,161.90 146.12,161.90 146.12,162.12 147.27,162.12 147.27,163.04 148.43,163.04 148.43,163.29 149.59,163.29 149.59,163.54 150.74,163.54 150.74,163.80 151.90,163.80 151.90,163.38 153.06,163.38 153.06,165.04 154.21,165.04 154.21,165.34 155.37,165.34 155.37,168.44 156.53,168.44 156.53,168.10 157.68,168.10 157.68,169.12 158.84,169.12 158.84,168.74 160.00,168.74 160.00,169.08 161.16,169.08 161.16,168.71 162.31,168.71 162.31,168.35 163.47,168.35 163.47,169.41 164.63,169.41 164.63,170.48 165.78,170.48 165.78,170.85 166.94,170.85 166.94,170.50 168.10,170.50 168.10,171.59 169.25,171.59 169.25,171.98 170.41,171.98 170.41,171.64 171.57,171.64 171.57,172.00 172.73,172.00 172.73,171.62 173.88,171.62 173.88,172.72 175.04,172.72 175.04,172.36 176.20,172.36 176.20,172.01 177.35,172.01 177.35,171.65 178.51,171.65 178.51,171.29 179.67,171.29 179.67,173.92 180.82,173.92 180.82,175.06 181.98,175.06 181.98,175.46 183.14,175.46 183.14,175.86 184.30,175.86 184.30,176.27 185.45,176.27 185.45,176.65 186.61,176.65 186.61,177.03 187.77,177.03 187.77,178.18 188.92,178.18 188.92,177.81 190.08,177.81 190.08,177.43 191.24,177.43 191.24,177.05 192.39,177.05 192.39,178.99 193.55,178.99 193.55,179.39 194.71,179.39 194.71,179.80 195.86,179.80 195.86,180.21 197.02,180.21 197.02,179.84 198.18,179.84 198.18,179.47 199.34,179.47 199.34,179.05 200.49,179.05 200.49,178.63 201.65,178.63 201.65,178.21 202.81,178.21 202.81,177.79 203.96,177.79 203.96,177.36 205.12,177.36 205.12,176.94 206.28,176.94 206.28,177.32 207.43,177.32 207.43,176.89 208.59,176.89 208.59,176.46 209.75,176.46 209.75,176.85 210.91,176.85 210.91,178.08 212.06,178.08 212.06,177.69 213.22,177.69 213.22,178.08 214.38,178.08 214.38,178.47 215.53,178.47 215.53,178.06 216.69,178.06 216.69,178.49 217.85,178.49 217.85,179.76 219.00,179.76 219.00,180.20 220.16,180.20 220.16,180.64 221.32,180.64 221.32,181.10 222.48,181.10 222.48,180.71 223.63,180.71 223.63,181.18 224.79,181.18 224.79,181.66 225.95,181.66 225.95,182.15 227.10,182.15 227.10,182.60 228.26,182.60 228.26,182.22 229.42,182.22 229.42,182.71 230.57,182.71 230.57,184.96 231.73,184.96 231.73,184.62 232.89,184.62 232.89,184.28 234.04,184.28 234.04,184.83 235.20,184.83 235.20,184.49 236.36,184.49 236.36,184.15 237.52,184.15 237.52,183.81 238.67,183.81 238.67,183.47 239.83,183.47 239.83,184.03 240.99,184.03 240.99,183.66 242.14,183.66 242.14,184.19 243.30,184.19 243.30,183.83 244.46,183.83 244.46,185.29 245.61,185.29 245.61,185.84 246.77,185.84 246.77,186.43 247.93,186.43 247.93,187.02 249.09,187.02 249.09,186.70 250.24,186.70 250.24,188.22 251.40,188.22 251.40,187.91 252.56,187.91 252.56,187.61 253.71,187.61 253.71,187.30 254.87,187.30 254.87,186.95 256.03,186.95 256.03,186.60 257.18,186.60 257.18,186.25 258.34,186.25 258.34,186.84 259.50,186.84 259.50,186.49 260.66,186.49 260.66,186.14 261.81,186.14 261.81,186.74 262.97,186.74 262.97,187.35 264.13,187.35 264.13,187.01 265.28,187.01 265.28,186.67 266.44,186.67 266.44,186.33 267.60,186.33 267.60,185.99" style="stroke-width: 1.07;stroke: #350E20;stroke-linecap: butt;"/>
<polyline points="60.50,42.52 61.66,42.52 61.66,42.37 62.81,42.37 62.81,42.40 63.97,42.40 63.97,42.26 65.13,42.26 65.13,42.11 66.28,42.11 66.28,42.06 67.44,42.06 67.44,41.98 68.60,41.98 68.60,41.90 69.76,41.90 69.76,41.85 70.91,41.85 70.91,41.68 72.07,41.68 72.07,41.54 73.23,41.54 73.23,41.60 74.38,41.60 74.38,41.43 75.54,41.43 75.54,41.54 76.70,41.54 76.70,41.38 77.85,41.38 77.85,41.22 79.01,41.22 79.01,41.34 80.17,41.34 80.17,41.26 81.32,41.26 81.32,41.31 82.48,41.31 82.48,41.16 83.64,41.16 83.64,41.16 84.80,41.16 84.80,41.23 85.95,41.23 85.95,41.27 87.11,41.27 87.11,41.20 88.27,41.20 88.27,41.14 89.42,41.14 89.42,41.31 90.58,41.31 90.58,41.14 91.74,41.14 91.74,41.20 92.89,41.20 92.89,41.19 94.05,41.19 94.05,41.15 95.21,41.15 95.21,41.14 96.37,41.14 96.37,41.03 97.52,41.03 97.52,41.31 98.68,41.31 98.68,41.19 99.84,41.19 99.84,41.24 100.99,41.24 100.99,41.09 102.15,41.09 102.15,41.04 103.31,41.04 103.31,40.94 104.46,40.94 104.46,40.77 105.62,40.77 105.62,40.81 106.78,40.81 106.78,41.02 107.94,41.02 107.94,41.19 109.09,41.19 109.09,41.03 110.25,41.03 110.25,41.00 111.41,41.00 111.41,41.02 112.56,41.02 112.56,41.04 113.72,41.04 113.72,41.07 114.88,41.07 114.88,40.88 116.03,40.88 116.03,41.07 117.19,41.07 117.19,40.98 118.35,40.98 118.35,41.04 119.50,41.04 119.50,41.11 120.66,41.11 120.66,41.33 121.82,41.33 121.82,41.51 122.98,41.51 122.98,41.59 124.13,41.59 124.13,41.43 125.29,41.43 125.29,41.63 126.45,41.63 126.45,41.53 127.60,41.53 127.60,41.69 128.76,41.69 128.76,41.59 129.92,41.59 129.92,41.30 131.07,41.30 131.07,41.60 132.23,41.60 132.23,41.47 133.39,41.47 133.39,41.35 134.55,41.35 134.55,41.40 135.70,41.40 135.70,41.34 136.86,41.34 136.86,41.46 138.02,41.46 138.02,41.59 139.17,41.59 139.17,41.73 140.33,41.73 140.33,41.53 141.49,41.53 141.49,41.74 142.64,41.74 142.64,41.54 143.80,41.54 143.80,41.25 144.96,41.25 144.96,41.44 146.12,41.44 146.12,41.16 147.27,41.16 147.27,41.31 148.43,41.31 148.43,41.46 149.59,41.46 149.59,41.63 150.74,41.63 150.74,41.41 151.90,41.41 151.90,41.52 153.06,41.52 153.06,41.57 154.21,41.57 154.21,41.57 155.37,41.57 155.37,41.63 156.53,41.63 156.53,41.64 157.68,41.64 157.68,41.68 158.84,41.68 158.84,41.93 160.00,41.93 160.00,41.92 161.16,41.92 161.16,42.05 162.31,42.05 162.31,42.04 163.47,42.04 163.47,41.97 164.63,41.97 164.63,41.83 165.78,41.83 165.78,41.62 166.94,41.62 166.94,41.41 168.10,41.41 168.10,41.36 169.25,41.36 169.25,41.30 170.41,41.30 170.41,41.18 171.57,41.18 171.57,41.65 172.73,41.65 172.73,41.57 173.88,41.57 173.88,41.58 175.04,41.58 175.04,41.44 176.20,41.44 176.20,41.46 177.35,41.46 177.35,41.57 178.51,41.57 178.51,41.53 179.67,41.53 179.67,41.48 180.82,41.48 180.82,41.45 181.98,41.45 181.98,41.59 183.14,41.59 183.14,41.30 184.30,41.30 184.30,41.19 185.45,41.19 185.45,41.41 186.61,41.41 186.61,41.74 187.77,41.74 187.77,41.52 188.92,41.52 188.92,41.39 190.08,41.39 190.08,41.37 191.24,41.37 191.24,41.16 192.39,41.16 192.39,41.15 193.55,41.15 193.55,41.25 194.71,41.25 194.71,41.56 195.86,41.56 195.86,41.79 197.02,41.79 197.02,41.71 198.18,41.71 198.18,41.63 199.34,41.63 199.34,41.40 200.49,41.40 200.49,41.40 201.65,41.40 201.65,41.29 202.81,41.29 202.81,40.97 203.96,40.97 203.96,40.88 205.12,40.88 205.12,40.57 206.28,40.57 206.28,40.49 207.43,40.49 207.43,40.41 208.59,40.41 208.59,40.94 209.75,40.94 209.75,40.89 210.91,40.89 210.91,40.60 212.06,40.60 212.06,40.44 213.22,40.44 213.22,40.36 214.38,40.36 214.38,40.16 215.53,40.16 215.53,40.22 216.69,40.22 216.69,40.29 217.85,40.29 217.85,40.24 219.00,40.24 219.00,40.06 220.16,40.06 220.16,39.89 221.32,39.89 221.32,40.28 222.48,40.28 222.48,40.26 223.63,40.26 223.63,40.40 224.79,40.40 224.79,40.40 225.95,40.40 225.95,40.55 227.10,40.55 227.10,41.25 228.26,41.25 228.26,40.95 229.42,40.95 229.42,40.95 230.57,40.95 230.57,40.96 231.73,40.96 231.73,41.13 232.89,41.13 232.89,41.01 234.04,41.01 234.04,41.36 235.20,41.36 235.20,41.27 236.36,41.27 236.36,41.18 237.52,41.18 237.52,41.60 238.67,41.60 238.67,41.53 239.83,41.53 239.83,41.47 240.99,41.47 240.99,41.39 242.14,41.39 242.14,41.30 243.30,41.30 243.30,41.04 244.46,41.04 244.46,40.60 245.61,40.60 245.61,40.53 246.77,40.53 246.77,40.85 247.93,40.85 247.93,40.60 249.09,40.60 249.09,40.36 250.24,40.36 250.24,40.32 251.40,40.32 251.40,39.89 252.56,39.89 252.56,39.45 253.71,39.45 253.71,39.85 254.87,39.85 254.87,39.58 256.03,39.58 256.03,39.54 257.18,39.54 257.18,39.50 258.34,39.50 258.34,39.48 259.50,39.48 259.50,39.24 260.66,39.24 260.66,39.01 261.81,39.01 261.81,39.01 262.97,39.01 262.97,39.03 264.13,39.03 264.13,39.55 265.28,39.55 265.28,39.35 266.44,39.35 266.44,39.93 267.60,39.93 267.60,39.49" style="stroke-width: 1.07;stroke: #8A9045; stroke-dasharray: 2.85, 2.85;stroke-linecap: butt;"/>
<polyline points="60.50,42.58 61.66,42.58 61.66,42.24 62.81,42.24 62.81,42.14 63.97,42.14 63.97,42.37 65.13,42.37 65.13,42.19 66.28,42.19 66.28,42.27 67.44,42.27 67.44,42.01 68.60,42.01 68.60,42.26 69.76,42.26 69.76,42.18 70.91,42.18 70.91,42.44 72.07,42.44 72.07,42.45 73.23,42.45 73.23,42.29 74.38,42.29 74.38,42.27 75.54,42.27 75.54,42.35 76.70,42.35 76.70,42.25 77.85,42.25 77.85,42.33 79.01,42.33 79.01,42.51 80.17,42.51 80.17,42.52 81.32,42.52 81.32,42.71 82.48,42.71 82.48,42.91 83.64,42.91 83.64,43.49 84.80,43.49 84.80,43.70 85.95,43.70 85.95,43.92 87.11,43.92 87.11,44.15 88.27,44.15 88.27,44.15 89.42,44.15 89.42,44.93 90.58,44.93 90.58,45.32 91.74,45.32 91.74,45.73 92.89,45.73 92.89,45.84 94.05,45.84 94.05,46.57 95.21,46.57 95.21,46.59 96.37,46.59 96.37,46.32 97.52,46.32 97.52,46.66 98.68,46.66 98.68,47.12 99.84,47.12 99.84,48.11 100.99,48.11 100.99,49.02 102.15,49.02 102.15,49.57 103.31,49.57 103.31,49.60 104.46,49.60 104.46,50.40 105.62,50.40 105.62,51.22 106.78,51.22 106.78,51.38 107.94,51.38 107.94,51.77 109.09,51.77 109.09,52.06 110.25,52.06 110.25,52.35 111.41,52.35 111.41,52.66 112.56,52.66 112.56,53.21 113.72,53.21 113.72,53.53 114.88,53.53 114.88,53.27 116.03,53.27 116.03,54.16 117.19,54.16 117.19,54.22 118.35,54.22 118.35,54.29 119.50,54.29 119.50,54.37 120.66,54.37 120.66,54.70 121.82,54.70 121.82,54.42 122.98,54.42 122.98,54.51 124.13,54.51 124.13,54.86 125.29,54.86 125.29,55.23 126.45,55.23 126.45,55.47 127.60,55.47 127.60,55.59 128.76,55.59 128.76,56.51 129.92,56.51 129.92,56.74 131.07,56.74 131.07,57.50 132.23,57.50 132.23,57.47 133.39,57.47 133.39,57.44 134.55,57.44 134.55,57.69 135.70,57.69 135.70,57.40 136.86,57.40 136.86,57.80 138.02,57.80 138.02,58.50 139.17,58.50 139.17,58.94 140.33,58.94 140.33,59.10 141.49,59.10 141.49,58.98 142.64,58.98 142.64,59.45 143.80,59.45 143.80,59.29 144.96,59.29 144.96,59.12 146.12,59.12 146.12,59.58 147.27,59.58 147.27,59.42 148.43,59.42 148.43,60.05 149.59,60.05 149.59,60.54 150.74,60.54 150.74,61.22 151.90,61.22 151.90,61.11 153.06,61.11 153.06,61.17 154.21,61.17 154.21,61.23 155.37,61.23 155.37,61.31 156.53,61.31 156.53,61.05 157.68,61.05 157.68,61.60 158.84,61.60 158.84,61.31 160.00,61.31 160.00,61.71 161.16,61.71 161.16,62.29 162.31,62.29 162.31,61.83 163.47,61.83 163.47,62.26 164.63,62.26 164.63,62.89 165.78,62.89 165.78,62.99 166.94,62.99 166.94,63.46 168.10,63.46 168.10,64.69 169.25,64.69 169.25,64.45 170.41,64.45 170.41,64.39 171.57,64.39 171.57,64.69 172.73,64.69 172.73,64.80 173.88,64.80 173.88,65.32 175.04,65.32 175.04,65.65 176.20,65.65 176.20,65.99 177.35,65.99 177.35,66.34 178.51,66.34 178.51,66.71 179.67,66.71 179.67,66.67 180.82,66.67 180.82,66.23 181.98,66.23 181.98,65.99 183.14,65.99 183.14,65.55 184.30,65.55 184.30,65.55 185.45,65.55 185.45,65.95 186.61,65.95 186.61,65.70 187.77,65.70 187.77,65.22 188.92,65.22 188.92,64.97 190.08,64.97 190.08,65.44 191.24,65.44 191.24,65.68 192.39,65.68 192.39,65.21 193.55,65.21 193.55,64.98 194.71,64.98 194.71,64.50 195.86,64.50 195.86,64.29 197.02,64.29 197.02,65.11 198.18,65.11 198.18,65.94 199.34,65.94 199.34,65.69 200.49,65.69 200.49,65.97 201.65,65.97 201.65,66.27 202.81,66.27 202.81,67.39 203.96,67.39 203.96,67.72 205.12,67.72 205.12,67.80 206.28,67.80 206.28,67.63 207.43,67.63 207.43,68.01 208.59,68.01 208.59,68.42 209.75,68.42 209.75,68.26 210.91,68.26 210.91,68.40 212.06,68.40 212.06,68.25 213.22,68.25 213.22,68.66 214.38,68.66 214.38,68.78 215.53,68.78 215.53,68.29 216.69,68.29 216.69,69.06 217.85,69.06 217.85,68.60 219.00,68.60 219.00,69.73 220.16,69.73 220.16,69.63 221.32,69.63 221.32,69.20 222.48,69.20 222.48,69.45 223.63,69.45 223.63,69.71 224.79,69.71 224.79,70.00 225.95,70.00 225.95,69.59 227.10,69.59 227.10,69.83 228.26,69.83 228.26,69.37 229.42,69.37 229.42,69.28 230.57,69.28 230.57,69.55 231.73,69.55 231.73,69.09 232.89,69.09 232.89,69.00 234.04,69.00 234.04,69.70 235.20,69.70 235.20,69.64 236.36,69.64 236.36,69.59 237.52,69.59 237.52,69.55 238.67,69.55 238.67,69.53 239.83,69.53 239.83,69.51 240.99,69.51 240.99,69.44 242.14,69.44 242.14,69.83 243.30,69.83 243.30,69.33 244.46,69.33 244.46,68.83 245.61,68.83 245.61,68.79 246.77,68.79 246.77,68.28 247.93,68.28 247.93,68.73 249.09,68.73 249.09,68.72 250.24,68.72 250.24,70.25 251.40,70.25 251.40,69.77 252.56,69.77 252.56,69.29 253.71,69.29 253.71,70.98 254.87,70.98 254.87,70.47 256.03,70.47 256.03,70.52 257.18,70.52 257.18,70.58 258.34,70.58 258.34,71.26 259.50,71.26 259.50,71.37 260.66,71.37 260.66,70.90 261.81,70.90 261.81,70.43 262.97,70.43 262.97,70.60 264.13,70.60 264.13,71.43 265.28,71.43 265.28,71.00 266.44,71.00 266.44,71.93 267.60,71.93 267.60,72.19" style="stroke-width: 1.07;stroke: #155F83; stroke-dasharray: 2.85, 2.85;stroke-linecap: butt;"/>
<polyline points="60.50,42.35 61.66,42.35 61.66,42.23 62.81,42.23 62.81,42.27 63.97,42.27 63.97,42.47 65.13,42.47 65.13,43.43 66.28,43.43 66.28,44.26 67.44,44.26 67.44,44.96 68.60,44.96 68.60,46.13 69.76,46.13 69.76,47.47 70.91,47.47 70.91,48.68 72.07,48.68 72.07,48.80 73.23,48.80 73.23,49.57 74.38,49.57 74.38,49.48 75.54,49.48 75.54,51.02 76.70,51.02 76.70,51.27 77.85,51.27 77.85,52.85 79.01,52.85 79.01,54.12 80.17,54.12 80.17,55.90 81.32,55.90 81.32,57.37 82.48,57.37 82.48,57.69 83.64,57.69 83.64,59.71 84.80,59.71 84.80,60.23 85.95,60.23 85.95,60.23 87.11,60.23 87.11,61.12 88.27,61.12 88.27,61.62 89.42,61.62 89.42,62.85 90.58,62.85 90.58,63.73 91.74,63.73 91.74,65.37 92.89,65.37 92.89,66.47 94.05,66.47 94.05,67.60 95.21,67.60 95.21,68.56 96.37,68.56 96.37,69.17 97.52,69.17 97.52,70.18 98.68,70.18 98.68,71.03 99.84,71.03 99.84,71.50 100.99,71.50 100.99,71.99 102.15,71.99 102.15,73.62 103.31,73.62 103.31,74.68 104.46,74.68 104.46,76.57 105.62,76.57 105.62,76.64 106.78,76.64 106.78,77.95 107.94,77.95 107.94,78.65 109.09,78.65 109.09,79.78 110.25,79.78 110.25,81.35 111.41,81.35 111.41,81.67 112.56,81.67 112.56,83.07 113.72,83.07 113.72,83.42 114.88,83.42 114.88,83.13 116.03,83.13 116.03,84.96 117.19,84.96 117.19,85.50 118.35,85.50 118.35,85.61 119.50,85.61 119.50,86.86 120.66,86.86 120.66,88.12 121.82,88.12 121.82,88.73 122.98,88.73 122.98,88.89 124.13,88.89 124.13,89.53 125.29,89.53 125.29,90.65 126.45,90.65 126.45,91.79 127.60,91.79 127.60,91.51 128.76,91.51 128.76,92.45 129.92,92.45 129.92,92.12 131.07,92.12 131.07,92.29 132.23,92.29 132.23,92.73 133.39,92.73 133.39,93.18 134.55,93.18 134.55,93.39 135.70,93.39 135.70,93.61 136.86,93.61 136.86,93.57 138.02,93.57 138.02,94.08 139.17,94.08 139.17,95.41 140.33,95.41 140.33,95.13 141.49,95.13 141.49,95.42 142.64,95.42 142.64,95.16 143.80,95.16 143.80,95.95 144.96,95.95 144.96,96.49 146.12,96.49 146.12,97.04 147.27,97.04 147.27,97.32 148.43,97.32 148.43,97.61 149.59,97.61 149.59,98.50 150.74,98.50 150.74,98.82 151.90,98.82 151.90,99.45 153.06,99.45 153.06,100.10 154.21,100.10 154.21,99.84 155.37,99.84 155.37,100.83 156.53,100.83 156.53,100.91 157.68,100.91 157.68,101.24 158.84,101.24 158.84,102.23 160.00,102.23 160.00,102.60 161.16,102.60 161.16,102.66 162.31,102.66 162.31,103.06 163.47,103.06 163.47,103.46 164.63,103.46 164.63,104.24 165.78,104.24 165.78,104.04 166.94,104.04 166.94,104.52 168.10,104.52 168.10,104.67 169.25,104.67 169.25,104.48 170.41,104.48 170.41,103.93 171.57,103.93 171.57,104.78 172.73,104.78 172.73,104.92 173.88,104.92 173.88,105.07 175.04,105.07 175.04,106.77 176.20,106.77 176.20,106.96 177.35,106.96 177.35,106.79 178.51,106.79 178.51,107.82 179.67,107.82 179.67,108.88 180.82,108.88 180.82,108.76 181.98,108.76 181.98,109.48 183.14,109.48 183.14,109.81 184.30,109.81 184.30,110.57 185.45,110.57 185.45,110.47 186.61,110.47 186.61,111.25 187.77,111.25 187.77,111.18 188.92,111.18 188.92,111.55 190.08,111.55 190.08,111.06 191.24,111.06 191.24,111.91 192.39,111.91 192.39,111.89 193.55,111.89 193.55,111.88 194.71,111.88 194.71,112.36 195.86,112.36 195.86,112.86 197.02,112.86 197.02,113.38 198.18,113.38 198.18,112.93 199.34,112.93 199.34,112.43 200.49,112.43 200.49,113.46 201.65,113.46 201.65,112.96 202.81,112.96 202.81,115.09 203.96,115.09 203.96,115.15 205.12,115.15 205.12,115.22 206.28,115.22 206.28,114.75 207.43,114.75 207.43,114.83 208.59,114.83 208.59,114.93 209.75,114.93 209.75,115.63 210.91,115.63 210.91,115.17 212.06,115.17 212.06,115.34 213.22,115.34 213.22,115.47 214.38,115.47 214.38,115.62 215.53,115.62 215.53,115.79 216.69,115.79 216.69,116.62 217.85,116.62 217.85,116.18 219.00,116.18 219.00,115.74 220.16,115.74 220.16,115.96 221.32,115.96 221.32,115.52 222.48,115.52 222.48,115.77 223.63,115.77 223.63,116.73 224.79,116.73 224.79,116.30 225.95,116.30 225.95,115.86 227.10,115.86 227.10,116.10 228.26,116.10 228.26,115.60 229.42,115.60 229.42,115.85 230.57,115.85 230.57,116.90 231.73,116.90 231.73,117.21 232.89,117.21 232.89,117.54 234.04,117.54 234.04,117.08 235.20,117.08 235.20,116.61 236.36,116.61 236.36,117.01 237.52,117.01 237.52,118.27 238.67,118.27 238.67,117.81 239.83,117.81 239.83,119.15 240.99,119.15 240.99,118.70 242.14,118.70 242.14,118.24 243.30,118.24 243.30,117.78 244.46,117.78 244.46,118.24 245.61,118.24 245.61,117.78 246.77,117.78 246.77,117.31 247.93,117.31 247.93,118.78 249.09,118.78 249.09,118.31 250.24,118.31 250.24,117.84 251.40,117.84 251.40,117.37 252.56,117.37 252.56,116.89 253.71,116.89 253.71,117.53 254.87,117.53 254.87,117.01 256.03,117.01 256.03,116.49 257.18,116.49 257.18,115.97 258.34,115.97 258.34,115.44 259.50,115.44 259.50,114.90 260.66,114.90 260.66,114.36 261.81,114.36 261.81,113.83 262.97,113.83 262.97,113.29 264.13,113.29 264.13,112.74 265.28,112.74 265.28,112.19 266.44,112.19 266.44,111.61 267.60,111.61 267.60,112.47" style="stroke-width: 1.07;stroke: #8F3931; stroke-dasharray: 2.85, 2.85;stroke-linecap: butt;"/>
<polyline points="60.50,42.74 61.66,42.74 61.66,43.35 62.81,43.35 62.81,43.56 63.97,43.56 63.97,44.42 65.13,44.42 65.13,46.36 66.28,46.36 66.28,49.18 67.44,49.18 67.44,52.26 68.60,52.26 68.60,53.87 69.76,53.87 69.76,56.61 70.91,56.61 70.91,60.97 72.07,60.97 72.07,64.48 73.23,64.48 73.23,66.92 74.38,66.92 74.38,67.73 75.54,67.73 75.54,71.83 76.70,71.83 76.70,73.65 77.85,73.65 77.85,76.20 79.01,76.20 79.01,80.23 80.17,80.23 80.17,82.66 81.32,82.66 81.32,85.37 82.48,85.37 82.48,87.41 83.64,87.41 83.64,90.98 84.80,90.98 84.80,94.11 85.95,94.11 85.95,97.29 87.11,97.29 87.11,99.76 88.27,99.76 88.27,100.37 89.42,100.37 89.42,103.89 90.58,103.89 90.58,104.84 91.74,104.84 91.74,107.42 92.89,107.42 92.89,108.14 94.05,108.14 94.05,109.15 95.21,109.15 95.21,112.09 96.37,112.09 96.37,111.78 97.52,111.78 97.52,114.26 98.68,114.26 98.68,115.09 99.84,115.09 99.84,116.53 100.99,116.53 100.99,117.13 102.15,117.13 102.15,118.83 103.31,118.83 103.31,119.98 104.46,119.98 104.46,122.33 105.62,122.33 105.62,124.13 106.78,124.13 106.78,124.74 107.94,124.74 107.94,125.98 109.09,125.98 109.09,128.47 110.25,128.47 110.25,128.84 111.41,128.84 111.41,130.16 112.56,130.16 112.56,130.87 113.72,130.87 113.72,132.91 114.88,132.91 114.88,133.35 116.03,133.35 116.03,134.74 117.19,134.74 117.19,134.50 118.35,134.50 118.35,135.27 119.50,135.27 119.50,136.07 120.66,136.07 120.66,136.20 121.82,136.20 121.82,137.02 122.98,137.02 122.98,138.23 124.13,138.23 124.13,139.47 125.29,139.47 125.29,139.29 126.45,139.29 126.45,139.85 127.60,139.85 127.60,140.06 128.76,140.06 128.76,142.91 129.92,142.91 129.92,142.33 131.07,142.33 131.07,142.52 132.23,142.52 132.23,142.34 133.39,142.34 133.39,142.95 134.55,142.95 134.55,143.19 135.70,143.19 135.70,144.24 136.86,144.24 136.86,144.93 138.02,144.93 138.02,145.64 139.17,145.64 139.17,145.55 140.33,145.55 140.33,146.71 141.49,146.71 141.49,147.48 142.64,147.48 142.64,148.71 143.80,148.71 143.80,149.47 144.96,149.47 144.96,149.39 146.12,149.39 146.12,150.21 147.27,150.21 147.27,150.61 148.43,150.61 148.43,151.92 149.59,151.92 149.59,151.90 150.74,151.90 150.74,152.34 151.90,152.34 151.90,151.87 153.06,151.87 153.06,152.34 154.21,152.34 154.21,152.35 155.37,152.35 155.37,152.86 156.53,152.86 156.53,152.90 157.68,152.90 157.68,153.38 158.84,153.38 158.84,152.89 160.00,152.89 160.00,152.39 161.16,152.39 161.16,152.91 162.31,152.91 162.31,152.95 163.47,152.95 163.47,152.46 164.63,152.46 164.63,153.05 165.78,153.05 165.78,152.57 166.94,152.57 166.94,152.65 168.10,152.65 168.10,153.32 169.25,153.32 169.25,153.42 170.41,153.42 170.41,152.94 171.57,152.94 171.57,152.41 172.73,152.41 172.73,152.48 173.88,152.48 173.88,153.76 175.04,153.76 175.04,153.24 176.20,153.24 176.20,153.94 177.35,153.94 177.35,153.43 178.51,153.43 178.51,152.92 179.67,152.92 179.67,156.26 180.82,156.26 180.82,156.44 181.98,156.44 181.98,155.97 183.14,155.97 183.14,155.49 184.30,155.49 184.30,155.02 185.45,155.02 185.45,154.49 186.61,154.49 186.61,154.65 187.77,154.65 187.77,154.13 188.92,154.13 188.92,154.31 190.08,154.31 190.08,155.92 191.24,155.92 191.24,155.42 192.39,155.42 192.39,154.92 193.55,154.92 193.55,155.89 194.71,155.89 194.71,156.90 195.86,156.90 195.86,157.17 197.02,157.17 197.02,157.45 198.18,157.45 198.18,156.99 199.34,156.99 199.34,156.48 200.49,156.48 200.49,156.77 201.65,156.77 201.65,156.26 202.81,156.26 202.81,156.57 203.96,156.57 203.96,156.08 205.12,156.08 205.12,155.59 206.28,155.59 206.28,155.09 207.43,155.09 207.43,157.17 208.59,157.17 208.59,156.68 209.75,156.68 209.75,156.17 210.91,156.17 210.91,155.67 212.06,155.67 212.06,156.08 213.22,156.08 213.22,155.51 214.38,155.51 214.38,154.94 215.53,154.94 215.53,154.36 216.69,154.36 216.69,153.78 217.85,153.78 217.85,153.20 219.00,153.20 219.00,152.61 220.16,152.61 220.16,152.03 221.32,152.03 221.32,151.44 222.48,151.44 222.48,151.86 223.63,151.86 223.63,153.35 224.79,153.35 224.79,153.87 225.95,153.87 225.95,153.34 227.10,153.34 227.10,154.94 228.26,154.94 228.26,155.50 229.42,155.50 229.42,154.93 230.57,154.93 230.57,154.36 231.73,154.36 231.73,156.08 232.89,156.08 232.89,155.56 234.04,155.56 234.04,156.19 235.20,156.19 235.20,156.87 236.36,156.87 236.36,157.61 237.52,157.61 237.52,158.37 238.67,158.37 238.67,157.89 239.83,157.89 239.83,157.42 240.99,157.42 240.99,156.90 242.14,156.90 242.14,157.68 243.30,157.68 243.30,157.16 244.46,157.16 244.46,156.63 245.61,156.63 245.61,157.46 246.77,157.46 246.77,158.32 247.93,158.32 247.93,157.82 249.09,157.82 249.09,157.35 250.24,157.35 250.24,156.88 251.40,156.88 251.40,156.41 252.56,156.41 252.56,157.47 253.71,157.47 253.71,157.01 254.87,157.01 254.87,156.48 256.03,156.48 256.03,157.56 257.18,157.56 257.18,157.03 258.34,157.03 258.34,159.86 259.50,159.86 259.50,159.36 260.66,159.36 260.66,160.55 261.81,160.55 261.81,161.79 262.97,161.79 262.97,161.35 264.13,161.35 264.13,162.68 265.28,162.68 265.28,162.25 266.44,162.25 266.44,161.82 267.60,161.82 267.60,161.40" style="stroke-width: 1.07;stroke: #350E20; stroke-dasharray: 2.85, 2.85;stroke-linecap: butt;"/>
<rect x="50.14" y="24.55" width="227.81" height="276.85" style="stroke-width: 1.16;stroke: #4D4D4D;"/>
</g><g clip-path="url(#c3)">
<rect x="283.93" y="24.55" width="227.81" height="276.85" style="stroke-width: 1.16;stroke: none;fill: #FFFFFF;"/>
<polyline points="283.93,301.11 511.74,301.11" style="stroke-width: 0.58;stroke: #F0F0F0;stroke-linecap: butt;"/>
<polyline points="283.93,276.51 511.74,276.51" style="stroke-width: 0.58;stroke: #F0F0F0;stroke-linecap: butt;"/>
<polyline points="283.93,264.21 511.74,264.21" style="stroke-width: 0.58;stroke: #F0F0F0;stroke-linecap: butt;"/>
<polyline points="283.93,251.90 511.74,251.90" style="stroke-width: 0.58;stroke: #F0F0F0;stroke-linecap: butt;"/>
<polyline points="283.93,239.60 511.74,239.60" style="stroke-width: 0.58;stroke: #F0F0F0;stroke-linecap: butt;"/>
<polyline points="283.93,227.30 511.74,227.30" style="stroke-width: 0.58;stroke: #F0F0F0;stroke-linecap: butt;"/>
<polyline points="283.93,215.00 511.74,215.00" style="stroke-width: 0.58;stroke: #F0F0F0;stroke-linecap: butt;"/>
<polyline points="283.93,202.69 511.74,202.69" style="stroke-width: 0.58;stroke: #F0F0F0;stroke-linecap: butt;"/>
<polyline points="283.93,190.39 511.74,190.39" style="stroke-width: 0.58;stroke: #F0F0F0;stroke-linecap: butt;"/>
<polyline points="283.93,178.09 511.74,178.09" style="stroke-width: 0.58;stroke: #F0F0F0;stroke-linecap: butt;"/>
<polyline points="283.93,165.78 511.74,165.78" style="stroke-width: 0.58;stroke: #F0F0F0;stroke-linecap: butt;"/>
<polyline points="283.93,153.48 511.74,153.48" style="stroke-width: 0.58;stroke: #F0F0F0;stroke-linecap: butt;"/>
<polyline points="283.93,128.88 511.74,128.88" style="stroke-width: 0.58;stroke: #F0F0F0;stroke-linecap: butt;"/>
<polyline points="283.93,116.57 511.74,116.57" style="stroke-width: 0.58;stroke: #F0F0F0;stroke-linecap: butt;"/>
<polyline points="283.93,104.27 511.74,104.27" style="stroke-width: 0.58;stroke: #F0F0F0;stroke-linecap: butt;"/>
<polyline points="283.93,79.67 511.74,79.67" style="stroke-width: 0.58;stroke: #F0F0F0;stroke-linecap: butt;"/>
<polyline points="283.93,67.36 511.74,67.36" style="stroke-width: 0.58;stroke: #F0F0F0;stroke-linecap: butt;"/>
<polyline points="283.93,55.06 511.74,55.06" style="stroke-width: 0.58;stroke: #F0F0F0;stroke-linecap: butt;"/>
<polyline points="283.93,42.76 511.74,42.76" style="stroke-width: 0.58;stroke: #F0F0F0;stroke-linecap: butt;"/>
<polyline points="283.93,30.46 511.74,30.46" style="stroke-width: 0.58;stroke: #F0F0F0;stroke-linecap: butt;"/>
<polyline points="327.84,301.40 327.84,24.55" style="stroke-width: 0.58;stroke: #F0F0F0;stroke-linecap: butt;"/>
<polyline points="397.25,301.40 397.25,24.55" style="stroke-width: 0.58;stroke: #F0F0F0;stroke-linecap: butt;"/>
<polyline points="466.67,301.40 466.67,24.55" style="stroke-width: 0.58;stroke: #F0F0F0;stroke-linecap: butt;"/>
<polyline points="283.93,288.81 511.74,288.81" style="stroke-width: 1.16;stroke: #F0F0F0;stroke-linecap: butt;"/>
<polyline points="283.93,239.60 511.74,239.60" style="stroke-width: 1.16;stroke: #F0F0F0;stroke-linecap: butt;"/>
<polyline points="283.93,190.39 511.74,190.39" style="stroke-width: 1.16;stroke: #F0F0F0;stroke-linecap: butt;"/>
<polyline points="283.93,141.18 511.74,141.18" style="stroke-width: 1.16;stroke: #F0F0F0;stroke-linecap: butt;"/>
<polyline points="283.93,91.97 511.74,91.97" style="stroke-width: 1.16;stroke: #F0F0F0;stroke-linecap: butt;"/>
<polyline points="283.93,42.76 511.74,42.76" style="stroke-width: 1.16;stroke: #F0F0F0;stroke-linecap: butt;"/>
<polyline points="293.13,301.40 293.13,24.55" style="stroke-width: 1.16;stroke: #F0F0F0;stroke-linecap: butt;"/>
<polyline points="362.55,301.40 362.55,24.55" style="stroke-width: 1.16;stroke: #F0F0F0;stroke-linecap: butt;"/>
<polyline points="431.96,301.40 431.96,24.55" style="stroke-width: 1.16;stroke: #F0F0F0;stroke-linecap: butt;"/>
<polyline points="501.38,301.40 501.38,24.55" style="stroke-width: 1.16;stroke: #F0F0F0;stroke-linecap: butt;"/>
<polyline points="294.28,42.93 295.44,42.93 295.44,42.87 296.60,42.87 296.60,42.70 297.76,42.70 297.76,42.65 298.91,42.65 298.91,42.95 300.07,42.95 300.07,42.90 301.23,42.90 301.23,43.09 302.38,43.09 302.38,43.05 303.54,43.05 303.54,43.12 304.70,43.12 304.70,43.08 305.85,43.08 305.85,43.63 307.01,43.63 307.01,43.48 308.17,43.48 308.17,43.54 309.32,43.54 309.32,44.07 310.48,44.07 310.48,43.78 311.64,43.78 311.64,44.32 312.80,44.32 312.80,44.39 313.95,44.39 313.95,44.70 315.11,44.70 315.11,45.14 316.27,45.14 316.27,44.86 317.42,44.86 317.42,45.42 318.58,45.42 318.58,45.38 319.74,45.38 319.74,45.47 320.89,45.47 320.89,45.32 322.05,45.32 322.05,45.25 323.21,45.25 323.21,45.43 324.37,45.43 324.37,45.61 325.52,45.61 325.52,45.67 326.68,45.67 326.68,46.10 327.84,46.10 327.84,46.53 328.99,46.53 328.99,46.48 330.15,46.48 330.15,46.42 331.31,46.42 331.31,47.23 332.46,47.23 332.46,47.18 333.62,47.18 333.62,47.50 334.78,47.50 334.78,47.95 335.94,47.95 335.94,48.62 337.09,48.62 337.09,48.31 338.25,48.31 338.25,48.62 339.41,48.62 339.41,48.44 340.56,48.44 340.56,48.89 341.72,48.89 341.72,48.71 342.88,48.71 342.88,48.91 344.03,48.91 344.03,49.12 345.19,49.12 345.19,49.20 346.35,49.20 346.35,49.91 347.50,49.91 347.50,50.13 348.66,50.13 348.66,50.10 349.82,50.10 349.82,50.17 350.98,50.17 350.98,49.98 352.13,49.98 352.13,50.30 353.29,50.30 353.29,50.50 354.45,50.50 354.45,50.33 355.60,50.33 355.60,50.53 356.76,50.53 356.76,50.99 357.92,50.99 357.92,51.08 359.07,51.08 359.07,50.91 360.23,50.91 360.23,50.75 361.39,50.75 361.39,50.71 362.55,50.71 362.55,51.45 363.70,51.45 363.70,51.26 364.86,51.26 364.86,51.45 366.02,51.45 366.02,51.26 367.17,51.26 367.17,51.33 368.33,51.33 368.33,51.67 369.49,51.67 369.49,51.49 370.64,51.49 370.64,51.57 371.80,51.57 371.80,51.40 372.96,51.40 372.96,51.23 374.12,51.23 374.12,51.71 375.27,51.71 375.27,51.80 376.43,51.80 376.43,51.37 377.59,51.37 377.59,51.17 378.74,51.17 378.74,51.76 379.90,51.76 379.90,51.82 381.06,51.82 381.06,52.03 382.21,52.03 382.21,51.57 383.37,51.57 383.37,51.65 384.53,51.65 384.53,51.46 385.68,51.46 385.68,51.67 386.84,51.67 386.84,51.49 388.00,51.49 388.00,51.71 389.16,51.71 389.16,52.33 390.31,52.33 390.31,52.03 391.47,52.03 391.47,52.36 392.63,52.36 392.63,52.56 393.78,52.56 393.78,52.36 394.94,52.36 394.94,52.43 396.10,52.43 396.10,52.37 397.25,52.37 397.25,52.85 398.41,52.85 398.41,52.39 399.57,52.39 399.57,52.06 400.73,52.06 400.73,51.73 401.88,51.73 401.88,51.54 403.04,51.54 403.04,51.35 404.20,51.35 404.20,51.02 405.35,51.02 405.35,51.21 406.51,51.21 406.51,51.40 407.67,51.40 407.67,51.60 408.82,51.60 408.82,51.52 409.98,51.52 409.98,51.73 411.14,51.73 411.14,51.67 412.30,51.67 412.30,51.61 413.45,51.61 413.45,51.69 414.61,51.69 414.61,51.91 415.77,51.91 415.77,52.28 416.92,52.28 416.92,52.37 418.08,52.37 418.08,52.61 419.24,52.61 419.24,52.39 420.39,52.39 420.39,52.31 421.55,52.31 421.55,52.24 422.71,52.24 422.71,52.16 423.86,52.16 423.86,52.66 425.02,52.66 425.02,52.74 426.18,52.74 426.18,52.82 427.34,52.82 427.34,52.90 428.49,52.90 428.49,53.42 429.65,53.42 429.65,53.51 430.81,53.51 430.81,53.31 431.96,53.31 431.96,54.13 433.12,54.13 433.12,53.90 434.28,53.90 434.28,53.82 435.43,53.82 435.43,53.75 436.59,53.75 436.59,53.96 437.75,53.96 437.75,53.61 438.91,53.61 438.91,54.12 440.06,54.12 440.06,54.35 441.22,54.35 441.22,54.29 442.38,54.29 442.38,54.24 443.53,54.24 443.53,54.04 444.69,54.04 444.69,54.58 445.85,54.58 445.85,54.38 447.00,54.38 447.00,54.73 448.16,54.73 448.16,54.35 449.32,54.35 449.32,54.71 450.48,54.71 450.48,54.79 451.63,54.79 451.63,54.86 452.79,54.86 452.79,54.79 453.95,54.79 453.95,54.42 455.10,54.42 455.10,54.65 456.26,54.65 456.26,54.29 457.42,54.29 457.42,54.08 458.57,54.08 458.57,53.87 459.73,53.87 459.73,53.50 460.89,53.50 460.89,53.56 462.04,53.56 462.04,53.16 463.20,53.16 463.20,53.52 464.36,53.52 464.36,53.43 465.52,53.43 465.52,53.49 466.67,53.49 466.67,53.25 467.83,53.25 467.83,53.32 468.99,53.32 468.99,53.40 470.14,53.40 470.14,53.63 471.30,53.63 471.30,53.72 472.46,53.72 472.46,53.34 473.61,53.34 473.61,53.74 474.77,53.74 474.77,53.64 475.93,53.64 475.93,54.01 477.09,54.01 477.09,53.44 478.24,53.44 478.24,53.67 479.40,53.67 479.40,54.06 480.56,54.06 480.56,53.83 481.71,53.83 481.71,53.75 482.87,53.75 482.87,53.53 484.03,53.53 484.03,53.30 485.18,53.30 485.18,52.92 486.34,52.92 486.34,52.85 487.50,52.85 487.50,52.31 488.66,52.31 488.66,52.20 489.81,52.20 489.81,52.26 490.97,52.26 490.97,52.49 492.13,52.49 492.13,52.56 493.28,52.56 493.28,52.97 494.44,52.97 494.44,53.06 495.60,53.06 495.60,52.99 496.75,52.99 496.75,53.26 497.91,53.26 497.91,53.20 499.07,53.20 499.07,52.81 500.22,52.81 500.22,52.76 501.38,52.76 501.38,53.04" style="stroke-width: 1.07;stroke: #8A9045;stroke-linecap: butt;"/>
<polyline points="294.28,42.26 295.44,42.26 295.44,42.21 296.60,42.21 296.60,42.61 297.76,42.61 297.76,42.56 298.91,42.56 298.91,43.42 300.07,43.42 300.07,44.28 301.23,44.28 301.23,44.24 302.38,44.24 302.38,44.67 303.54,44.67 303.54,45.32 304.70,45.32 304.70,46.65 305.85,46.65 305.85,46.41 307.01,46.41 307.01,47.07 308.17,47.07 308.17,47.24 309.32,47.24 309.32,47.41 310.48,47.41 310.48,47.59 311.64,47.59 311.64,47.77 312.80,47.77 312.80,48.18 313.95,48.18 313.95,49.29 315.11,49.29 315.11,49.25 316.27,49.25 316.27,49.21 317.42,49.21 317.42,51.03 318.58,51.03 318.58,52.87 319.74,52.87 319.74,53.56 320.89,53.56 320.89,53.79 322.05,53.79 322.05,54.22 323.21,54.22 323.21,54.89 324.37,54.89 324.37,55.57 325.52,55.57 325.52,56.49 326.68,56.49 326.68,56.93 327.84,56.93 327.84,58.57 328.99,58.57 328.99,59.74 330.15,59.74 330.15,59.97 331.31,59.97 331.31,62.35 332.46,62.35 332.46,63.07 333.62,63.07 333.62,64.52 334.78,64.52 334.78,64.54 335.94,64.54 335.94,65.48 337.09,65.48 337.09,65.71 338.25,65.71 338.25,65.95 339.41,65.95 339.41,66.67 340.56,66.67 340.56,67.16 341.72,67.16 341.72,67.90 342.88,67.90 342.88,69.13 344.03,69.13 344.03,70.37 345.19,70.37 345.19,71.38 346.35,71.38 346.35,73.14 347.50,73.14 347.50,73.92 348.66,73.92 348.66,73.98 349.82,73.98 349.82,76.22 350.98,76.22 350.98,76.50 352.13,76.50 352.13,77.03 353.29,77.03 353.29,78.31 354.45,78.31 354.45,78.61 355.60,78.61 355.60,80.14 356.76,80.14 356.76,80.20 357.92,80.20 357.92,80.51 359.07,80.51 359.07,80.82 360.23,80.82 360.23,81.39 361.39,81.39 361.39,80.95 362.55,80.95 362.55,82.03 363.70,82.03 363.70,82.06 364.86,82.06 364.86,83.62 366.02,83.62 366.02,84.17 367.17,84.17 367.17,84.23 368.33,84.23 368.33,85.31 369.49,85.31 369.49,85.37 370.64,85.37 370.64,86.47 371.80,86.47 371.80,87.32 372.96,87.32 372.96,88.17 374.12,88.17 374.12,88.52 375.27,88.52 375.27,88.61 376.43,88.61 376.43,88.71 377.59,88.71 377.59,88.78 378.74,88.78 378.74,89.11 379.90,89.11 379.90,90.22 381.06,90.22 381.06,91.08 382.21,91.08 382.21,90.91 383.37,90.91 383.37,91.27 384.53,91.27 384.53,91.10 385.68,91.10 385.68,92.25 386.84,92.25 386.84,93.14 388.00,93.14 388.00,93.78 389.16,93.78 389.16,94.17 390.31,94.17 390.31,93.76 391.47,93.76 391.47,94.38 392.63,94.38 392.63,94.47 393.78,94.47 393.78,94.84 394.94,94.84 394.94,95.21 396.10,95.21 396.10,96.12 397.25,96.12 397.25,96.77 398.41,96.77 398.41,97.70 399.57,97.70 399.57,97.83 400.73,97.83 400.73,98.78 401.88,98.78 401.88,99.19 403.04,99.19 403.04,98.80 404.20,98.80 404.20,98.95 405.35,98.95 405.35,99.07 406.51,99.07 406.51,98.92 407.67,98.92 407.67,98.77 408.82,98.77 408.82,98.89 409.98,98.89 409.98,99.02 411.14,99.02 411.14,99.42 412.30,99.42 412.30,99.28 413.45,99.28 413.45,100.24 414.61,100.24 414.61,100.66 415.77,100.66 415.77,100.52 416.92,100.52 416.92,100.38 418.08,100.38 418.08,100.53 419.24,100.53 419.24,100.92 420.39,100.92 420.39,100.75 421.55,100.75 421.55,100.86 422.71,100.86 422.71,100.98 423.86,100.98 423.86,101.10 425.02,101.10 425.02,101.80 426.18,101.80 426.18,102.52 427.34,102.52 427.34,102.66 428.49,102.66 428.49,102.52 429.65,102.52 429.65,102.10 430.81,102.10 430.81,101.68 431.96,101.68 431.96,102.71 433.12,102.71 433.12,102.83 434.28,102.83 434.28,104.12 435.43,104.12 435.43,103.97 436.59,103.97 436.59,104.99 437.75,104.99 437.75,104.85 438.91,104.85 438.91,105.29 440.06,105.29 440.06,106.35 441.22,106.35 441.22,106.23 442.38,106.23 442.38,107.01 443.53,107.01 443.53,106.90 444.69,106.90 444.69,107.98 445.85,107.98 445.85,107.58 447.00,107.58 447.00,108.05 448.16,108.05 448.16,108.21 449.32,108.21 449.32,108.68 450.48,108.68 450.48,108.86 451.63,108.86 451.63,109.04 452.79,109.04 452.79,109.23 453.95,109.23 453.95,108.81 455.10,108.81 455.10,108.70 456.26,108.70 456.26,108.28 457.42,108.28 457.42,109.08 458.57,109.08 458.57,108.98 459.73,108.98 459.73,108.88 460.89,108.88 460.89,108.74 462.04,108.74 462.04,108.61 463.20,108.61 463.20,108.47 464.36,108.47 464.36,108.34 465.52,108.34 465.52,109.75 466.67,109.75 466.67,109.94 467.83,109.94 467.83,109.52 468.99,109.52 468.99,109.71 470.14,109.71 470.14,109.60 471.30,109.60 471.30,109.17 472.46,109.17 472.46,109.37 473.61,109.37 473.61,109.26 474.77,109.26 474.77,109.74 475.93,109.74 475.93,109.91 477.09,109.91 477.09,110.41 478.24,110.41 478.24,109.97 479.40,109.97 479.40,109.53 480.56,109.53 480.56,109.72 481.71,109.72 481.71,110.24 482.87,110.24 482.87,110.12 484.03,110.12 484.03,110.96 485.18,110.96 485.18,110.85 486.34,110.85 486.34,110.74 487.50,110.74 487.50,111.28 488.66,111.28 488.66,110.82 489.81,110.82 489.81,111.66 490.97,111.66 490.97,111.20 492.13,111.20 492.13,110.74 493.28,110.74 493.28,110.61 494.44,110.61 494.44,111.79 495.60,111.79 495.60,112.01 496.75,112.01 496.75,112.23 497.91,112.23 497.91,112.46 499.07,112.46 499.07,112.69 500.22,112.69 500.22,112.93 501.38,112.93 501.38,112.50" style="stroke-width: 1.07;stroke: #155F83;stroke-linecap: butt;"/>
<polyline points="294.28,42.57 295.44,42.57 295.44,42.40 296.60,42.40 296.60,44.14 297.76,44.14 297.76,44.53 298.91,44.53 298.91,46.32 300.07,46.32 300.07,47.84 301.23,47.84 301.23,48.00 302.38,48.00 302.38,48.72 303.54,48.72 303.54,50.28 304.70,50.28 304.70,51.58 305.85,51.58 305.85,52.04 307.01,52.04 307.01,55.88 308.17,55.88 308.17,56.59 309.32,56.59 309.32,59.57 310.48,59.57 310.48,60.32 311.64,60.32 311.64,61.07 312.80,61.07 312.80,64.11 313.95,64.11 313.95,65.46 315.11,65.46 315.11,68.82 316.27,68.82 316.27,69.92 317.42,69.92 317.42,71.89 318.58,71.89 318.58,75.32 319.74,75.32 319.74,76.47 320.89,76.47 320.89,78.22 322.05,78.22 322.05,80.22 323.21,80.22 323.21,82.83 324.37,82.83 324.37,84.29 325.52,84.29 325.52,89.28 326.68,89.28 326.68,91.08 327.84,91.08 327.84,93.78 328.99,93.78 328.99,95.02 330.15,95.02 330.15,96.27 331.31,96.27 331.31,98.73 332.46,98.73 332.46,99.41 333.62,99.41 333.62,101.00 334.78,101.00 334.78,101.40 335.94,101.40 335.94,104.17 337.09,104.17 337.09,104.84 338.25,104.84 338.25,107.35 339.41,107.35 339.41,109.27 340.56,109.27 340.56,110.60 341.72,110.60 341.72,112.25 342.88,112.25 342.88,112.67 344.03,112.67 344.03,114.95 345.19,114.95 345.19,116.31 346.35,116.31 346.35,119.23 347.50,119.23 347.50,120.32 348.66,120.32 348.66,120.18 349.82,120.18 349.82,122.79 350.98,122.79 350.98,122.30 352.13,122.30 352.13,123.69 353.29,123.69 353.29,124.79 354.45,124.79 354.45,128.09 355.60,128.09 355.60,129.22 356.76,129.22 356.76,129.72 357.92,129.72 357.92,132.14 359.07,132.14 359.07,133.94 360.23,133.94 360.23,134.79 361.39,134.79 361.39,135.65 362.55,135.65 362.55,137.49 363.70,137.49 363.70,138.01 364.86,138.01 364.86,139.83 366.02,139.83 366.02,140.69 367.17,140.69 367.17,140.27 368.33,140.27 368.33,140.49 369.49,140.49 369.49,142.03 370.64,142.03 370.64,142.93 371.80,142.93 371.80,142.85 372.96,142.85 372.96,143.43 374.12,143.43 374.12,144.68 375.27,144.68 375.27,146.27 376.43,146.27 376.43,146.87 377.59,146.87 377.59,148.12 378.74,148.12 378.74,150.38 379.90,150.38 379.90,151.32 381.06,151.32 381.06,152.27 382.21,152.27 382.21,152.56 383.37,152.56 383.37,152.51 384.53,152.51 384.53,152.47 385.68,152.47 385.68,152.44 386.84,152.44 386.84,152.74 388.00,152.74 388.00,152.37 389.16,152.37 389.16,153.71 390.31,153.71 390.31,153.34 391.47,153.34 391.47,153.97 392.63,153.97 392.63,155.99 393.78,155.99 393.78,155.95 394.94,155.95 394.94,157.31 396.10,157.31 396.10,157.98 397.25,157.98 397.25,159.71 398.41,159.71 398.41,159.70 399.57,159.70 399.57,160.04 400.73,160.04 400.73,160.02 401.88,160.02 401.88,161.08 403.04,161.08 403.04,160.73 404.20,160.73 404.20,160.74 405.35,160.74 405.35,162.87 406.51,162.87 406.51,163.22 407.67,163.22 407.67,163.23 408.82,163.23 408.82,162.87 409.98,162.87 409.98,163.95 411.14,163.95 411.14,163.60 412.30,163.60 412.30,163.25 413.45,163.25 413.45,162.90 414.61,162.90 414.61,164.01 415.77,164.01 415.77,163.66 416.92,163.66 416.92,164.05 418.08,164.05 418.08,166.28 419.24,166.28 419.24,166.28 420.39,166.28 420.39,165.91 421.55,165.91 421.55,165.54 422.71,165.54 422.71,165.54 423.86,165.54 423.86,166.29 425.02,166.29 425.02,167.05 426.18,167.05 426.18,166.69 427.34,166.69 427.34,167.46 428.49,167.46 428.49,167.85 429.65,167.85 429.65,167.88 430.81,167.88 430.81,167.52 431.96,167.52 431.96,167.92 433.12,167.92 433.12,167.93 434.28,167.93 434.28,168.32 435.43,168.32 435.43,168.72 436.59,168.72 436.59,170.28 437.75,170.28 437.75,169.94 438.91,169.94 438.91,171.14 440.06,171.14 440.06,171.58 441.22,171.58 441.22,171.25 442.38,171.25 442.38,170.92 443.53,170.92 443.53,170.98 444.69,170.98 444.69,171.05 445.85,171.05 445.85,171.51 447.00,171.51 447.00,172.35 448.16,172.35 448.16,172.41 449.32,172.41 449.32,173.66 450.48,173.66 450.48,173.33 451.63,173.33 451.63,173.39 452.79,173.39 452.79,173.07 453.95,173.07 453.95,173.15 455.10,173.15 455.10,174.04 456.26,174.04 456.26,173.72 457.42,173.72 457.42,173.40 458.57,173.40 458.57,173.89 459.73,173.89 459.73,173.56 460.89,173.56 460.89,173.62 462.04,173.62 462.04,173.68 463.20,173.68 463.20,174.15 464.36,174.15 464.36,173.81 465.52,173.81 465.52,175.11 466.67,175.11 466.67,174.78 467.83,174.78 467.83,174.86 468.99,174.86 468.99,174.52 470.14,174.52 470.14,174.18 471.30,174.18 471.30,175.10 472.46,175.10 472.46,175.18 473.61,175.18 473.61,176.11 474.77,176.11 474.77,176.16 475.93,176.16 475.93,176.66 477.09,176.66 477.09,176.74 478.24,176.74 478.24,176.82 479.40,176.82 479.40,176.48 480.56,176.48 480.56,177.01 481.71,177.01 481.71,177.53 482.87,177.53 482.87,177.63 484.03,177.63 484.03,177.73 485.18,177.73 485.18,177.39 486.34,177.39 486.34,177.06 487.50,177.06 487.50,177.16 488.66,177.16 488.66,176.81 489.81,176.81 489.81,176.89 490.97,176.89 490.97,176.54 492.13,176.54 492.13,177.07 493.28,177.07 493.28,177.61 494.44,177.61 494.44,177.27 495.60,177.27 495.60,176.93 496.75,176.93 496.75,176.59 497.91,176.59 497.91,178.05 499.07,178.05 499.07,178.18 500.22,178.18 500.22,179.22 501.38,179.22 501.38,179.35" style="stroke-width: 1.07;stroke: #8F3931;stroke-linecap: butt;"/>
<polyline points="294.28,42.96 295.44,42.96 295.44,45.05 296.60,45.05 296.60,49.80 297.76,49.80 297.76,51.20 298.91,51.20 298.91,53.77 300.07,53.77 300.07,55.98 301.23,55.98 301.23,58.98 302.38,58.98 302.38,65.47 303.54,65.47 303.54,68.53 304.70,68.53 304.70,71.24 305.85,71.24 305.85,72.80 307.01,72.80 307.01,78.28 308.17,78.28 308.17,81.78 309.32,81.78 309.32,87.29 310.48,87.29 310.48,89.31 311.64,89.31 311.64,93.34 312.80,93.34 312.80,96.99 313.95,96.99 313.95,101.08 315.11,101.08 315.11,105.20 316.27,105.20 316.27,108.18 317.42,108.18 317.42,113.20 318.58,113.20 318.58,115.83 319.74,115.83 319.74,120.52 320.89,120.52 320.89,121.59 322.05,121.59 322.05,127.10 323.21,127.10 323.21,131.43 324.37,131.43 324.37,132.51 325.52,132.51 325.52,136.48 326.68,136.48 326.68,139.25 327.84,139.25 327.84,140.80 328.99,140.80 328.99,141.12 330.15,141.12 330.15,142.70 331.31,142.70 331.31,145.14 332.46,145.14 332.46,149.28 333.62,149.28 333.62,150.08 334.78,150.08 334.78,150.45 335.94,150.45 335.94,153.76 337.09,153.76 337.09,155.39 338.25,155.39 338.25,157.89 339.41,157.89 339.41,160.42 340.56,160.42 340.56,162.12 341.72,162.12 341.72,163.42 342.88,163.42 342.88,167.33 344.03,167.33 344.03,168.22 345.19,168.22 345.19,168.25 346.35,168.25 346.35,169.17 347.50,169.17 347.50,170.09 348.66,170.09 348.66,170.14 349.82,170.14 349.82,170.59 350.98,170.59 350.98,170.61 352.13,170.61 352.13,172.86 353.29,172.86 353.29,173.34 354.45,173.34 354.45,172.92 355.60,172.92 355.60,174.77 356.76,174.77 356.76,176.20 357.92,176.20 357.92,176.72 359.07,176.72 359.07,178.16 360.23,178.16 360.23,178.70 361.39,178.70 361.39,179.25 362.55,179.25 362.55,181.66 363.70,181.66 363.70,182.67 364.86,182.67 364.86,184.15 366.02,184.15 366.02,184.26 367.17,184.26 367.17,185.30 368.33,185.30 368.33,186.83 369.49,186.83 369.49,187.42 370.64,187.42 370.64,187.55 371.80,187.55 371.80,188.64 372.96,188.64 372.96,189.26 374.12,189.26 374.12,188.94 375.27,188.94 375.27,190.54 376.43,190.54 376.43,191.19 377.59,191.19 377.59,191.82 378.74,191.82 378.74,192.95 379.90,192.95 379.90,193.60 381.06,193.60 381.06,193.28 382.21,193.28 382.21,193.46 383.37,193.46 383.37,194.13 384.53,194.13 384.53,194.82 385.68,194.82 385.68,195.01 386.84,195.01 386.84,195.20 388.00,195.20 388.00,194.90 389.16,194.90 389.16,196.10 390.31,196.10 390.31,195.81 391.47,195.81 391.47,197.00 392.63,197.00 392.63,197.70 393.78,197.70 393.78,197.39 394.94,197.39 394.94,197.08 396.10,197.08 396.10,196.77 397.25,196.77 397.25,196.46 398.41,196.46 398.41,196.66 399.57,196.66 399.57,196.34 400.73,196.34 400.73,196.03 401.88,196.03 401.88,195.71 403.04,195.71 403.04,195.92 404.20,195.92 404.20,195.60 405.35,195.60 405.35,196.30 406.51,196.30 406.51,195.95 407.67,195.95 407.67,196.14 408.82,196.14 408.82,195.79 409.98,195.79 409.98,196.51 411.14,196.51 411.14,197.77 412.30,197.77 412.30,197.97 413.45,197.97 413.45,197.63 414.61,197.63 414.61,197.29 415.77,197.29 415.77,199.13 416.92,199.13 416.92,198.82 418.08,198.82 418.08,199.05 419.24,199.05 419.24,198.71 420.39,198.71 420.39,198.38 421.55,198.38 421.55,199.14 422.71,199.14 422.71,199.92 423.86,199.92 423.86,200.14 425.02,200.14 425.02,199.81 426.18,199.81 426.18,199.48 427.34,199.48 427.34,199.71 428.49,199.71 428.49,201.07 429.65,201.07 429.65,201.89 430.81,201.89 430.81,201.58 431.96,201.58 431.96,201.27 433.12,201.27 433.12,200.93 434.28,200.93 434.28,201.16 435.43,201.16 435.43,200.82 436.59,200.82 436.59,201.64 437.75,201.64 437.75,201.89 438.91,201.89 438.91,202.15 440.06,202.15 440.06,201.82 441.22,201.82 441.22,201.49 442.38,201.49 442.38,202.94 443.53,202.94 443.53,203.21 444.69,203.21 444.69,204.08 445.85,204.08 445.85,203.76 447.00,203.76 447.00,204.62 448.16,204.62 448.16,204.28 449.32,204.28 449.32,203.93 450.48,203.93 450.48,203.59 451.63,203.59 451.63,203.24 452.79,203.24 452.79,203.50 453.95,203.50 453.95,203.15 455.10,203.15 455.10,203.42 456.26,203.42 456.26,203.69 457.42,203.69 457.42,203.35 458.57,203.35 458.57,203.63 459.73,203.63 459.73,203.28 460.89,203.28 460.89,202.90 462.04,202.90 462.04,203.15 463.20,203.15 463.20,203.40 464.36,203.40 464.36,203.01 465.52,203.01 465.52,203.26 466.67,203.26 466.67,203.52 467.83,203.52 467.83,203.15 468.99,203.15 468.99,205.39 470.14,205.39 470.14,205.05 471.30,205.05 471.30,204.70 472.46,204.70 472.46,204.35 473.61,204.35 473.61,204.00 474.77,204.00 474.77,204.29 475.93,204.29 475.93,204.58 477.09,204.58 477.09,204.21 478.24,204.21 478.24,205.19 479.40,205.19 479.40,204.81 480.56,204.81 480.56,205.12 481.71,205.12 481.71,206.80 482.87,206.80 482.87,206.46 484.03,206.46 484.03,207.49 485.18,207.49 485.18,207.85 486.34,207.85 486.34,207.52 487.50,207.52 487.50,208.59 488.66,208.59 488.66,208.24 489.81,208.24 489.81,209.30 490.97,209.30 490.97,210.38 492.13,210.38 492.13,210.05 493.28,210.05 493.28,209.72 494.44,209.72 494.44,210.82 495.60,210.82 495.60,210.50 496.75,210.50 496.75,210.18 497.91,210.18 497.91,210.57 499.07,210.57 499.07,210.98 500.22,210.98 500.22,210.68 501.38,210.68 501.38,210.38" style="stroke-width: 1.07;stroke: #350E20;stroke-linecap: butt;"/>
<polyline points="294.28,42.46 295.44,42.46 295.44,42.28 296.60,42.28 296.60,42.15 297.76,42.15 297.76,42.13 298.91,42.13 298.91,41.95 300.07,41.95 300.07,41.83 301.23,41.83 301.23,41.86 302.38,41.86 302.38,41.74 303.54,41.74 303.54,41.70 304.70,41.70 304.70,41.63 305.85,41.63 305.85,41.57 307.01,41.57 307.01,41.51 308.17,41.51 308.17,41.21 309.32,41.21 309.32,41.46 310.48,41.46 310.48,41.25 311.64,41.25 311.64,41.26 312.80,41.26 312.80,41.49 313.95,41.49 313.95,41.47 315.11,41.47 315.11,41.63 316.27,41.63 316.27,41.57 317.42,41.57 317.42,41.84 318.58,41.84 318.58,41.80 319.74,41.80 319.74,41.73 320.89,41.73 320.89,41.61 322.05,41.61 322.05,41.36 323.21,41.36 323.21,41.59 324.37,41.59 324.37,41.44 325.52,41.44 325.52,41.60 326.68,41.60 326.68,41.32 327.84,41.32 327.84,41.54 328.99,41.54 328.99,41.67 330.15,41.67 330.15,41.81 331.31,41.81 331.31,42.15 332.46,42.15 332.46,42.10 333.62,42.10 333.62,42.47 334.78,42.47 334.78,42.22 335.94,42.22 335.94,42.25 337.09,42.25 337.09,42.29 338.25,42.29 338.25,42.17 339.41,42.17 339.41,42.22 340.56,42.22 340.56,42.17 341.72,42.17 341.72,42.75 342.88,42.75 342.88,42.71 344.03,42.71 344.03,42.86 345.19,42.86 345.19,43.21 346.35,43.21 346.35,43.44 347.50,43.44 347.50,43.38 348.66,43.38 348.66,43.02 349.82,43.02 349.82,42.98 350.98,42.98 350.98,42.70 352.13,42.70 352.13,43.57 353.29,43.57 353.29,43.37 354.45,43.37 354.45,43.70 355.60,43.70 355.60,43.91 356.76,43.91 356.76,44.00 357.92,44.00 357.92,44.04 359.07,44.04 359.07,43.74 360.23,43.74 360.23,43.93 361.39,43.93 361.39,44.06 362.55,44.06 362.55,44.20 363.70,44.20 363.70,43.73 364.86,43.73 364.86,43.99 366.02,43.99 366.02,43.89 367.17,43.89 367.17,43.58 368.33,43.58 368.33,43.42 369.49,43.42 369.49,43.34 370.64,43.34 370.64,43.51 371.80,43.51 371.80,43.60 372.96,43.60 372.96,43.87 374.12,43.87 374.12,43.92 375.27,43.92 375.27,44.06 376.43,44.06 376.43,43.80 377.59,43.80 377.59,43.50 378.74,43.50 378.74,43.70 379.90,43.70 379.90,43.32 381.06,43.32 381.06,43.89 382.21,43.89 382.21,43.52 383.37,43.52 383.37,43.76 384.53,43.76 384.53,43.75 385.68,43.75 385.68,43.84 386.84,43.84 386.84,44.03 388.00,44.03 388.00,44.04 389.16,44.04 389.16,43.98 390.31,43.98 390.31,43.83 391.47,43.83 391.47,44.30 392.63,44.30 392.63,44.21 393.78,44.21 393.78,44.23 394.94,44.23 394.94,44.36 396.10,44.36 396.10,44.09 397.25,44.09 397.25,43.83 398.41,43.83 398.41,43.47 399.57,43.47 399.57,43.53 400.73,43.53 400.73,43.30 401.88,43.30 401.88,43.18 403.04,43.18 403.04,42.86 404.20,42.86 404.20,42.65 405.35,42.65 405.35,42.28 406.51,42.28 406.51,41.92 407.67,41.92 407.67,42.37 408.82,42.37 408.82,41.90 409.98,41.90 409.98,41.55 411.14,41.55 411.14,41.44 412.30,41.44 412.30,41.59 413.45,41.59 413.45,42.25 414.61,42.25 414.61,42.31 415.77,42.31 415.77,42.39 416.92,42.39 416.92,42.09 418.08,42.09 418.08,42.46 419.24,42.46 419.24,42.13 420.39,42.13 420.39,42.21 421.55,42.21 421.55,42.16 422.71,42.16 422.71,41.84 423.86,41.84 423.86,41.67 425.02,41.67 425.02,41.80 426.18,41.80 426.18,41.35 427.34,41.35 427.34,41.51 428.49,41.51 428.49,41.52 429.65,41.52 429.65,41.25 430.81,41.25 430.81,41.30 431.96,41.30 431.96,41.38 433.12,41.38 433.12,40.92 434.28,40.92 434.28,40.97 435.43,40.97 435.43,40.53 436.59,40.53 436.59,40.61 437.75,40.61 437.75,40.69 438.91,40.69 438.91,40.98 440.06,40.98 440.06,40.91 441.22,40.91 441.22,41.23 442.38,41.23 442.38,41.38 443.53,41.38 443.53,41.18 444.69,41.18 444.69,40.78 445.85,40.78 445.85,40.79 447.00,40.79 447.00,40.35 448.16,40.35 448.16,40.73 449.32,40.73 449.32,40.91 450.48,40.91 450.48,40.90 451.63,40.90 451.63,40.70 452.79,40.70 452.79,40.49 453.95,40.49 453.95,40.30 455.10,40.30 455.10,40.33 456.26,40.33 456.26,40.61 457.42,40.61 457.42,41.13 458.57,41.13 458.57,40.98 459.73,40.98 459.73,41.08 460.89,41.08 460.89,41.13 462.04,41.13 462.04,40.71 463.20,40.71 463.20,40.54 464.36,40.54 464.36,40.13 465.52,40.13 465.52,40.22 466.67,40.22 466.67,40.34 467.83,40.34 467.83,40.48 468.99,40.48 468.99,39.85 470.14,39.85 470.14,39.21 471.30,39.21 471.30,38.85 472.46,38.85 472.46,38.78 473.61,38.78 473.61,40.13 474.77,40.13 474.77,40.32 475.93,40.32 475.93,40.24 477.09,40.24 477.09,39.57 478.24,39.57 478.24,39.81 479.40,39.81 479.40,40.05 480.56,40.05 480.56,40.31 481.71,40.31 481.71,40.27 482.87,40.27 482.87,39.93 484.03,39.93 484.03,39.27 485.18,39.27 485.18,39.27 486.34,39.27 486.34,38.61 487.50,38.61 487.50,38.66 488.66,38.66 488.66,37.96 489.81,37.96 489.81,38.35 490.97,38.35 490.97,37.66 492.13,37.66 492.13,37.35 493.28,37.35 493.28,37.42 494.44,37.42 494.44,37.13 495.60,37.13 495.60,37.25 496.75,37.25 496.75,37.38 497.91,37.38 497.91,38.80 499.07,38.80 499.07,39.00 500.22,39.00 500.22,38.79 501.38,38.79 501.38,38.13" style="stroke-width: 1.07;stroke: #8A9045; stroke-dasharray: 2.85, 2.85;stroke-linecap: butt;"/>
<polyline points="294.28,42.73 295.44,42.73 295.44,42.39 296.60,42.39 296.60,42.30 297.76,42.30 297.76,42.13 298.91,42.13 298.91,42.21 300.07,42.21 300.07,42.54 301.23,42.54 301.23,42.81 302.38,42.81 302.38,43.16 303.54,43.16 303.54,43.02 304.70,43.02 304.70,43.41 305.85,43.41 305.85,43.54 307.01,43.54 307.01,43.77 308.17,43.77 308.17,43.52 309.32,43.52 309.32,43.62 310.48,43.62 310.48,43.92 311.64,43.92 311.64,43.95 312.80,43.95 312.80,43.89 313.95,43.89 313.95,44.86 315.11,44.86 315.11,45.28 316.27,45.28 316.27,46.00 317.42,46.00 317.42,46.64 318.58,46.64 318.58,46.71 319.74,46.71 319.74,48.37 320.89,48.37 320.89,48.86 322.05,48.86 322.05,49.53 323.21,49.53 323.21,51.01 324.37,51.01 324.37,51.30 325.52,51.30 325.52,51.80 326.68,51.80 326.68,52.00 327.84,52.00 327.84,53.16 328.99,53.16 328.99,53.60 330.15,53.60 330.15,54.48 331.31,54.48 331.31,55.06 332.46,55.06 332.46,55.54 333.62,55.54 333.62,56.24 334.78,56.24 334.78,56.53 335.94,56.53 335.94,57.67 337.09,57.67 337.09,58.72 338.25,58.72 338.25,59.35 339.41,59.35 339.41,60.11 340.56,60.11 340.56,60.64 341.72,60.64 341.72,61.19 342.88,61.19 342.88,61.17 344.03,61.17 344.03,61.87 345.19,61.87 345.19,63.31 346.35,63.31 346.35,63.68 347.50,63.68 347.50,64.55 348.66,64.55 348.66,64.69 349.82,64.69 349.82,65.55 350.98,65.55 350.98,66.18 352.13,66.18 352.13,67.09 353.29,67.09 353.29,67.75 354.45,67.75 354.45,68.30 355.60,68.30 355.60,68.86 356.76,68.86 356.76,69.44 357.92,69.44 357.92,69.49 359.07,69.49 359.07,69.69 360.23,69.69 360.23,69.77 361.39,69.77 361.39,69.85 362.55,69.85 362.55,70.80 363.70,70.80 363.70,71.14 364.86,71.14 364.86,71.93 366.02,71.93 366.02,72.45 367.17,72.45 367.17,72.68 368.33,72.68 368.33,73.67 369.49,73.67 369.49,73.63 370.64,73.63 370.64,74.37 371.80,74.37 371.80,74.51 372.96,74.51 372.96,74.81 374.12,74.81 374.12,75.45 375.27,75.45 375.27,75.31 376.43,75.31 376.43,75.01 377.59,75.01 377.59,75.16 378.74,75.16 378.74,75.32 379.90,75.32 379.90,75.32 381.06,75.32 381.06,75.67 382.21,75.67 382.21,75.86 383.37,75.86 383.37,76.42 384.53,76.42 384.53,76.28 385.68,76.28 385.68,77.22 386.84,77.22 386.84,78.01 388.00,78.01 388.00,78.28 389.16,78.28 389.16,78.94 390.31,78.94 390.31,78.67 391.47,78.67 391.47,79.13 392.63,79.13 392.63,78.83 393.78,78.83 393.78,79.12 394.94,79.12 394.94,79.23 396.10,79.23 396.10,79.53 397.25,79.53 397.25,80.67 398.41,80.67 398.41,81.21 399.57,81.21 399.57,81.77 400.73,81.77 400.73,82.15 401.88,82.15 401.88,83.39 403.04,83.39 403.04,83.15 404.20,83.15 404.20,83.13 405.35,83.13 405.35,84.40 406.51,84.40 406.51,84.35 407.67,84.35 407.67,84.99 408.82,84.99 408.82,84.95 409.98,84.95 409.98,85.15 411.14,85.15 411.14,85.60 412.30,85.60 412.30,85.58 413.45,85.58 413.45,86.31 414.61,86.31 414.61,85.81 415.77,85.81 415.77,86.59 416.92,86.59 416.92,86.64 418.08,86.64 418.08,86.69 419.24,86.69 419.24,86.71 420.39,86.71 420.39,87.01 421.55,87.01 421.55,87.05 422.71,87.05 422.71,87.37 423.86,87.37 423.86,88.52 425.02,88.52 425.02,88.30 426.18,88.30 426.18,88.66 427.34,88.66 427.34,88.44 428.49,88.44 428.49,89.13 429.65,89.13 429.65,89.24 430.81,89.24 430.81,89.66 431.96,89.66 431.96,89.49 433.12,89.49 433.12,89.58 434.28,89.58 434.28,90.63 435.43,90.63 435.43,90.76 436.59,90.76 436.59,91.57 437.75,91.57 437.75,91.40 438.91,91.40 438.91,92.25 440.06,92.25 440.06,92.11 441.22,92.11 441.22,92.31 442.38,92.31 442.38,92.18 443.53,92.18 443.53,92.05 444.69,92.05 444.69,91.93 445.85,91.93 445.85,91.82 447.00,91.82 447.00,92.41 448.16,92.41 448.16,93.03 449.32,93.03 449.32,93.69 450.48,93.69 450.48,93.98 451.63,93.98 451.63,93.48 452.79,93.48 452.79,93.38 453.95,93.38 453.95,94.12 455.10,94.12 455.10,94.89 456.26,94.89 456.26,94.40 457.42,94.40 457.42,94.77 458.57,94.77 458.57,94.72 459.73,94.72 459.73,94.24 460.89,94.24 460.89,95.06 462.04,95.06 462.04,95.45 463.20,95.45 463.20,94.92 464.36,94.92 464.36,94.86 465.52,94.86 465.52,95.29 466.67,95.29 466.67,94.77 467.83,94.77 467.83,95.23 468.99,95.23 468.99,94.72 470.14,94.72 470.14,94.71 471.30,94.71 471.30,94.72 472.46,94.72 472.46,94.75 473.61,94.75 473.61,94.22 474.77,94.22 474.77,93.65 475.93,93.65 475.93,93.08 477.09,93.08 477.09,93.10 478.24,93.10 478.24,93.15 479.40,93.15 479.40,92.59 480.56,92.59 480.56,92.65 481.71,92.65 481.71,92.71 482.87,92.71 482.87,92.14 484.03,92.14 484.03,92.23 485.18,92.23 485.18,92.33 486.34,92.33 486.34,92.44 487.50,92.44 487.50,92.57 488.66,92.57 488.66,91.96 489.81,91.96 489.81,91.35 490.97,91.35 490.97,90.72 492.13,90.72 492.13,90.11 493.28,90.11 493.28,90.30 494.44,90.30 494.44,89.69 495.60,89.69 495.60,89.08 496.75,89.08 496.75,88.47 497.91,88.47 497.91,88.71 499.07,88.71 499.07,88.98 500.22,88.98 500.22,91.12 501.38,91.12 501.38,91.49" style="stroke-width: 1.07;stroke: #155F83; stroke-dasharray: 2.85, 2.85;stroke-linecap: butt;"/>
<polyline points="294.28,42.35 295.44,42.35 295.44,41.94 296.60,41.94 296.60,42.86 297.76,42.86 297.76,43.46 298.91,43.46 298.91,43.40 300.07,43.40 300.07,44.36 301.23,44.36 301.23,44.78 302.38,44.78 302.38,45.79 303.54,45.79 303.54,46.47 304.70,46.47 304.70,48.00 305.85,48.00 305.85,49.31 307.01,49.31 307.01,50.66 308.17,50.66 308.17,51.36 309.32,51.36 309.32,53.29 310.48,53.29 310.48,54.15 311.64,54.15 311.64,55.52 312.80,55.52 312.80,57.78 313.95,57.78 313.95,59.08 315.11,59.08 315.11,60.55 316.27,60.55 316.27,62.57 317.42,62.57 317.42,64.62 318.58,64.62 318.58,66.58 319.74,66.58 319.74,68.45 320.89,68.45 320.89,70.21 322.05,70.21 322.05,70.73 323.21,70.73 323.21,72.09 324.37,72.09 324.37,72.64 325.52,72.64 325.52,74.04 326.68,74.04 326.68,75.18 327.84,75.18 327.84,76.35 328.99,76.35 328.99,79.39 330.15,79.39 330.15,81.19 331.31,81.19 331.31,83.31 332.46,83.31 332.46,84.60 333.62,84.60 333.62,86.96 334.78,86.96 334.78,87.43 335.94,87.43 335.94,89.51 337.09,89.51 337.09,90.42 338.25,90.42 338.25,92.27 339.41,92.27 339.41,93.08 340.56,93.08 340.56,93.74 341.72,93.74 341.72,94.42 342.88,94.42 342.88,95.44 344.03,95.44 344.03,95.83 345.19,95.83 345.19,96.08 346.35,96.08 346.35,97.00 347.50,97.00 347.50,97.94 348.66,97.94 348.66,98.07 349.82,98.07 349.82,100.02 350.98,100.02 350.98,101.83 352.13,101.83 352.13,102.97 353.29,102.97 353.29,103.97 354.45,103.97 354.45,103.93 355.60,103.93 355.60,104.96 356.76,104.96 356.76,105.29 357.92,105.29 357.92,105.64 359.07,105.64 359.07,105.82 360.23,105.82 360.23,107.32 361.39,107.32 361.39,107.72 362.55,107.72 362.55,108.92 363.70,108.92 363.70,108.52 364.86,108.52 364.86,109.71 366.02,109.71 366.02,109.93 367.17,109.93 367.17,109.55 368.33,109.55 368.33,111.00 369.49,111.00 369.49,113.10 370.64,113.10 370.64,115.04 371.80,115.04 371.80,115.15 372.96,115.15 372.96,116.75 374.12,116.75 374.12,116.89 375.27,116.89 375.27,118.15 376.43,118.15 376.43,118.53 377.59,118.53 377.59,118.88 378.74,118.88 378.74,119.24 379.90,119.24 379.90,119.84 381.06,119.84 381.06,120.23 382.21,120.23 382.21,120.16 383.37,120.16 383.37,121.03 384.53,121.03 384.53,121.70 385.68,121.70 385.68,121.67 386.84,121.67 386.84,121.65 388.00,121.65 388.00,121.39 389.16,121.39 389.16,122.15 390.31,122.15 390.31,121.92 391.47,121.92 391.47,122.93 392.63,122.93 392.63,123.45 393.78,123.45 393.78,123.73 394.94,123.73 394.94,123.48 396.10,123.48 396.10,123.51 397.25,123.51 397.25,123.28 398.41,123.28 398.41,123.62 399.57,123.62 399.57,123.97 400.73,123.97 400.73,123.47 401.88,123.47 401.88,125.03 403.04,125.03 403.04,125.46 404.20,125.46 404.20,125.90 405.35,125.90 405.35,127.23 406.51,127.23 406.51,127.33 407.67,127.33 407.67,128.08 408.82,128.08 408.82,128.22 409.98,128.22 409.98,128.70 411.14,128.70 411.14,128.86 412.30,128.86 412.30,129.05 413.45,129.05 413.45,128.91 414.61,128.91 414.61,129.12 415.77,129.12 415.77,128.99 416.92,128.99 416.92,128.52 418.08,128.52 418.08,128.40 419.24,128.40 419.24,127.88 420.39,127.88 420.39,129.92 421.55,129.92 421.55,129.79 422.71,129.79 422.71,129.66 423.86,129.66 423.86,129.93 425.02,129.93 425.02,130.60 426.18,130.60 426.18,132.09 427.34,132.09 427.34,132.03 428.49,132.03 428.49,133.58 429.65,133.58 429.65,133.13 430.81,133.13 430.81,133.53 431.96,133.53 431.96,133.10 433.12,133.10 433.12,133.04 434.28,133.04 434.28,134.31 435.43,134.31 435.43,135.18 436.59,135.18 436.59,135.18 437.75,135.18 437.75,135.19 438.91,135.19 438.91,135.66 440.06,135.66 440.06,135.70 441.22,135.70 441.22,135.27 442.38,135.27 442.38,136.28 443.53,136.28 443.53,135.85 444.69,135.85 444.69,135.93 445.85,135.93 445.85,135.51 447.00,135.51 447.00,135.05 448.16,135.05 448.16,135.12 449.32,135.12 449.32,135.73 450.48,135.73 450.48,136.37 451.63,136.37 451.63,137.04 452.79,137.04 452.79,137.73 453.95,137.73 453.95,137.89 455.10,137.89 455.10,137.47 456.26,137.47 456.26,137.06 457.42,137.06 457.42,139.00 458.57,139.00 458.57,139.80 459.73,139.80 459.73,139.40 460.89,139.40 460.89,139.58 462.04,139.58 462.04,139.13 463.20,139.13 463.20,139.95 464.36,139.95 464.36,139.52 465.52,139.52 465.52,139.09 466.67,139.09 466.67,138.66 467.83,138.66 467.83,138.91 468.99,138.91 468.99,139.90 470.14,139.90 470.14,139.51 471.30,139.51 471.30,140.56 472.46,140.56 472.46,140.18 473.61,140.18 473.61,141.26 474.77,141.26 474.77,142.37 475.93,142.37 475.93,142.74 477.09,142.74 477.09,142.34 478.24,142.34 478.24,142.75 479.40,142.75 479.40,144.00 480.56,144.00 480.56,143.61 481.71,143.61 481.71,143.21 482.87,143.21 482.87,143.70 484.03,143.70 484.03,144.21 485.18,144.21 485.18,144.74 486.34,144.74 486.34,145.31 487.50,145.31 487.50,144.96 488.66,144.96 488.66,145.56 489.81,145.56 489.81,146.18 490.97,146.18 490.97,145.78 492.13,145.78 492.13,146.44 493.28,146.44 493.28,147.14 494.44,147.14 494.44,147.87 495.60,147.87 495.60,147.51 496.75,147.51 496.75,147.16 497.91,147.16 497.91,146.81 499.07,146.81 499.07,146.46 500.22,146.46 500.22,146.09 501.38,146.09 501.38,145.73" style="stroke-width: 1.07;stroke: #8F3931; stroke-dasharray: 2.85, 2.85;stroke-linecap: butt;"/>
<polyline points="294.28,42.51 295.44,42.51 295.44,42.42 296.60,42.42 296.60,44.62 297.76,44.62 297.76,46.10 298.91,46.10 298.91,49.00 300.07,49.00 300.07,52.42 301.23,52.42 301.23,55.74 302.38,55.74 302.38,59.92 303.54,59.92 303.54,63.37 304.70,63.37 304.70,68.84 305.85,68.84 305.85,71.63 307.01,71.63 307.01,77.44 308.17,77.44 308.17,78.59 309.32,78.59 309.32,85.34 310.48,85.34 310.48,86.91 311.64,86.91 311.64,90.22 312.80,90.22 312.80,93.41 313.95,93.41 313.95,95.95 315.11,95.95 315.11,99.77 316.27,99.77 316.27,102.60 317.42,102.60 317.42,105.50 318.58,105.50 318.58,107.56 319.74,107.56 319.74,112.08 320.89,112.08 320.89,113.48 322.05,113.48 322.05,115.60 323.21,115.60 323.21,118.35 324.37,118.35 324.37,119.21 325.52,119.21 325.52,123.25 326.68,123.25 326.68,125.57 327.84,125.57 327.84,129.35 328.99,129.35 328.99,130.97 330.15,130.97 330.15,132.83 331.31,132.83 331.31,136.43 332.46,136.43 332.46,137.34 333.62,137.34 333.62,140.24 334.78,140.24 334.78,141.67 335.94,141.67 335.94,144.17 337.09,144.17 337.09,145.61 338.25,145.61 338.25,147.79 339.41,147.79 339.41,149.31 340.56,149.31 340.56,150.40 341.72,150.40 341.72,152.21 342.88,152.21 342.88,152.87 344.03,152.87 344.03,154.74 345.19,154.74 345.19,156.16 346.35,156.16 346.35,157.87 347.50,157.87 347.50,159.61 348.66,159.61 348.66,159.37 349.82,159.37 349.82,162.37 350.98,162.37 350.98,163.13 352.13,163.13 352.13,164.42 353.29,164.42 353.29,165.21 354.45,165.21 354.45,166.29 355.60,166.29 355.60,167.12 356.76,167.12 356.76,167.71 357.92,167.71 357.92,169.13 359.07,169.13 359.07,169.47 360.23,169.47 360.23,171.24 361.39,171.24 361.39,171.93 362.55,171.93 362.55,172.64 363.70,172.64 363.70,173.03 364.86,173.03 364.86,172.84 366.02,172.84 366.02,173.26 367.17,173.26 367.17,172.78 368.33,172.78 368.33,173.51 369.49,173.51 369.49,174.27 370.64,174.27 370.64,175.69 371.80,175.69 371.80,177.47 372.96,177.47 372.96,178.32 374.12,178.32 374.12,177.91 375.27,177.91 375.27,178.50 376.43,178.50 376.43,179.45 377.59,179.45 377.59,179.01 378.74,179.01 378.74,181.39 379.90,181.39 379.90,181.31 381.06,181.31 381.06,181.97 382.21,181.97 382.21,181.90 383.37,181.90 383.37,183.33 384.53,183.33 384.53,183.66 385.68,183.66 385.68,183.99 386.84,183.99 386.84,184.34 388.00,184.34 388.00,184.31 389.16,184.31 389.16,185.08 390.31,185.08 390.31,185.46 391.47,185.46 391.47,186.62 392.63,186.62 392.63,186.98 393.78,186.98 393.78,186.95 394.94,186.95 394.94,187.35 396.10,187.35 396.10,186.93 397.25,186.93 397.25,186.94 398.41,186.94 398.41,187.40 399.57,187.40 399.57,186.97 400.73,186.97 400.73,187.91 401.88,187.91 401.88,187.98 403.04,187.98 403.04,188.08 404.20,188.08 404.20,188.18 405.35,188.18 405.35,188.26 406.51,188.26 406.51,188.35 407.67,188.35 407.67,188.94 408.82,188.94 408.82,190.08 409.98,190.08 409.98,190.21 411.14,190.21 411.14,189.82 412.30,189.82 412.30,189.96 413.45,189.96 413.45,191.73 414.61,191.73 414.61,191.37 415.77,191.37 415.77,193.24 416.92,193.24 416.92,193.47 418.08,193.47 418.08,194.27 419.24,194.27 419.24,193.89 420.39,193.89 420.39,195.28 421.55,195.28 421.55,196.11 422.71,196.11 422.71,197.56 423.86,197.56 423.86,197.24 425.02,197.24 425.02,196.91 426.18,196.91 426.18,197.81 427.34,197.81 427.34,198.11 428.49,198.11 428.49,198.43 429.65,198.43 429.65,198.12 430.81,198.12 430.81,198.48 431.96,198.48 431.96,198.20 433.12,198.20 433.12,197.89 434.28,197.89 434.28,200.33 435.43,200.33 435.43,200.04 436.59,200.04 436.59,199.75 437.75,199.75 437.75,199.45 438.91,199.45 438.91,199.88 440.06,199.88 440.06,201.05 441.22,201.05 441.22,200.75 442.38,200.75 442.38,201.20 443.53,201.20 443.53,200.92 444.69,200.92 444.69,201.42 445.85,201.42 445.85,201.15 447.00,201.15 447.00,201.66 448.16,201.66 448.16,201.37 449.32,201.37 449.32,201.08 450.48,201.08 450.48,201.64 451.63,201.64 451.63,202.20 452.79,202.20 452.79,201.92 453.95,201.92 453.95,201.63 455.10,201.63 455.10,202.25 456.26,202.25 456.26,201.97 457.42,201.97 457.42,201.69 458.57,201.69 458.57,202.47 459.73,202.47 459.73,202.20 460.89,202.20 460.89,201.90 462.04,201.90 462.04,201.62 463.20,201.62 463.20,201.34 464.36,201.34 464.36,201.05 465.52,201.05 465.52,200.77 466.67,200.77 466.67,201.68 467.83,201.68 467.83,201.40 468.99,201.40 468.99,201.11 470.14,201.11 470.14,200.82 471.30,200.82 471.30,200.54 472.46,200.54 472.46,203.04 473.61,203.04 473.61,202.79 474.77,202.79 474.77,202.52 475.93,202.52 475.93,202.24 477.09,202.24 477.09,201.96 478.24,201.96 478.24,201.68 479.40,201.68 479.40,202.96 480.56,202.96 480.56,202.68 481.71,202.68 481.71,202.41 482.87,202.41 482.87,202.18 484.03,202.18 484.03,201.95 485.18,201.95 485.18,203.57 486.34,203.57 486.34,203.34 487.50,203.34 487.50,203.12 488.66,203.12 488.66,202.86 489.81,202.86 489.81,202.61 490.97,202.61 490.97,202.35 492.13,202.35 492.13,202.08 493.28,202.08 493.28,201.82 494.44,201.82 494.44,203.66 495.60,203.66 495.60,203.39 496.75,203.39 496.75,205.27 497.91,205.27 497.91,207.15 499.07,207.15 499.07,206.89 500.22,206.89 500.22,206.67 501.38,206.67 501.38,208.81" style="stroke-width: 1.07;stroke: #350E20; stroke-dasharray: 2.85, 2.85;stroke-linecap: butt;"/>
<rect x="283.93" y="24.55" width="227.81" height="276.85" style="stroke-width: 1.16;stroke: #4D4D4D;"/>
</g><g clip-path="url(#c5)">
<rect x="50.14" y="5.98" width="227.81" height="18.57" style="stroke-width: 1.16;stroke: none;fill: #FFFFFF;"/>
<g><text x="164.05" y="18.70" text-anchor="middle" style="font-family: Arial;font-size: 9.60px;fill: #1A1A1A;" textLength="31.99px" lengthAdjust="spacingAndGlyphs">Female</text></g>
</g><g clip-path="url(#c7)">
<rect x="283.93" y="5.98" width="227.81" height="18.57" style="stroke-width: 1.16;stroke: none;fill: #FFFFFF;"/>
<g><text x="397.83" y="18.70" text-anchor="middle" style="font-family: Arial;font-size: 9.60px;fill: #1A1A1A;" textLength="20.79px" lengthAdjust="spacingAndGlyphs">Male</text></g>
</g><g clip-path="url(#c8)">
<polyline points="59.34,304.38 59.34,301.40" style="stroke-width: 1.16;stroke: #4D4D4D;stroke-linecap: butt;"/>
<polyline points="128.76,304.38 128.76,301.40" style="stroke-width: 1.16;stroke: #4D4D4D;stroke-linecap: butt;"/>
<polyline points="198.18,304.38 198.18,301.40" style="stroke-width: 1.16;stroke: #4D4D4D;stroke-linecap: butt;"/>
<polyline points="267.60,304.38 267.60,301.40" style="stroke-width: 1.16;stroke: #4D4D4D;stroke-linecap: butt;"/>
<g><text x="59.34" y="313.66" text-anchor="middle" style="font-family: Arial;font-size: 9.60px;fill: #4D4D4D;" textLength="5.34px" lengthAdjust="spacingAndGlyphs">0</text></g>
<g><text x="128.76" y="313.66" text-anchor="middle" style="font-family: Arial;font-size: 9.60px;fill: #4D4D4D;" textLength="5.34px" lengthAdjust="spacingAndGlyphs">5</text></g>
<g><text x="198.18" y="313.66" text-anchor="middle" style="font-family: Arial;font-size: 9.60px;fill: #4D4D4D;" textLength="10.67px" lengthAdjust="spacingAndGlyphs">10</text></g>
<g><text x="267.60" y="313.66" text-anchor="middle" style="font-family: Arial;font-size: 9.60px;fill: #4D4D4D;" textLength="10.67px" lengthAdjust="spacingAndGlyphs">15</text></g>
<polyline points="293.13,304.38 293.13,301.40" style="stroke-width: 1.16;stroke: #4D4D4D;stroke-linecap: butt;"/>
<polyline points="362.55,304.38 362.55,301.40" style="stroke-width: 1.16;stroke: #4D4D4D;stroke-linecap: butt;"/>
<polyline points="431.96,304.38 431.96,301.40" style="stroke-width: 1.16;stroke: #4D4D4D;stroke-linecap: butt;"/>
<polyline points="501.38,304.38 501.38,301.40" style="stroke-width: 1.16;stroke: #4D4D4D;stroke-linecap: butt;"/>
<g><text x="293.13" y="313.66" text-anchor="middle" style="font-family: Arial;font-size: 9.60px;fill: #4D4D4D;" textLength="5.34px" lengthAdjust="spacingAndGlyphs">0</text></g>
<g><text x="362.55" y="313.66" text-anchor="middle" style="font-family: Arial;font-size: 9.60px;fill: #4D4D4D;" textLength="5.34px" lengthAdjust="spacingAndGlyphs">5</text></g>
<g><text x="431.96" y="313.66" text-anchor="middle" style="font-family: Arial;font-size: 9.60px;fill: #4D4D4D;" textLength="10.67px" lengthAdjust="spacingAndGlyphs">10</text></g>
<g><text x="501.38" y="313.66" text-anchor="middle" style="font-family: Arial;font-size: 9.60px;fill: #4D4D4D;" textLength="10.67px" lengthAdjust="spacingAndGlyphs">15</text></g>
<g><text x="44.76" y="292.25" text-anchor="end" style="font-family: Arial;font-size: 9.60px;fill: #4D4D4D;" textLength="13.87px" lengthAdjust="spacingAndGlyphs">0%</text></g>
<g><text x="44.76" y="243.04" text-anchor="end" style="font-family: Arial;font-size: 9.60px;fill: #4D4D4D;" textLength="19.20px" lengthAdjust="spacingAndGlyphs">20%</text></g>
<g><text x="44.76" y="193.83" text-anchor="end" style="font-family: Arial;font-size: 9.60px;fill: #4D4D4D;" textLength="19.20px" lengthAdjust="spacingAndGlyphs">40%</text></g>
<g><text x="44.76" y="144.62" text-anchor="end" style="font-family: Arial;font-size: 9.60px;fill: #4D4D4D;" textLength="19.20px" lengthAdjust="spacingAndGlyphs">60%</text></g>
<g><text x="44.76" y="95.41" text-anchor="end" style="font-family: Arial;font-size: 9.60px;fill: #4D4D4D;" textLength="19.20px" lengthAdjust="spacingAndGlyphs">80%</text></g>
<g><text x="44.76" y="46.20" text-anchor="end" style="font-family: Arial;font-size: 9.60px;fill: #4D4D4D;" textLength="24.54px" lengthAdjust="spacingAndGlyphs">100%</text></g>
<polyline points="47.16,288.81 50.14,288.81" style="stroke-width: 1.16;stroke: #4D4D4D;stroke-linecap: butt;"/>
<polyline points="47.16,239.60 50.14,239.60" style="stroke-width: 1.16;stroke: #4D4D4D;stroke-linecap: butt;"/>
<polyline points="47.16,190.39 50.14,190.39" style="stroke-width: 1.16;stroke: #4D4D4D;stroke-linecap: butt;"/>
<polyline points="47.16,141.18 50.14,141.18" style="stroke-width: 1.16;stroke: #4D4D4D;stroke-linecap: butt;"/>
<polyline points="47.16,91.97 50.14,91.97" style="stroke-width: 1.16;stroke: #4D4D4D;stroke-linecap: butt;"/>
<polyline points="47.16,42.76 50.14,42.76" style="stroke-width: 1.16;stroke: #4D4D4D;stroke-linecap: butt;"/>
<g><text x="280.94" y="327.38" text-anchor="middle" style="font-family: Arial;font-size: 12.00px;" textLength="114.03px" lengthAdjust="spacingAndGlyphs">Follow-up time, years</text></g>
<g><text transform="translate(14.59,162.97) rotate(-90.00)" text-anchor="middle" style="font-family: Arial;font-size: 12.00px;" textLength="87.35px" lengthAdjust="spacingAndGlyphs">Relative survival</text></g>
<rect x="50.14" y="347.96" width="252.29" height="17.28" style="stroke-width: 1.16;stroke: none;fill: #FFFFFF;"/>
<g><text x="50.14" y="360.91" style="font-family: Arial;font-size: 12.00px;" textLength="102.06px" lengthAdjust="spacingAndGlyphs">Period of diagnosis</text></g>
<rect x="158.18" y="347.96" width="17.28" height="17.28" style="stroke-width: 1.16;stroke: none;fill: #FFFFFF;"/>
<line x1="159.91" y1="356.60" x2="173.73" y2="356.60" style="stroke-width: 1.07;stroke-linecap: butt;"/>
<rect x="233.30" y="347.96" width="17.28" height="17.28" style="stroke-width: 1.16;stroke: none;fill: #FFFFFF;"/>
<line x1="235.02" y1="356.60" x2="248.85" y2="356.60" style="stroke-width: 1.07; stroke-dasharray: 2.85, 2.85;stroke-linecap: butt;"/>
<g><text x="181.44" y="360.05" style="font-family: Arial;font-size: 9.60px;" textLength="45.88px" lengthAdjust="spacingAndGlyphs">1983-1999</text></g>
<g><text x="256.55" y="360.05" style="font-family: Arial;font-size: 9.60px;" textLength="45.88px" lengthAdjust="spacingAndGlyphs">2000-2019</text></g>
<rect x="50.14" y="377.20" width="441.98" height="17.28" style="stroke-width: 1.16;stroke: none;fill: #FFFFFF;"/>
<g><text x="50.14" y="390.15" style="font-family: Arial;font-size: 12.00px;" textLength="56.69px" lengthAdjust="spacingAndGlyphs">T category</text></g>
<rect x="112.81" y="377.20" width="17.28" height="17.28" style="stroke-width: 1.16;stroke: none;fill: #FFFFFF;"/>
<line x1="114.54" y1="385.84" x2="128.36" y2="385.84" style="stroke-width: 1.07;stroke: #8A9045;stroke-linecap: butt;"/>
<rect x="199.54" y="377.20" width="17.28" height="17.28" style="stroke-width: 1.16;stroke: none;fill: #FFFFFF;"/>
<line x1="201.27" y1="385.84" x2="215.09" y2="385.84" style="stroke-width: 1.07;stroke: #155F83;stroke-linecap: butt;"/>
<rect x="305.28" y="377.20" width="17.28" height="17.28" style="stroke-width: 1.16;stroke: none;fill: #FFFFFF;"/>
<line x1="307.01" y1="385.84" x2="320.84" y2="385.84" style="stroke-width: 1.07;stroke: #8F3931;stroke-linecap: butt;"/>
<rect x="411.03" y="377.20" width="17.28" height="17.28" style="stroke-width: 1.16;stroke: none;fill: #FFFFFF;"/>
<line x1="412.75" y1="385.84" x2="426.58" y2="385.84" style="stroke-width: 1.07;stroke: #350E20;stroke-linecap: butt;"/>
<g><text x="136.07" y="389.28" style="font-family: Arial;font-size: 9.60px;" textLength="57.50px" lengthAdjust="spacingAndGlyphs">T1 (1.0 mm)</text></g>
<g><text x="222.80" y="389.28" style="font-family: Arial;font-size: 9.60px;" textLength="76.51px" lengthAdjust="spacingAndGlyphs">T2 (&gt;1.02.0 mm)</text></g>
<g><text x="328.54" y="389.28" style="font-family: Arial;font-size: 9.60px;" textLength="76.51px" lengthAdjust="spacingAndGlyphs">T3 (&gt;2.04.0 mm)</text></g>
<g><text x="434.28" y="389.28" style="font-family: Arial;font-size: 9.60px;" textLength="57.84px" lengthAdjust="spacingAndGlyphs">T4 (&gt;4.0 mm)</text></g>
</g>
</svg>