<svg xmlns="http://www.w3.org/2000/svg" viewBox="0 0 716.15 320.23"><defs><style>.cls-1{fill:#003e69;}.cls-2{fill:#6ba4b8;}</style></defs><title>Asset 75-</title><g id="Layer_2" data-name="Layer 2"><g id="Layer_1-2" data-name="Layer 1"><circle class="cls-1" cx="695.18" cy="160.11" r="20.97"/><circle class="cls-1" cx="663.6" cy="192.48" r="18.37"/><circle class="cls-1" cx="634.2" cy="221.87" r="17.05"/><circle class="cls-1" cx="607.44" cy="248.26" r="14.52"/><circle class="cls-1" cx="584.02" cy="271.88" r="12.51"/><circle class="cls-1" cx="563.21" cy="292.7" r="10.34"/><circle class="cls-1" cx="543.9" cy="311.76" r="8.47"/><circle class="cls-2" cx="631.93" cy="160.15" r="17.05"/><circle class="cls-2" cx="602.03" cy="189.4" r="14.52"/><circle class="cls-2" cx="575.37" cy="215.86" r="12.51"/><circle class="cls-2" cx="551.57" cy="239.52" r="10.34"/><circle class="cls-1" cx="663.6" cy="127.75" r="18.37"/><circle class="cls-1" cx="634.2" cy="98.36" r="17.05"/><circle class="cls-1" cx="607.44" cy="71.97" r="14.52"/><circle class="cls-1" cx="584.02" cy="48.35" r="12.51"/><circle class="cls-1" cx="563.21" cy="27.54" r="10.34"/><circle class="cls-1" cx="543.9" cy="8.47" r="8.47"/><circle class="cls-2" cx="602.03" cy="130.9" r="14.52"/><circle class="cls-2" cx="575.37" cy="104.44" r="12.51"/><circle class="cls-2" cx="572.84" cy="160" r="12.51"/><circle class="cls-2" cx="551.57" cy="80.78" r="10.34"/><path class="cls-1" d="M0,111.48C0,77.55,25.75,49.19,60.55,49.19c17,0,33.41,6.26,44.2,20a2.62,2.62,0,0,1,0,3.48l-7,7a2.3,2.3,0,0,1-3.66-.17C88,70.94,76.73,63.11,60.55,63.11c-27,0-45.06,22.44-45.06,48.37,0,26.1,18.09,48.37,45.06,48.37,15.83,0,28.19-7.83,34.8-17.57a2.31,2.31,0,0,1,3.48-.35l7,6.61c1.22.87.87,2.44.17,3.48-11.48,14.62-27.66,21.75-45.41,21.75C25.75,173.77,0,145.41,0,111.48Z"/><path class="cls-1" d="M190,102.26v67.68a2.46,2.46,0,0,1-2.26,2.44H180.9c-1.39,0-2.43-.87-3-2.78l-1.22-7c-2.79,4.69-8.88,11-21.93,11.13-24.53.35-35.49-17.57-35.49-37.93s11.14-38.45,35.84-38.45c13.75,0,19.14,6.78,21.58,8.7l1-3.66c.7-1.91,1.74-2.78,3-2.78h7A2.39,2.39,0,0,1,190,102.26Zm-13.74,33.06c0-21.4-8.7-26.45-19.32-26.45-17.22,0-23.49,13.75-23.49,27,0,13,6.27,26.45,22.8,26.45C168,162.29,176.21,156,176.21,135.32Z"/><path class="cls-1" d="M276.34,127v43a2.61,2.61,0,0,1-2.43,2.44h-9.75a2.24,2.24,0,0,1-2.26-2.44V128.71c0-13.75-6.26-19.84-16.88-19.84-12.18,0-21.4,7.31-21.4,16.18v44.89a2.37,2.37,0,0,1-2.43,2.44h-9.75a2.24,2.24,0,0,1-2.26-2.44V102.26a2.5,2.5,0,0,1,2.26-2.61h8.7c1.05,0,1.74,1,2.09,3l1.39,6.09c3.48-5.57,12.18-11.31,24.19-11.31C268.69,97.39,276.34,109.57,276.34,127Z"/><path class="cls-1" d="M291.17,135.49c0-21.05,15-38.1,38.28-38.1,10.26,0,20,3.65,27,12a2.9,2.9,0,0,1-.18,3.31l-4.87,5a2.31,2.31,0,0,1-3.48-.17c-3.31-3.83-8.18-8.7-18.1-8.7-16.18,0-24.53,13.22-24.53,26.8,0,13.39,8.53,26.62,24,26.62a22.71,22.71,0,0,0,19.14-9.57,2.41,2.41,0,0,1,3.66-.35l4.87,4.7a2.63,2.63,0,0,1,.35,3.3,35.82,35.82,0,0,1-28.37,13.4C306.3,173.77,291.17,157.07,291.17,135.49Z"/><path class="cls-1" d="M438.12,137.58a2.67,2.67,0,0,1-2.6,2.61H381.75C383.14,153.41,391,163,406.46,163c9.92,0,15.31-3.82,19.66-7.48,1-.87,1.91-1.22,3.13,0l3.13,5.22c1.05,1.22,1.05,1.92,0,3-5.56,5.74-15.83,10.09-27.14,10.09-22.45,0-37.93-15.83-37.93-38.1,0-22.8,15-38.28,36.89-38.28C426.29,97.39,438.12,113.05,438.12,137.58Zm-56.72-8h42.46c-.35-14.27-8.53-22.1-20.53-22.1C389.75,107.48,382.45,117.57,381.4,129.58Z"/><path class="cls-1" d="M498.75,102.78l-3.83,7.48a2.23,2.23,0,0,1-3,.87,16.58,16.58,0,0,0-8.52-2.43c-10.44,0-15.66,10.09-15.66,19.48v41.76a2.49,2.49,0,0,1-2.44,2.44H455.6a2.35,2.35,0,0,1-2.27-2.44V102.26a2.4,2.4,0,0,1,2.27-2.61h6.09c1.39,0,2.43,1.74,2.95,3.13l1.4,5.74c2.61-3.83,9.57-11.13,19.83-11.13a23.85,23.85,0,0,1,12,3A1.82,1.82,0,0,1,498.75,102.78Z"/><path class="cls-1" d="M34.69,249.31H30.51a1.42,1.42,0,0,1-1.16-.83L21,232.91H10.57v15.57a.8.8,0,0,1-.78.83h-4a.85.85,0,0,1-.84-.83v-43.3a.83.83,0,0,1,.84-.9H23.43c6,.06,11.58,4.95,11.58,14.21,0,7.79-3.86,12.42-8.49,13.64l8.75,16.28C35.53,248.93,35.21,249.31,34.69,249.31ZM10.57,227.82H21c5.15,0,8.3-2.83,8.3-9.2s-3.15-9.26-7.85-9.26H10.57Z"/><path class="cls-1" d="M66.05,236.45a1,1,0,0,1-1,1H45.2c.52,4.89,3.41,8.43,9.14,8.43a10.32,10.32,0,0,0,7.27-2.77c.38-.32.7-.45,1.15,0L63.92,245c.39.45.39.71,0,1.1a14.41,14.41,0,0,1-10,3.73c-8.3,0-14-5.86-14-14.09,0-8.43,5.53-14.16,13.64-14.16S66.05,227.37,66.05,236.45Zm-21-3h15.7c-.13-5.28-3.15-8.18-7.59-8.18C48.16,225.31,45.46,229.05,45.07,233.49Z"/><path class="cls-1" d="M96.54,223.38v27.28c0,7.72-5.22,12.16-13.07,12.16-6,0-9.71-2.76-11.45-6-.25-.51-.19-.77.13-1l2.19-1.8a.65.65,0,0,1,1,.26c1.22,2.18,3.28,4.31,7.72,4.31,5.21,0,8.36-3,8.36-8l-.06-4.25c-1.8,2.38-4.51,3.54-8.24,3.54-8.81,0-12.86-6.44-12.86-14,0-7.85,4.31-14.29,12.86-14.29,4.06,0,6.82,1.55,8.37,3.61l.45-1.74c.19-.71.58-1,1-1h2.76A.88.88,0,0,1,96.54,223.38Zm-5,12.49c0-5.86-1.35-10-7.46-10s-8.62,4.76-8.62,9.91,2.51,9.84,8.68,9.84S91.58,242,91.58,235.87Z"/><path class="cls-1" d="M103.42,212.32a3.16,3.16,0,1,1,6.31,0,3.16,3.16,0,0,1-6.31,0Zm.45,36.16V223a.92.92,0,0,1,.9-.9h3.6a.88.88,0,0,1,.91.9v25.48a.87.87,0,0,1-.91.83h-3.6A.9.9,0,0,1,103.87,248.48Z"/><path class="cls-1" d="M115.16,246.35c-.38-.45-.45-.83-.19-1.22l1.22-2a.75.75,0,0,1,1.22-.13,12.66,12.66,0,0,0,7.85,2.83c3.48,0,5.47-1.48,5.47-4,0-2.12-1.48-3.22-5.85-4.38-6.95-1.73-9.27-3.79-9.27-8,0-4.76,3.93-7.92,10-7.92a15.28,15.28,0,0,1,8.3,2.32c.58.32.71.71.52,1.16l-1.29,2.25a.79.79,0,0,1-1.16.26,10,10,0,0,0-6-2c-3.28,0-5.15,1.29-5.15,3.54,0,2,1.16,3.15,5.22,4.25,7.52,2,9.9,3.92,9.9,8.1,0,5-4.24,8.37-10.61,8.37C121,249.83,117.29,248.48,115.16,246.35Z"/><path class="cls-1" d="M157.6,247.06a10.57,10.57,0,0,1-7.59,2.7c-5.15,0-7.08-3.6-7.21-8.49v-14.8H140a.88.88,0,0,1-.9-.9V223a.88.88,0,0,1,.9-.9h2.77v-6.82a.88.88,0,0,1,.9-.9h3.6a.87.87,0,0,1,.84.9v6.82H155a.93.93,0,0,1,1,.9v2.57a.93.93,0,0,1-1,.9h-6.82v14.61c0,3,1.22,4.31,3.28,4.31a5.12,5.12,0,0,0,4.12-1.87.65.65,0,0,1,1.09.07l1.16,2.38A.84.84,0,0,1,157.6,247.06Z"/><path class="cls-1" d="M179.38,223.58,178,226.34a.83.83,0,0,1-1.1.33,6.09,6.09,0,0,0-3.15-.91c-3.86,0-5.79,3.74-5.79,7.21v15.44a.92.92,0,0,1-.9.9h-3.6a.87.87,0,0,1-.84-.9v-25a.89.89,0,0,1,.84-1h2.25c.51,0,.9.64,1.09,1.16l.52,2.12a9.3,9.3,0,0,1,7.33-4.12,8.76,8.76,0,0,1,4.44,1.1A.66.66,0,0,1,179.38,223.58Z"/><path class="cls-1" d="M211.51,223.45l-18.66,36.74a.88.88,0,0,1-.77.51h-3.54c-.58,0-1-.58-.58-1.35L194.65,246,183,223.45a.88.88,0,0,1,.7-1.35h3.54c.52,0,.77.32,1.1,1l8.94,17.82,9.33-18.2a.85.85,0,0,1,.83-.58h3.41C211.44,222.1,211.83,222.68,211.51,223.45Z"/><path class="cls-1" d="M230.94,235.8c0-7.85,5.53-14.22,13.9-14.22s13.64,6.37,13.64,14.22-5.41,14-13.64,14S230.94,243.52,230.94,235.8Zm22.32,0c0-5.27-3.08-10-8.42-10-5.54,0-8.75,4.7-8.69,10s3.15,9.78,8.69,9.78C250.18,245.58,253.26,241,253.26,235.8Z"/><path class="cls-1" d="M282.44,205.5c.7.51.57,1,.38,1.29L281.28,209a.83.83,0,0,1-1.16.32,6.62,6.62,0,0,0-3.8-1.15c-4,0-5.47,2.25-5.47,7.46v6.5H278a.88.88,0,0,1,.9.9v2.57a.92.92,0,0,1-.9.9h-7.15v21.94a.82.82,0,0,1-.83.9h-3.67a.87.87,0,0,1-.84-.9V226.47h-3.08a.91.91,0,0,1-.84-.9V223a.87.87,0,0,1,.84-.9h3.08v-6.95c.13-8.62,4.19-11.39,10-11.39C278.45,203.76,281.08,204.47,282.44,205.5Z"/><path class="cls-1" d="M340,205.18v43.3a.76.76,0,0,1-.77.83h-3.34a1.56,1.56,0,0,1-1.29-.83l-24.38-33.65v33.65c0,.51-.26.83-.71.83h-4.12a.78.78,0,0,1-.84-.83v-43.3a.87.87,0,0,1,.84-.9h3.47a1.66,1.66,0,0,1,1.29,1l24.19,33.39V205.18c0-.52.26-.9.71-.9h4.18A.81.81,0,0,1,340,205.18Z"/><path class="cls-1" d="M347,235.8c0-7.85,5.54-14.22,13.9-14.22s13.64,6.37,13.64,14.22-5.4,14-13.64,14S347,243.52,347,235.8Zm22.33,0c0-5.27-3.09-10-8.43-10-5.53,0-8.75,4.7-8.69,10s3.16,9.78,8.69,9.78C366.23,245.58,369.32,241,369.32,235.8Z"/><path class="cls-1" d="M397,223.58l-1.42,2.76a.82.82,0,0,1-1.09.33,6.09,6.09,0,0,0-3.15-.91c-3.86,0-5.79,3.74-5.79,7.21v15.44a.92.92,0,0,1-.91.9H381a.86.86,0,0,1-.83-.9v-25a.88.88,0,0,1,.83-1h2.25c.52,0,.9.64,1.1,1.16l.51,2.12a9.32,9.32,0,0,1,7.34-4.12,8.79,8.79,0,0,1,4.44,1.1A.66.66,0,0,1,397,223.58Z"/><path class="cls-1" d="M437.6,223.45,429,248.67a.86.86,0,0,1-.84.64H426a.76.76,0,0,1-.78-.64l-6-18.92-6,19a.7.7,0,0,1-.77.58h-2.19a.83.83,0,0,1-.83-.58l-8.69-25.28c-.19-.58-.06-1.35.71-1.35H405a.94.94,0,0,1,1,.64l5.59,18.14,5.86-18.14a.81.81,0,0,1,.77-.64h2a.82.82,0,0,1,.77.64l5.85,18.14,5.54-18.14a.93.93,0,0,1,1-.64H437C437.73,222.1,437.86,222.87,437.6,223.45Z"/><path class="cls-1" d="M466.52,223.38v25a.9.9,0,0,1-.83.9h-2.51c-.52,0-.9-.32-1.1-1l-.45-2.57c-1,1.74-3.28,4-8.1,4.12-9.08.13-13.13-6.5-13.13-14s4.12-14.22,13.25-14.22a10.49,10.49,0,0,1,8,3.22l.39-1.35c.26-.71.64-1,1.09-1h2.58A.88.88,0,0,1,466.52,223.38Zm-5.08,12.23c0-7.91-3.22-9.78-7.14-9.78-6.37,0-8.69,5.08-8.69,10s2.32,9.78,8.43,9.78C458.41,245.58,461.44,243.26,461.44,235.61Z"/><path class="cls-1" d="M499.66,223.45,481,260.19a.88.88,0,0,1-.77.51h-3.54c-.58,0-1-.58-.58-1.35L482.8,246l-11.64-22.58a.88.88,0,0,1,.7-1.35h3.54c.52,0,.77.32,1.09,1l8.95,17.82,9.33-18.2a.85.85,0,0,1,.83-.58H499C499.59,222.1,500,222.68,499.66,223.45Z"/></g></g></svg>